<?xml version="1.0" encoding="utf-8"?>
<!-- Generator: Adobe Illustrator 22.0.1, SVG Export Plug-In . SVG Version: 6.00 Build 0)  -->
<svg version="1.1" id="Capa_1" xmlns="http://www.w3.org/2000/svg" xmlns:xlink="http://www.w3.org/1999/xlink" x="0px" y="0px"
	 viewBox="0 0 38.4 35.2" style="enable-background:new 0 0 38.4 35.2;" xml:space="preserve">
<style type="text/css">
	.st0{fill:#FFFFFF;}
	.st1{fill:#ECB62B;}
</style>
<title>checkmark</title>
<rect y="3.1" class="st0" width="32.1" height="32.1"/>
<g>
	<rect x="0" y="3.1" class="st1" width="32.1" height="32.1"/>
	<path d="M16.5,20c1.8-3.2,3.9-6.2,6.2-9C26,6.9,29.8,3.3,34.2,0.5C35.6-0.4,37.2,0,38,1.2c0.7,1.2,0.4,2.7-0.7,3.5
		C31,8.8,26.2,14.3,22.2,20.7c-1,1.6-1.9,3.4-2.8,5.1c-1,2-3.3,2.3-4.7,0.5c-2.4-3-4.7-6.1-7-9.2c-0.9-1.2-0.7-2.8,0.4-3.7
		c1.2-0.9,2.7-0.7,3.7,0.5c1.5,1.9,2.9,3.8,4.3,5.7C16.3,19.7,16.4,19.8,16.5,20z"/>
</g>
</svg>
