<svg id="Capa_1" data-name="Capa 1" xmlns="http://www.w3.org/2000/svg" viewBox="0 0 38.37 35.16"><defs><style>.cls-1{fill:#fff;}</style></defs><title>checkmark</title><rect class="cls-1" y="3.1" width="32.06" height="32.06"/><path d="M372.32,669.71a62.48,62.48,0,0,1,6.18-9A51,51,0,0,1,390,650.2a2.6,2.6,0,0,1,3.74.77,2.56,2.56,0,0,1-.71,3.47A50.36,50.36,0,0,0,378,670.39c-1,1.63-1.9,3.37-2.77,5.1a2.63,2.63,0,0,1-4.66.53q-3.52-4.56-7-9.16a2.58,2.58,0,0,1,.42-3.7,2.54,2.54,0,0,1,3.69.49c1.46,1.88,2.89,3.78,4.33,5.68C372.08,669.44,372.18,669.55,372.32,669.71Z" transform="translate(-355.8 -649.72)"/></svg>