<?xml version="1.0" encoding="utf-8"?>
<!-- Generator: Adobe Illustrator 22.0.1, SVG Export Plug-In . SVG Version: 6.00 Build 0)  -->
<svg version="1.1" id="Capa_1" xmlns="http://www.w3.org/2000/svg" xmlns:xlink="http://www.w3.org/1999/xlink" x="0px" y="0px"
	 viewBox="0 0 151.6 151.9" style="enable-background:new 0 0 151.6 151.9;" xml:space="preserve">
<style type="text/css">
	.st0{fill:#E5B235;}
	.st1{fill:#FDFBFA;}
	.st2{fill:#FFFFFF;}
</style>
<path class="st0" d="M132.6,123.5H19.4V70.8h23.4L76,37.5l33.2,33.2h23.4V123.5z M132.6,123.5"/>
<rect x="64.3" y="100.1" class="st1" width="23.4" height="23.4"/>
<path class="st1" d="M87.2,92.2H64.8c-0.3,0-0.5,0.2-0.5,0.5v7.3h23.4v-7.3C87.7,92.5,87.5,92.2,87.2,92.2L87.2,92.2z M87.2,92.2"/>
<path class="st0" d="M94,21.9l3.2-4.8c0.4-0.6,0.4-1.4,0.1-2c-0.3-0.6-1-1-1.7-1H76.1c-1.1,0-2,0.9-2,2v11.7c0,1.1,0.9,2,2,2h19.5
	c0.7,0,1.4-0.4,1.7-1c0.3-0.6,0.3-1.4-0.1-2L94,21.9z M94,21.9"/>
<path class="st2" d="M76.1,39.5c-1.1,0-2-0.9-2-2V12.2c0-1.1,0.9-2,2-2c1.1,0,2,0.9,2,2v25.4C78,38.6,77.1,39.5,76.1,39.5L76.1,39.5
	z M76.1,39.5"/>
<path class="st2" d="M84,46.6c0.3-0.7,1-1.2,1.8-1.2h37.1c0.7,0,1.3,0.3,1.6,0.9l13.7,21.5c0.4,0.6,0.4,1.4,0.1,2
	c-0.3,0.6-1,1-1.7,1h-29.3c-0.5,0-1-0.2-1.4-0.6L84.4,48.7C83.8,48.1,83.7,47.3,84,46.6L84,46.6z M84,46.6"/>
<path class="st2" d="M68.1,46.6c-0.3-0.7-1-1.2-1.8-1.2H29.2c-0.7,0-1.3,0.3-1.6,0.9L13.9,67.8c-0.4,0.6-0.4,1.4-0.1,2
	c0.3,0.6,1,1,1.7,1h29.3c0.5,0,1-0.2,1.4-0.6l21.5-21.5C68.2,48.1,68.4,47.3,68.1,46.6L68.1,46.6z M68.1,46.6"/>
<path class="st1" d="M109.2,72.7c-0.5,0-1-0.2-1.4-0.6L76.1,40.3L44.3,72.1c-0.8,0.8-2,0.8-2.8,0c-0.8-0.8-0.8-2,0-2.8l33.2-33.2
	c0.8-0.8,2-0.8,2.8,0l33.2,33.2c0.8,0.8,0.8,2,0,2.8C110.2,72.5,109.7,72.7,109.2,72.7L109.2,72.7z M109.2,72.7"/>
<path class="st1" d="M105.3,83.4c0-2.7-2.2-4.9-4.9-4.9c-2.7,0-4.9,2.2-4.9,4.9c0,0.3,0,0.7,0.1,1h-0.1v7.8h9.8v-7.8h-0.1
	C105.3,84.1,105.3,83.8,105.3,83.4L105.3,83.4z M105.3,83.4"/>
<rect x="46.8" y="102" class="st1" width="9.8" height="11.7"/>
<rect x="29.1" y="102" class="st1" width="9.8" height="11.7"/>
<rect x="113.2" y="102" class="st1" width="9.8" height="11.7"/>
<rect x="95.5" y="102" class="st1" width="9.8" height="11.7"/>
<path class="st1" d="M122.8,83.4c0-2.7-2.2-4.9-4.9-4.9c-2.7,0-4.9,2.2-4.9,4.9c0,0.3,0,0.7,0.1,1h-0.1v7.8h9.8v-7.8h-0.1
	C122.8,84.1,122.8,83.8,122.8,83.4L122.8,83.4z M122.8,83.4"/>
<path class="st1" d="M38.8,83.4c0-2.7-2.2-4.9-4.9-4.9c-2.7,0-4.9,2.2-4.9,4.9c0,0.3,0,0.7,0.1,1h-0.1v7.8h9.8v-7.8h-0.1
	C38.8,84.1,38.8,83.8,38.8,83.4L38.8,83.4z M38.8,83.4"/>
<path class="st1" d="M56.4,83.4c0-2.7-2.2-4.9-4.9-4.9c-2.7,0-4.9,2.2-4.9,4.9c0,0.3,0,0.7,0.1,1h-0.1v7.8h9.8v-7.8h-0.1
	C56.3,84.1,56.4,83.8,56.4,83.4L56.4,83.4z M56.4,83.4"/>
<path d="M76.1,84.4c-7.5,0-13.7-6.1-13.7-13.7c0-7.5,6.1-13.7,13.7-13.7s13.7,6.1,13.7,13.7C89.7,78.3,83.6,84.4,76.1,84.4
	L76.1,84.4z M76.1,61c-5.4,0-9.8,4.4-9.8,9.8c0,5.4,4.4,9.8,9.8,9.8c5.4,0,9.8-4.4,9.8-9.8C85.8,65.4,81.4,61,76.1,61L76.1,61z
	 M76.1,61"/>
<path d="M83.9,90.3H68.2c-3.2,0-5.9,2.6-5.9,5.9v27.3c0,1.1,0.9,2,2,2c1.1,0,2-0.9,2-2V102h7.8v21.5H78V102h7.9v21.5
	c0,1.1,0.9,2,2,2c1.1,0,2-0.9,2-2V96.1C89.7,92.9,87.1,90.3,83.9,90.3L83.9,90.3z M85.8,98.1H66.3v-2c0-1.1,0.9-2,2-2h15.6
	c1.1,0,2,0.9,2,2V98.1z M85.8,98.1"/>
<path class="st1" d="M76.1,61c-5.4,0-9.8,4.4-9.8,9.8c0,5.4,4.4,9.8,9.8,9.8c5.4,0,9.8-4.4,9.8-9.8C85.8,65.4,81.4,61,76.1,61
	L76.1,61z"/>
<g>
</g>
<g>
</g>
<g>
</g>
<g>
</g>
<g>
</g>
<g>
</g>
<g>
</g>
<g>
</g>
<g>
</g>
<g>
</g>
<g>
</g>
<g>
</g>
<g>
</g>
<g>
</g>
<g>
</g>
</svg>
