<?xml version="1.0" encoding="utf-8"?>
<!-- Generator: Adobe Illustrator 22.0.1, SVG Export Plug-In . SVG Version: 6.00 Build 0)  -->
<svg version="1.1" id="Capa_1" xmlns="http://www.w3.org/2000/svg" xmlns:xlink="http://www.w3.org/1999/xlink" x="0px" y="0px"
	 viewBox="0 0 49.6 116.9" style="enable-background:new 0 0 49.6 116.9;" xml:space="preserve">
<style type="text/css">
	.st0{fill-rule:evenodd;clip-rule:evenodd;fill:#E5B233;}
</style>
<rect x="-32.3" y="32.3" transform="matrix(6.123234e-17 -1 1 6.123234e-17 -31.8258 86.1785)" class="st0" width="118.9" height="53.4"/>
<g>
	<path d="M12.7,85.8L12.7,85.8L16,90c0.2,0.3,0.1,0.5-0.3,0.5H14c-0.3,0-0.5-0.1-0.7-0.4l-3.4-4.2c-0.2-0.2-0.3-0.4-0.3-0.7v-1.3
		c0-0.3,0.2-0.5,0.5-0.5h31.7c0.3,0,0.5,0.2,0.5,0.5v1.4c0,0.3-0.2,0.5-0.5,0.5H12.7z"/>
	<path d="M27.9,65.6L27.9,65.6c0.3,0.5,0.6,1.5,0.6,2.6c0,2.9-1.4,4.7-3.9,5.5c-0.9,0.3-1.9,0.4-5.7,0.4c-3.9,0-4.7-0.1-5.6-0.4
		c-2.5-0.8-4-2.8-4-5.8c0-3,1.4-4.9,4-5.8c0.9-0.3,1.7-0.4,5.6-0.4c5,0,6.1,0.2,9.3,1.5l13.7,5.3c0.3,0.1,0.4,0.2,0.4,0.6v1.6
		c0,0.3-0.1,0.4-0.5,0.3L27.9,65.6z M23.8,64.4c-0.6-0.2-1.2-0.3-4.9-0.3c-3.7,0-4.3,0.1-4.9,0.3c-1.5,0.5-2.4,1.7-2.4,3.5
		c0,1.8,0.9,3,2.4,3.5c0.6,0.2,1.2,0.3,4.9,0.3c3.7,0,4.3-0.1,4.9-0.3c1.5-0.5,2.4-1.7,2.4-3.5C26.2,66.1,25.3,64.9,23.8,64.4z"/>
	<path d="M33.3,56.3c-3.5,0-4.2-0.1-5.1-0.4c-1.5-0.5-2.4-1.4-3-2.4h0c-0.6,1.1-1.6,1.9-3,2.4c-0.9,0.3-1.8,0.4-4.4,0.4
		c-2.8,0-3.7-0.1-4.6-0.4c-2.5-0.8-4-2.8-4-5.8c0-3,1.4-4.9,4-5.8c0.9-0.3,1.7-0.4,4.6-0.4c2.6,0,3.5,0.1,4.4,0.4
		c1.4,0.4,2.4,1.3,3,2.4h0c0.6-1,1.5-1.9,3-2.4c0.9-0.3,1.7-0.4,5.1-0.4c3.6,0,4.4,0.1,5.3,0.4c2.5,0.8,4,2.8,4,5.8c0,3-1.4,5-4,5.8
		C37.8,56.2,36.9,56.3,33.3,56.3z M21.6,46.6c-0.6-0.2-1.2-0.3-3.8-0.3c-2.6,0-3.3,0.1-3.9,0.3c-1.5,0.5-2.4,1.7-2.4,3.5
		c0,1.8,0.9,3,2.4,3.5c0.6,0.2,1.2,0.3,3.9,0.3c2.6,0,3.2-0.1,3.8-0.3c1.5-0.5,2.4-1.7,2.4-3.5C24,48.3,23.2,47.1,21.6,46.6z
		 M40.4,50.1c0-1.8-0.9-3-2.4-3.5c-0.6-0.2-1.2-0.3-4.7-0.3c-3.4,0-4,0.1-4.6,0.3c-1.6,0.5-2.4,1.7-2.4,3.5c0,1.8,0.9,3,2.4,3.5
		c0.6,0.2,1.2,0.3,4.6,0.3c3.5,0,4-0.1,4.7-0.3C39.5,53.1,40.4,51.9,40.4,50.1z"/>
	<path d="M12.7,32.3L12.7,32.3l3.3,4.2c0.2,0.3,0.1,0.5-0.3,0.5H14c-0.3,0-0.5-0.1-0.7-0.4l-3.4-4.2c-0.2-0.2-0.3-0.4-0.3-0.7v-1.3
		c0-0.3,0.2-0.5,0.5-0.5h31.7c0.3,0,0.5,0.2,0.5,0.5v1.4c0,0.3-0.2,0.5-0.5,0.5H12.7z"/>
</g>
<g>
</g>
<g>
</g>
<g>
</g>
<g>
</g>
<g>
</g>
<g>
</g>
<g>
</g>
<g>
</g>
<g>
</g>
<g>
</g>
<g>
</g>
<g>
</g>
<g>
</g>
<g>
</g>
<g>
</g>
</svg>
