<?xml version="1.0" encoding="utf-8"?>
<!-- Generator: Adobe Illustrator 22.0.1, SVG Export Plug-In . SVG Version: 6.00 Build 0)  -->
<svg version="1.1" id="Capa_1" xmlns="http://www.w3.org/2000/svg" xmlns:xlink="http://www.w3.org/1999/xlink" x="0px" y="0px"
	 viewBox="0 0 462 46" style="enable-background:new 0 0 462 46;" xml:space="preserve">
<style type="text/css">
	.st0{fill:none;stroke:#E5B235;stroke-width:5;stroke-miterlimit:10;}
</style>
<g>
	<path class="st0" d="M459.7,30.1c-9.9,0-9.9-8.7-19.8-8.7c-9.9,0-9.9,8.7-19.8,8.7c-9.9,0-9.9-8.7-19.8-8.7
		c-9.9,0-9.9,8.7-19.8,8.7c-9.9,0-9.9-8.7-19.8-8.7c-9.9,0-9.9,8.7-19.8,8.7c-9.9,0-9.9-8.7-19.8-8.7c-9.9,0-9.9,8.7-19.8,8.7
		c-9.9,0-9.9-8.7-19.8-8.7c-9.9,0-9.9,8.7-19.8,8.7c-9.9,0-9.9-8.7-19.8-8.7"/>
</g>
<g>
	<path class="st0" d="M260.7,30.1c-9.9,0-9.9-8.7-19.8-8.7c-9.9,0-9.9,8.7-19.8,8.7c-9.9,0-9.9-8.7-19.8-8.7
		c-9.9,0-9.9,8.7-19.8,8.7c-9.9,0-9.9-8.7-19.8-8.7c-9.9,0-9.9,8.7-19.8,8.7c-9.9,0-9.9-8.7-19.8-8.7c-9.9,0-9.9,8.7-19.8,8.7
		c-9.9,0-9.9-8.7-19.8-8.7c-9.9,0-9.9,8.7-19.8,8.7c-9.9,0-9.9-8.7-19.8-8.7"/>
</g>
<g>
	<path class="st0" d="M220.7,30.1c-9.9,0-9.9-8.7-19.8-8.7c-9.9,0-9.9,8.7-19.8,8.7c-9.9,0-9.9-8.7-19.8-8.7
		c-9.9,0-9.9,8.7-19.8,8.7c-9.9,0-9.9-8.7-19.8-8.7c-9.9,0-9.9,8.7-19.8,8.7c-9.9,0-9.9-8.7-19.8-8.7c-9.9,0-9.9,8.7-19.8,8.7
		c-9.9,0-9.9-8.7-19.8-8.7c-9.9,0-9.9,8.7-19.8,8.7c-9.9,0-9.9-8.7-19.8-8.7"/>
</g>
<g>
</g>
<g>
</g>
<g>
</g>
<g>
</g>
<g>
</g>
<g>
</g>
<g>
</g>
<g>
</g>
<g>
</g>
<g>
</g>
<g>
</g>
<g>
</g>
<g>
</g>
<g>
</g>
<g>
</g>
</svg>
