<?xml version="1.0" encoding="utf-8"?>
<!-- Generator: Adobe Illustrator 22.0.1, SVG Export Plug-In . SVG Version: 6.00 Build 0)  -->
<svg version="1.1" id="Capa_1" xmlns="http://www.w3.org/2000/svg" xmlns:xlink="http://www.w3.org/1999/xlink" x="0px" y="0px"
	 viewBox="0 0 981.8 382.5" style="enable-background:new 0 0 981.8 382.5;" xml:space="preserve">
<style type="text/css">
	.st0{fill-rule:evenodd;clip-rule:evenodd;fill:#FFFFFF;}
	.st1{fill-rule:evenodd;clip-rule:evenodd;fill:#E7B43F;}
	.st2{fill:#FFFFFF;}
	.st3{fill:#E7B43F;}
</style>
<g>
	<path class="st0" d="M101.6,94.2l0,100.1c0,2-0.1,14.4-1.4,17.3c-3.4,7.3-19.1,8.8-25.5,9.5l-1,0.1l-0.2-1l0-0.1l0-0.1l0-0.1l0-0.1
		l0-0.1l0-0.1l0-0.1l0-0.1l0-0.1l0-0.1l0-0.1l0-0.1l0-0.1l0-0.1l0-0.1l0-0.1l0-0.1l0-0.1l0-0.1l0-0.1l0-0.1l0-0.1l0-0.1l0-0.1l0-0.1
		l0-0.1l0-0.1l0-0.1l0-0.1l0-0.1l0-0.1l0-0.1l0-0.1l0-0.1l0-0.1l0-0.1l0-0.1l0-0.1l0-0.1l0-0.1l0-0.1l0-0.1l0-0.1l0-0.1l0-0.1l0-0.1
		l0-0.1l0-0.1l0-0.1l0-0.1l0-0.1l0-0.1l0-0.1l0-0.1l0-0.1l0-0.1l0-0.1l0-0.1l0-0.1l0-0.1l0-0.1l0-0.1l0-0.1l0-0.1l0-0.1l0-0.1l0-0.1
		l0-0.1l0-0.2l0-0.2l0-0.2l0-0.2l0-0.2l0-0.2l0-0.2l0-0.2l0-0.2l0-0.2l0-0.2l0-0.2l0-0.2l0-0.2l0-0.2l0-0.2l0-0.2l0-0.2l0-0.2l0-0.2
		l0-0.2l0-0.2l0-0.3l0-0.3l0-0.3l0-0.3l0-0.4l0-0.4l0-0.4l0-0.4l0-0.4l0-0.4l0-0.4l0-0.4l0-0.4l0-0.4l0-0.4l0-0.4l0-0.4l0-0.4l0-0.4
		l0-0.4l0-0.3l0-0.3l0-0.3l0-0.3l0-0.3l0-0.3l0-0.3l0-0.3l0-0.3l0-0.3l0-0.3l0-0.3l0-0.3l0-0.3l0-0.3l0-0.3l0-0.3l0-0.3l0-0.3l0-0.3
		l0-0.3l0-0.3l0-0.3l0-0.3l0-0.3l0-0.3l0-0.3l0-0.1l0-0.1l0-0.1l0-0.1V195l0-0.1v-0.1v-0.1l0-0.1v-0.1v-72l0-26.7l-55.5,0.1l0-1.1
		l0-3.5l0-1.7l0-1.7l0-1.7l0-1.7l0-1.7l0-1.7l0-1.7l0-1.7l0-1.7l0-1.7l0-1.7l0-1.7l0-1.7l0-1.7l0-1.1h85.1L101.6,94.2z"/>
	<rect x="16.1" y="10.2" class="st0" width="196.4" height="30"/>
	<polygon class="st1" points="157,122.3 157,194.3 157,194.5 157,194.7 157,194.9 157,195.1 157,195.3 157,195.5 157,195.7 
		157,195.9 157,196.1 157,196.3 157,196.6 157,196.8 157,197 157,197.2 157,197.4 157,197.6 157,197.8 157,198 157,198.2 157,198.4 
		157,198.6 156.9,198.8 156.9,199 156.9,199.2 156.9,199.4 156.9,199.6 156.9,199.8 156.9,200 156.9,200.4 156.9,200.9 156.9,201.2 
		156.9,201.5 156.8,201.8 156.8,202.1 156.8,202.4 156.8,202.7 156.8,203 156.8,203.4 156.8,203.7 156.7,204 156.7,204.3 
		156.7,204.6 156.7,204.9 156.7,205.2 156.7,205.5 156.6,205.8 156.6,206.2 156.6,206.5 156.6,206.8 156.6,207.1 156.5,207.4 
		156.5,207.7 156.5,208 156.5,208.3 156.5,208.7 156.4,209 156.4,209.3 156.4,209.6 156.4,209.9 156.4,210.2 156.3,210.5 
		156.3,210.8 156.3,211.1 156.3,211.4 156.2,211.6 156.2,211.9 156.2,212.2 156.2,212.3 156.2,212.4 156.2,212.6 156.1,212.7 
		156.1,212.8 156.1,213 156.1,213.1 156.1,213.2 156.1,213.4 156.1,213.5 156.1,213.6 156,213.8 156,213.9 156,214 156,214.2 
		156,214.3 156,214.4 156,214.6 156,214.7 155.9,214.8 155.9,215 155.9,215.1 155.9,215.2 155.9,215.4 155.9,215.5 155.9,215.6 
		155.8,215.7 155.8,215.9 155.8,216 155.8,216.1 155.8,216.3 155.8,216.3 155.8,216.4 155.7,216.5 155.7,216.5 155.7,216.6 
		155.7,216.7 155.7,216.7 155.7,216.8 155.7,216.9 155.7,216.9 155.7,217 155.7,217.1 155.7,217.1 155.6,217.2 155.6,217.3 
		155.6,217.3 155.6,217.4 155.6,217.5 155.6,217.5 155.6,217.6 155.6,217.7 155.6,217.7 155.6,217.8 155.6,217.9 155.5,217.9 
		155.5,218 155.5,218.1 155.5,218.1 155.5,218.2 155.5,218.3 155.5,218.3 155.5,218.4 155.5,218.5 155.5,218.5 155.4,218.6 
		155.4,218.6 155.4,218.7 155.4,218.8 155.4,218.8 155.4,218.9 155.4,219 155.4,219 155.4,219.1 155.3,219.2 155.3,219.2 
		155.3,219.3 155.3,219.4 155.3,219.4 155.3,219.5 155.3,219.5 155.3,219.6 155.3,219.6 155.2,219.7 155.2,219.8 155.2,219.8 
		155.2,219.9 155.2,219.9 155.2,220 155.2,220 155.2,220.1 155.2,220.2 155.2,220.2 155.1,220.3 155.1,220.3 155.1,220.4 
		155.1,220.4 155.1,220.5 155.1,220.6 155.1,220.6 155.1,220.7 155.1,220.7 155,220.8 155,220.8 155,220.9 155,220.9 155,221 
		155,221.1 155,221.1 155,221.2 154.9,221.2 154.9,221.3 154.9,221.5 154.9,221.6 154.9,221.7 154.8,221.8 154.8,221.9 154.8,222 
		154.8,222.1 154.7,222.2 154.7,222.4 154.7,222.5 154.6,222.6 154.6,222.7 154.6,222.8 154.6,222.9 154.5,223 154.5,223.1 
		154.5,223.3 154.5,223.4 154.4,223.5 154.4,223.6 154.4,223.7 154.4,223.8 154.3,223.9 154.3,224 154.3,224.2 154.2,224.3 
		154.2,224.4 154.2,224.5 154.2,224.6 154.1,224.7 154.1,224.8 154.1,224.9 154,225.1 154,225.2 154,225.3 154,225.4 153.9,225.5 
		153.9,225.6 153.9,225.7 153.8,225.8 153.8,225.9 153.8,226.1 153.7,226.2 153.7,226.3 153.7,226.5 153.6,226.6 153.6,226.8 
		153.5,226.9 153.5,227 153.5,227.2 153.4,227.3 153.4,227.4 153.4,227.6 153.3,227.7 153.3,227.8 153.2,228 153.2,228.1 
		153.2,228.2 153.1,228.4 153.1,228.5 153.1,228.6 153,228.8 153,228.9 152.9,229 152.9,229.2 152.9,229.3 152.8,229.4 152.8,229.6 
		152.7,229.7 152.7,229.7 152.7,229.8 152.7,229.9 152.7,229.9 152.6,230 152.6,230.1 152.6,230.1 152.6,230.2 152.5,230.3 
		152.5,230.3 152.5,230.4 152.5,230.5 152.5,230.5 152.4,230.6 152.4,230.7 152.4,230.7 152.4,230.8 152.4,230.9 152.3,230.9 
		152.3,231 152.3,231.1 152.3,231.1 152.3,231.2 152.2,231.3 152.2,231.3 152.2,231.4 152.2,231.5 152.1,231.5 152.1,231.6 
		152.1,231.6 152.1,231.7 152.1,231.8 152,231.8 152,231.9 152,232 152,232 151.9,232.1 151.9,232.2 151.9,232.2 151.9,232.3 
		151.8,232.4 151.8,232.4 151.8,232.5 151.8,232.6 151.8,232.6 151.7,232.7 151.7,232.8 151.7,232.8 151.7,232.9 151.6,232.9 
		151.6,233 151.6,233.1 151.6,233.1 151.5,233.2 151.5,233.3 151.5,233.3 151.5,233.4 151.4,233.5 151.4,233.5 151.4,233.6 
		151.4,233.7 151.3,233.7 151.3,233.8 151.3,233.9 151.3,233.9 151.2,234 151.2,234 151.2,234.1 151.2,234.2 151.1,234.2 
		151.1,234.3 151.1,234.4 151.1,234.4 151,234.5 151,234.6 151,234.6 151,234.7 150.9,234.7 150.9,234.8 150.9,234.9 150.9,234.9 
		150.8,235 150.8,235 150.8,235.1 150.8,235.2 150.7,235.2 150.7,235.3 150.7,235.3 150.7,235.4 150.6,235.5 150.6,235.5 
		150.6,235.6 150.6,235.6 150.5,235.7 150.5,235.8 150.5,235.8 150.5,235.9 150.4,235.9 150.4,236 150.4,236 150.3,236.1 
		150.3,236.2 150.3,236.2 150.3,236.3 150.2,236.3 150.2,236.4 150.2,236.5 150.2,236.5 150.1,236.6 150.1,236.6 150.1,236.7 
		150.1,236.7 150,236.8 150,236.9 150,236.9 149.9,237 149.9,237 149.9,237.1 149.9,237.2 149.8,237.2 149.8,237.3 149.8,237.3 
		149.8,237.4 149.7,237.4 149.7,237.5 149.7,237.6 149.6,237.6 149.6,237.7 149.6,237.7 149.6,237.8 149.5,237.8 149.5,237.9 
		149.5,238 149.4,238 149.4,238.1 149.4,238.1 149.4,238.2 149.3,238.2 149.3,238.3 149.3,238.4 149.2,238.4 149.2,238.5 
		149.2,238.5 149.1,238.6 149.1,238.6 149.1,238.7 149.1,238.8 149,238.8 149,238.9 149,238.9 148.9,239 148.9,239 148.9,239.1 
		148.8,239.2 148.8,239.2 148.8,239.3 148.8,239.3 148.7,239.4 148.7,239.4 148.7,239.5 148.6,239.5 148.6,239.6 148.6,239.7 
		148.5,239.7 148.5,239.8 148.5,239.8 148.4,239.9 148.4,239.9 148.4,240 148.3,240 148.3,240.1 148.3,240.2 148.3,240.2 
		148.2,240.3 148.2,240.3 148.2,240.4 148.1,240.4 148.1,240.5 148.1,240.6 148,240.6 148,240.7 148,240.7 147.9,240.8 147.9,240.8 
		147.9,240.9 147.8,240.9 147.8,241 147.8,241 147.7,241.1 147.7,241.2 147.7,241.2 147.6,241.3 147.6,241.3 147.6,241.4 
		147.5,241.4 147.5,241.5 147.5,241.5 147.4,241.6 147.4,241.7 147.4,241.7 147.3,241.8 147.3,241.8 147.3,241.9 147.2,241.9 
		147.2,242 147.2,242 147.1,242.1 147.1,242.1 147.1,242.2 147,242.2 147,242.3 147,242.3 147,242.4 146.9,242.4 146.9,242.5 
		146.9,242.5 146.8,242.6 146.8,242.6 146.8,242.7 146.7,242.7 146.7,242.8 146.7,242.8 146.6,242.9 146.6,242.9 146.6,242.9 
		146.6,243 146.5,243 146.5,243.1 146.5,243.1 146.4,243.2 146.4,243.2 146.4,243.3 146.3,243.3 146.3,243.4 146.3,243.4 
		146.2,243.5 146.2,243.5 146.2,243.6 146.1,243.6 146.1,243.7 146.1,243.7 146.1,243.7 146,243.8 146,243.8 146,243.9 145.9,243.9 
		145.9,244 145.9,244 145.8,244.1 145.8,244.1 145.8,244.2 145.7,244.2 145.7,244.3 145.7,244.3 145.6,244.3 145.6,244.4 
		145.6,244.4 145.5,244.5 145.5,244.5 145.5,244.6 145.4,244.6 145.4,244.7 145.4,244.7 145.3,244.8 145.3,244.8 145.3,244.9 
		145.2,244.9 145.2,244.9 145.2,245 145.1,245 145.1,245.1 145.1,245.1 145,245.2 145,245.2 145,245.3 144.9,245.3 144.9,245.4 
		144.9,245.4 144.8,245.4 144.8,245.5 144.8,245.5 144.7,245.6 144.7,245.6 144.7,245.7 144.6,245.7 144.6,245.8 144.6,245.8 
		144.5,245.9 144.5,245.9 144.5,245.9 144.4,246 144.4,246 144.4,246.1 144.3,246.1 144.3,246.2 144.3,246.2 144.2,246.3 
		144.2,246.3 144.2,246.3 144.1,246.4 144.1,246.4 144.1,246.5 144,246.5 144,246.6 144,246.6 143.9,246.7 143.9,246.7 143.9,246.7 
		143.8,246.8 143.8,246.8 143.8,246.9 143.7,246.9 143.7,247 143.6,247 143.6,247.1 143.6,247.1 143.5,247.1 143.5,247.2 
		143.5,247.2 143.4,247.3 143.4,247.3 143.4,247.4 143.3,247.4 143.3,247.5 143.3,247.5 143.2,247.5 143.2,247.6 143.2,247.6 
		143.1,247.7 143.1,247.7 143,247.8 143,247.8 143,247.8 142.9,247.9 142.9,247.9 142.9,248 142.8,248 142.8,248.1 142.8,248.1 
		142.7,248.1 142.7,248.2 142.7,248.2 142.6,248.3 142.6,248.3 142.5,248.4 142.5,248.4 142.5,248.5 142.4,248.5 142.4,248.5 
		142.4,248.6 142.3,248.6 142.3,248.7 142.2,248.7 142.2,248.8 142.2,248.8 142.1,248.8 142.1,248.9 142.1,248.9 142,249 142,249 
		142,249 141.9,249.1 141.9,249.1 141.8,249.2 141.8,249.2 141.8,249.3 141.7,249.3 141.7,249.3 141.7,249.4 141.6,249.4 
		141.6,249.5 141.5,249.5 141.5,249.6 141.5,249.6 141.4,249.6 141.4,249.7 141.4,249.7 141.3,249.8 141.3,249.8 141.2,249.9 
		141.2,249.9 141.2,249.9 141.1,250 141.1,250 141.1,250.1 141,250.1 141,250.1 140.9,250.2 140.9,250.2 140.9,250.3 140.8,250.3 
		140.8,250.4 140.8,250.4 140.7,250.4 140.7,250.5 140.6,250.5 140.6,250.6 140.6,250.6 140.5,250.6 140.5,250.7 140.4,250.7 
		140.4,250.8 140.4,250.8 140.3,250.8 140.3,250.9 140.3,250.9 140.2,251 140.2,251 140.1,251.1 140.1,251.1 140.1,251.1 140,251.2 
		140,251.2 139.9,251.3 139.9,251.3 139.9,251.3 139.8,251.4 139.7,251.5 139.6,251.6 139.5,251.7 139.5,251.7 139.4,251.8 
		139.3,251.9 139.2,252 139.2,252.1 139.1,252.1 139,252.2 138.9,252.3 138.8,252.4 138.8,252.5 138.7,252.5 138.6,252.6 
		138.5,252.7 138.4,252.8 138.4,252.9 138.3,252.9 138.2,253 138.1,253.1 138,253.2 137.9,253.3 137.9,253.3 137.8,253.4 
		137.8,253.4 137.7,253.5 137.7,253.5 137.6,253.6 137.5,253.6 137.5,253.7 137.4,253.7 137.4,253.8 137.3,253.9 137.2,253.9 
		137.2,254 137.1,254 137.1,254.1 137,254.1 137,254.2 136.9,254.2 136.8,254.3 136.8,254.3 136.7,254.4 136.7,254.5 136.6,254.5 
		136.5,254.6 136.5,254.6 136.4,254.7 136.4,254.7 136.3,254.8 136.2,254.8 136.2,254.9 136.1,254.9 136.1,255 136,255 135.9,255.1 
		135.9,255.2 135.8,255.2 135.8,255.3 135.7,255.3 135.6,255.4 135.6,255.4 135.5,255.5 135.5,255.5 135.4,255.6 135.3,255.6 
		135.3,255.7 135.2,255.7 135.2,255.8 135.1,255.8 135,255.9 135,255.9 134.9,256 134.9,256 134.8,256.1 134.7,256.1 134.7,256.2 
		134.6,256.3 134.5,256.3 134.5,256.4 134.4,256.4 134.4,256.5 134.3,256.5 134.2,256.6 134.2,256.6 134.1,256.7 134.1,256.7 
		134,256.8 133.9,256.8 133.9,256.9 133.8,256.9 133.7,257 133.7,257 133.6,257.1 133.6,257.1 133.5,257.2 133.4,257.2 133.4,257.3 
		133.3,257.3 133.2,257.4 133.2,257.4 133.1,257.5 133.1,257.5 133,257.6 132.9,257.6 132.9,257.7 132.8,257.7 132.7,257.8 
		132.7,257.8 132.6,257.9 132.6,257.9 132.5,258 132.4,258 132.4,258.1 132.3,258.1 132.2,258.2 132.2,258.2 132.1,258.3 
		132.1,258.3 132,258.4 131.9,258.4 131.9,258.5 131.8,258.5 131.7,258.6 131.7,258.6 131.6,258.6 131.5,258.7 131.5,258.7 
		131.4,258.8 131.3,258.8 131.3,258.9 131.2,258.9 131.2,259 131.1,259 131,259.1 131,259.1 130.9,259.2 130.8,259.2 130.8,259.3 
		130.7,259.3 130.6,259.4 130.6,259.4 130.5,259.5 130.4,259.5 130.4,259.6 130.3,259.6 130.2,259.6 130.2,259.7 130.1,259.7 
		130.1,259.8 130,259.8 129.9,259.9 129.9,259.9 129.8,260 129.7,260 129.7,260.1 129.6,260.1 129.5,260.2 129.5,260.2 129.4,260.2 
		129.3,260.3 129.3,260.3 129.2,260.4 129.1,260.4 129.1,260.5 129,260.5 128.9,260.6 128.9,260.6 128.8,260.7 128.7,260.7 
		128.7,260.7 128.6,260.8 128.5,260.8 128.5,260.9 128.4,260.9 128.3,261 128.3,261 128.2,261.1 128.1,261.1 128.1,261.1 128,261.2 
		127.9,261.2 127.9,261.3 127.8,261.3 127.7,261.4 127.7,261.4 127.6,261.5 127.5,261.5 127.5,261.5 127.4,261.6 127.3,261.6 
		127.3,261.7 127.2,261.7 127.1,261.8 127.1,261.8 127,261.9 126.9,261.9 126.9,261.9 126.8,262 126.7,262 126.7,262.1 126.6,262.1 
		126.5,262.2 126.5,262.2 126.4,262.2 126.3,262.3 126.3,262.3 126.2,262.4 126.1,262.4 126.1,262.4 126,262.5 125.9,262.5 
		125.8,262.6 125.8,262.6 125.7,262.7 125.6,262.7 125.6,262.7 125.5,262.8 125.4,262.8 125.4,262.9 125.3,262.9 125.2,263 
		125.2,263 125.1,263 125,263.1 125,263.1 124.9,263.2 124.8,263.2 124.8,263.2 124.7,263.3 124.6,263.3 124.5,263.4 124.5,263.4 
		124.4,263.4 124.3,263.5 124.3,263.5 124.2,263.6 124.1,263.6 124.1,263.6 124,263.7 123.9,263.7 123.9,263.8 123.8,263.8 
		123.7,263.8 123.6,263.9 123.6,263.9 123.5,264 123.4,264 123.4,264 123.3,264.1 123.2,264.1 123.2,264.2 123.1,264.2 123,264.2 
		122.9,264.3 122.9,264.3 122.8,264.4 122.7,264.4 122.7,264.4 122.6,264.5 122.5,264.5 122.5,264.6 122.4,264.6 122.3,264.6 
		122.2,264.7 122.2,264.7 122.1,264.7 122,264.8 122,264.8 121.9,264.9 121.8,264.9 121.7,264.9 121.7,265 121.6,265 121.5,265 
		121.5,265.1 121.4,265.1 121.3,265.2 121.2,265.2 121.1,265.3 121,265.3 120.9,265.4 120.8,265.4 120.7,265.5 120.6,265.5 
		120.5,265.6 120.4,265.6 120.3,265.7 120.2,265.7 120.1,265.8 120,265.8 119.9,265.9 119.8,265.9 119.7,266 119.6,266 119.5,266.1 
		119.4,266.1 119.3,266.2 119.2,266.2 119.1,266.3 119,266.3 118.9,266.4 118.8,266.4 118.7,266.5 118.6,266.5 118.5,266.6 
		118.4,266.6 118.3,266.7 118.2,266.7 118.1,266.8 118,266.8 117.9,266.9 117.8,266.9 117.6,267 117.5,267 117.4,267.1 117.3,267.1 
		117.2,267.2 117.1,267.2 117,267.3 116.9,267.3 116.8,267.4 116.7,267.4 116.6,267.4 116.5,267.5 116.4,267.5 116.3,267.6 
		116.2,267.6 116.1,267.7 116,267.7 115.9,267.8 115.8,267.8 115.7,267.9 115.6,267.9 115.5,267.9 115.4,268 115.3,268 115.2,268.1 
		115,268.1 114.9,268.2 114.8,268.2 114.7,268.3 114.3,268.4 113.9,268.3 113.7,268.2 113.6,268.2 113.5,268.1 113.3,268 113.2,268 
		113.1,267.9 113,267.9 112.8,267.8 112.7,267.8 112.6,267.7 112.4,267.7 112.3,267.6 112.2,267.5 112.1,267.5 111.9,267.4 
		111.8,267.4 111.7,267.3 111.6,267.3 111.4,267.2 111.3,267.1 111.2,267.1 111.1,267 110.9,267 110.8,266.9 110.7,266.8 
		110.5,266.8 110.4,266.7 110.3,266.7 110.2,266.6 110,266.5 109.9,266.5 109.8,266.4 109.7,266.4 109.5,266.3 109.4,266.2 
		109.3,266.2 109.2,266.1 109,266.1 108.9,266 108.8,265.9 108.7,265.9 108.5,265.8 108.4,265.8 108.3,265.7 108.2,265.6 108,265.6 
		107.9,265.5 107.8,265.4 107.7,265.4 107.6,265.3 107.4,265.2 107.4,265.2 107.3,265.2 107.2,265.1 107.2,265.1 107.1,265.1 
		107.1,265 107,265 106.9,265 106.9,264.9 106.8,264.9 106.8,264.9 106.7,264.8 106.6,264.8 106.6,264.8 106.5,264.7 106.4,264.7 
		106.4,264.7 106.3,264.6 106.3,264.6 106.2,264.6 106.1,264.5 106.1,264.5 106,264.5 106,264.4 105.9,264.4 105.8,264.4 
		105.8,264.3 105.7,264.3 105.7,264.3 105.6,264.2 105.5,264.2 105.5,264.2 105.4,264.1 105.3,264.1 105.3,264.1 105.2,264 
		105.2,264 105.1,264 105,263.9 105,263.9 104.9,263.9 104.9,263.8 104.8,263.8 104.7,263.8 104.7,263.7 104.6,263.7 104.6,263.7 
		104.5,263.6 104.4,263.6 104.4,263.6 104.3,263.5 104.3,263.5 104.2,263.4 104.1,263.4 104.1,263.4 104,263.3 104,263.3 
		103.9,263.3 103.8,263.2 103.8,263.2 103.7,263.2 103.7,263.1 103.6,263.1 103.5,263.1 103.5,263 103.4,263 103.4,263 103.3,262.9 
		103.2,262.9 103.2,262.8 103.1,262.8 103.1,262.8 103,262.7 102.9,262.7 102.9,262.7 102.8,262.6 102.8,262.6 102.7,262.6 
		102.7,262.5 102.6,262.5 102.5,262.4 102.5,262.4 102.4,262.4 102.4,262.3 102.3,262.3 102.2,262.3 102.2,262.2 102.1,262.2 
		102.1,262.1 102,262.1 101.9,262.1 101.9,262 101.8,262 101.8,262 101.7,261.9 101.6,261.9 101.6,261.8 101.5,261.8 101.5,261.8 
		101.4,261.7 101.4,261.7 101.3,261.7 101.2,261.6 101.2,261.6 101.1,261.5 101.1,261.5 101,261.5 100.9,261.4 100.9,261.4 
		100.8,261.4 100.8,261.3 100.7,261.3 100.7,261.2 100.6,261.2 100.5,261.2 100.5,261.1 100.4,261.1 100.4,261 100.3,261 100.3,261 
		100.2,260.9 100.1,260.9 100.1,260.9 100,260.8 100,260.8 99.9,260.7 99.8,260.7 99.8,260.7 99.7,260.6 99.7,260.6 99.6,260.5 
		99.6,260.5 99.5,260.5 99.4,260.4 99.4,260.4 99.3,260.3 99.3,260.3 99.2,260.3 99.2,260.2 99.1,260.2 99,260.1 99,260.1 
		98.9,260.1 98.9,260 98.8,260 98.8,259.9 98.7,259.9 98.6,259.9 98.6,259.8 98.5,259.8 98.5,259.7 98.4,259.7 98.4,259.7 
		98.3,259.6 98.2,259.6 98.2,259.5 98.1,259.5 98.1,259.5 98,259.4 98,259.4 97.9,259.3 97.8,259.3 97.8,259.2 97.7,259.2 
		97.7,259.2 97.6,259.1 97.6,259.1 97.5,259 97.4,259 97.4,258.9 97.3,258.9 97.3,258.9 97.2,258.8 97.2,258.8 97.1,258.7 97,258.7 
		97,258.6 96.9,258.6 96.9,258.6 96.8,258.5 96.8,258.5 96.7,258.4 96.6,258.4 96.6,258.3 96.5,258.3 96.5,258.3 96.4,258.2 
		96.4,258.2 96.3,258.1 96.2,258.1 96.2,258 96.1,258 96.1,258 96,257.9 96,257.9 95.9,257.8 95.8,257.8 95.8,257.7 95.7,257.7 
		95.7,257.6 95.6,257.6 95.6,257.6 95.5,257.5 95.5,257.5 95.4,257.4 95.3,257.4 95.3,257.3 95.2,257.3 95.2,257.2 95.1,257.2 
		95.1,257.2 95,257.1 95,257.1 94.9,257 94.8,257 94.8,256.9 94.7,256.9 94.7,256.8 94.6,256.8 94.6,256.7 94.5,256.7 94.5,256.7 
		94.4,256.6 94.3,256.6 94.3,256.5 94.2,256.5 94.2,256.4 94.1,256.4 94.1,256.3 94,256.3 94,256.2 93.9,256.2 93.9,256.2 
		93.8,256.1 93.7,256.1 93.7,256 93.6,256 93.6,255.9 93.5,255.9 93.5,255.8 93.4,255.8 93.4,255.7 93.3,255.7 93.3,255.6 
		93.2,255.6 93.1,255.5 93.1,255.5 93,255.5 93,255.4 92.9,255.4 92.9,255.3 92.8,255.3 92.8,255.2 92.7,255.2 92.7,255.1 
		92.6,255.1 92.6,255 92.5,255 92.4,254.9 92.4,254.9 92.3,254.8 92.3,254.8 92.2,254.7 92.2,254.7 92.1,254.6 92.1,254.6 92,254.6 
		92,254.5 91.9,254.5 91.9,254.4 91.8,254.4 91.8,254.3 91.7,254.3 91.7,254.2 91.6,254.2 91.5,254.1 91.5,254.1 91.4,254 91.4,254 
		91.3,253.9 91.3,253.9 91.2,253.8 91.2,253.8 91.1,253.7 91.1,253.7 91,253.6 91,253.6 90.9,253.5 90.9,253.5 90.8,253.4 
		90.8,253.4 90.7,253.3 90.7,253.3 90.6,253.2 90.6,253.2 90.5,253.1 90.5,253.1 90.4,253 90.4,253 90.3,252.9 90.3,252.9 
		90.2,252.8 90.2,252.8 90.1,252.7 90,252.7 90,252.6 89.9,252.6 89.9,252.5 89.8,252.5 89.8,252.4 89.7,252.4 89.7,252.3 
		89.6,252.3 89.6,252.2 89.5,252.2 89.5,252.1 89.4,252.1 89.4,252 89.3,252 89.3,251.9 89.2,251.9 89.2,251.8 89.1,251.8 
		89.1,251.7 89,251.7 89,251.6 88.9,251.6 88.9,251.5 88.8,251.5 88.8,251.4 88.7,251.4 88.7,251.3 88.6,251.3 88.6,251.2 
		88.5,251.2 88.5,251.1 88.4,251.1 88.4,251 88.4,251 88.3,250.9 88.3,250.8 88.2,250.8 88.2,250.7 88.1,250.7 88.1,250.6 88,250.6 
		88,250.5 87.9,250.5 87.9,250.4 87.8,250.4 87.8,250.3 87.7,250.3 87.7,250.2 87.6,250.2 87.6,250.1 87.5,250.1 87.5,250 87.4,250 
		87.4,249.9 87.3,249.8 87.3,249.8 87.2,249.7 87.2,249.7 87.1,249.6 87.1,249.6 87,249.5 87,249.5 87,249.4 86.9,249.4 86.9,249.3 
		86.8,249.3 86.8,249.2 86.7,249.2 86.7,249.1 86.6,249 86.6,249 86.5,248.9 86.5,248.9 86.4,248.8 86.4,248.8 86.3,248.7 
		86.3,248.7 86.3,248.6 86.2,248.6 86.2,248.5 86.1,248.4 86.1,248.4 86,248.3 86,248.3 85.9,248.2 85.9,248.2 85.8,248.1 
		85.8,248.1 85.7,248 85.7,248 85.7,247.9 85.6,247.8 85.6,247.8 85.5,247.7 85.5,247.7 85.4,247.6 85.4,247.6 85.3,247.5 
		85.3,247.5 85.3,247.4 85.2,247.3 85.2,247.3 85.1,247.2 85.1,247.2 85,247.1 83.8,245.6 85.7,245.3 85.9,245.3 86,245.3 
		86.2,245.2 86.3,245.2 86.5,245.2 86.6,245.2 86.8,245.1 86.9,245.1 87.1,245.1 87.2,245.1 87.4,245 87.5,245 87.7,245 87.8,244.9 
		88,244.9 88.1,244.9 88.3,244.9 88.4,244.8 88.6,244.8 88.7,244.8 88.9,244.8 89,244.7 89.2,244.7 89.3,244.7 89.4,244.7 
		89.5,244.6 89.6,244.6 89.6,244.6 89.7,244.6 89.8,244.6 89.8,244.6 89.9,244.6 90,244.5 90.1,244.5 90.1,244.5 90.2,244.5 
		90.3,244.5 90.4,244.5 90.4,244.4 90.5,244.4 90.6,244.4 90.7,244.4 90.7,244.4 90.8,244.4 90.9,244.3 91,244.3 91,244.3 
		91.1,244.3 91.2,244.3 91.3,244.3 91.3,244.3 91.4,244.2 91.5,244.2 91.6,244.2 91.6,244.2 91.7,244.2 91.8,244.2 91.8,244.1 
		91.9,244.1 92,244.1 92.1,244.1 92.1,244.1 92.2,244 92.3,244 92.4,244 92.4,244 92.5,244 92.6,244 92.7,243.9 92.7,243.9 
		92.8,243.9 92.9,243.9 93,243.9 93,243.9 93.1,243.8 93.2,243.8 93.3,243.8 93.3,243.8 93.4,243.8 93.5,243.7 93.5,243.7 
		93.6,243.7 93.7,243.7 93.8,243.7 93.8,243.7 93.9,243.6 94,243.6 94.1,243.6 94.1,243.6 94.2,243.6 94.3,243.5 94.4,243.5 
		94.4,243.5 94.5,243.5 94.6,243.5 94.6,243.4 94.7,243.4 94.8,243.4 94.9,243.4 94.9,243.4 95,243.3 95.1,243.3 95.2,243.3 
		95.2,243.3 95.4,243.3 95.5,243.2 95.6,243.2 95.7,243.1 95.9,243.1 96,243.1 96.1,243 96.2,243 96.3,243 96.4,243 96.5,242.9 
		96.5,242.9 96.6,242.9 96.7,242.9 96.7,242.9 96.8,242.8 96.8,242.8 96.9,242.8 97,242.8 97,242.8 97.1,242.8 97.1,242.7 
		97.2,242.7 97.3,242.7 97.3,242.7 97.4,242.7 97.5,242.6 97.5,242.6 97.6,242.6 97.6,242.6 97.7,242.6 97.8,242.5 97.8,242.5 
		97.9,242.5 97.9,242.5 98,242.5 98.1,242.4 98.1,242.4 98.2,242.4 98.2,242.4 98.3,242.4 98.4,242.3 98.4,242.3 98.5,242.3 
		98.6,242.3 98.6,242.3 98.7,242.2 98.7,242.2 98.8,242.2 98.9,242.2 98.9,242.2 99,242.1 99,242.1 99.1,242.1 99.2,242.1 
		99.2,242.1 99.3,242 99.3,242 99.4,242 99.5,242 99.5,242 99.6,241.9 99.6,241.9 99.7,241.9 99.8,241.9 99.8,241.9 99.9,241.8 
		99.9,241.8 100,241.8 100.1,241.8 100.1,241.7 100.2,241.7 100.3,241.7 100.3,241.7 100.4,241.7 100.4,241.6 100.5,241.6 
		100.6,241.6 100.6,241.6 100.7,241.6 100.7,241.5 100.8,241.5 100.9,241.5 100.9,241.5 101,241.4 101,241.4 101.1,241.4 
		101.2,241.4 101.2,241.4 101.3,241.3 101.3,241.3 101.4,241.3 101.5,241.3 101.5,241.2 101.6,241.2 101.6,241.2 101.7,241.2 
		101.8,241.1 101.8,241.1 101.9,241.1 101.9,241.1 102,241.1 102.1,241 102.1,241 102.2,241 102.2,241 102.3,240.9 102.3,240.9 
		102.4,240.9 102.5,240.9 102.5,240.8 102.6,240.8 102.6,240.8 102.7,240.8 102.8,240.7 102.8,240.7 102.9,240.7 102.9,240.7 
		103,240.6 103.1,240.6 103.1,240.6 103.2,240.6 103.2,240.5 103.3,240.5 103.4,240.5 103.4,240.5 103.5,240.4 103.5,240.4 
		103.6,240.4 103.7,240.4 103.7,240.3 103.8,240.3 103.8,240.3 103.9,240.3 103.9,240.2 104,240.2 104.1,240.2 104.1,240.2 
		104.2,240.1 104.2,240.1 104.3,240.1 104.4,240.1 104.4,240 104.5,240 104.5,240 104.6,240 104.6,239.9 104.7,239.9 104.8,239.9 
		104.8,239.9 104.9,239.8 104.9,239.8 105,239.8 105.1,239.7 105.1,239.7 105.2,239.7 105.2,239.7 105.3,239.6 105.3,239.6 
		105.4,239.6 105.5,239.6 105.5,239.5 105.6,239.5 105.6,239.5 105.7,239.4 105.7,239.4 105.8,239.4 105.9,239.4 105.9,239.3 
		106,239.3 106,239.3 106.1,239.2 106.2,239.2 106.2,239.2 106.3,239.2 106.3,239.1 106.4,239.1 106.4,239.1 106.5,239 106.6,239 
		106.6,239 106.7,239 106.7,238.9 106.8,238.9 106.8,238.9 106.9,238.8 107,238.8 107,238.8 107.1,238.8 107.1,238.7 107.2,238.7 
		107.2,238.7 107.3,238.6 107.3,238.6 107.4,238.6 107.5,238.5 107.5,238.5 107.6,238.5 107.6,238.5 107.7,238.4 107.7,238.4 
		107.8,238.4 107.9,238.3 107.9,238.3 108,238.3 108,238.2 108.1,238.2 108.1,238.2 108.2,238.2 108.2,238.1 108.3,238.1 
		108.4,238.1 108.4,238 108.5,238 108.5,238 108.6,237.9 108.6,237.9 108.7,237.9 108.8,237.8 108.8,237.8 108.9,237.8 108.9,237.7 
		109,237.7 109,237.7 109.1,237.6 109.1,237.6 109.2,237.6 109.2,237.6 109.3,237.5 109.4,237.5 109.4,237.5 109.5,237.4 
		109.5,237.4 109.6,237.4 109.6,237.3 109.7,237.3 109.7,237.3 109.8,237.2 109.9,237.2 109.9,237.2 110,237.1 110,237.1 
		110.1,237.1 110.1,237 110.2,237 110.2,237 110.3,236.9 110.3,236.9 110.4,236.9 110.4,236.8 110.5,236.8 110.5,236.8 110.6,236.7 
		110.6,236.7 110.7,236.7 110.7,236.7 110.7,236.6 110.8,236.6 110.8,236.6 110.9,236.5 110.9,236.5 111,236.5 111,236.5 
		111.1,236.4 111.1,236.4 111.2,236.4 111.2,236.3 111.2,236.3 111.3,236.3 111.3,236.2 111.4,236.2 111.4,236.2 111.5,236.2 
		111.5,236.1 111.6,236.1 111.6,236.1 111.7,236 111.7,236 111.7,236 111.8,235.9 111.8,235.9 111.9,235.9 111.9,235.9 112,235.8 
		112,235.8 112.1,235.8 112.1,235.7 112.1,235.7 112.2,235.7 112.2,235.6 112.3,235.6 112.3,235.6 112.4,235.5 112.4,235.5 
		112.5,235.5 112.5,235.5 112.5,235.4 112.6,235.4 112.6,235.4 112.7,235.3 112.7,235.3 112.8,235.3 112.8,235.2 112.8,235.2 
		112.9,235.2 112.9,235.1 113,235.1 113,235.1 113.1,235 113.1,235 113.2,235 113.2,234.9 113.2,234.9 113.3,234.9 113.3,234.8 
		113.4,234.8 113.4,234.8 113.5,234.7 113.5,234.7 113.5,234.7 113.6,234.6 113.6,234.6 113.7,234.6 113.7,234.6 113.8,234.5 
		113.8,234.5 113.8,234.5 113.9,234.4 113.9,234.4 114,234.4 114,234.3 114.1,234.3 114.1,234.3 114.1,234.2 114.2,234.2 
		114.2,234.2 114.3,234.1 114.3,234.1 114.4,234.1 114.4,234 114.4,234 114.5,234 114.5,233.9 114.6,233.9 114.6,233.8 114.7,233.8 
		114.7,233.8 114.7,233.7 114.8,233.7 114.8,233.7 114.9,233.6 114.9,233.6 114.9,233.6 115,233.5 115,233.5 115.1,233.5 
		115.1,233.4 115.2,233.4 115.2,233.4 115.2,233.3 115.3,233.3 115.3,233.3 115.4,233.2 115.4,233.2 115.4,233.2 115.5,233.1 
		115.5,233.1 115.6,233.1 115.6,233 115.6,233 115.7,232.9 115.7,232.9 115.8,232.9 115.8,232.8 115.9,232.8 115.9,232.8 
		115.9,232.8 115.9,232.7 116,232.7 116,232.7 116,232.6 116.1,232.6 116.1,232.6 116.1,232.6 116.2,232.5 116.2,232.5 116.2,232.5 
		116.2,232.5 116.3,232.4 116.3,232.4 116.3,232.4 116.4,232.4 116.4,232.3 116.4,232.3 116.4,232.3 116.5,232.2 116.5,232.2 
		116.5,232.2 116.6,232.2 116.6,232.1 116.6,232.1 116.7,232.1 116.7,232.1 116.7,232 116.7,232 116.8,232 116.8,232 116.8,231.9 
		116.9,231.9 116.9,231.9 116.9,231.8 116.9,231.8 117,231.8 117,231.8 117,231.7 117.1,231.7 117.1,231.7 117.1,231.7 117.1,231.6 
		117.2,231.6 117.2,231.6 117.2,231.5 117.3,231.5 117.3,231.5 117.3,231.5 117.3,231.4 117.4,231.4 117.4,231.4 117.4,231.4 
		117.5,231.3 117.5,231.3 117.5,231.3 117.5,231.2 117.6,231.2 117.6,231.2 117.6,231.2 117.7,231.1 117.7,231.1 117.7,231.1 
		117.7,231 117.8,231 117.8,231 117.8,231 117.9,230.9 117.9,230.9 117.9,230.9 117.9,230.9 118,230.8 118,230.8 118,230.8 
		118,230.7 118.1,230.7 118.1,230.7 118.1,230.7 118.2,230.6 118.2,230.6 118.2,230.6 118.2,230.5 118.3,230.5 118.3,230.5 
		118.3,230.5 118.4,230.4 118.4,230.4 118.4,230.4 118.4,230.3 118.5,230.3 118.5,230.3 118.5,230.2 118.5,230.2 118.6,230.2 
		118.6,230.2 118.6,230.1 118.7,230.1 118.7,230.1 118.7,230 118.7,230 118.8,230 118.8,230 118.8,229.9 118.8,229.9 118.9,229.9 
		118.9,229.8 118.9,229.8 118.9,229.8 119,229.8 119,229.7 119,229.7 119.1,229.7 119.1,229.6 119.1,229.6 119.1,229.6 119.2,229.5 
		119.2,229.5 119.2,229.5 119.2,229.5 119.3,229.4 119.3,229.4 119.3,229.4 119.3,229.3 119.4,229.3 119.4,229.3 119.4,229.2 
		119.4,229.2 119.5,229.2 119.5,229.2 119.5,229.2 119.5,229.1 119.5,229.1 119.6,229.1 119.6,229.1 119.6,229 119.6,229 119.6,229 
		119.7,229 119.7,229 119.7,228.9 119.7,228.9 119.7,228.9 119.7,228.9 119.8,228.8 119.8,228.8 119.8,228.8 119.8,228.8 
		119.8,228.8 119.9,228.7 119.9,228.7 119.9,228.7 119.9,228.7 119.9,228.6 119.9,228.6 120,228.6 120,228.6 120,228.6 120,228.5 
		120,228.5 120.1,228.5 120.1,228.5 120.1,228.4 120.1,228.4 120.1,228.4 120.1,228.4 120.2,228.4 120.2,228.3 120.2,228.3 
		120.2,228.3 120.2,228.3 120.3,228.2 120.3,228.2 120.3,228.2 120.3,228.2 120.3,228.2 120.3,228.1 120.4,228.1 120.4,228.1 
		120.4,228.1 120.4,228 120.4,228 120.4,228 120.5,228 120.5,228 120.5,227.9 120.5,227.9 120.5,227.9 120.6,227.9 120.6,227.8 
		120.6,227.8 120.6,227.8 120.6,227.8 120.6,227.7 120.7,227.7 120.7,227.7 120.7,227.7 120.7,227.7 120.7,227.6 120.7,227.6 
		120.8,227.6 120.8,227.6 120.8,227.5 120.8,227.5 120.8,227.5 120.8,227.5 120.9,227.4 120.9,227.4 120.9,227.4 120.9,227.4 
		120.9,227.4 120.9,227.3 121,227.3 121,227.3 121,227.3 121,227.2 121,227.2 121,227.2 121.1,227.2 121.1,227.1 121.1,227.1 
		121.1,227.1 121.1,227.1 121.1,227 121.2,227 121.2,227 121.2,227 121.2,227 121.2,226.9 121.2,226.9 121.3,226.9 121.3,226.9 
		121.3,226.8 121.3,226.8 121.3,226.8 121.3,226.8 121.4,226.7 121.4,226.7 121.4,226.7 121.4,226.7 121.4,226.6 121.4,226.6 
		121.4,226.6 121.5,226.6 121.5,226.5 121.5,226.5 121.5,226.5 121.5,226.5 121.5,226.5 121.6,226.4 121.6,226.4 121.6,226.4 
		121.6,226.4 121.6,226.3 121.6,226.3 121.6,226.3 121.7,226.3 121.7,226.2 121.7,226.2 121.7,226.2 121.7,226.2 121.7,226.1 
		121.8,226.1 121.8,226.1 121.8,226.1 121.8,226 121.8,226 121.8,226 121.8,226 121.9,225.9 121.9,225.9 121.9,225.9 121.9,225.9 
		121.9,225.9 121.9,225.8 121.9,225.8 121.9,225.8 121.9,225.8 122,225.8 122,225.7 122,225.7 122,225.7 122,225.7 122,225.7 
		122,225.7 122,225.6 122,225.6 122.1,225.6 122.1,225.6 122.1,225.6 122.1,225.6 122.1,225.5 122.1,225.5 122.1,225.5 122.1,225.5 
		122.1,225.5 122.1,225.5 122.2,225.4 122.2,225.4 122.2,225.4 122.2,225.4 122.2,225.4 122.2,225.3 122.2,225.3 122.2,225.3 
		122.2,225.3 122.2,225.3 122.2,225.3 122.2,225.2 122.3,225.2 122.3,225.2 122.3,225.2 122.3,225.2 122.3,225.2 122.3,225.2 
		122.3,225.1 122.3,225.1 122.3,225.1 122.3,225.1 122.3,225.1 122.4,225 122.4,225 122.4,225 122.4,224.9 122.4,224.9 122.4,224.9 
		122.5,224.8 122.5,224.8 122.5,224.8 122.5,224.7 122.5,224.7 122.5,224.7 122.6,224.6 122.6,224.6 122.6,224.6 122.6,224.5 
		122.6,224.5 122.6,224.5 122.7,224.4 122.7,224.4 122.7,224.4 122.7,224.3 122.7,224.3 122.7,224.3 122.8,224.2 122.8,224.2 
		122.8,224.2 122.8,224.2 122.8,224.1 122.8,224.1 122.8,224.1 122.9,224 122.9,224 122.9,224 122.9,223.9 122.9,223.9 122.9,223.9 
		123,223.8 123,223.8 123,223.7 123,223.7 123,223.7 123,223.6 123,223.6 123.1,223.6 123.1,223.5 123.1,223.5 123.1,223.5 
		123.1,223.4 123.1,223.4 123.2,223.3 123.2,223.3 123.2,223.3 123.2,223.2 123.2,223.2 123.2,223.2 123.2,223.1 123.3,223.1 
		123.3,223.1 123.3,223 123.3,223 123.3,222.9 123.3,222.9 123.4,222.9 123.4,222.8 123.4,222.8 123.4,222.8 123.4,222.7 
		123.4,222.7 123.4,222.6 123.5,222.6 123.5,222.6 123.5,222.5 123.5,222.5 123.5,222.5 123.5,222.4 123.5,222.4 123.6,222.4 
		123.6,222.3 123.6,222.3 123.6,222.2 123.6,222.2 123.6,222.2 123.6,222.1 123.7,222.1 123.7,222.1 123.7,222 123.7,222 
		123.7,221.9 123.7,221.9 123.7,221.9 123.7,221.8 123.8,221.8 123.8,221.8 123.8,221.7 123.8,221.7 123.8,221.6 123.8,221.6 
		123.8,221.6 123.9,221.5 123.9,221.5 123.9,221.5 123.9,221.4 123.9,221.4 123.9,221.3 123.9,221.3 123.9,221.3 124,221.2 
		124,221.2 124,221.2 124,221.1 124,221.1 124,221 124,221 124,221 124.1,220.9 124.1,220.9 124.1,220.9 124.1,220.8 124.1,220.8 
		124.1,220.7 124.1,220.7 124.1,220.7 124.2,220.6 124.2,220.6 124.2,220.6 124.2,220.5 124.2,220.5 124.2,220.4 124.2,220.4 
		124.2,220.4 124.2,220.3 124.3,220.3 124.3,220.2 124.3,220.2 124.3,220.2 124.3,220.1 124.3,220.1 124.3,220.1 124.3,220 
		124.3,220 124.4,219.9 124.4,219.9 124.4,219.9 124.4,219.8 124.4,219.7 124.5,219.6 124.5,219.6 124.5,219.5 124.5,219.4 
		124.5,219.4 124.5,219.4 124.5,219.3 124.6,219.3 124.6,219.2 124.6,219.2 124.6,219.1 124.6,219 124.7,218.9 124.7,218.8 
		124.7,218.7 124.7,218.7 124.7,218.6 124.8,218.5 124.8,218.4 124.8,218.3 124.8,218.2 124.9,218.1 124.9,218.1 124.9,218 
		124.9,217.9 124.9,217.8 125,217.7 125,217.6 125,217.6 125,217.5 125,217.4 125.1,217.3 125.1,217.2 125.1,217.1 125.1,217.1 
		125.1,217 125.2,216.9 125.2,216.8 125.2,216.7 125.2,216.6 125.2,216.5 125.3,216.5 125.3,216.4 125.3,216.3 125.3,216.2 
		125.3,216.1 125.4,216 125.4,216 125.4,215.9 125.4,215.8 125.4,215.7 125.4,215.6 125.5,215.5 125.5,215.4 125.5,215.4 
		125.5,215.3 125.5,215.2 125.5,215.1 125.6,215 125.6,214.9 125.6,214.8 125.6,214.8 125.6,214.7 125.6,214.6 125.7,214.5 
		125.7,214.4 125.7,214.3 125.7,214.3 125.7,214.2 125.7,214.1 125.8,214 125.8,213.9 125.8,213.8 125.8,213.7 125.8,213.6 
		125.8,213.6 125.8,213.5 125.8,213.5 125.9,213.4 125.9,213.4 125.9,213.3 125.9,213.3 125.9,213.2 125.9,213.2 125.9,213.1 
		125.9,213.1 125.9,213 125.9,213 125.9,212.9 125.9,212.9 125.9,212.8 126,212.8 126,212.7 126,212.7 126,212.6 126,212.6 
		126,212.5 126,212.5 126,212.4 126,212.4 126,212.4 126,212.3 126,212.3 126,212.2 126,212.2 126.1,212.1 126.1,212.1 126.1,212 
		126.1,212 126.1,211.9 126.1,211.9 126.1,211.8 126.1,211.8 126.1,211.7 126.1,211.7 126.1,211.6 126.1,211.6 126.1,211.5 
		126.1,211.5 126.1,211.4 126.1,211.4 126.2,211.3 126.2,211.3 126.2,211.2 126.2,211.2 126.2,211.1 126.2,211.1 126.2,211.1 
		126.2,211 126.2,210.9 126.2,210.9 126.2,210.8 126.2,210.7 126.2,210.6 126.2,210.6 126.2,210.5 126.3,210.4 126.3,210.4 
		126.3,210.3 126.3,210.2 126.3,210.1 126.3,210.1 126.3,210 126.3,209.9 126.3,209.9 126.3,209.8 126.3,209.7 126.3,209.6 
		126.3,209.6 126.3,209.5 126.3,209.4 126.4,209.4 126.4,209.3 126.4,209.2 126.4,209.1 126.4,209.1 126.4,209 126.4,208.9 
		126.4,208.8 126.4,208.8 126.4,208.7 126.4,208.6 126.4,208.4 126.4,208.3 126.4,208.1 126.5,208 126.5,207.8 126.5,207.7 
		126.5,207.5 126.5,207.3 126.5,207 126.5,206.4 126.6,205.6 126.6,204.8 126.7,204 126.7,203.6 126.7,203.2 126.7,202.8 
		126.8,202.4 126.8,202 126.8,201.6 126.8,201.2 126.8,200.8 126.9,200.4 126.9,200.1 126.9,199.7 126.9,199.3 126.9,199.2 
		126.9,199 126.9,198.8 126.9,198.6 126.9,198.4 126.9,198.3 126.9,198.1 126.9,197.9 127,197.7 127,197.5 127,197.4 127,197.2 
		127,197 127,196.8 127,196.6 127,196.5 127,196.3 127,196.1 127,195.9 127,195.7 127,195.6 127,195.4 127,195.2 127,195 127,194.9 
		127,194.8 127,194.8 127,194.7 127,194.6 127,194.5 127,194.4 127,194.3 127,122.3 127,94.3 126.8,66.8 126.8,65.6 128,65.6 
		212.3,65.6 212.3,66.8 212.4,68.5 212.4,70.2 212.4,72 212.4,73.7 212.4,75.4 212.5,77.2 212.5,78.9 212.5,80.6 212.5,82.4 
		212.5,84.1 212.5,85.8 212.5,87.6 212.5,89.3 212.5,91.1 212.5,94.5 212.5,95.7 157,95.6 	"/>
	<path class="st0" d="M122.1,225.4"/>
	<path class="st0" d="M122,225.6"/>
	<path class="st0" d="M122,225.8"/>
	<path class="st0" d="M121.9,225.8"/>
	<path class="st0" d="M121.9,225.9"/>
	<path class="st0" d="M121.8,226"/>
	<path class="st0" d="M121.8,226"/>
	<path class="st0" d="M121.8,226.1"/>
	<path class="st0" d="M121.7,226.1"/>
	<path class="st0" d="M121.7,226.2"/>
	<path class="st0" d="M121.7,226.2"/>
	<polygon class="st0" points="182.5,121.1 212.5,121.1 212.5,194.3 212.5,194.5 212.5,194.8 212.5,195 212.5,195.2 212.5,195.5 
		212.5,195.7 212.5,195.9 212.5,196.2 212.5,196.4 212.5,196.7 212.5,196.9 212.5,197.2 212.5,197.4 212.5,197.7 212.5,197.9 
		212.5,198.2 212.4,198.4 212.4,198.7 212.4,199 212.4,199.2 212.4,199.5 212.4,199.8 212.4,200 212.4,200.3 212.4,200.6 
		212.4,200.9 212.4,201.1 212.4,201.4 212.4,201.7 212.4,202 212.3,202.3 212.3,202.6 212.3,202.8 212.3,203.1 212.3,203.4 
		212.3,203.7 212.3,204 212.3,204.3 212.3,204.6 212.2,204.9 212.2,205.2 212.2,205.5 212.2,205.7 212.2,206 212.2,206.3 
		212.2,206.6 212.1,206.9 212.1,207.2 212.1,207.5 212.1,207.8 212.1,208.1 212.1,208.4 212,208.7 212,209 212,209.3 212,209.6 
		212,209.9 212,210.3 211.9,210.6 211.9,210.9 211.9,211.2 211.9,211.5 211.9,211.8 211.8,212.1 211.8,212.4 211.8,212.7 211.8,213 
		211.8,213.3 211.7,213.6 211.7,213.9 211.7,214.2 211.7,214.5 211.6,214.8 211.6,215.1 211.6,215.4 211.6,215.7 211.5,216 
		211.5,216.3 211.5,216.6 211.5,216.9 211.4,217.2 211.4,217.5 211.4,217.8 211.4,218.1 211.3,218.4 211.3,218.7 211.3,219 
		211.2,219.3 211.2,219.5 211.2,219.8 211.2,220.1 211.1,220.4 211.1,220.7 211.1,221 211,221.3 211,221.6 211,221.8 211,222 
		210.9,222.1 210.9,222.3 210.9,222.4 210.9,222.5 210.9,222.7 210.9,222.8 210.8,223 210.8,223.1 210.8,223.2 210.8,223.4 
		210.8,223.5 210.8,223.6 210.7,223.8 210.7,223.9 210.7,224 210.7,224.2 210.7,224.3 210.7,224.4 210.6,224.6 210.6,224.7 
		210.6,224.8 210.6,225 210.6,225.1 210.5,225.2 210.5,225.4 210.5,225.5 210.5,225.6 210.5,225.8 210.5,225.9 210.4,226 
		210.4,226.1 210.4,226.3 210.4,226.4 210.4,226.5 210.3,226.6 210.3,226.8 210.3,226.9 210.3,227 210.3,227.1 210.2,227.3 
		210.2,227.4 210.2,227.5 210.2,227.6 210.2,227.7 210.1,227.9 210.1,228 210.1,228.1 210.1,228.2 210.1,228.3 210,228.5 210,228.6 
		210,228.7 210,228.8 210,228.9 209.9,229 209.9,229.1 209.9,229.3 209.9,229.4 209.9,229.5 209.8,229.6 209.8,229.7 209.8,229.9 
		209.7,230.1 209.7,230.3 209.7,230.5 209.6,230.6 209.6,230.8 209.6,231 209.5,231.2 209.5,231.4 209.4,231.6 209.4,231.8 
		209.4,232 209.3,232.2 209.3,232.3 209.2,232.5 209.2,232.7 209.2,232.9 209.1,233.1 209.1,233.3 209,233.5 209,233.7 209,233.8 
		208.9,234 208.9,234.2 208.8,234.4 208.8,234.6 208.8,234.8 208.7,235 208.7,235.2 208.6,235.3 208.6,235.5 208.5,235.7 
		208.5,235.9 208.5,236.1 208.4,236.3 208.4,236.5 208.3,236.7 208.3,236.8 208.2,237 208.2,237.2 208.1,237.4 208.1,237.6 
		208.1,237.8 208,238 208,238.2 207.9,238.3 207.9,238.5 207.8,238.7 207.8,238.9 207.7,239.1 207.7,239.3 207.6,239.5 207.6,239.6 
		207.5,239.8 207.5,240 207.4,240.2 207.4,240.4 207.3,240.6 207.3,240.8 207.2,240.9 207.2,241.1 207.1,241.3 207.1,241.5 
		207,241.7 207,241.9 206.9,242.1 206.9,242.2 206.8,242.4 206.8,242.6 206.7,242.8 206.7,243 206.6,243.2 206.6,243.4 206.5,243.5 
		206.5,243.7 206.4,243.9 206.4,244.1 206.3,244.3 206.2,244.5 206.2,244.6 206.1,244.8 206.1,245 206,245.2 206,245.4 205.9,245.6 
		205.9,245.7 205.8,245.9 205.7,246.1 205.7,246.3 205.6,246.5 205.6,246.7 205.5,246.8 205.5,247 205.4,247.2 205.3,247.4 
		205.3,247.6 205.2,247.8 205.2,247.9 205.1,248.1 205,248.3 205,248.5 204.9,248.7 204.9,248.9 204.8,249 204.7,249.2 204.7,249.4 
		204.6,249.6 204.5,249.8 204.5,249.9 204.4,250.1 204.4,250.3 204.3,250.5 204.2,250.7 204.2,250.8 204.1,251 204,251.2 204,251.4 
		203.9,251.6 203.8,251.7 203.8,251.9 203.7,252.1 203.6,252.3 203.6,252.5 203.5,252.6 203.4,252.8 203.4,253 203.3,253.2 
		203.3,253.3 203.2,253.4 203.2,253.5 203.1,253.6 203.1,253.7 203,253.9 203,254 202.9,254.1 202.9,254.3 202.8,254.4 202.8,254.5 
		202.7,254.6 202.7,254.8 202.6,254.9 202.6,255 202.5,255.1 202.5,255.3 202.4,255.4 202.4,255.5 202.3,255.6 202.3,255.8 
		202.2,255.9 202.2,256 202.1,256.1 202.1,256.3 202,256.4 202,256.5 201.9,256.6 201.8,256.8 201.8,256.9 201.7,257 201.7,257.1 
		201.6,257.3 201.6,257.4 201.5,257.5 201.5,257.6 201.4,257.8 201.4,257.9 201.3,258 201.3,258.1 201.2,258.3 201.1,258.4 
		201.1,258.5 201,258.6 201,258.8 200.9,258.9 200.9,259 200.8,259.1 200.8,259.3 200.7,259.4 200.6,259.5 200.6,259.6 200.5,259.7 
		200.5,259.9 200.4,260 200.4,260.1 200.3,260.2 200.2,260.4 200.2,260.5 200.1,260.6 200.1,260.7 200,260.9 200,261 199.9,261.1 
		199.8,261.2 199.8,261.3 199.7,261.5 199.7,261.6 199.6,261.7 199.5,261.8 199.5,262 199.4,262.1 199.4,262.2 199.3,262.3 
		199.2,262.4 199.2,262.6 199.1,262.7 199.1,262.8 199,262.9 198.9,263.1 198.9,263.2 198.8,263.3 198.8,263.4 198.7,263.5 
		198.6,263.7 198.6,263.8 198.5,263.9 198.4,264 198.4,264.1 198.3,264.3 198.3,264.4 198.2,264.5 198.1,264.6 198.1,264.7 
		198,264.9 197.9,265 197.9,265.1 197.8,265.2 197.8,265.3 197.7,265.5 197.6,265.6 197.6,265.7 197.5,265.8 197.4,265.9 
		197.4,266.1 197.3,266.2 197.2,266.3 197.2,266.4 197.1,266.5 197,266.7 197,266.8 196.9,266.9 196.8,267 196.8,267.1 196.7,267.2 
		196.6,267.4 196.6,267.5 196.5,267.6 196.4,267.7 196.4,267.8 196.3,268 196.2,268.1 196.2,268.2 196.1,268.3 196,268.4 196,268.5 
		195.9,268.7 195.8,268.8 195.8,268.9 195.7,269 195.6,269.1 195.6,269.2 195.5,269.3 195.5,269.4 195.4,269.5 195.4,269.6 
		195.3,269.7 195.2,269.8 195.2,269.9 195.1,270 195.1,270 195,270.1 195,270.2 194.9,270.3 194.9,270.4 194.8,270.5 194.7,270.6 
		194.7,270.7 194.6,270.8 194.6,270.9 194.5,271 194.5,271.1 194.4,271.2 194.3,271.3 194.3,271.4 194.2,271.4 194.2,271.5 
		194.1,271.6 194,271.7 194,271.8 193.9,271.9 193.9,272 193.8,272.1 193.8,272.2 193.7,272.3 193.6,272.4 193.6,272.5 193.5,272.6 
		193.5,272.6 193.4,272.7 193.3,272.8 193.3,272.9 193.2,273 193.2,273.1 193.1,273.2 193,273.3 193,273.4 192.9,273.5 192.9,273.6 
		192.8,273.7 192.7,273.7 192.7,273.8 192.6,273.9 192.6,274 192.5,274.1 192.4,274.2 192.4,274.3 192.3,274.4 192.3,274.5 
		192.2,274.6 192.1,274.7 192.1,274.7 192,274.8 191.9,274.9 191.9,275 191.8,275.1 191.8,275.2 191.7,275.3 191.6,275.4 
		191.6,275.5 191.5,275.6 191.4,275.6 191.4,275.7 191.3,275.8 191.3,275.9 191.2,276 191.1,276.1 191.1,276.2 191,276.3 
		190.9,276.4 190.9,276.5 190.8,276.5 190.8,276.6 190.7,276.7 190.6,276.8 190.6,276.9 190.5,277 190.4,277.1 190.4,277.2 
		190.3,277.3 190.2,277.3 190.2,277.4 190.1,277.5 190.1,277.6 190,277.7 189.9,277.8 189.9,277.9 189.8,278 189.7,278.1 
		189.7,278.1 189.6,278.2 189.5,278.3 189.5,278.4 189.4,278.5 189.3,278.6 189.3,278.7 189.2,278.8 189.1,278.8 189.1,278.9 
		189,279 188.9,279.1 188.9,279.2 188.8,279.3 188.7,279.4 188.7,279.5 188.6,279.5 188.5,279.6 188.5,279.7 188.4,279.8 
		188.3,279.9 188.3,280 188.2,280.1 188.1,280.2 188.1,280.2 188,280.3 187.9,280.4 187.9,280.5 187.8,280.6 187.7,280.7 
		187.7,280.8 187.6,280.8 187.5,280.9 187.5,281 187.4,281.1 187.3,281.2 187.3,281.3 187.2,281.4 187.1,281.4 187.1,281.5 
		187,281.6 186.9,281.7 186.9,281.8 186.8,281.9 186.7,282 186.7,282 186.6,282.1 186.5,282.2 186.5,282.3 186.4,282.4 186.3,282.5 
		186.2,282.6 186.2,282.6 186.1,282.7 186,282.8 186,282.9 185.9,283 185.8,283.1 185.8,283.2 185.7,283.2 185.6,283.3 185.5,283.4 
		185.5,283.5 185.4,283.6 185.3,283.7 185.3,283.7 185.2,283.8 185.1,283.9 185.1,284 185,284.1 184.9,284.2 184.8,284.2 
		184.8,284.3 184.7,284.4 184.6,284.5 184.6,284.6 184.5,284.7 184.4,284.7 184.3,284.8 184.3,284.9 184.2,285 184.1,285.1 
		184.1,285.2 184,285.2 183.9,285.3 183.8,285.4 183.8,285.5 183.7,285.6 183.6,285.7 183.6,285.7 183.5,285.8 183.4,285.9 
		183.3,286 183.3,286.1 183.2,286.1 183.1,286.2 183,286.3 183,286.4 182.9,286.5 182.8,286.6 182.8,286.6 182.7,286.7 182.6,286.8 
		182.5,286.9 182.5,287 182.4,287 182.3,287.1 182.2,287.2 182.2,287.3 182.1,287.4 182,287.5 181.9,287.5 181.9,287.6 181.8,287.7 
		181.7,287.8 181.7,287.9 181.6,287.9 181.5,288 181.4,288.1 181.4,288.2 181.3,288.3 181.2,288.3 181.1,288.4 181.1,288.5 
		181,288.6 180.9,288.7 180.8,288.7 180.8,288.8 180.7,288.9 180.6,289 180.5,289.1 180.5,289.1 180.4,289.2 180.3,289.3 
		180.2,289.4 180.2,289.5 180.1,289.5 180,289.6 179.9,289.7 179.8,289.8 179.8,289.9 179.7,289.9 179.6,290 179.5,290.1 
		179.5,290.2 179.4,290.2 179.3,290.3 179.2,290.4 179.2,290.5 179.1,290.6 179,290.6 178.9,290.7 178.9,290.8 178.8,290.9 
		178.7,290.9 178.6,291 178.5,291.1 178.5,291.2 178.4,291.3 178.3,291.3 178.2,291.4 178.2,291.5 178.1,291.6 178,291.7 
		177.9,291.7 177.8,291.8 177.8,291.9 177.7,292 177.6,292.1 177.5,292.1 177.4,292.2 177.4,292.3 177.3,292.4 177.2,292.4 
		177.1,292.5 177,292.6 177,292.7 176.9,292.8 176.8,292.8 176.7,292.9 176.6,293 176.6,293.1 176.5,293.2 176.4,293.2 176.3,293.3 
		176.2,293.4 176.2,293.5 176.1,293.5 176,293.6 175.9,293.7 175.8,293.8 175.7,293.8 175.7,293.9 175.6,294 175.5,294.1 
		175.4,294.2 175.3,294.2 175.3,294.3 175.2,294.4 175.1,294.5 175,294.5 174.9,294.6 174.8,294.7 174.8,294.8 174.7,294.8 
		174.6,294.9 174.5,295 174.4,295.1 174.4,295.1 174.3,295.2 174.2,295.3 174.1,295.4 174,295.4 173.9,295.5 173.9,295.6 
		173.8,295.7 173.7,295.8 173.6,295.8 173.5,295.9 173.4,296 173.4,296.1 173.3,296.1 173.2,296.2 173.1,296.3 173,296.3 
		172.9,296.4 172.9,296.5 172.8,296.6 172.7,296.6 172.6,296.7 172.5,296.8 172.4,296.9 172.4,296.9 172.3,297 172.2,297.1 
		172.1,297.2 172,297.2 171.9,297.3 171.9,297.4 171.8,297.5 171.7,297.5 171.6,297.6 171.5,297.7 171.4,297.8 171.3,297.8 
		171.3,297.9 171.2,298 171.1,298 171,298.1 170.9,298.2 170.8,298.3 170.7,298.3 170.7,298.4 170.6,298.5 170.5,298.6 170.4,298.6 
		170.3,298.7 170.2,298.8 170.1,298.8 170.1,298.9 170,299 169.9,299.1 169.8,299.1 169.7,299.2 169.6,299.3 169.5,299.3 
		169.5,299.4 169.4,299.5 169.3,299.6 169.2,299.6 169.1,299.7 169,299.8 168.9,299.8 168.9,299.9 168.8,300 168.7,300.1 
		168.6,300.1 168.5,300.2 168.4,300.3 168.3,300.3 168.2,300.4 168.2,300.5 168.1,300.5 168,300.6 167.9,300.7 167.8,300.8 
		167.7,300.8 167.6,300.9 167.5,301 167.5,301 167.4,301.1 167.3,301.2 167.2,301.2 167.1,301.3 167,301.4 166.9,301.5 166.8,301.5 
		166.8,301.6 166.7,301.7 166.6,301.7 166.5,301.8 166.4,301.9 166.3,301.9 166.2,302 166.1,302.1 166,302.1 166,302.2 165.9,302.3 
		165.8,302.3 165.7,302.4 165.6,302.5 165.5,302.6 165.4,302.6 165.3,302.7 165.2,302.8 165.2,302.8 165.1,302.9 165,303 164.9,303 
		164.8,303.1 164.7,303.2 164.6,303.2 164.5,303.3 164.4,303.4 164.4,303.4 164.3,303.5 164.2,303.6 164.1,303.6 164,303.7 
		163.9,303.8 163.8,303.8 163.7,303.9 163.6,304 163.5,304 163.5,304.1 163.4,304.2 163.3,304.2 163.2,304.3 163.1,304.4 163,304.4 
		162.9,304.5 162.8,304.6 162.7,304.6 162.6,304.7 162.5,304.8 162.5,304.8 162.4,304.9 162.3,304.9 162.2,305 162.1,305.1 
		162,305.1 161.9,305.2 161.8,305.3 161.7,305.3 161.6,305.4 161.5,305.5 161.5,305.5 161.4,305.6 161.3,305.7 161.2,305.7 
		161.1,305.8 161,305.9 160.9,305.9 160.7,306 160.5,306.2 160.3,306.3 160.2,306.4 160,306.6 159.8,306.7 159.6,306.8 159.4,306.9 
		159.2,307.1 159.1,307.2 158.9,307.3 158.7,307.4 158.5,307.6 158.3,307.7 158.1,307.8 157.9,307.9 157.7,308 157.6,308.2 
		157.4,308.3 157.2,308.4 157,308.5 156.8,308.7 156.6,308.8 156.4,308.9 156.2,309 156.1,309.1 156,309.2 155.9,309.2 155.7,309.3 
		155.6,309.4 155.5,309.5 155.4,309.5 155.3,309.6 155.1,309.7 155,309.8 154.9,309.9 154.8,309.9 154.6,310 154.5,310.1 
		154.4,310.2 154.3,310.2 154.1,310.3 154,310.4 153.9,310.5 153.8,310.5 153.7,310.6 153.5,310.7 153.4,310.8 153.3,310.8 
		153.2,310.9 153,311 152.9,311 152.8,311.1 152.7,311.2 152.5,311.3 152.4,311.3 152.3,311.4 152.2,311.5 152,311.6 151.9,311.6 
		151.8,311.7 151.7,311.8 151.5,311.8 151.4,311.9 151.3,312 151.2,312.1 151,312.1 150.9,312.2 150.8,312.3 150.7,312.3 
		150.5,312.4 150.4,312.5 150.3,312.6 150.1,312.6 150,312.7 149.9,312.8 149.8,312.8 149.6,312.9 149.5,313 149.4,313.1 
		149.3,313.1 149.1,313.2 149,313.3 148.9,313.3 148.8,313.4 148.6,313.5 148.5,313.5 148.4,313.6 148.2,313.7 148.1,313.7 
		148,313.8 147.9,313.9 147.7,313.9 147.6,314 147.5,314.1 147.4,314.2 147.2,314.2 147.1,314.3 147,314.4 146.8,314.4 146.7,314.5 
		146.6,314.6 146.5,314.6 146.3,314.7 146.2,314.8 146.1,314.8 145.9,314.9 145.8,315 145.7,315 145.6,315.1 145.4,315.1 
		145.3,315.2 145.2,315.3 145,315.3 144.9,315.4 144.8,315.5 144.7,315.5 144.5,315.6 144.4,315.7 144.3,315.7 144.1,315.8 
		144,315.9 143.9,315.9 143.7,316 143.6,316.1 143.5,316.1 143.4,316.2 143.2,316.2 143.1,316.3 143,316.4 142.8,316.4 142.7,316.5 
		142.6,316.6 142.4,316.6 142.3,316.7 142.2,316.7 142.1,316.8 141.9,316.9 141.8,316.9 141.7,317 141.5,317.1 141.4,317.1 
		141.3,317.2 141.1,317.2 141,317.3 140.9,317.4 140.7,317.4 140.6,317.5 140.5,317.5 140.4,317.6 140.2,317.7 140.1,317.7 
		140,317.8 139.8,317.9 139.6,318 139.4,318 139.2,318.1 139,318.2 138.8,318.3 138.6,318.4 138.4,318.5 138.2,318.5 138,318.6 
		137.8,318.7 137.7,318.8 137.5,318.9 137.3,319 137.1,319 136.9,319.1 136.7,319.2 136.5,319.3 136.3,319.4 136.1,319.5 
		135.9,319.5 135.7,319.6 135.5,319.7 135.3,319.8 135.1,319.9 134.9,319.9 134.7,320 134.5,320.1 134.4,320.2 134.2,320.3 
		134,320.3 133.8,320.4 133.6,320.5 133.4,320.6 133.2,320.6 133,320.7 132.8,320.8 132.6,320.9 132.4,320.9 132.2,321 132,321.1 
		131.8,321.2 131.6,321.2 131.4,321.3 131.2,321.4 131,321.5 130.8,321.5 130.6,321.6 130.4,321.7 130.2,321.8 130,321.8 
		129.8,321.9 129.6,322 129.4,322 129.2,322.1 129,322.2 128.9,322.3 128.7,322.3 128.5,322.4 128.3,322.5 128.1,322.5 127.9,322.6 
		127.7,322.7 127.5,322.7 127.3,322.8 127.1,322.9 126.9,323 126.7,323 126.5,323.1 126.3,323.2 126.1,323.2 125.9,323.3 
		125.7,323.4 125.5,323.4 125.3,323.5 125.1,323.6 124.9,323.6 124.7,323.7 124.5,323.7 124.3,323.8 124.1,323.9 123.9,323.9 
		123.7,324 123.5,324.1 123.3,324.1 123.1,324.2 122.9,324.3 122.7,324.3 122.5,324.4 122.3,324.4 122.1,324.5 121.9,324.6 
		121.7,324.6 121.5,324.7 121.3,324.7 121.1,324.8 120.9,324.9 120.7,324.9 120.5,325 120.3,325 120,325.1 119.8,325.2 119.6,325.2 
		119.4,325.3 119.2,325.3 119,325.4 118.8,325.4 118.6,325.5 118.4,325.6 118.2,325.6 118,325.7 117.8,325.7 117.6,325.8 
		117.4,325.8 117.2,325.9 117,325.9 116.8,326 116.6,326.1 116.4,326.1 116.2,326.2 116,326.2 115.8,326.3 115.6,326.3 115.4,326.4 
		115.2,326.4 115,326.5 114.8,326.5 114.6,326.6 114.3,326.7 114,326.6 113.7,326.5 113.5,326.4 113.2,326.4 112.9,326.3 
		112.7,326.2 112.4,326.2 112.1,326.1 111.9,326 111.6,326 111.3,325.9 111.2,325.8 111,325.8 110.9,325.8 110.8,325.7 110.6,325.7 
		110.5,325.7 110.4,325.6 110.2,325.6 110.1,325.5 110,325.5 109.8,325.5 109.7,325.4 109.6,325.4 109.4,325.4 109.3,325.3 
		109.2,325.3 109,325.2 108.9,325.2 108.8,325.2 108.6,325.1 108.5,325.1 108.4,325 108.2,325 108.1,325 108,324.9 107.8,324.9 
		107.7,324.9 107.6,324.8 107.4,324.8 107.3,324.7 107.2,324.7 107,324.6 106.9,324.6 106.7,324.6 106.6,324.5 106.5,324.5 
		106.4,324.4 106.2,324.4 106.1,324.4 105.9,324.3 105.8,324.3 105.7,324.2 105.5,324.2 105.4,324.2 105.3,324.1 105.1,324.1 
		105,324 104.9,324 104.7,323.9 104.6,323.9 104.5,323.9 104.4,323.8 104.2,323.8 104.1,323.7 104,323.7 103.8,323.6 103.7,323.6 
		103.6,323.6 103.4,323.5 103.3,323.5 103.2,323.4 103,323.4 102.9,323.3 102.8,323.3 102.6,323.3 102.5,323.2 102.4,323.2 
		102.2,323.1 102.1,323.1 102,323 101.8,323 101.7,322.9 101.6,322.9 101.4,322.9 101.3,322.8 101.2,322.8 101,322.7 100.9,322.7 
		100.8,322.6 100.6,322.6 100.5,322.5 100.4,322.5 100.2,322.4 100.1,322.4 100,322.3 99.9,322.3 99.7,322.3 99.6,322.2 99.5,322.2 
		99.3,322.1 99.2,322.1 99.1,322 98.9,322 98.8,321.9 98.7,321.9 98.5,321.8 98.4,321.8 98.3,321.7 98.1,321.7 98,321.6 97.9,321.6 
		97.8,321.5 97.6,321.5 97.5,321.4 97.4,321.4 97.2,321.3 97.1,321.3 97,321.2 96.8,321.2 96.7,321.1 96.6,321.1 96.4,321 96.3,321 
		96.2,320.9 96.1,320.9 95.9,320.8 95.8,320.8 95.7,320.7 95.5,320.7 95.4,320.6 95.3,320.6 95.1,320.5 95,320.5 94.9,320.4 
		94.8,320.4 94.6,320.3 94.5,320.3 94.4,320.2 94.2,320.2 94.1,320.1 94,320.1 93.8,320 93.7,320 93.6,319.9 93.5,319.9 93.3,319.8 
		93.2,319.7 93.1,319.7 92.9,319.6 92.8,319.6 92.7,319.5 92.6,319.5 92.4,319.4 92.3,319.4 92.2,319.3 92,319.3 91.9,319.2 
		91.8,319.2 91.7,319.1 91.5,319 91.4,319 91.3,318.9 91.1,318.9 91,318.8 90.9,318.8 90.8,318.7 90.6,318.7 90.5,318.6 90.4,318.6 
		90.2,318.5 90.1,318.4 90,318.4 89.9,318.3 89.7,318.3 89.6,318.2 89.5,318.2 89.4,318.1 89.2,318 89.1,318 89,317.9 88.8,317.9 
		88.7,317.8 88.6,317.8 88.5,317.7 88.3,317.6 88.2,317.6 88.1,317.5 88,317.5 87.8,317.4 87.7,317.3 87.6,317.3 87.5,317.2 
		87.3,317.2 87.2,317.1 87.1,317.1 86.9,317 86.8,316.9 86.7,316.9 86.6,316.8 86.4,316.8 86.3,316.7 86.2,316.6 86.1,316.6 
		85.9,316.5 85.8,316.5 85.7,316.4 85.6,316.3 85.4,316.3 85.3,316.2 85.2,316.2 85.1,316.1 84.9,316 84.8,316 84.7,315.9 
		84.6,315.8 84.4,315.8 84.3,315.7 84.2,315.7 84.1,315.6 83.9,315.5 83.8,315.5 83.7,315.4 83.6,315.3 83.4,315.3 83.3,315.2 
		83.2,315.2 83.1,315.1 82.9,315 82.8,315 82.7,314.9 82.6,314.8 82.4,314.8 82.3,314.7 82.2,314.6 82.1,314.6 81.9,314.5 
		81.8,314.5 81.7,314.4 81.6,314.3 81.4,314.3 81.3,314.2 81.2,314.1 81.1,314.1 81,314 80.8,313.9 80.7,313.9 80.6,313.8 
		80.4,313.7 80.3,313.7 80.2,313.6 80,313.5 79.9,313.4 79.8,313.4 79.7,313.3 79.5,313.2 79.4,313.2 79.3,313.1 79.1,313 79,312.9 
		78.9,312.9 78.7,312.8 78.6,312.7 78.5,312.6 78.3,312.6 78.2,312.5 78.1,312.4 77.9,312.4 77.8,312.3 77.7,312.2 77.6,312.1 
		77.4,312.1 77.3,312 77.2,311.9 77,311.8 76.9,311.8 76.8,311.7 76.7,311.6 76.5,311.5 76.4,311.5 76.3,311.4 76.1,311.3 76,311.2 
		75.9,311.2 75.7,311.1 75.6,311 75.5,310.9 75.4,310.9 75.2,310.8 75.1,310.7 75,310.6 74.8,310.5 74.7,310.5 74.6,310.4 
		74.5,310.3 74.3,310.2 74.2,310.2 74.1,310.1 73.9,310 73.8,309.9 73.7,309.8 73.6,309.8 73.4,309.7 73.3,309.6 73.2,309.5 
		73.1,309.5 72.9,309.4 72.8,309.3 72.7,309.2 72.5,309.1 72.4,309.1 72.3,309 72.2,308.9 72,308.8 71.9,308.7 71.8,308.7 
		71.7,308.6 71.5,308.5 71.4,308.4 71.3,308.3 71.2,308.2 71,308.2 70.9,308.1 70.8,308 70.7,307.9 70.5,307.8 70.4,307.8 
		70.3,307.7 70.2,307.6 70,307.5 69.9,307.4 69.8,307.3 69.7,307.3 69.5,307.2 69.4,307.1 69.3,307 69.2,306.9 69,306.8 68.9,306.8 
		68.8,306.7 68.7,306.6 68.5,306.5 68.4,306.4 68.3,306.3 68.2,306.3 68,306.2 67.9,306.1 67.8,306 67.7,305.9 67.6,305.8 
		67.4,305.7 67.3,305.7 67.2,305.6 67.1,305.5 66.9,305.4 66.8,305.3 66.7,305.2 66.6,305.1 66.5,305.1 66.3,305 66.2,304.9 
		66.1,304.8 66,304.7 65.8,304.6 65.7,304.5 65.6,304.4 65.5,304.4 65.4,304.3 65.2,304.2 65.1,304.1 65,304 64.9,303.9 64.8,303.8 
		64.6,303.7 64.5,303.6 64.4,303.6 64.3,303.5 64.2,303.4 64,303.3 63.9,303.2 63.8,303.1 63.7,303 63.6,302.9 63.4,302.8 
		63.3,302.7 63.2,302.7 63.1,302.6 63,302.5 62.8,302.4 62.7,302.3 62.6,302.2 62.5,302.1 62.4,302 62.2,301.9 62.1,301.8 62,301.7 
		61.9,301.7 61.8,301.6 61.7,301.5 61.5,301.4 61.4,301.3 61.3,301.2 61.2,301.1 61.1,301 61,300.9 60.8,300.8 60.7,300.7 
		60.6,300.6 60.5,300.5 60.4,300.4 60.2,300.3 60.1,300.3 60,300.2 59.9,300.1 59.8,300 59.7,299.9 59.6,299.8 59.4,299.7 
		59.3,299.6 59.2,299.5 59.1,299.4 59,299.3 58.9,299.2 58.7,299.1 58.6,299 58.5,298.9 58.4,298.8 58.3,298.7 58.2,298.6 
		58.1,298.5 57.9,298.4 57.8,298.3 57.7,298.2 57.6,298.1 57.5,298 57.4,298 57.3,297.9 57.1,297.8 57,297.7 56.9,297.6 56.8,297.5 
		56.7,297.4 56.6,297.3 56.5,297.2 56.4,297.1 56.2,297 56.1,296.9 56,296.8 55.9,296.7 55.8,296.6 55.7,296.5 55.6,296.4 
		55.5,296.3 55.3,296.2 55.2,296.1 55.1,296 55,295.9 54.9,295.8 54.8,295.7 54.7,295.6 54.6,295.5 54.5,295.4 54.3,295.3 
		54.2,295.2 54.1,295.1 54,295 53.9,294.9 53.8,294.8 53.7,294.7 53.6,294.6 53.5,294.5 53.4,294.4 53.2,294.2 53.1,294.1 53,294 
		52.9,293.9 52.8,293.8 52.7,293.7 52.6,293.6 52.5,293.5 52.4,293.4 52.3,293.3 52.2,293.2 52.1,293.1 51.9,293 51.8,292.9 
		51.7,292.8 51.6,292.7 51.5,292.6 51.4,292.5 51.3,292.4 51.2,292.3 51.1,292.2 51,292.1 50.9,292 50.8,291.9 50.7,291.7 
		50.6,291.6 50.5,291.5 50.3,291.4 50.2,291.3 50.1,291.2 50,291.1 49.9,291 49.8,290.9 49.7,290.8 49.6,290.7 49.5,290.6 
		49.4,290.5 49.3,290.4 49.2,290.3 49.1,290.2 49,290.1 48.9,290 48.8,289.9 48.7,289.8 48.6,289.7 48.5,289.5 48.4,289.4 
		48.3,289.3 48.2,289.2 48.1,289.1 48,289 47.9,288.9 47.8,288.8 47.7,288.7 47.6,288.6 47.5,288.5 47.4,288.4 47.3,288.3 
		47.2,288.2 47.1,288.1 47,288 46.9,287.8 46.8,287.7 46.7,287.6 46.6,287.5 46.5,287.4 46.4,287.3 46.3,287.2 46.2,287.1 46.1,287 
		46,286.9 45.9,286.8 45.8,286.7 45.7,286.5 45.7,286.4 45.6,286.3 45.5,286.2 45.4,286.1 45.3,286 45.2,285.9 45.1,285.8 45,285.7 
		44.9,285.6 44.8,285.5 44.7,285.3 44.6,285.2 44.5,285.1 44.4,285 44.3,284.9 44.2,284.8 44.1,284.7 44,284.6 43.9,284.5 
		43.8,284.3 43.7,284.2 43.7,284.1 43.6,284 43.5,283.9 43.4,283.8 43.3,283.7 43.2,283.6 43.1,283.5 43,283.3 42.9,283.2 
		42.8,283.1 42.7,283 42.6,282.9 42.5,282.8 42.4,282.7 42.4,282.6 42.3,282.4 42.2,282.3 42.1,282.2 42,282.1 41.9,282 41.8,281.9 
		41.7,281.8 41.6,281.6 41.5,281.5 41.4,281.4 41.4,281.3 41.3,281.2 41.2,281.1 41.1,281 41,280.8 40.9,280.7 40.8,280.6 
		40.7,280.5 40.6,280.4 40.5,280.3 40.5,280.2 40.4,280 40.3,279.9 40.2,279.8 40.1,279.7 40,279.6 39.9,279.5 39.8,279.3 
		39.8,279.2 39.7,279.1 39.6,279 39.5,278.9 39.4,278.8 39.3,278.6 39.2,278.5 39.1,278.4 39.1,278.3 39,278.2 38.9,278.1 
		38.8,277.9 38.7,277.8 38.6,277.7 38.5,277.6 38.5,277.5 38.4,277.4 38.3,277.2 38.2,277.1 38.1,277 38,276.9 37.9,276.8 
		37.9,276.6 37.8,276.5 37.7,276.4 37.6,276.3 37.5,276.2 37.4,276.1 37.4,275.9 37.3,275.8 37.2,275.7 37.1,275.6 37,275.5 
		36.9,275.3 36.9,275.2 36.8,275.1 36.7,275 36.6,274.9 36.5,274.7 36.5,274.6 36.4,274.5 36.3,274.4 36.2,274.3 36.1,274.1 36,274 
		36,273.9 35.9,273.8 35.8,273.6 35.7,273.5 35.6,273.4 35.6,273.3 35.5,273.2 35.4,273 35.3,272.9 35.3,272.8 35.2,272.7 
		35.1,272.6 35,272.4 34.9,272.3 34.9,272.2 34.8,272.1 34.7,271.9 34.6,271.8 34.5,271.7 34.5,271.6 34.4,271.4 34.3,271.3 
		34.2,271.2 34.2,271.1 34.1,271 34,270.8 33.9,270.7 33.9,270.6 33.8,270.5 33.7,270.3 33.6,270.2 33.6,270.1 33.5,270 33.4,269.8 
		33.3,269.7 33.3,269.6 33.2,269.5 33.1,269.3 33,269.2 33,269.1 32.9,269 32.8,268.8 32.7,268.7 32.7,268.6 32.6,268.5 32.5,268.3 
		32.4,268.2 32.4,268.1 32.3,268 32.2,267.8 32.2,267.7 32.1,267.6 32,267.5 31.9,267.3 31.9,267.2 31.8,267.1 31.7,266.9 
		31.7,266.8 31.6,266.7 31.5,266.6 31.4,266.4 31.4,266.3 31.3,266.2 31.2,266.1 31.2,265.9 31.1,265.8 31,265.7 31,265.5 
		30.9,265.4 30.8,265.3 30.7,265.2 30.7,265 30.6,264.9 30.5,264.8 30.5,264.6 30.4,264.5 30.3,264.4 30.3,264.3 30.2,264.1 
		30.1,264 30.1,263.9 30,263.7 29.9,263.6 29.9,263.5 29.8,263.4 29.7,263.2 29.7,263.1 29.6,263 29.5,262.8 29.5,262.7 29.4,262.6 
		29.3,262.5 29.3,262.3 29.2,262.2 29.2,262.1 29.1,261.9 29,261.8 29,261.7 28.9,261.5 28.8,261.4 28.8,261.3 28.7,261.1 28.6,261 
		28.6,260.9 28.5,260.8 28.5,260.7 28.4,260.5 28.4,260.4 28.3,260.3 28.3,260.2 28.2,260.1 28.1,260 28.1,259.8 28,259.7 28,259.6 
		27.9,259.5 27.9,259.4 27.8,259.3 27.8,259.1 27.7,259 27.7,258.9 27.6,258.8 27.6,258.7 27.5,258.6 27.5,258.4 27.4,258.3 
		27.4,258.2 27.3,258.1 27.3,258 27.2,257.9 27.2,257.7 27.1,257.6 27,257.5 27,257.4 26.9,257.3 26.9,257.2 26.8,257 26.8,256.9 
		26.7,256.8 26.7,256.7 26.6,256.6 26.6,256.4 26.5,256.3 26.5,256.2 26.4,256.1 26.4,256 26.4,255.9 26.3,255.7 26.3,255.6 
		26.2,255.5 26.2,255.4 26.1,255.3 26.1,255.1 26,255 26,254.9 25.9,254.8 25.9,254.7 25.8,254.6 25.8,254.4 25.7,254.3 25.7,254.2 
		25.6,254.1 25.6,254 25.5,253.8 25.5,253.7 25.4,253.6 25.4,253.5 25.4,253.4 25.3,253.2 25.3,253.1 25.2,253 25.2,252.9 
		25.1,252.8 25.1,252.6 25,252.5 25,252.4 24.9,252.3 24.9,252.2 24.9,252 24.8,251.9 24.8,251.8 24.7,251.7 24.7,251.6 24.6,251.4 
		24.6,251.3 24.5,251.2 24.5,251.1 24.5,251 24.4,250.8 24.4,250.7 24.3,250.6 24.3,250.5 24.2,250.4 24.2,250.2 24.2,250.1 
		24.1,250 24.1,249.9 24,249.8 24,249.6 24,249.5 23.9,249.4 23.9,249.3 23.8,249.1 23.8,249 23.7,248.9 23.7,248.8 23.7,248.7 
		23.6,248.5 23.6,248.4 23.5,248.3 23.5,248.2 23.5,248.1 23.4,247.9 23.4,247.8 23.3,247.7 23.3,247.6 23.3,247.4 23.2,247.3 
		23.2,247.2 23.1,247.1 23.1,247 23.1,246.8 23,246.7 23,246.6 22.9,246.5 22.9,246.3 22.9,246.2 22.8,246.1 22.8,246 22.8,245.9 
		22.7,245.7 22.7,245.6 22.6,245.5 22.6,245.4 22.6,245.2 22.5,245.1 22.5,245 22.5,244.9 22.4,244.8 22.4,244.6 22.3,244.5 
		22.3,244.4 22.3,244.3 22.2,244.1 22.2,244 22.2,243.9 22.1,243.8 22.1,243.6 22.1,243.5 22,243.4 22,243.3 22,243.2 21.9,243 
		21.9,242.9 21.8,242.8 21.8,242.7 21.8,242.5 21.7,242.4 21.7,242.3 21.7,242.2 21.6,242 21.6,241.9 21.6,241.8 21.5,241.7 
		21.5,241.6 21.5,241.4 21.4,241.3 21.4,241.2 21.4,241.1 21.3,240.9 21.3,240.8 21.3,240.7 21.2,240.6 21.2,240.4 21.2,240.3 
		21.1,240.2 21.1,240.1 21.1,239.9 21,239.8 21,239.7 21,239.6 20.9,239.4 20.9,239.3 20.9,239.2 20.9,239.1 20.8,238.9 20.8,238.8 
		20.8,238.7 20.7,238.6 20.7,238.4 20.7,238.3 20.6,238.2 20.6,238.1 20.6,238 20.5,237.8 20.5,237.7 20.5,237.6 20.5,237.5 
		20.4,237.3 20.4,237.2 20.4,237.1 20.3,237 20.3,236.8 20.3,236.7 20.2,236.6 20.2,236.5 20.2,236.3 20.2,236.2 20.1,236.1 
		20.1,236 20.1,235.8 20,235.7 20,235.5 19.9,235.2 19.9,235 19.8,234.7 19.8,234.5 19.7,234.2 19.7,234 19.6,233.7 19.6,233.5 
		19.5,233.2 19.4,233 19.4,232.7 19.3,232.5 19.3,232.2 19.2,231.9 19.2,231.7 19.1,231.4 19.1,231.2 19,230.9 19,230.7 18.9,230.4 
		18.9,230.2 18.9,229.9 18.8,229.7 18.8,229.4 18.7,229.2 18.7,228.9 18.6,228.7 18.6,228.4 18.6,228.3 18.5,228.2 18.5,228 
		18.5,227.9 18.5,227.8 18.4,227.7 18.4,227.5 18.4,227.4 18.4,227.3 18.4,227.2 18.3,227 18.3,226.9 18.3,226.8 18.3,226.7 
		18.3,226.5 18.2,226.4 18.2,226.3 18.2,226.1 18.2,226 18.2,225.9 18.1,225.8 18.1,225.6 18.1,225.5 18.1,225.4 18.1,225.3 
		18,225.1 18,225 18,224.9 18,224.8 18,224.6 17.9,224.5 17.9,224.4 17.9,224.2 17.9,224.1 17.9,224 17.9,223.9 17.8,223.7 
		17.8,223.6 17.8,223.5 17.8,223.4 17.8,223.2 17.7,223.1 17.7,223 17.7,222.8 17.7,222.7 17.7,222.6 17.7,222.5 17.6,222.3 
		17.6,222.2 17.6,222.1 17.6,222 17.6,221.8 17.6,221.7 17.6,221.6 17.5,221.4 17.5,221.3 17.5,221.1 17.5,221 17.5,220.8 
		17.5,220.7 17.4,220.5 17.4,220.4 17.4,220.2 17.4,220.1 17.4,219.9 17.4,219.8 17.3,219.6 17.3,219.5 17.3,219.4 17.3,219.2 
		17.3,219.1 17.3,218.9 17.3,218.8 17.2,218.6 17.2,218.5 17.2,218.3 17.2,218.2 17.2,218 17.2,217.9 17.2,217.7 17.2,217.6 
		17.1,217.4 17.1,217.3 17.1,217.1 17.1,216.8 17.1,216.5 17,216.2 17,215.9 17,215.6 17,215.3 17,215 16.9,214.7 16.9,214.5 
		16.9,214.2 16.9,213.9 16.9,213.6 16.8,213.3 16.8,212.7 16.8,212.1 16.7,211.5 16.7,211 16.7,210.4 16.6,209.8 16.6,209.3 
		16.6,208.7 16.5,208.2 16.5,207.6 16.5,207.1 16.4,206.5 16.4,206 16.4,205.4 16.4,205.1 16.4,204.9 16.3,204.6 16.3,204.3 
		16.3,204 16.3,203.7 16.3,203.5 16.3,203.2 16.3,202.9 16.3,202.6 16.3,202.4 16.2,202.1 16.2,201.8 16.2,201.5 16.2,201.2 
		16.2,201 16.2,200.7 16.2,200.4 16.2,200.1 16.2,199.9 16.2,199.6 16.2,199.3 16.2,199 16.1,198.7 16.1,198.5 16.1,198.2 
		16.1,197.9 16.1,197.6 16.1,197.4 16.1,197.1 16.1,196.8 16.1,196.5 16.1,196.2 16.1,196 16.1,195.7 16.1,195.4 16.1,195.1 
		16.1,194.9 16.1,194.6 16.1,194.3 16.1,121.1 46.1,121.1 46.1,194.3 46.1,194.5 46.1,194.8 46.1,195 46.1,195.2 46.1,195.4 
		46.1,195.7 46.1,195.9 46.1,196.1 46.1,196.4 46.1,196.6 46.1,196.8 46.1,197 46.1,197.3 46.1,197.5 46.1,197.7 46.1,197.9 
		46.1,198.2 46.2,198.4 46.2,198.6 46.2,198.9 46.2,199.1 46.2,199.3 46.2,199.5 46.2,199.8 46.2,200 46.2,200.2 46.2,200.5 
		46.2,200.7 46.2,201.1 46.2,201.6 46.3,201.9 46.3,202.3 46.3,202.7 46.3,203 46.3,203.4 46.3,203.7 46.3,204.1 46.4,204.4 
		46.4,204.8 46.4,205.2 46.4,205.5 46.4,205.9 46.5,206.2 46.5,206.6 46.5,206.9 46.5,207.3 46.5,207.6 46.6,208 46.6,208.4 
		46.6,208.7 46.6,209.1 46.6,209.4 46.7,209.8 46.7,210.1 46.7,210.5 46.7,210.9 46.8,211.2 46.8,211.6 46.8,211.9 46.8,212.3 
		46.9,212.6 46.9,213 46.9,213.3 47,213.6 47,213.9 47,214.3 47,214.6 47,214.7 47.1,214.9 47.1,215.1 47.1,215.2 47.1,215.4 
		47.1,215.5 47.1,215.7 47.1,215.9 47.2,216 47.2,216.2 47.2,216.3 47.2,216.5 47.2,216.6 47.2,216.8 47.3,217 47.3,217.1 
		47.3,217.3 47.3,217.4 47.3,217.6 47.3,217.8 47.4,217.9 47.4,218.1 47.4,218.2 47.4,218.4 47.4,218.6 47.5,218.7 47.5,218.9 
		47.5,219 47.5,219.2 47.5,219.3 47.5,219.5 47.6,219.7 47.6,219.8 47.6,220 47.6,220.1 47.7,220.3 47.7,220.5 47.7,220.6 
		47.7,220.8 47.7,220.9 47.7,221 47.8,221.1 47.8,221.2 47.8,221.2 47.8,221.3 47.8,221.4 47.8,221.5 47.8,221.6 47.8,221.6 
		47.9,221.7 47.9,221.8 47.9,221.9 47.9,222 47.9,222 47.9,222.1 47.9,222.2 47.9,222.3 48,222.3 48,222.4 48,222.5 48,222.6 
		48,222.7 48,222.7 48,222.8 48,222.9 48.1,223 48.1,223.1 48.1,223.1 48.1,223.2 48.1,223.3 48.1,223.4 48.1,223.4 48.1,223.5 
		48.2,223.6 48.2,223.7 48.2,223.7 48.2,223.8 48.2,223.9 48.2,224 48.2,224.1 48.3,224.1 48.3,224.2 48.3,224.3 48.3,224.4 
		48.3,224.4 48.3,224.5 48.3,224.6 48.4,224.7 48.4,224.7 48.4,224.8 48.4,224.9 48.4,225 48.4,225 48.4,225.1 48.5,225.2 
		48.5,225.3 48.5,225.4 48.5,225.4 48.5,225.5 48.5,225.6 48.5,225.7 48.6,225.7 48.6,225.9 48.6,226 48.7,226.2 48.7,226.3 
		48.7,226.5 48.7,226.6 48.8,226.8 48.8,227 48.8,227.1 48.9,227.3 48.9,227.4 48.9,227.6 49,227.7 49,227.9 49,228 49.1,228.2 
		49.1,228.3 49.2,228.5 49.2,228.6 49.2,228.8 49.3,228.9 49.3,229.1 49.3,229.2 49.4,229.4 49.4,229.5 49.4,229.7 49.5,229.8 
		49.5,230 49.6,230.1 49.6,230.3 49.6,230.4 49.7,230.6 49.7,230.7 49.7,230.9 49.8,231 49.8,231.2 49.9,231.3 49.9,231.5 
		49.9,231.6 50,231.8 50,231.9 50.1,232.1 50.1,232.2 50.1,232.4 50.2,232.5 50.2,232.7 50.3,232.8 50.3,233 50.4,233.2 50.4,233.4 
		50.5,233.6 50.5,233.8 50.6,233.9 50.6,234.1 50.7,234.3 50.7,234.5 50.8,234.7 50.8,234.9 50.9,235 50.9,235.2 51,235.4 51,235.6 
		51.1,235.8 51.1,235.9 51.2,236.1 51.2,236.3 51.3,236.5 51.4,236.7 51.4,236.9 51.4,236.9 51.5,237 51.5,237.1 51.5,237.2 
		51.5,237.3 51.6,237.4 51.6,237.5 51.6,237.6 51.7,237.7 51.7,237.8 51.7,237.8 51.7,237.9 51.8,238 51.8,238.1 51.8,238.2 
		51.9,238.3 51.9,238.4 51.9,238.5 51.9,238.6 52,238.7 52,238.8 52,238.8 52.1,238.9 52.1,239 52.1,239.1 52.2,239.2 52.2,239.3 
		52.2,239.4 52.2,239.5 52.3,239.6 52.3,239.6 52.3,239.7 52.4,239.8 52.4,239.9 52.4,240 52.5,240.1 52.5,240.2 52.5,240.3 
		52.6,240.4 52.6,240.5 52.6,240.5 52.6,240.6 52.7,240.7 52.7,240.8 52.7,240.9 52.8,241 52.8,241.1 52.8,241.2 52.9,241.3 
		52.9,241.3 52.9,241.4 53,241.5 53,241.6 53,241.7 53.1,241.8 53.1,241.9 53.1,242 53.2,242.1 53.2,242.1 53.2,242.2 53.3,242.3 
		53.3,242.4 53.3,242.5 53.4,242.6 53.4,242.7 53.4,242.8 53.5,242.9 53.5,242.9 53.5,243 53.6,243.1 53.6,243.2 53.6,243.3 
		53.7,243.4 53.7,243.5 53.7,243.6 53.8,243.6 53.8,243.7 53.8,243.8 53.9,243.9 53.9,244 53.9,244.1 54,244.2 54,244.3 54.1,244.3 
		54.1,244.4 54.1,244.5 54.2,244.6 54.2,244.7 54.2,244.8 54.3,244.9 54.3,245 54.4,245.1 54.4,245.1 54.4,245.2 54.5,245.3 
		54.5,245.4 54.5,245.5 54.6,245.6 54.6,245.7 54.7,245.8 54.7,245.8 54.7,245.9 54.8,246 54.8,246.1 54.8,246.2 54.9,246.3 
		54.9,246.4 55,246.5 55,246.5 55,246.6 55.1,246.7 55.1,246.8 55.2,246.9 55.2,247 55.2,247.1 55.3,247.2 55.3,247.2 55.4,247.3 
		55.4,247.4 55.4,247.5 55.5,247.6 55.5,247.7 55.6,247.8 55.6,247.8 55.6,247.9 55.7,248 55.7,248.1 55.8,248.2 55.8,248.3 
		55.8,248.4 55.9,248.5 55.9,248.5 56,248.6 56,248.7 56.1,248.8 56.1,248.9 56.1,249 56.2,249.1 56.2,249.1 56.3,249.2 56.3,249.3 
		56.4,249.4 56.4,249.5 56.4,249.6 56.5,249.7 56.5,249.7 56.6,249.8 56.6,249.9 56.7,250 56.7,250.1 56.7,250.2 56.8,250.2 
		56.8,250.3 56.9,250.4 56.9,250.5 57,250.6 57,250.7 57.1,250.8 57.1,250.8 57.1,250.9 57.2,251 57.2,251.1 57.3,251.2 57.3,251.3 
		57.4,251.3 57.4,251.4 57.5,251.5 57.5,251.6 57.6,251.7 57.6,251.8 57.6,251.9 57.7,251.9 57.7,252 57.8,252.1 57.8,252.2 
		57.9,252.3 57.9,252.4 58,252.4 58,252.5 58.1,252.6 58.1,252.7 58.2,252.8 58.2,252.9 58.3,252.9 58.3,253 58.4,253.1 58.4,253.2 
		58.4,253.3 58.5,253.4 58.5,253.4 58.6,253.5 58.6,253.6 58.7,253.7 58.7,253.8 58.8,253.8 58.8,253.9 58.9,254 58.9,254.1 
		59,254.2 59,254.3 59.1,254.3 59.1,254.4 59.2,254.5 59.2,254.6 59.3,254.7 59.3,254.8 59.4,254.8 59.4,254.9 59.5,255 59.5,255.1 
		59.6,255.2 59.6,255.2 59.7,255.3 59.7,255.4 59.8,255.4 59.8,255.5 59.8,255.6 59.9,255.7 59.9,255.7 60,255.8 60,255.9 
		60.1,255.9 60.1,256 60.1,256.1 60.2,256.1 60.2,256.2 60.3,256.3 60.3,256.3 60.4,256.4 60.4,256.5 60.5,256.5 60.5,256.6 
		60.5,256.7 60.6,256.7 60.6,256.8 60.7,256.9 60.7,256.9 60.8,257 60.8,257.1 60.8,257.2 60.9,257.2 60.9,257.3 61,257.4 61,257.4 
		61.1,257.5 61.1,257.6 61.2,257.6 61.2,257.7 61.3,257.8 61.3,257.8 61.3,257.9 61.4,258 61.4,258 61.5,258.1 61.5,258.2 
		61.6,258.2 61.6,258.3 61.7,258.4 61.7,258.4 61.8,258.5 61.8,258.6 61.8,258.6 61.9,258.7 61.9,258.8 62,258.8 62,258.9 62.1,259 
		62.1,259 62.2,259.1 62.2,259.2 62.3,259.2 62.3,259.3 62.4,259.4 62.4,259.4 62.5,259.5 62.5,259.6 62.5,259.6 62.6,259.7 
		62.6,259.8 62.7,259.8 62.7,259.9 62.8,259.9 62.8,260 62.9,260.1 62.9,260.1 63,260.2 63,260.3 63.1,260.3 63.1,260.4 63.2,260.5 
		63.2,260.5 63.3,260.6 63.3,260.7 63.4,260.7 63.4,260.8 63.5,260.9 63.5,260.9 63.6,261 63.6,261.1 63.7,261.1 63.7,261.2 
		63.7,261.3 63.8,261.3 63.8,261.4 63.9,261.4 63.9,261.5 64,261.6 64,261.6 64.1,261.7 64.1,261.8 64.2,261.8 64.2,261.9 64.3,262 
		64.3,262 64.4,262.1 64.4,262.2 64.5,262.2 64.5,262.3 64.6,262.3 64.6,262.4 64.7,262.5 64.7,262.5 64.8,262.6 64.8,262.7 
		64.9,262.7 64.9,262.8 65,262.9 65,262.9 65.1,263 65.1,263 65.2,263.1 65.2,263.2 65.3,263.2 65.3,263.3 65.4,263.4 65.4,263.4 
		65.5,263.5 65.5,263.5 65.6,263.6 65.6,263.7 65.7,263.7 65.8,263.8 65.8,263.9 65.9,263.9 65.9,264 66,264.1 66,264.1 66.1,264.2 
		66.1,264.2 66.2,264.3 66.2,264.4 66.3,264.4 66.3,264.5 66.4,264.5 66.4,264.6 66.5,264.7 66.5,264.7 66.6,264.8 66.6,264.9 
		66.7,264.9 66.7,265 66.8,265 66.8,265.1 66.9,265.2 66.9,265.2 67,265.3 67.1,265.4 67.1,265.4 67.2,265.5 67.2,265.5 67.3,265.6 
		67.3,265.7 67.4,265.7 67.4,265.8 67.5,265.8 67.5,265.9 67.6,266 67.6,266 67.7,266.1 67.7,266.1 67.8,266.2 67.9,266.3 
		67.9,266.3 68,266.4 68,266.5 68.1,266.5 68.1,266.6 68.2,266.6 68.2,266.7 68.3,266.8 68.3,266.8 68.4,266.9 68.4,266.9 68.5,267 
		68.6,267.1 68.6,267.1 68.7,267.2 68.7,267.2 68.8,267.3 68.8,267.4 68.9,267.4 68.9,267.5 69,267.5 69,267.6 69.1,267.7 
		69.2,267.7 69.2,267.8 69.3,267.8 69.3,267.9 69.4,268 69.4,268 69.5,268.1 69.5,268.1 69.6,268.2 69.7,268.2 69.7,268.3 
		69.8,268.4 69.8,268.4 69.9,268.5 69.9,268.5 70,268.6 70,268.7 70.1,268.7 70.2,268.8 70.2,268.8 70.3,268.9 70.3,269 70.4,269 
		70.4,269.1 70.5,269.1 70.5,269.2 70.6,269.2 70.7,269.3 70.7,269.4 70.8,269.4 70.8,269.5 70.9,269.5 70.9,269.6 71,269.7 
		71.1,269.7 71.1,269.8 71.2,269.8 71.2,269.9 71.3,269.9 71.3,270 71.4,270.1 71.5,270.1 71.5,270.2 71.6,270.2 71.6,270.3 
		71.7,270.3 71.7,270.4 71.8,270.5 71.9,270.5 71.9,270.6 72,270.6 72,270.7 72.1,270.7 72.1,270.8 72.2,270.9 72.3,270.9 72.3,271 
		72.4,271 72.4,271.1 72.5,271.1 72.5,271.2 72.6,271.3 72.7,271.3 72.7,271.4 72.8,271.5 72.9,271.5 73,271.6 73.1,271.7 
		73.1,271.8 73.2,271.8 73.3,271.9 73.4,272 73.5,272.1 73.5,272.1 73.6,272.2 73.7,272.3 73.8,272.4 73.9,272.4 73.9,272.5 
		74,272.6 74.1,272.7 74.2,272.7 74.3,272.8 74.3,272.9 74.4,273 74.5,273 74.6,273.1 74.7,273.2 74.7,273.3 74.8,273.3 74.9,273.4 
		75,273.5 75.1,273.6 75.1,273.6 75.2,273.7 75.3,273.8 75.4,273.9 75.5,273.9 75.6,274 75.6,274.1 75.7,274.1 75.8,274.2 
		75.9,274.3 76,274.4 76,274.4 76.1,274.5 76.2,274.6 76.3,274.6 76.4,274.7 76.5,274.8 76.5,274.9 76.6,274.9 76.7,275 76.8,275.1 
		76.9,275.2 77,275.2 77,275.3 77.1,275.4 77.2,275.4 77.3,275.5 77.4,275.6 77.5,275.6 77.5,275.7 77.6,275.8 77.7,275.9 
		77.8,275.9 77.9,276 78,276.1 78,276.1 78.1,276.2 78.2,276.3 78.3,276.4 78.4,276.4 78.5,276.5 78.6,276.6 78.6,276.6 78.7,276.7 
		78.8,276.8 78.9,276.8 79,276.9 79.1,277 79.1,277 79.2,277.1 79.3,277.2 79.4,277.3 79.5,277.3 79.6,277.4 79.7,277.5 79.7,277.5 
		79.8,277.6 79.9,277.7 80,277.7 80.1,277.8 80.2,277.9 80.3,277.9 80.4,278 80.4,278.1 80.5,278.1 80.6,278.2 80.7,278.3 
		80.8,278.3 80.9,278.4 81,278.5 81,278.5 81.1,278.6 81.2,278.7 81.3,278.7 81.4,278.8 81.5,278.9 81.6,278.9 81.7,279 81.7,279.1 
		81.8,279.1 81.9,279.2 82,279.3 82.1,279.3 82.2,279.4 82.3,279.5 82.4,279.5 82.4,279.6 82.5,279.7 82.6,279.7 82.7,279.8 
		82.8,279.9 82.9,279.9 83,280 83.1,280 83.2,280.1 83.2,280.2 83.3,280.2 83.4,280.3 83.5,280.4 83.6,280.4 83.7,280.5 83.8,280.6 
		83.9,280.6 84,280.7 84,280.7 84.1,280.8 84.2,280.9 84.3,280.9 84.4,281 84.5,281.1 84.6,281.1 84.7,281.2 84.8,281.2 84.9,281.3 
		84.9,281.4 85,281.4 85.1,281.5 85.2,281.6 85.3,281.6 85.4,281.7 85.5,281.7 85.6,281.8 85.7,281.9 85.8,281.9 85.9,282 
		85.9,282.1 86,282.1 86.1,282.2 86.2,282.2 86.3,282.3 86.4,282.4 86.5,282.4 86.6,282.5 86.7,282.5 86.8,282.6 86.9,282.7 
		86.9,282.7 87,282.8 87.1,282.8 87.2,282.9 87.3,283 87.4,283 87.5,283.1 87.6,283.1 87.7,283.2 87.8,283.3 87.9,283.3 88,283.4 
		88.1,283.4 88.1,283.5 88.2,283.6 88.3,283.6 88.4,283.7 88.5,283.7 88.6,283.8 88.7,283.8 88.8,283.9 88.9,284 89,284 89.1,284.1 
		89.2,284.1 89.3,284.2 89.4,284.3 89.4,284.3 89.5,284.4 89.6,284.4 89.7,284.5 89.8,284.5 89.9,284.6 90,284.7 90.1,284.7 
		90.2,284.8 90.3,284.8 90.4,284.9 90.5,284.9 90.6,285 90.7,285 90.8,285.1 90.9,285.2 90.9,285.2 91,285.3 91.1,285.3 91.2,285.4 
		91.3,285.4 91.4,285.5 91.5,285.5 91.6,285.6 91.7,285.7 91.8,285.7 91.9,285.8 92,285.8 92.1,285.9 92.2,285.9 92.3,286 92.4,286 
		92.5,286.1 92.6,286.2 92.7,286.2 92.8,286.3 92.8,286.3 92.9,286.4 93,286.4 93.1,286.5 93.2,286.5 93.3,286.6 93.4,286.6 
		93.5,286.7 93.6,286.7 93.7,286.8 93.8,286.8 93.9,286.9 94,287 94.1,287 94.2,287.1 94.3,287.1 94.4,287.2 94.5,287.2 94.6,287.3 
		94.7,287.3 94.8,287.4 94.9,287.4 95,287.5 95.1,287.5 95.2,287.6 95.3,287.6 95.4,287.7 95.5,287.8 95.6,287.8 95.8,287.9 
		95.9,288 96.1,288 96.2,288.1 96.3,288.2 96.5,288.3 96.6,288.3 96.8,288.4 96.9,288.5 97.1,288.6 97.2,288.6 97.3,288.7 
		97.5,288.8 97.6,288.8 97.8,288.9 97.9,289 98.1,289.1 98.2,289.1 98.4,289.2 98.5,289.3 98.6,289.3 98.8,289.4 98.9,289.5 
		99.1,289.5 99.2,289.6 99.4,289.7 99.5,289.8 99.7,289.8 99.8,289.9 99.9,290 100.1,290 100.2,290.1 100.4,290.2 100.5,290.2 
		100.7,290.3 100.8,290.4 101,290.4 101.1,290.5 101.3,290.6 101.4,290.6 101.5,290.7 101.7,290.8 101.8,290.8 102,290.9 
		102.1,290.9 102.3,291 102.4,291.1 102.6,291.1 102.7,291.2 102.9,291.3 103,291.3 103.2,291.4 103.3,291.5 103.5,291.5 
		103.6,291.6 103.8,291.6 103.9,291.7 104.1,291.8 104.2,291.8 104.3,291.9 104.5,292 104.6,292 104.8,292.1 104.9,292.1 
		105.1,292.2 105.2,292.3 105.4,292.3 105.5,292.4 105.7,292.4 105.8,292.5 106,292.6 106.1,292.6 106.3,292.7 106.4,292.7 
		106.6,292.8 106.7,292.9 106.9,292.9 107,293 107.2,293 107.3,293.1 107.5,293.1 107.6,293.2 107.8,293.3 107.9,293.3 108.1,293.4 
		108.2,293.4 108.4,293.5 108.5,293.5 108.7,293.6 108.8,293.6 109,293.7 109.1,293.8 109.3,293.8 109.4,293.9 109.6,293.9 
		109.7,294 109.9,294 110,294.1 110.2,294.1 110.3,294.2 110.5,294.2 110.6,294.3 110.8,294.3 110.9,294.4 111.1,294.4 111.2,294.5 
		111.4,294.6 111.5,294.6 111.7,294.7 111.9,294.7 112,294.8 112.2,294.8 112.3,294.9 112.5,294.9 112.6,295 112.8,295 112.9,295.1 
		113.1,295.1 113.2,295.2 113.4,295.2 113.5,295.3 113.7,295.3 113.8,295.4 114,295.4 114.1,295.5 114.3,295.5 114.4,295.5 
		114.6,295.4 114.8,295.4 114.9,295.3 115.1,295.3 115.2,295.2 115.4,295.2 115.5,295.1 115.7,295.1 115.8,295 116,295 116.1,294.9 
		116.3,294.9 116.4,294.8 116.6,294.8 116.7,294.7 116.9,294.7 117,294.6 117.2,294.6 117.3,294.5 117.5,294.4 117.6,294.4 
		117.8,294.3 117.9,294.3 118.1,294.2 118.3,294.2 118.4,294.1 118.6,294.1 118.7,294 118.9,294 119,293.9 119.2,293.9 119.3,293.8 
		119.5,293.8 119.6,293.7 119.8,293.6 119.9,293.6 120.1,293.5 120.2,293.5 120.4,293.4 120.5,293.4 120.7,293.3 120.8,293.3 
		121,293.2 121.1,293.1 121.3,293.1 121.4,293 121.6,293 121.7,292.9 121.9,292.9 122,292.8 122.2,292.7 122.3,292.7 122.5,292.6 
		122.6,292.6 122.8,292.5 122.9,292.4 123.1,292.4 123.2,292.3 123.3,292.3 123.5,292.2 123.6,292.1 123.8,292.1 123.9,292 
		124.1,292 124.2,291.9 124.4,291.8 124.5,291.8 124.7,291.7 124.8,291.6 125,291.6 125.1,291.5 125.3,291.5 125.4,291.4 
		125.6,291.3 125.7,291.3 125.9,291.2 126,291.1 126.2,291.1 126.3,291 126.5,290.9 126.6,290.9 126.7,290.8 126.9,290.8 127,290.7 
		127.2,290.6 127.3,290.6 127.5,290.5 127.6,290.4 127.8,290.4 127.9,290.3 128.1,290.2 128.2,290.2 128.4,290.1 128.5,290 
		128.6,290 128.8,289.9 128.9,289.8 129.1,289.8 129.2,289.7 129.4,289.6 129.5,289.5 129.7,289.5 129.8,289.4 129.9,289.3 
		130.1,289.3 130.2,289.2 130.4,289.1 130.5,289.1 130.7,289 130.8,288.9 131,288.8 131.1,288.8 131.2,288.7 131.4,288.6 
		131.5,288.6 131.7,288.5 131.8,288.4 132,288.3 132.1,288.3 132.2,288.2 132.4,288.1 132.5,288 132.7,288 132.8,287.9 133,287.8 
		133.1,287.8 133.2,287.7 133.3,287.6 133.4,287.6 133.5,287.5 133.6,287.5 133.7,287.4 133.8,287.4 133.9,287.3 134,287.3 
		134.1,287.2 134.2,287.2 134.3,287.1 134.4,287.1 134.5,287 134.6,287 134.7,286.9 134.8,286.8 134.9,286.8 135,286.7 135.1,286.7 
		135.2,286.6 135.3,286.6 135.4,286.5 135.5,286.5 135.5,286.4 135.6,286.4 135.7,286.3 135.8,286.3 135.9,286.2 136,286.2 
		136.1,286.1 136.2,286 136.3,286 136.4,285.9 136.5,285.9 136.6,285.8 136.7,285.8 136.8,285.7 136.9,285.7 137,285.6 137.1,285.5 
		137.2,285.5 137.3,285.4 137.4,285.4 137.4,285.3 137.5,285.3 137.6,285.2 137.7,285.2 137.8,285.1 137.9,285 138,285 138.1,284.9 
		138.2,284.9 138.3,284.8 138.4,284.8 138.5,284.7 138.6,284.7 138.7,284.6 138.8,284.5 138.9,284.5 139,284.4 139,284.4 
		139.1,284.3 139.2,284.3 139.3,284.2 139.4,284.1 139.5,284.1 139.6,284 139.7,284 139.8,283.9 139.9,283.8 140,283.8 140.1,283.7 
		140.2,283.7 140.3,283.6 140.4,283.6 140.4,283.5 140.5,283.4 140.6,283.4 140.7,283.3 140.8,283.3 140.9,283.2 141,283.1 
		141.1,283.1 141.2,283 141.3,283 141.4,282.9 141.5,282.8 141.5,282.8 141.6,282.7 141.7,282.7 141.8,282.6 141.9,282.5 142,282.5 
		142.1,282.4 142.2,282.4 142.3,282.3 142.4,282.2 142.5,282.2 142.6,282.1 142.6,282.1 142.7,282 142.8,281.9 142.9,281.9 
		143,281.8 143.1,281.7 143.2,281.7 143.3,281.6 143.4,281.6 143.5,281.5 143.6,281.4 143.6,281.4 143.7,281.3 143.8,281.2 
		143.9,281.2 144,281.1 144.1,281.1 144.2,281 144.3,280.9 144.4,280.9 144.5,280.8 144.5,280.7 144.6,280.7 144.7,280.6 
		144.8,280.6 144.9,280.5 145,280.4 145.1,280.4 145.2,280.3 145.3,280.2 145.3,280.2 145.4,280.1 145.5,280 145.6,280 145.7,279.9 
		145.8,279.9 145.9,279.8 146,279.7 146.1,279.7 146.1,279.6 146.2,279.5 146.3,279.5 146.4,279.4 146.5,279.3 146.6,279.3 
		146.7,279.2 146.8,279.1 146.8,279.1 146.9,279 147,278.9 147.1,278.9 147.2,278.8 147.3,278.7 147.4,278.7 147.5,278.6 
		147.5,278.5 147.6,278.5 147.7,278.4 147.8,278.3 147.9,278.3 148,278.2 148.1,278.1 148.1,278.1 148.2,278 148.3,277.9 
		148.4,277.9 148.5,277.8 148.6,277.7 148.7,277.7 148.8,277.6 148.8,277.5 148.9,277.5 149,277.4 149.1,277.3 149.2,277.3 
		149.3,277.2 149.4,277.1 149.4,277 149.5,277 149.6,276.9 149.7,276.8 149.8,276.8 149.9,276.7 150,276.6 150,276.6 150.1,276.5 
		150.2,276.4 150.3,276.4 150.4,276.3 150.5,276.2 150.5,276.1 150.6,276.1 150.7,276 150.8,275.9 150.9,275.9 151,275.8 151,275.7 
		151.1,275.6 151.2,275.6 151.3,275.5 151.4,275.4 151.5,275.4 151.5,275.3 151.6,275.2 151.7,275.2 151.8,275.1 151.9,275 
		152,274.9 152,274.9 152.1,274.8 152.2,274.7 152.3,274.6 152.4,274.6 152.5,274.5 152.5,274.4 152.6,274.4 152.7,274.3 
		152.8,274.2 152.9,274.1 153,274.1 153,274 153.1,273.9 153.2,273.9 153.3,273.8 153.4,273.7 153.4,273.6 153.5,273.6 153.6,273.5 
		153.7,273.4 153.8,273.3 153.8,273.3 153.9,273.2 154,273.1 154.1,273 154.2,273 154.3,272.9 154.3,272.8 154.4,272.7 154.5,272.7 
		154.6,272.6 154.7,272.5 154.7,272.4 154.8,272.4 154.9,272.3 155,272.2 155.1,272.1 155.1,272.1 155.2,272 155.3,271.9 
		155.4,271.8 155.5,271.8 155.5,271.7 155.6,271.6 155.7,271.5 155.8,271.5 155.8,271.4 155.9,271.3 156,271.2 156.1,271.2 
		156.2,271.1 156.2,271 156.3,270.9 156.4,270.9 156.5,270.8 156.5,270.7 156.6,270.6 156.7,270.6 156.8,270.5 156.8,270.4 
		156.9,270.3 157,270.3 157.1,270.2 157.1,270.1 157.2,270 157.3,270 157.4,269.9 157.4,269.8 157.5,269.7 157.6,269.6 157.7,269.6 
		157.7,269.5 157.8,269.4 157.9,269.3 158,269.3 158,269.2 158.1,269.1 158.2,269 158.3,269 158.3,268.9 158.4,268.8 158.5,268.7 
		158.6,268.6 158.6,268.6 158.7,268.5 158.8,268.4 158.9,268.3 158.9,268.3 159,268.2 159.1,268.1 159.1,268 159.2,267.9 
		159.3,267.9 159.4,267.8 159.4,267.7 159.5,267.6 159.6,267.6 159.7,267.5 159.7,267.4 159.8,267.3 159.9,267.2 159.9,267.2 
		160,267.1 160.1,267 160.2,266.9 160.2,266.8 160.3,266.8 160.4,266.7 160.4,266.6 160.5,266.5 160.6,266.4 160.7,266.4 
		160.7,266.3 160.8,266.2 160.9,266.1 160.9,266 161,266 161.1,265.9 161.1,265.8 161.2,265.7 161.3,265.6 161.4,265.6 161.4,265.5 
		161.5,265.4 161.6,265.3 161.6,265.2 161.7,265.2 161.8,265.1 161.8,265 161.9,264.9 162,264.8 162.1,264.7 162.1,264.7 
		162.2,264.6 162.3,264.5 162.3,264.4 162.4,264.3 162.5,264.3 162.5,264.2 162.6,264.1 162.7,264 162.7,263.9 162.8,263.8 
		162.9,263.8 162.9,263.7 163,263.6 163.1,263.5 163.1,263.4 163.2,263.3 163.3,263.3 163.3,263.2 163.4,263.1 163.5,263 
		163.5,262.9 163.6,262.8 163.7,262.8 163.7,262.7 163.8,262.6 163.9,262.5 163.9,262.4 164,262.3 164.1,262.3 164.1,262.2 
		164.2,262.1 164.3,262 164.3,261.9 164.4,261.8 164.5,261.7 164.5,261.7 164.6,261.6 164.7,261.5 164.7,261.4 164.8,261.3 
		164.8,261.2 164.9,261.1 165,261.1 165,261 165.1,260.9 165.2,260.8 165.2,260.7 165.3,260.6 165.4,260.5 165.4,260.4 165.5,260.4 
		165.6,260.3 165.6,260.2 165.7,260.1 165.8,260 165.8,259.9 165.9,259.8 166,259.7 166,259.6 166.1,259.6 166.2,259.5 166.2,259.4 
		166.3,259.3 166.3,259.2 166.4,259.1 166.5,259 166.5,258.9 166.6,258.8 166.7,258.7 166.7,258.6 166.8,258.6 166.8,258.5 
		166.9,258.4 167,258.3 167,258.2 167.1,258.1 167.2,258 167.2,257.9 167.3,257.8 167.3,257.7 167.4,257.6 167.5,257.6 167.5,257.5 
		167.6,257.4 167.7,257.3 167.7,257.2 167.8,257.1 167.8,257 167.9,256.9 168,256.8 168,256.7 168.1,256.6 168.1,256.5 168.2,256.5 
		168.3,256.4 168.3,256.3 168.4,256.2 168.4,256.1 168.5,256 168.6,255.9 168.6,255.8 168.7,255.7 168.7,255.6 168.8,255.5 
		168.8,255.4 168.9,255.3 169,255.2 169,255.2 169.1,255.1 169.1,255 169.2,254.9 169.2,254.8 169.3,254.8 169.3,254.7 169.4,254.6 
		169.4,254.5 169.5,254.4 169.5,254.3 169.6,254.3 169.6,254.2 169.7,254.1 169.7,254 169.8,253.9 169.8,253.8 169.9,253.8 
		169.9,253.7 169.9,253.6 170,253.5 170,253.4 170.1,253.4 170.1,253.3 170.2,253.2 170.2,253.1 170.3,253 170.3,252.9 170.4,252.9 
		170.4,252.8 170.5,252.7 170.5,252.6 170.6,252.5 170.6,252.4 170.7,252.4 170.7,252.3 170.8,252.2 170.8,252.1 170.8,252 
		170.9,251.9 170.9,251.9 171,251.8 171,251.7 171.1,251.6 171.1,251.5 171.2,251.4 171.2,251.3 171.3,251.3 171.3,251.2 
		171.3,251.1 171.4,251 171.4,250.9 171.5,250.8 171.5,250.8 171.6,250.7 171.6,250.6 171.7,250.5 171.7,250.4 171.8,250.3 
		171.8,250.2 171.8,250.2 171.9,250.1 171.9,250 172,249.9 172,249.8 172.1,249.7 172.1,249.7 172.1,249.6 172.2,249.5 172.2,249.4 
		172.3,249.3 172.3,249.2 172.4,249.1 172.4,249.1 172.4,249 172.5,248.9 172.5,248.8 172.6,248.7 172.6,248.6 172.7,248.5 
		172.7,248.5 172.7,248.4 172.8,248.3 172.8,248.2 172.9,248.1 172.9,248 172.9,247.9 173,247.8 173,247.8 173.1,247.7 173.1,247.6 
		173.1,247.5 173.2,247.4 173.2,247.3 173.3,247.2 173.3,247.2 173.3,247.1 173.4,247 173.4,246.9 173.5,246.8 173.5,246.7 
		173.5,246.6 173.6,246.5 173.6,246.5 173.7,246.4 173.7,246.3 173.7,246.2 173.8,246.1 173.8,246 173.9,245.9 173.9,245.8 
		173.9,245.8 174,245.7 174,245.6 174,245.5 174.1,245.4 174.1,245.3 174.2,245.2 174.2,245.1 174.2,245.1 174.3,245 174.3,244.9 
		174.3,244.8 174.4,244.7 174.4,244.6 174.5,244.5 174.5,244.4 174.5,244.3 174.6,244.3 174.6,244.2 174.6,244.1 174.7,244 
		174.7,243.9 174.7,243.8 174.8,243.7 174.8,243.6 174.8,243.6 174.9,243.5 174.9,243.4 175,243.3 175,243.2 175,243.1 175.1,243 
		175.1,242.9 175.1,242.9 175.2,242.8 175.2,242.7 175.2,242.6 175.3,242.5 175.3,242.4 175.3,242.3 175.4,242.2 175.4,242.1 
		175.4,242.1 175.5,242 175.5,241.9 175.5,241.8 175.6,241.7 175.6,241.6 175.6,241.5 175.7,241.4 175.7,241.3 175.7,241.3 
		175.8,241.2 175.8,241.1 175.8,241 175.8,240.9 175.9,240.8 175.9,240.7 175.9,240.6 176,240.5 176,240.5 176,240.4 176.1,240.3 
		176.1,240.2 176.1,240.1 176.2,240 176.2,239.9 176.2,239.8 176.3,239.7 176.3,239.6 176.3,239.6 176.3,239.5 176.4,239.4 
		176.4,239.3 176.4,239.2 176.5,239.1 176.5,239 176.5,238.9 176.6,238.8 176.6,238.8 176.6,238.7 176.6,238.6 176.7,238.5 
		176.7,238.4 176.7,238.3 176.8,238.2 176.8,238.1 176.8,238 176.8,237.9 176.9,237.8 176.9,237.8 176.9,237.7 177,237.6 177,237.5 
		177,237.4 177,237.3 177.1,237.2 177.1,237.1 177.1,237 177.2,236.9 177.2,236.9 177.2,236.7 177.3,236.5 177.3,236.3 177.4,236.1 
		177.5,235.9 177.5,235.8 177.6,235.6 177.6,235.4 177.7,235.2 177.7,235 177.8,234.9 177.8,234.7 177.9,234.5 177.9,234.3 
		178,234.1 178,233.9 178.1,233.8 178.1,233.6 178.2,233.4 178.2,233.2 178.3,233 178.3,232.8 178.4,232.7 178.4,232.5 178.5,232.4 
		178.5,232.2 178.5,232.1 178.6,231.9 178.6,231.8 178.7,231.6 178.7,231.5 178.7,231.3 178.8,231.2 178.8,231 178.8,230.9 
		178.9,230.7 178.9,230.6 179,230.4 179,230.3 179,230.1 179.1,230 179.1,229.8 179.1,229.7 179.2,229.5 179.2,229.4 179.3,229.2 
		179.3,229.1 179.3,228.9 179.4,228.8 179.4,228.6 179.4,228.5 179.5,228.3 179.5,228.2 179.5,228 179.6,227.9 179.6,227.7 
		179.6,227.6 179.7,227.4 179.7,227.3 179.7,227.1 179.8,227 179.8,226.8 179.8,226.6 179.9,226.5 179.9,226.3 179.9,226.2 180,226 
		180,225.9 180,225.7 180,225.7 180.1,225.6 180.1,225.5 180.1,225.4 180.1,225.4 180.1,225.3 180.1,225.2 180.1,225.1 180.2,225 
		180.2,225 180.2,224.9 180.2,224.8 180.2,224.7 180.2,224.7 180.3,224.6 180.3,224.5 180.3,224.4 180.3,224.4 180.3,224.3 
		180.3,224.2 180.3,224.1 180.3,224.1 180.4,224 180.4,223.9 180.4,223.8 180.4,223.7 180.4,223.7 180.4,223.6 180.4,223.5 
		180.5,223.4 180.5,223.4 180.5,223.3 180.5,223.2 180.5,223.1 180.5,223.1 180.5,223 180.5,222.9 180.6,222.8 180.6,222.7 
		180.6,222.7 180.6,222.6 180.6,222.5 180.6,222.4 180.6,222.3 180.6,222.3 180.7,222.2 180.7,222.1 180.7,222 180.7,222 
		180.7,221.9 180.7,221.8 180.7,221.7 180.7,221.6 180.8,221.6 180.8,221.5 180.8,221.4 180.8,221.3 180.8,221.2 180.8,221.2 
		180.8,221.1 180.8,221 180.8,220.9 180.9,220.8 180.9,220.6 180.9,220.5 180.9,220.3 181,220.1 181,220 181,219.8 181,219.7 
		181,219.5 181.1,219.3 181.1,219.2 181.1,219 181.1,218.9 181.1,218.7 181.2,218.6 181.2,218.4 181.2,218.2 181.2,218.1 
		181.2,217.9 181.2,217.8 181.3,217.6 181.3,217.4 181.3,217.3 181.3,217.1 181.3,217 181.3,216.8 181.4,216.6 181.4,216.5 
		181.4,216.3 181.4,216.2 181.4,216 181.4,215.9 181.5,215.7 181.5,215.5 181.5,215.4 181.5,215.2 181.5,215.1 181.5,214.9 
		181.5,214.7 181.6,214.6 181.6,214.3 181.6,213.9 181.6,213.6 181.7,213.3 181.7,213 181.7,212.6 181.7,212.3 181.8,211.9 
		181.8,211.6 181.8,211.2 181.8,210.9 181.9,210.5 181.9,210.1 181.9,209.8 181.9,209.4 182,209.1 182,208.7 182,208.4 182,208 
		182.1,207.6 182.1,207.3 182.1,206.9 182.1,206.6 182.1,206.2 182.2,205.9 182.2,205.5 182.2,205.2 182.2,204.8 182.2,204.4 
		182.2,204.1 182.3,203.7 182.3,203.4 182.3,203 182.3,202.7 182.3,202.3 182.3,201.9 182.3,201.6 182.4,201.1 182.4,200.7 
		182.4,200.5 182.4,200.2 182.4,200 182.4,199.8 182.4,199.5 182.4,199.3 182.4,199.1 182.4,198.9 182.4,198.6 182.4,198.4 
		182.4,198.2 182.4,197.9 182.5,197.7 182.5,197.5 182.5,197.3 182.5,197 182.5,196.8 182.5,196.6 182.5,196.4 182.5,196.1 
		182.5,195.9 182.5,195.7 182.5,195.4 182.5,195.2 182.5,195 182.5,194.8 182.5,194.5 182.5,194.3 	"/>
	<path class="st0" d="M121.7,226.3"/>
	<g>
		<path class="st2" d="M123.9,353.7h-6.4v6.4h5.1v1.4h-5.1v6.4h6.7l0.2-2.4h1.2v3.9h-11.4v-1.2l1.7-0.2v-14.4l-1.7-0.2v-1.2h11.2
			v3.9h-1.2L123.9,353.7z"/>
		<path class="st2" d="M130.5,368h4.3c2.1,0,3-0.9,3-3v-0.6c0-2.1-0.9-3-3-3h-1.5c-3,0-4.4-1.5-4.4-4.5v-0.2c0-3,1.4-4.5,4.4-4.5
			h5.5v3.9h-1.3l-0.2-2.4h-3.8c-2.1,0-3,0.9-3,3v0.3c0,2.1,0.9,3,3,3h1.5c2.9,0,4.4,1.5,4.4,4.5v0.5c0,3.1-1.5,4.5-4.6,4.5h-5.7
			v-3.9h1.3L130.5,368z"/>
		<path class="st2" d="M146.9,353.7h-3.7l-0.2,2.4h-1.1v-3.8h11.8v3.8h-1.1l-0.2-2.4h-3.7V368l1.7,0.2v1.2h-5v-1.2l1.7-0.2V353.7z"
			/>
	</g>
	<g>
		<path class="st2" d="M155.1,367.8c0.5,0,0.9,0.4,0.9,0.9c0,0.5-0.4,0.9-0.9,0.9c-0.5,0-0.9-0.4-0.9-0.9
			C154.2,368.2,154.6,367.8,155.1,367.8z"/>
		<path class="st2" d="M166.3,368v-14l-2.7,0.9v-1.1l3.1-1.7h1.1V368l1.7,0.2v1.2h-5v-1.2L166.3,368z"/>
		<path class="st2" d="M181.8,362.1H177c-3,0-4.4-1.5-4.4-4.4v-1.2c0-2.9,1.5-4.4,4.4-4.4h2c2.9,0,4.4,1.5,4.4,4.4v8.6
			c0,2.9-1.5,4.4-4.4,4.4h-5.6v-3.9h1.3l0.2,2.4h3.9c2.1,0,3-0.9,3-3V362.1z M181.8,360.7v-4.1c0-2.1-0.9-3-3-3h-1.6
			c-2.1,0-3,0.9-3,3v1.2c0,2.1,0.9,3,3,3H181.8z"/>
		<path class="st2" d="M193.7,352.1c2.9,0,4.4,1.5,4.4,4.4v0.3c0,3.2-2.1,3.6-2.1,3.6v0.1c0,0,2.4,0.4,2.4,3.8v0.8
			c0,2.9-1.5,4.4-4.4,4.4h-2.5c-3.1,0-4.4-1.6-4.4-4.7v-0.5c0-3.4,2.4-3.8,2.4-3.8v-0.1c0,0-2.1-0.4-2.1-3.6v-0.3
			c0-2.9,1.5-4.4,4.4-4.4H193.7z M188.7,365.1c0,2.1,0.8,3,3,3h2.1c2.1,0,3-0.9,3-3v-0.8c0-2.1-0.9-3-3-3h-2.1c-2.1,0-3,0.9-3,3
			V365.1z M189,356.9c0,2.1,0.8,3,2.9,3h1.7c2.1,0,2.9-0.9,2.9-3v-0.4c0-2.1-0.9-3-3-3h-1.6c-2.1,0-3,0.9-3,3V356.9z"/>
		<path class="st2" d="M212.4,357.4c0,2.9-1.5,4.4-4.4,4.4h-1.8c-2.2,0-3,0.9-3,3v3.2h7.4l0.2-2.4h1.2v3.9h-10.5v-4.7
			c0-2.9,1.5-4.4,4.4-4.4h1.8c2,0,3-0.9,3-3v-0.6c0-2.1-0.9-3-3-3h-4.5l-0.3,2.4H202v-3.9h6.1c2.9,0,4.4,1.5,4.4,4.4V357.4z"/>
	</g>
	<g>
		<path class="st2" d="M335.4,54.5h-10.8c-4.7,0-6.5,1.8-6.5,6.5v29.5c0,4.7,1.8,6.5,6.5,6.5h24.6v13.8h-27.5
			c-12.6,0-19.7-7-19.7-19.6v-31c0-12.6,7-19.7,19.6-19.7h27.6v21.7h-12.2L335.4,54.5z"/>
		<path class="st2" d="M415.9,91.8c0,12.5-7,19.6-19.7,19.6h-14.3c-12.6,0-19.7-7-19.7-19.6v-32c0-12.6,7-19.7,19.7-19.7h14.3
			c12.6,0,19.7,7,19.7,19.7V91.8z M378.3,90.7c0,4.6,2,6.8,6.5,6.8h8.5c4.5,0,6.5-1.8,6.5-6.8V60.5c0-4.6-1.8-6.5-6.5-6.5h-8.5
			c-4.7,0-6.5,1.9-6.5,6.5V90.7z"/>
		<path class="st2" d="M433.9,53.4l-6-1V40.7H456v11.7l-6,1V97h14.6l1.5-7.8h12.2v21.7h-50.4V99.1l6-1V53.4z"/>
		<path class="st2" d="M524.3,54.5h-15.8v14.8h15.6v12.8h-15.6V97h16.8l1.5-7.8H539v21.7h-52.6V99.1l6-1V53.4l-6-1V40.7H538v21.7
			h-12.2L524.3,54.5z"/>
		<path class="st2" d="M571.2,110.9c-12.6,0-19.7-7-19.7-19.6v-31c0-12.6,7-19.7,19.7-19.7h27.5v21.7h-12.2l-1.5-7.8h-10.8
			c-4.7,0-6.5,1.8-6.5,6.5v29.5c0,4.7,1.8,6.5,6.5,6.5h12V84.8h-6.6V71.1h22.2v39.8H571.2z"/>
		<path class="st2" d="M635.8,98.1l6,1v11.7h-28.1V99.1l6-1V53.4l-6-1V40.7h28.1v11.7l-6,1V98.1z"/>
		<path class="st2" d="M707.5,91.8c0,12.5-7,19.6-19.7,19.6h-14.3c-12.6,0-19.7-7-19.7-19.6v-32c0-12.6,7-19.7,19.7-19.7h14.3
			c12.6,0,19.7,7,19.7,19.7V91.8z M669.9,90.7c0,4.6,2,6.8,6.5,6.8h8.5c4.5,0,6.5-1.8,6.5-6.8V60.5c0-4.6-1.8-6.5-6.5-6.5h-8.5
			c-4.7,0-6.5,1.9-6.5,6.5V90.7z"/>
	</g>
	<g>
		<path class="st2" d="M318.1,146.6h-8l-1.2,6.7H298v-20.6h56.2v20.6h-10.8l-1.2-6.7h-8v43.6l6,1v11.7h-28.1v-11.7l6-1V146.6z"/>
		<path class="st2" d="M400.1,146.6h-15.8v14.8h15.6v12.8h-15.6v14.8h16.8l1.5-7.8h12.2v21.7h-52.6v-11.7l6-1v-44.7l-6-1v-11.7h51.6
			v21.7h-12.2L400.1,146.6z"/>
		<path class="st2" d="M460.8,146.6H450c-4.7,0-6.5,1.8-6.5,6.5v29.5c0,4.7,1.8,6.5,6.5,6.5h24.6v13.8H447c-12.6,0-19.7-7-19.7-19.6
			v-31c0-12.6,7-19.7,19.6-19.7h27.6v21.7h-12.2L460.8,146.6z"/>
		<path class="st2" d="M549.2,132.7v11.7l-6,1v57.5h-16L508.6,166h-1v36.9h-22.1v-11.7l6-1v-44.7l-6-1v-11.7h22.1l18.5,36.9h1v-36.9
			H549.2z"/>
		<path class="st2" d="M613.9,183.9c0,12.5-7,19.6-19.7,19.6h-14.3c-12.6,0-19.7-7-19.7-19.6v-32c0-12.6,7-19.7,19.7-19.7h14.3
			c12.6,0,19.7,7,19.7,19.7V183.9z M576.3,182.8c0,4.6,2,6.8,6.5,6.8h8.5c4.5,0,6.5-1.8,6.5-6.8v-30.2c0-4.6-1.8-6.5-6.5-6.5h-8.5
			c-4.7,0-6.5,1.9-6.5,6.5V182.8z"/>
		<path class="st2" d="M632,145.5l-6-1v-11.7H654v11.7l-6,1v43.6h14.6l1.5-7.8h12.2v21.7H626v-11.7l6-1V145.5z"/>
		<path class="st2" d="M740.1,183.9c0,12.5-7,19.6-19.7,19.6h-14.3c-12.6,0-19.7-7-19.7-19.6v-32c0-12.6,7-19.7,19.7-19.7h14.3
			c12.6,0,19.7,7,19.7,19.7V183.9z M702.5,182.8c0,4.6,2,6.8,6.5,6.8h8.5c4.5,0,6.5-1.8,6.5-6.8v-30.2c0-4.6-1.8-6.5-6.5-6.5H709
			c-4.7,0-6.5,1.9-6.5,6.5V182.8z M729.3,118l-17.1,9l-4.9-7l15.1-11.9L729.3,118z"/>
		<path class="st2" d="M773.8,202.9c-12.6,0-19.7-7-19.7-19.6v-31c0-12.6,7-19.7,19.7-19.7h27.5v21.7H789l-1.5-7.8h-10.8
			c-4.7,0-6.5,1.8-6.5,6.5v29.5c0,4.7,1.8,6.5,6.5,6.5h12v-12.2h-6.6v-13.7h22.2v39.8H773.8z"/>
		<path class="st2" d="M838.4,190.2l6,1v11.7h-28.1v-11.7l6-1v-44.7l-6-1v-11.7h28.1v11.7l-6,1V190.2z"/>
		<path class="st2" d="M889.8,146.6H879c-4.7,0-6.5,1.8-6.5,6.5v29.5c0,4.7,1.8,6.5,6.5,6.5h24.6v13.8h-27.5
			c-12.6,0-19.7-7-19.7-19.6v-31c0-12.6,7-19.7,19.6-19.7h27.6v21.7h-12.2L889.8,146.6z"/>
		<path class="st2" d="M970.2,183.9c0,12.5-7,19.6-19.7,19.6h-14.3c-12.6,0-19.7-7-19.7-19.6v-32c0-12.6,7-19.7,19.7-19.7h14.3
			c12.6,0,19.7,7,19.7,19.7V183.9z M932.6,182.8c0,4.6,2,6.8,6.5,6.8h8.5c4.5,0,6.5-1.8,6.5-6.8v-30.2c0-4.6-1.8-6.5-6.5-6.5h-8.5
			c-4.7,0-6.5,1.9-6.5,6.5V182.8z"/>
	</g>
	<g>
		<path class="st3" d="M315.7,281.2h12.4c4.7,0,6.5-1.8,6.5-6.5v-1.3c0-4.7-1.8-6.5-6.5-6.5h-7.4c-13.4,0-19.7-7.5-19.7-21v-1.4
			c0-12.6,6.9-19.7,19.7-19.7h27.1v21.1h-12.2l-1.5-7.2h-10.4c-4.7,0-6.5,1.8-6.5,6.5v1.3c0,4.7,1.8,6.5,6.5,6.5h7.5
			c13.3,0,19.6,7.5,19.6,21.1v1.4c0,15.4-9,19.6-23.8,19.6H302v-21.1h12.1L315.7,281.2z"/>
		<path class="st3" d="M394.7,236.5v-11.7h28.2v11.7l-6.1,1v38.4c0,12.5-7,19.6-19.6,19.6h-11.3c-12.6,0-19.7-7-19.7-19.6v-38.4
			l-6-1v-11.7h22.1v50.3c0,4.6,1.8,6.5,6.5,6.5h5.4c4.7,0,6.5-1.9,6.5-6.5v-37.6L394.7,236.5z"/>
		<path class="st3" d="M431.9,295v-11.7l6-1v-44.7l-6-1v-11.7H466c12.6,0,19.7,7,19.7,19.7v0.9c0,10.4-7.4,12.5-7.4,12.5v1
			c0,0,10.8,2.2,10.8,14.6v1.9c0,12.5-7,19.6-19.7,19.6H431.9z M463.1,252.5c4.7,0,6.5-1.8,6.5-6.5v-0.8c0-4.6-1.8-6.5-6.5-6.5H454
			v13.8H463.1z M466.5,281.2c4.7,0,6.5-1.9,6.5-6.5v-1.8c0-6-2.6-6.5-9.6-6.5H454v14.8H466.5z"/>
		<path class="st3" d="M534.5,275.5h-17.1l-1.9,6.7l6,1V295h-28.4v-11.7l6-1l14.4-44.7l-6-1v-11.7h26.9l18.5,57.5l6,1V295h-28.4
			v-11.7l6-1L534.5,275.5z M520.9,263.4H531l-4.5-15.8h-1L520.9,263.4z"/>
	</g>
</g>
<g>
</g>
<g>
</g>
<g>
</g>
<g>
</g>
<g>
</g>
<g>
</g>
<g>
</g>
<g>
</g>
<g>
</g>
<g>
</g>
<g>
</g>
<g>
</g>
<g>
</g>
<g>
</g>
<g>
</g>
</svg>
