<?xml version="1.0" encoding="utf-8"?>
<!-- Generator: Adobe Illustrator 22.0.1, SVG Export Plug-In . SVG Version: 6.00 Build 0)  -->
<svg version="1.1" id="Capa_1" xmlns="http://www.w3.org/2000/svg" xmlns:xlink="http://www.w3.org/1999/xlink" x="0px" y="0px"
	 viewBox="0 0 887.8 382.5" style="enable-background:new 0 0 887.8 382.5;" xml:space="preserve">
<style type="text/css">
	.st0{fill:#FFFFFF;}
	.st1{fill:#E9B533;}
	.st2{fill:none;}
	.st3{fill:#E7B43F;}
	.st4{fill:#E7B43F;stroke:#000000;stroke-miterlimit:10;}
	.st5{fill:none;stroke:#FFFFFF;stroke-width:2;stroke-linecap:round;stroke-linejoin:round;stroke-miterlimit:10;}
</style>
<g>
	<g>
		<path class="st0" d="M162.3,261.2c0-0.3-0.1-0.4-0.4-0.4h-7c-0.4,0-0.7-0.3-0.7-0.7v-4.9c0-0.4,0.3-0.7,0.7-0.7h7
			c0.3,0,0.4-0.1,0.4-0.4V247c0-0.4,0.3-0.7,0.7-0.7h5.1c0.4,0,0.7,0.3,0.7,0.7v7.1c0,0.3,0.1,0.4,0.4,0.4h7c0.4,0,0.7,0.3,0.7,0.7
			v4.9c0,0.4-0.3,0.7-0.7,0.7h-7c-0.3,0-0.4,0.1-0.4,0.4v7.1c0,0.4-0.3,0.7-0.7,0.7H163c-0.4,0-0.7-0.3-0.7-0.7V261.2z"/>
		<path class="st0" d="M187.4,266.2c0-0.5,0.2-0.8,0.6-0.8l5.4-0.6c0.5-0.1,0.8,0.1,0.8,0.7c0,2,0.1,2.6,0.3,3.3
			c0.5,1.5,1.5,2.3,3.2,2.3c1.7,0,2.8-0.8,3.3-2.2c0.2-0.6,0.3-1.5,0.3-7c0-5.6-0.1-6.3-0.3-7c-0.5-1.5-1.6-2.2-3.3-2.2
			c-1.7,0-2.7,0.8-3.2,2.1c-0.2,0.5-0.5,0.6-1,0.6h-4.7c-0.4,0-0.7-0.3-0.7-0.7v-24.4c0-0.4,0.3-0.7,0.7-0.7h19
			c0.4,0,0.7,0.3,0.7,0.7v5.1c0,0.4-0.3,0.7-0.7,0.7h-12.8c-0.3,0-0.4,0.1-0.4,0.4v11.6h0.1c1-1.1,2.9-2,5.1-2
			c4.3,0,6.9,1.9,8.1,5.6c0.5,1.5,0.7,3.1,0.7,10.2c0,6.1-0.2,7.9-0.6,9.2c-1.4,4.2-4.7,6.6-10,6.6c-5.2,0-8.5-2.4-9.9-6.6
			C187.5,269.6,187.4,268,187.4,266.2z"/>
		<path class="st0" d="M233.8,236.1v-0.1h-7.3c-0.3,0-0.4,0.1-0.4,0.4v4.5c0,0.4-0.3,0.7-0.7,0.7h-5.2c-0.4,0-0.7-0.3-0.7-0.7v-10.7
			c0-0.4,0.3-0.7,0.7-0.7h20c0.4,0,0.7,0.3,0.7,0.7v5.2c0,0.3-0.1,0.6-0.1,0.8l-11.6,40.1c-0.1,0.5-0.3,0.7-0.9,0.7h-5.8
			c-0.4,0-0.6-0.3-0.4-0.9L233.8,236.1z"/>
		<path class="st0" d="M271.1,254c0-9.6,2.4-19.7,6.7-28c0.1-0.4,0.5-0.7,0.9-0.7h3.4c0.4,0,0.6,0.3,0.5,0.7
			c-2.8,8.4-4.4,18.5-4.4,28c0,9.6,1.6,19.6,4.4,28c0.1,0.4-0.1,0.7-0.5,0.7h-3.4c-0.4,0-0.8-0.3-0.9-0.7
			C273.5,273.7,271.1,263.6,271.1,254z"/>
		<path class="st0" d="M301.7,237.7h-0.1l-5.9,4.2c-0.3,0.3-0.8,0.1-0.8-0.4v-5.9c0-0.5,0.1-0.8,0.7-1.2l6.1-4.5
			c0.4-0.3,0.8-0.4,1.3-0.4h5.2c0.4,0,0.7,0.3,0.7,0.7v46c0,0.4-0.3,0.7-0.7,0.7h-5.7c-0.4,0-0.7-0.3-0.7-0.7V237.7z"/>
		<path class="st0" d="M329.6,254c0-9.6-1.6-19.6-4.4-28c-0.1-0.4,0.1-0.7,0.5-0.7h3.5c0.4,0,0.7,0.3,0.9,0.7
			c4.3,8.4,6.6,18.5,6.6,28c0,9.6-2.4,19.7-6.6,28c-0.2,0.4-0.5,0.7-0.9,0.7h-3.5c-0.4,0-0.6-0.3-0.5-0.7
			C328,273.6,329.6,263.6,329.6,254z"/>
		<path class="st1" d="M367.1,263.1c0-6.6,0.5-9.1,2.2-13.5l7.5-19.5c0.2-0.5,0.5-0.7,1-0.7h5.8c0.5,0,0.7,0.3,0.5,0.8l-7.3,18.8
			l0.1,0.1c0.3-0.2,1.3-0.4,2.4-0.4c4.6,0,7,2.3,8.4,6.3c0.4,1.3,0.7,3.3,0.7,8c0,4.9-0.2,6.4-0.6,7.7c-1.4,4.2-4.8,6.7-10,6.7
			c-5.2,0-8.7-2.5-10-6.7C367.3,269.5,367.1,268,367.1,263.1z M377.7,271c1.7,0,2.8-0.8,3.3-2.3c0.2-0.7,0.3-1.3,0.3-5.7
			c0-4.3-0.1-4.9-0.3-5.5c-0.5-1.5-1.6-2.3-3.3-2.3s-2.7,0.8-3.2,2.3c-0.2,0.6-0.3,1.3-0.3,5.5c0,4.3,0.1,5,0.3,5.7
			C375,270.2,376.1,271,377.7,271z"/>
		<path class="st1" d="M399.4,263.2c0-3.9,0.1-5.2,0.6-6.7c0.6-1.7,1.5-3.3,3.1-4.3V252c-1.5-1-2.5-2.6-3.1-4.3
			c-0.5-1.5-0.6-2.9-0.6-5.7c0-3.6,0.2-5.2,0.6-6.5c1.3-4.2,4.7-6.7,10-6.7s8.7,2.5,10,6.7c0.4,1.3,0.6,2.9,0.6,6.5
			c0,2.8-0.1,4.2-0.6,5.7c-0.6,1.7-1.5,3.3-3.1,4.3v0.1c1.5,1,2.5,2.6,3.1,4.3c0.5,1.5,0.6,2.8,0.6,6.7c0,4.9-0.2,6.3-0.6,7.7
			c-1.4,4.2-4.8,6.7-10,6.7s-8.7-2.5-10-6.7C399.6,269.5,399.4,268,399.4,263.2z M413.3,246.5c0.2-0.6,0.3-1.3,0.3-4.5
			c0-3.1-0.1-3.7-0.3-4.4c-0.5-1.5-1.6-2.3-3.3-2.3s-2.7,0.8-3.2,2.3c-0.2,0.7-0.3,1.3-0.3,4.4c0,3.2,0.1,3.8,0.3,4.5
			c0.5,1.5,1.5,2.3,3.2,2.3S412.8,248,413.3,246.5z M410,271c1.7,0,2.8-0.8,3.3-2.3c0.2-0.7,0.3-1.3,0.3-5.6s-0.1-4.9-0.3-5.5
			c-0.5-1.5-1.6-2.3-3.3-2.3s-2.7,0.8-3.2,2.3c-0.2,0.6-0.3,1.2-0.3,5.5s0.1,4.9,0.3,5.6C407.3,270.2,408.3,271,410,271z"/>
		<path class="st1" d="M440.1,237.7h-0.1l-5.9,4.2c-0.3,0.3-0.8,0.1-0.8-0.4v-5.9c0-0.5,0.1-0.8,0.7-1.2l6.1-4.5
			c0.4-0.3,0.8-0.4,1.3-0.4h5.2c0.4,0,0.7,0.3,0.7,0.7v46c0,0.4-0.3,0.7-0.7,0.7h-5.7c-0.4,0-0.7-0.3-0.7-0.7V237.7z"/>
		<path class="st1" d="M463.7,261v-5.2c0-0.4,0.3-0.7,0.7-0.7h18.4c0.4,0,0.7,0.3,0.7,0.7v5.2c0,0.4-0.3,0.7-0.7,0.7h-18.4
			C463.9,261.7,463.7,261.4,463.7,261z"/>
		<path class="st1" d="M494.1,253.2c0-14.7,0.3-16.3,0.8-17.9c1.3-4.2,4.9-6.5,9.9-6.5c5,0,8.6,2.3,10,6.5c0.5,1.6,0.7,3.2,0.7,17.9
			s-0.2,16.3-0.7,17.9c-1.4,4.2-5,6.5-10,6.5c-5,0-8.6-2.3-9.9-6.5C494.4,269.4,494.1,267.8,494.1,253.2z M504.8,271
			c1.7,0,2.8-0.9,3.2-2.2c0.3-0.9,0.3-1.8,0.3-15.7c0-13.9-0.1-14.8-0.3-15.7c-0.4-1.3-1.5-2.2-3.2-2.2c-1.7,0-2.7,0.9-3.1,2.2
			c-0.3,0.9-0.4,1.8-0.4,15.7c0,13.9,0.1,14.8,0.4,15.7C502.1,270.1,503.1,271,504.8,271z"/>
		<path class="st1" d="M526.6,271.2c0-0.5,0.1-0.8,0.3-1.4l11.8-21.2c1.3-2.3,1.8-4,1.8-7.8c0-1.9-0.1-2.5-0.3-3.2
			c-0.5-1.5-1.5-2.3-3.3-2.3c-1.7,0-2.7,0.8-3.2,2.3c-0.2,0.7-0.3,1.3-0.3,4.3c0,0.6-0.3,0.8-0.8,0.7l-5.4-0.5
			c-0.4-0.1-0.6-0.3-0.6-0.8c0-2.9,0.1-4.5,0.6-5.9c1.4-4.2,4.7-6.6,10-6.6c5.2,0,8.5,2.4,9.9,6.6c0.4,1.3,0.6,3,0.6,5.4
			c0,5.2-0.9,7.8-2.9,11.4l-10.4,18.1v0.1H547c0.4,0,0.7,0.3,0.7,0.7v5.1c0,0.4-0.3,0.7-0.7,0.7h-19.7c-0.4,0-0.7-0.3-0.7-0.7V271.2
			z"/>
		<path class="st1" d="M573,236.1v-0.1h-7.3c-0.3,0-0.4,0.1-0.4,0.4v4.5c0,0.4-0.3,0.7-0.7,0.7h-5.2c-0.4,0-0.7-0.3-0.7-0.7v-10.7
			c0-0.4,0.3-0.7,0.7-0.7h20c0.4,0,0.7,0.3,0.7,0.7v5.2c0,0.3-0.1,0.6-0.1,0.8l-11.6,40.1c-0.1,0.5-0.3,0.7-0.9,0.7h-5.8
			c-0.4,0-0.6-0.3-0.4-0.9L573,236.1z"/>
		<path class="st1" d="M589.5,269.2v-5c0-0.3,0.1-0.6,0.1-0.8l9.8-33.3c0.1-0.4,0.3-0.6,0.8-0.6h5.8c0.4,0,0.7,0.3,0.6,0.8l-9.8,33
			v0.1h6c0.3,0,0.4-0.1,0.4-0.4v-12.6c0-0.4,0.3-0.7,0.7-0.7h5.7c0.4,0,0.7,0.3,0.7,0.7v12.6c0,0.3,0.1,0.4,0.3,0.4h2.4
			c0.4,0,0.7,0.3,0.7,0.7v5.1c0,0.4-0.3,0.7-0.7,0.7h-2.3c-0.3,0-0.4,0.1-0.4,0.4v5.9c0,0.4-0.3,0.7-0.7,0.7h-5.7
			c-0.4,0-0.7-0.3-0.7-0.7v-5.9c0-0.3-0.1-0.4-0.4-0.4h-12.6C589.8,269.9,589.5,269.6,589.5,269.2z"/>
	</g>
	<g>
		<path class="st0" d="M162.3,333.6c0-0.3-0.1-0.4-0.4-0.4h-7c-0.4,0-0.7-0.3-0.7-0.7v-4.9c0-0.4,0.3-0.7,0.7-0.7h7
			c0.3,0,0.4-0.1,0.4-0.4v-7.1c0-0.4,0.3-0.7,0.7-0.7h5.1c0.4,0,0.7,0.3,0.7,0.7v7.1c0,0.3,0.1,0.4,0.4,0.4h7c0.4,0,0.7,0.3,0.7,0.7
			v4.9c0,0.4-0.3,0.7-0.7,0.7h-7c-0.3,0-0.4,0.1-0.4,0.4v7.1c0,0.4-0.3,0.7-0.7,0.7H163c-0.4,0-0.7-0.3-0.7-0.7V333.6z"/>
		<path class="st0" d="M187.4,338.6c0-0.5,0.2-0.8,0.6-0.8l5.4-0.6c0.5-0.1,0.8,0.1,0.8,0.7c0,2,0.1,2.6,0.3,3.3
			c0.5,1.5,1.5,2.3,3.2,2.3c1.7,0,2.8-0.8,3.3-2.2c0.2-0.6,0.3-1.5,0.3-7c0-5.6-0.1-6.3-0.3-7c-0.5-1.5-1.6-2.2-3.3-2.2
			c-1.7,0-2.7,0.8-3.2,2.1c-0.2,0.5-0.5,0.6-1,0.6h-4.7c-0.4,0-0.7-0.3-0.7-0.7v-24.4c0-0.4,0.3-0.7,0.7-0.7h19
			c0.4,0,0.7,0.3,0.7,0.7v5.1c0,0.4-0.3,0.7-0.7,0.7h-12.8c-0.3,0-0.4,0.1-0.4,0.4v11.6h0.1c1-1.1,2.9-2,5.1-2
			c4.3,0,6.9,1.9,8.1,5.6c0.5,1.5,0.7,3.1,0.7,10.2c0,6.1-0.2,7.9-0.6,9.2c-1.4,4.2-4.7,6.6-10,6.6c-5.2,0-8.5-2.4-9.9-6.6
			C187.5,342,187.4,340.4,187.4,338.6z"/>
		<path class="st0" d="M233.8,308.5v-0.1h-7.3c-0.3,0-0.4,0.1-0.4,0.4v4.5c0,0.4-0.3,0.7-0.7,0.7h-5.2c-0.4,0-0.7-0.3-0.7-0.7v-10.7
			c0-0.4,0.3-0.7,0.7-0.7h20c0.4,0,0.7,0.3,0.7,0.7v5.2c0,0.3-0.1,0.6-0.1,0.8l-11.6,40.1c-0.1,0.5-0.3,0.7-0.9,0.7h-5.8
			c-0.4,0-0.6-0.3-0.4-0.9L233.8,308.5z"/>
		<path class="st0" d="M271.1,326.4c0-9.6,2.4-19.7,6.7-28c0.1-0.4,0.5-0.7,0.9-0.7h3.4c0.4,0,0.6,0.3,0.5,0.7
			c-2.8,8.4-4.4,18.5-4.4,28c0,9.6,1.6,19.6,4.4,28c0.1,0.4-0.1,0.7-0.5,0.7h-3.4c-0.4,0-0.8-0.3-0.9-0.7
			C273.5,346.1,271.1,336,271.1,326.4z"/>
		<path class="st0" d="M301.7,310.1h-0.1l-5.9,4.2c-0.3,0.3-0.8,0.1-0.8-0.4V308c0-0.5,0.1-0.8,0.7-1.2l6.1-4.5
			c0.4-0.3,0.8-0.4,1.3-0.4h5.2c0.4,0,0.7,0.3,0.7,0.7v46c0,0.4-0.3,0.7-0.7,0.7h-5.7c-0.4,0-0.7-0.3-0.7-0.7V310.1z"/>
		<path class="st0" d="M329.6,326.4c0-9.6-1.6-19.6-4.4-28c-0.1-0.4,0.1-0.7,0.5-0.7h3.5c0.4,0,0.7,0.3,0.9,0.7
			c4.3,8.4,6.6,18.5,6.6,28c0,9.6-2.4,19.7-6.6,28c-0.2,0.4-0.5,0.7-0.9,0.7h-3.5c-0.4,0-0.6-0.3-0.5-0.7
			C328,346.1,329.6,336,329.6,326.4z"/>
		<path class="st1" d="M367.1,335.5c0-6.6,0.5-9.1,2.2-13.5l7.5-19.5c0.2-0.5,0.5-0.7,1-0.7h5.8c0.5,0,0.7,0.3,0.5,0.8l-7.3,18.8
			l0.1,0.1c0.3-0.2,1.3-0.4,2.4-0.4c4.6,0,7,2.3,8.4,6.3c0.4,1.3,0.7,3.3,0.7,8c0,4.9-0.2,6.4-0.6,7.7c-1.4,4.2-4.8,6.7-10,6.7
			c-5.2,0-8.7-2.5-10-6.7C367.3,341.9,367.1,340.4,367.1,335.5z M377.7,343.5c1.7,0,2.8-0.8,3.3-2.3c0.2-0.7,0.3-1.3,0.3-5.7
			c0-4.3-0.1-4.9-0.3-5.5c-0.5-1.5-1.6-2.3-3.3-2.3s-2.7,0.8-3.2,2.3c-0.2,0.6-0.3,1.3-0.3,5.5c0,4.3,0.1,5,0.3,5.7
			C375,342.6,376.1,343.5,377.7,343.5z"/>
		<path class="st1" d="M399.4,335.6c0-3.9,0.1-5.2,0.6-6.7c0.6-1.7,1.5-3.3,3.1-4.3v-0.1c-1.5-1-2.5-2.6-3.1-4.3
			c-0.5-1.5-0.6-2.9-0.6-5.7c0-3.6,0.2-5.2,0.6-6.5c1.3-4.2,4.7-6.7,10-6.7s8.7,2.5,10,6.7c0.4,1.3,0.6,2.9,0.6,6.5
			c0,2.8-0.1,4.2-0.6,5.7c-0.6,1.7-1.5,3.3-3.1,4.3v0.1c1.5,1,2.5,2.6,3.1,4.3c0.5,1.5,0.6,2.8,0.6,6.7c0,4.9-0.2,6.3-0.6,7.7
			c-1.4,4.2-4.8,6.7-10,6.7s-8.7-2.5-10-6.7C399.6,341.9,399.4,340.5,399.4,335.6z M413.3,318.9c0.2-0.6,0.3-1.3,0.3-4.5
			c0-3.1-0.1-3.7-0.3-4.4c-0.5-1.5-1.6-2.3-3.3-2.3s-2.7,0.8-3.2,2.3c-0.2,0.7-0.3,1.3-0.3,4.4c0,3.2,0.1,3.8,0.3,4.5
			c0.5,1.5,1.5,2.3,3.2,2.3S412.8,320.4,413.3,318.9z M410,343.5c1.7,0,2.8-0.8,3.3-2.3c0.2-0.7,0.3-1.3,0.3-5.6
			c0-4.3-0.1-4.9-0.3-5.5c-0.5-1.5-1.6-2.3-3.3-2.3s-2.7,0.8-3.2,2.3c-0.2,0.6-0.3,1.2-0.3,5.5c0,4.3,0.1,4.9,0.3,5.6
			C407.3,342.6,408.3,343.5,410,343.5z"/>
		<path class="st1" d="M440.1,310.1h-0.1l-5.9,4.2c-0.3,0.3-0.8,0.1-0.8-0.4V308c0-0.5,0.1-0.8,0.7-1.2l6.1-4.5
			c0.4-0.3,0.8-0.4,1.3-0.4h5.2c0.4,0,0.7,0.3,0.7,0.7v46c0,0.4-0.3,0.7-0.7,0.7h-5.7c-0.4,0-0.7-0.3-0.7-0.7V310.1z"/>
		<path class="st1" d="M463.7,333.4v-5.2c0-0.4,0.3-0.7,0.7-0.7h18.4c0.4,0,0.7,0.3,0.7,0.7v5.2c0,0.4-0.3,0.7-0.7,0.7h-18.4
			C463.9,334.1,463.7,333.8,463.7,333.4z"/>
		<path class="st1" d="M494.2,335.6c0-3.9,0.1-5.2,0.6-6.7c0.6-1.7,1.5-3.3,3.1-4.3v-0.1c-1.5-1-2.5-2.6-3.1-4.3
			c-0.5-1.5-0.6-2.9-0.6-5.7c0-3.6,0.2-5.2,0.6-6.5c1.3-4.2,4.7-6.7,10-6.7c5.2,0,8.7,2.5,10,6.7c0.4,1.3,0.6,2.9,0.6,6.5
			c0,2.8-0.1,4.2-0.6,5.7c-0.6,1.7-1.5,3.3-3.1,4.3v0.1c1.5,1,2.5,2.6,3.1,4.3c0.5,1.5,0.6,2.8,0.6,6.7c0,4.9-0.2,6.3-0.6,7.7
			c-1.4,4.2-4.8,6.7-10,6.7c-5.2,0-8.7-2.5-10-6.7C494.4,341.9,494.2,340.5,494.2,335.6z M508.1,318.9c0.2-0.6,0.3-1.3,0.3-4.5
			c0-3.1-0.1-3.7-0.3-4.4c-0.5-1.5-1.6-2.3-3.3-2.3s-2.7,0.8-3.2,2.3c-0.2,0.7-0.3,1.3-0.3,4.4c0,3.2,0.1,3.8,0.3,4.5
			c0.5,1.5,1.5,2.3,3.2,2.3S507.6,320.4,508.1,318.9z M504.8,343.5c1.7,0,2.8-0.8,3.3-2.3c0.2-0.7,0.3-1.3,0.3-5.6
			c0-4.3-0.1-4.9-0.3-5.5c-0.5-1.5-1.6-2.3-3.3-2.3s-2.7,0.8-3.2,2.3c-0.2,0.6-0.3,1.2-0.3,5.5c0,4.3,0.1,4.9,0.3,5.6
			C502.1,342.6,503.1,343.5,504.8,343.5z"/>
		<path class="st1" d="M526.5,335.6c0-3.9,0.1-5.2,0.6-6.7c0.6-1.7,1.5-3.3,3.1-4.3v-0.1c-1.5-1-2.5-2.6-3.1-4.3
			c-0.5-1.5-0.6-2.9-0.6-5.7c0-3.6,0.2-5.2,0.6-6.5c1.3-4.2,4.7-6.7,10-6.7s8.7,2.5,10,6.7c0.4,1.3,0.6,2.9,0.6,6.5
			c0,2.8-0.1,4.2-0.6,5.7c-0.6,1.7-1.5,3.3-3.1,4.3v0.1c1.5,1,2.5,2.6,3.1,4.3c0.5,1.5,0.6,2.8,0.6,6.7c0,4.9-0.2,6.3-0.6,7.7
			c-1.4,4.2-4.8,6.7-10,6.7s-8.7-2.5-10-6.7C526.7,341.9,526.5,340.5,526.5,335.6z M540.4,318.9c0.2-0.6,0.3-1.3,0.3-4.5
			c0-3.1-0.1-3.7-0.3-4.4c-0.5-1.5-1.6-2.3-3.3-2.3s-2.7,0.8-3.2,2.3c-0.2,0.7-0.3,1.3-0.3,4.4c0,3.2,0.1,3.8,0.3,4.5
			c0.5,1.5,1.5,2.3,3.2,2.3S539.9,320.4,540.4,318.9z M537.1,343.5c1.7,0,2.8-0.8,3.3-2.3c0.2-0.7,0.3-1.3,0.3-5.6
			c0-4.3-0.1-4.9-0.3-5.5c-0.5-1.5-1.6-2.3-3.3-2.3s-2.7,0.8-3.2,2.3c-0.2,0.6-0.3,1.2-0.3,5.5c0,4.3,0.1,4.9,0.3,5.6
			C534.4,342.6,535.4,343.5,537.1,343.5z"/>
		<path class="st1" d="M567.2,310.1H567l-5.9,4.2c-0.3,0.3-0.8,0.1-0.8-0.4V308c0-0.5,0.1-0.8,0.7-1.2l6.1-4.5
			c0.4-0.3,0.8-0.4,1.3-0.4h5.2c0.4,0,0.7,0.3,0.7,0.7v46c0,0.4-0.3,0.7-0.7,0.7h-5.7c-0.4,0-0.7-0.3-0.7-0.7V310.1z"/>
		<path class="st1" d="M602.6,329.7l-0.1-0.1c-0.3,0.2-1.2,0.4-2.4,0.4c-4.5,0-7-2.3-8.3-6.3c-0.4-1.3-0.7-3.3-0.7-8
			c0-4.9,0.2-6.4,0.6-7.7c1.3-4.2,4.7-6.7,10-6.7s8.7,2.5,10,6.7c0.4,1.3,0.6,2.9,0.6,7.7c0,6.6-0.6,9.1-2.2,13.5l-7.5,19.5
			c-0.2,0.5-0.5,0.7-1,0.7h-5.8c-0.5,0-0.7-0.3-0.5-0.8L602.6,329.7z M605,321.2c0.2-0.6,0.3-1.3,0.3-5.5c0-4.3-0.1-5-0.3-5.7
			c-0.5-1.5-1.6-2.3-3.3-2.3s-2.7,0.8-3.2,2.3c-0.2,0.7-0.3,1.3-0.3,5.7c0,4.3,0.1,4.9,0.3,5.5c0.5,1.5,1.5,2.3,3.2,2.3
			S604.5,322.7,605,321.2z"/>
	</g>
	<g>
		<rect x="149.4" y="26.9" class="st2" width="708.6" height="155.8"/>
		<path class="st0" d="M152.4,49c0-6.8,0.3-9.1,1.2-12c2.3-7.2,8-10.9,15.7-10.9c7.5,0,12.9,3.6,15.4,9.8c0.2,0.3,0.1,0.6-0.3,0.8
			l-7.1,3.2c-0.4,0.2-0.7,0.1-0.9-0.3c-1.2-2.9-3.3-5-7-5c-3.4,0-5.7,1.8-6.6,4.9c-0.5,1.6-0.7,3.2-0.7,9.5s0.2,7.9,0.7,9.5
			c1,3.1,3.2,4.9,6.6,4.9c3.7,0,5.8-2.1,7-5c0.2-0.4,0.5-0.5,0.9-0.3l7.1,3.2c0.4,0.1,0.5,0.5,0.3,0.8c-2.5,6.2-7.9,9.8-15.4,9.8
			c-7.7,0-13.4-3.6-15.7-10.9C152.7,58.1,152.4,55.8,152.4,49z"/>
		<path class="st0" d="M202.8,27.5c0.1-0.4,0.4-0.6,0.8-0.6h8.2c0.5,0,0.7,0.3,0.8,0.6l14.9,42.9c0.1,0.4,0,0.6-0.5,0.6h-8.4
			c-0.5,0-0.7-0.2-0.8-0.6l-2.5-7.7h-15.5l-2.5,7.7c-0.1,0.5-0.4,0.6-0.8,0.6h-8.5c-0.5,0-0.6-0.3-0.5-0.6L202.8,27.5z M212.8,54.6
			l-5-15.5h-0.2l-5,15.5H212.8z"/>
		<path class="st0" d="M232.8,27.5c0-0.4,0.3-0.6,0.6-0.6h8.3c0.4,0,0.6,0.3,0.6,0.6v34.6c0,0.3,0.1,0.4,0.4,0.4h19.5
			c0.4,0,0.6,0.3,0.6,0.6v7.2c0,0.4-0.3,0.6-0.6,0.6h-28.8c-0.4,0-0.6-0.3-0.6-0.6V27.5z"/>
		<path class="st0" d="M268.5,27.5c0-0.4,0.3-0.6,0.6-0.6h8.3c0.4,0,0.6,0.3,0.6,0.6v34.6c0,0.3,0.1,0.4,0.4,0.4h19.5
			c0.4,0,0.6,0.3,0.6,0.6v7.2c0,0.4-0.3,0.6-0.6,0.6h-28.8c-0.4,0-0.6-0.3-0.6-0.6V27.5z"/>
		<path class="st0" d="M304.2,27.5c0-0.4,0.3-0.6,0.6-0.6h28.3c0.4,0,0.6,0.3,0.6,0.6v7c0,0.4-0.3,0.6-0.6,0.6h-19
			c-0.3,0-0.4,0.1-0.4,0.4v8.8c0,0.3,0.1,0.4,0.4,0.4H330c0.4,0,0.6,0.3,0.6,0.6v6.9c0,0.4-0.3,0.6-0.6,0.6h-15.9
			c-0.3,0-0.4,0.1-0.4,0.4v9.2c0,0.3,0.1,0.4,0.4,0.4h19c0.4,0,0.6,0.3,0.6,0.6v7c0,0.4-0.3,0.6-0.6,0.6h-28.3
			c-0.4,0-0.6-0.3-0.6-0.6V27.5z"/>
		<path class="st0" d="M367.8,37.1h-0.1l-7,4.8c-0.4,0.3-0.7,0.1-0.7-0.4v-8.1c0-0.4,0.1-0.6,0.5-0.9l7.4-5.3
			c0.3-0.3,0.7-0.4,1.2-0.4h7.3c0.4,0,0.6,0.3,0.6,0.6v42.9c0,0.4-0.3,0.6-0.6,0.6h-7.8c-0.4,0-0.6-0.3-0.6-0.6V37.1z"/>
		<path class="st0" d="M392.3,60.8l7.1-1.4c0.4-0.1,0.6,0.1,0.8,0.5c0.8,2.3,2.7,4.2,5.8,4.2c3.4,0,5.5-2.4,5.5-5.7
			c0-4-2.4-6.2-6.2-6.2h-1.9c-0.4,0-0.6-0.3-0.6-0.6v-6.3c0-0.4,0.3-0.6,0.6-0.6h1.8c3.3,0,5.5-2.1,5.5-5.5c0-3.1-1.9-5.2-5-5.2
			c-2.8,0-4.4,1.6-5,4.1c-0.1,0.4-0.4,0.5-0.8,0.5l-7.1-1.4c-0.4-0.1-0.6-0.3-0.5-0.7c1-5.8,6-10.1,13.8-10.1
			c8.6,0,13.6,5.1,13.6,12.2c0,3.8-1.8,7-4.9,9.1v0.1c2.7,1.3,5.8,4.9,5.8,10.7c0,8.1-6.1,13.4-14.4,13.4c-7.5,0-13.1-3.8-14.4-10.1
			C391.8,61.2,392,60.9,392.3,60.8z"/>
		<path class="st0" d="M428.1,49c0-9.8,0.3-11.8,1-13.8c1.8-5.7,6.4-9,13.3-9c7,0,11.5,3.4,13.3,9c0.6,1.9,1,4,1,13.8
			c0,9.8-0.3,11.8-1,13.8c-1.8,5.7-6.4,9-13.3,9c-7,0-11.5-3.4-13.3-9C428.4,60.8,428.1,58.8,428.1,49z M442.4,64.1
			c2.3,0,3.8-1,4.5-3c0.4-1.2,0.5-2.5,0.5-12.1c0-9.7-0.1-11-0.5-12.1c-0.6-2-2.2-3-4.5-3c-2.3,0-3.8,1-4.5,3
			c-0.4,1.2-0.5,2.5-0.5,12.1c0,9.7,0.1,11,0.5,12.1C438.5,63.1,440,64.1,442.4,64.1z"/>
		<path class="st0" d="M480,27.5c0-0.4,0.3-0.6,0.6-0.6h7.8c0.5,0,0.8,0.2,1.1,0.6l15.6,27.8h0.3V27.5c0-0.4,0.3-0.6,0.6-0.6h7.3
			c0.4,0,0.6,0.3,0.6,0.6v42.9c0,0.4-0.3,0.6-0.6,0.6h-7.7c-0.5,0-0.8-0.2-1.1-0.6L489,42.7h-0.3v27.7c0,0.4-0.3,0.6-0.6,0.6h-7.3
			c-0.4,0-0.6-0.3-0.6-0.6V27.5z"/>
		<path class="st0" d="M522.6,61c-1-3.1-1.2-5.5-1.2-12.1c0-6.6,0.3-9,1.2-12.1c2.3-7.1,8.4-10.7,16.1-10.7
			c7.7,0,13.8,3.6,16.1,10.7c1,3.1,1.2,5.5,1.2,12.1c0,6.6-0.3,9-1.2,12.1c-2.3,7.1-8.4,10.7-16.1,10.7
			C531,71.8,524.9,68.2,522.6,61z M545.7,58.5c0.5-1.6,0.7-3.7,0.7-9.5c0-5.8-0.2-7.9-0.7-9.5c-1-3.1-3.3-4.9-7-4.9
			c-3.6,0-6,1.8-7,4.9c-0.5,1.6-0.7,3.7-0.7,9.5c0,5.8,0.2,7.9,0.7,9.5c1,3.1,3.3,4.9,7,4.9C542.4,63.3,544.7,61.5,545.7,58.5z"/>
		<path class="st0" d="M563,62.6c0-0.4,0.3-0.6,0.6-0.6h7.7c0.4,0,0.6,0.3,0.6,0.6v7.8c0,0.4-0.3,0.6-0.6,0.6h-7.7
			c-0.4,0-0.6-0.3-0.6-0.6V62.6z"/>
		<path class="st0" d="M610.1,53.3l-0.1-0.1c-0.5,0.2-1.6,0.4-2.7,0.4c-7,0-12.7-5.2-12.7-13.3c0-8.9,6.4-14.1,14.8-14.1
			c8.4,0,14.8,5.2,14.8,13.9c0,3.8-1.2,7.1-3.2,10.9l-10.7,19.6c-0.2,0.4-0.3,0.5-0.8,0.5h-8.3c-0.5,0-0.6-0.3-0.5-0.6L610.1,53.3z
			 M615.2,39.9c0-3.6-2.3-6.1-5.8-6.1c-3.6,0-5.8,2.5-5.8,6.1c0,3.6,2.3,6.2,5.8,6.2C612.9,46.1,615.2,43.6,615.2,39.9z"/>
		<path class="st0" d="M631.2,49c0-9.8,0.3-11.8,1-13.8c1.8-5.7,6.4-9,13.3-9c7,0,11.5,3.4,13.3,9c0.6,1.9,1,4,1,13.8
			c0,9.8-0.3,11.8-1,13.8c-1.8,5.7-6.4,9-13.3,9c-7,0-11.5-3.4-13.3-9C631.5,60.8,631.2,58.8,631.2,49z M645.5,64.1
			c2.3,0,3.8-1,4.5-3c0.4-1.2,0.5-2.5,0.5-12.1c0-9.7-0.1-11-0.5-12.1c-0.6-2-2.2-3-4.5-3c-2.3,0-3.8,1-4.5,3
			c-0.4,1.2-0.5,2.5-0.5,12.1c0,9.7,0.1,11,0.5,12.1C641.6,63.1,643.1,64.1,645.5,64.1z"/>
		<path class="st0" d="M666.3,57.2v-6.6c0-0.4,0.3-0.6,0.6-0.6h18.7c0.4,0,0.6,0.3,0.6,0.6v6.6c0,0.4-0.3,0.6-0.6,0.6h-18.7
			C666.5,57.8,666.3,57.5,666.3,57.2z"/>
		<path class="st0" d="M693.2,64.4c0-0.4,0.1-0.6,0.3-0.9L709.1,45c1.7-1.9,2.6-3.8,2.6-6.1c0-2.9-1.8-5.1-4.8-5.1
			c-3,0-4.8,1.8-5.2,5.2c0,0.4-0.3,0.6-0.7,0.5l-7.1-1.2c-0.4-0.1-0.6-0.4-0.5-0.8c0.5-6.1,5.4-11.4,13.9-11.4
			c8.4,0,13.6,5.5,13.6,12.6c0,4.2-1.7,7.5-4.5,10.7l-11.6,13.7v0.1h15.5c0.4,0,0.6,0.3,0.6,0.6v6.4c0,0.4-0.3,0.6-0.6,0.6h-26.2
			c-0.4,0-0.6-0.3-0.6-0.6V64.4z"/>
		<path class="st0" d="M740.8,37.1h-0.1l-7,4.8c-0.4,0.3-0.7,0.1-0.7-0.4v-8.1c0-0.4,0.1-0.6,0.5-0.9l7.4-5.3
			c0.3-0.3,0.7-0.4,1.2-0.4h7.3c0.4,0,0.6,0.3,0.6,0.6v42.9c0,0.4-0.3,0.6-0.6,0.6h-7.8c-0.4,0-0.6-0.3-0.6-0.6V37.1z"/>
		<path class="st1" d="M180.4,133.6c-0.5,0-0.6-0.2-0.8-0.6l-8.8-18.1H161c-0.3,0-0.4,0.1-0.4,0.4V133c0,0.4-0.3,0.6-0.6,0.6h-4.5
			c-0.4,0-0.6-0.3-0.6-0.6V90.1c0-0.4,0.3-0.6,0.6-0.6h16c8.3,0,13.8,5.1,13.8,12.7c0,6-3.4,10.3-8.7,12l9.4,18.6
			c0.3,0.4,0.1,0.8-0.4,0.8H180.4z M179.5,102.2c0-4.6-3.1-7.3-8.2-7.3H161c-0.3,0-0.4,0.1-0.4,0.4v13.9c0,0.3,0.1,0.4,0.4,0.4h10.3
			C176.5,109.5,179.5,106.8,179.5,102.2z"/>
		<path class="st1" d="M194.9,90.1c0-0.4,0.3-0.6,0.6-0.6h4.5c0.4,0,0.6,0.3,0.6,0.6V133c0,0.4-0.3,0.6-0.6,0.6h-4.5
			c-0.4,0-0.6-0.3-0.6-0.6V90.1z"/>
		<path class="st1" d="M211.6,90.1c0-0.4,0.3-0.6,0.6-0.6h4.2c0.5,0,0.8,0.1,1.1,0.6l20,33.1h0.3V90.1c0-0.4,0.3-0.6,0.6-0.6h4.1
			c0.4,0,0.6,0.3,0.6,0.6V133c0,0.4-0.3,0.6-0.6,0.6h-4.2c-0.5,0-0.8-0.1-1.1-0.6l-20.1-33H217v33c0,0.4-0.3,0.6-0.6,0.6h-4.1
			c-0.4,0-0.6-0.3-0.6-0.6V90.1z"/>
		<path class="st1" d="M252.5,111.5c0-7.3,0.3-9.9,1.2-12.4c2.2-7,7.5-10.4,14.7-10.4c6.6,0,11.6,3.2,14.2,8.9
			c0.1,0.3,0.1,0.6-0.3,0.8l-3.9,1.9c-0.4,0.2-0.8,0-0.9-0.3c-1.8-3.4-4.5-5.9-9.1-5.9c-4.8,0-7.7,2.3-9.2,6.5
			c-0.6,1.8-0.8,4-0.8,10.9c0,7,0.3,9.1,0.8,10.9c1.4,4.2,4.4,6.5,9.2,6.5c4.6,0,7.3-2.5,9.1-5.9c0.1-0.3,0.5-0.5,0.9-0.3l3.9,1.9
			c0.3,0.2,0.4,0.5,0.3,0.8c-2.5,5.7-7.6,8.9-14.2,8.9c-7.2,0-12.5-3.4-14.7-10.4C252.9,121.4,252.5,118.9,252.5,111.5z"/>
		<path class="st1" d="M290.5,124c-0.8-2.5-1.2-5.2-1.2-12.5s0.3-9.9,1.2-12.5c2.3-6.8,7.6-10.3,15-10.3c7.5,0,12.8,3.5,15.1,10.3
			c0.8,2.5,1.2,5.2,1.2,12.5s-0.3,9.9-1.2,12.5c-2.3,6.8-7.6,10.3-15.1,10.3C298.1,134.3,292.7,130.8,290.5,124z M314.9,122.4
			c0.5-1.6,1-4.5,1-10.9s-0.5-9.2-1-10.9c-1.4-4.2-4.5-6.6-9.4-6.6c-4.9,0-8,2.3-9.4,6.6c-0.5,1.6-1,4.5-1,10.9s0.5,9.2,1,10.9
			c1.4,4.2,4.5,6.6,9.4,6.6C310.4,128.9,313.5,126.6,314.9,122.4z M302.8,84.1c-0.4,0-0.5-0.3-0.3-0.6l5.6-6.9
			c0.3-0.4,0.6-0.6,1.2-0.6h4.5c0.4,0,0.6,0.3,0.3,0.6l-7,7c-0.5,0.5-0.7,0.6-1.2,0.6H302.8z"/>
		<path class="st1" d="M331.1,90.1c0-0.4,0.3-0.6,0.6-0.6h4.2c0.5,0,0.8,0.1,1.1,0.6l20,33.1h0.3V90.1c0-0.4,0.3-0.6,0.6-0.6h4.1
			c0.4,0,0.6,0.3,0.6,0.6V133c0,0.4-0.3,0.6-0.6,0.6h-4.2c-0.5,0-0.8-0.1-1.1-0.6l-20.1-33h-0.2v33c0,0.4-0.3,0.6-0.6,0.6h-4.1
			c-0.4,0-0.6-0.3-0.6-0.6V90.1z"/>
		<path class="st1" d="M389.2,90.1c0-0.4,0.3-0.6,0.6-0.6h14.9c7.5,0,12.4,3.2,14.4,9.4c0.8,2.4,1.2,4.8,1.2,12.7
			c0,7.9-0.4,10.3-1.2,12.7c-2,6.2-7,9.4-14.4,9.4h-14.9c-0.4,0-0.6-0.3-0.6-0.6V90.1z M395.3,128.2h8.1c5.3,0,8.6-1.8,10.1-6
			c0.6-1.6,0.9-3.8,0.9-10.7c0-6.9-0.3-9-0.9-10.7c-1.4-4.3-4.7-6-10.1-6h-8.1c-0.3,0-0.4,0.1-0.4,0.4v32.6
			C394.9,128.1,395.1,128.2,395.3,128.2z"/>
		<path class="st1" d="M429.6,90.1c0-0.4,0.3-0.6,0.6-0.6h26.6c0.4,0,0.6,0.3,0.6,0.6v4.1c0,0.4-0.3,0.6-0.6,0.6h-21.1
			c-0.3,0-0.4,0.1-0.4,0.4v13c0,0.3,0.1,0.4,0.4,0.4h17.9c0.4,0,0.6,0.3,0.6,0.6v4.1c0,0.4-0.3,0.6-0.6,0.6h-17.9
			c-0.3,0-0.4,0.1-0.4,0.4v13.4c0,0.3,0.1,0.4,0.4,0.4h21.1c0.4,0,0.6,0.3,0.6,0.6v4.1c0,0.4-0.3,0.6-0.6,0.6h-26.6
			c-0.4,0-0.6-0.3-0.6-0.6V90.1z"/>
		<path class="st1" d="M479.7,128.8c-0.3-0.3-0.3-0.6-0.1-1l2.9-3.4c0.3-0.3,0.6-0.3,0.9-0.1c2.9,2.3,7.3,4.5,12.3,4.5
			c6.1,0,9.7-3.1,9.7-7.5c0-3.8-2.1-6.3-9.2-7.2l-2.2-0.3c-8.6-1.2-13-5.3-13-12.2c0-7.9,5.7-12.9,14.4-12.9
			c5.2,0,10.2,1.7,13.4,4.1c0.3,0.3,0.4,0.6,0.1,0.9l-2.2,3.6c-0.3,0.3-0.6,0.3-0.9,0.1c-3.6-2.2-6.9-3.3-10.7-3.3
			c-5.4,0-8.4,2.9-8.4,7.1c0,3.7,2.5,6.2,9.3,7.1l2.1,0.3c8.6,1.2,13,5.1,13,12.3c0,7.7-5.5,13.3-16.1,13.3
			C489,134.3,482.9,131.8,479.7,128.8z"/>
		<path class="st1" d="M519.9,118.2V90.1c0-0.4,0.3-0.6,0.6-0.6h4.5c0.4,0,0.6,0.3,0.6,0.6v28.1c0,7.1,4,10.8,9.9,10.8
			c5.8,0,9.8-3.6,9.8-10.8V90.1c0-0.4,0.3-0.6,0.6-0.6h4.5c0.4,0,0.6,0.3,0.6,0.6v28.1c0,10.4-5.9,16.1-15.6,16.1
			C525.8,134.3,519.9,128.6,519.9,118.2z"/>
		<path class="st1" d="M561.7,90.1c0-0.4,0.3-0.6,0.6-0.6H578c8.9,0,13.3,4.5,13.3,11.6c0,5.1-2.5,8.3-5.9,9.6v0.1
			c3,0.8,6.7,4.3,6.7,10.2c0,8.3-5.2,12.6-14.4,12.6h-15.3c-0.4,0-0.6-0.3-0.6-0.6V90.1z M577.9,108.5c4.9,0,7.7-2.8,7.7-6.9
			c0-4.2-2.9-7-7.7-7h-10c-0.3,0-0.4,0.1-0.4,0.4v13.1c0,0.3,0.1,0.4,0.4,0.4H577.9z M567.9,128.4h10.3c5.3,0,8.1-2.9,8.1-7.3
			c0-4.4-2.9-7.3-8.1-7.3h-10.3c-0.3,0-0.4,0.1-0.4,0.4V128C567.5,128.2,567.6,128.4,567.9,128.4z"/>
		<path class="st1" d="M612.4,90.1c0.1-0.4,0.3-0.6,0.8-0.6h4.2c0.5,0,0.7,0.3,0.8,0.6l15.1,42.9c0.1,0.4-0.1,0.6-0.5,0.6h-4.5
			c-0.5,0-0.7-0.2-0.8-0.6l-3.4-9.6h-17.9l-3.4,9.6c-0.2,0.5-0.5,0.6-0.8,0.6h-4.5c-0.4,0-0.6-0.3-0.5-0.6L612.4,90.1z M622.3,118
			l-7-20.1h-0.1l-7,20.1H622.3z"/>
	</g>
	<path class="st3" d="M69.1,124.6c-7.9-10.4-15.2-20.9-21.7-32c-4.3-7.3-8.2-14.8-10.7-22.9c-6-19.1,4.1-39.4,23.7-44.7
		c19.1-5.2,38.8,7.4,42.3,26.8c1.2,6.8,0.1,13.2-2.3,19.6C96.1,83,90,93.7,83.3,104c-4.2,6.5-8.7,12.8-13,19.1
		C70,123.6,69.6,124,69.1,124.6z M85.7,58c0-9.3-7.3-16.6-16.6-16.6c-9.2,0-16.6,7.4-16.5,16.7c0,9.2,7.5,16.5,16.9,16.5
		C78.5,74.6,85.8,67.1,85.7,58z"/>
	<path class="st4" d="M47.8,255c-3.8,0-7.3,0-10.9,0c-3.9,0-5.2-1.4-5.2-5.5c0-0.6,0-1.2,0-1.8c0-3.2,1.4-4.7,4.5-4.8
		c3.8-0.1,7.6-0.1,11.4,0c1.4,0,1.7-0.5,1.8-1.8c0.4-3.6,0.8-7.2,1.3-10.8c0.3-2.2,1.6-3.4,3.7-3.5c1.2-0.1,2.4-0.1,3.6,0
		c2.7,0.1,4.2,2.1,3.9,5c-0.4,3.6-0.9,7.2-1.3,10.9c5.1,0,10,0,15.1,0c0.4-3.5,0.9-7,1.3-10.5c0.5-4.4,1.5-5.4,5.6-5.4
		c0.7,0,1.4,0,2,0c2.6,0.2,4.1,2.1,3.8,4.9c-0.4,3.6-0.8,7.3-1.3,11.2c1.6,0,3.1,0,4.5,0c2.5,0,5,0,7.5,0c3.1,0.1,4.4,1.6,4.5,4.8
		c0,0.4,0,0.8,0,1.3c0,5-1.1,6.1-5.7,6.1c-3.5,0-7,0-10.5,0c-0.6,0-1.1,0.1-1.8,0.1c-0.6,5.3-1.2,10.5-1.9,16c0.6,0,1.2,0,1.7,0
		c3.3,0,6.6,0,9.9,0c3,0,4.4,1.6,4.5,4.8c0.1,6.5-0.6,7.3-6.7,7.3c-3.1,0-6.2,0.1-9.3,0c-1.2,0-1.5,0.5-1.7,1.6
		c-0.4,3.7-0.8,7.3-1.3,10.9c-0.3,2.2-1.6,3.4-3.7,3.5c-1.2,0.1-2.4,0.1-3.6,0c-2.7-0.1-4.2-2.1-3.9-5c0.4-3.6,0.9-7.2,1.3-10.9
		c-5.1,0-10,0-15.1,0c-0.4,3.5-0.9,7-1.3,10.5c-0.5,4.4-1.5,5.4-5.6,5.4c-0.7,0-1.4,0-2,0c-2.6-0.2-4.1-2.1-3.8-4.9
		c0.4-3.6,0.8-7.3,1.3-11.2c-1.6,0-3.1,0-4.5,0c-2.5,0-5,0-7.5,0c-3.1-0.1-4.4-1.6-4.5-4.8c0-0.5,0-1,0-1.4c0-4.7,1.1-5.9,5.5-5.9
		c3.6,0,7.1,0,10.7,0c0.6,0,1.1-0.1,1.6-0.1c0.1-0.3,0.2-0.4,0.2-0.6C46.6,265.3,47.2,260.3,47.8,255z M74.3,255.1
		c-5.1,0-10.1,0-15.1,0c-0.6,5.3-1.2,10.5-1.8,15.8c5.1,0,10.1,0,15.1,0C73.1,265.6,73.7,260.4,74.3,255.1z"/>
	<line class="st5" x1="161.4" y1="187.5" x2="777.4" y2="187.5"/>
</g>
</svg>
