<svg id="Capa_1" data-name="Capa 1" xmlns="http://www.w3.org/2000/svg" viewBox="0 0 698 21.8"><defs><style>.cls-1{fill:none;stroke:#000;stroke-linecap:round;stroke-linejoin:round;stroke-width:8px;}</style></defs><title>underline</title><path class="cls-1" d="M30,660.1c17.25,0,17.25,13.8,34.49,13.8S81.74,660.1,99,660.1s17.25,13.8,34.5,13.8,17.24-13.8,34.49-13.8,17.25,13.8,34.5,13.8,17.25-13.8,34.5-13.8,17.25,13.8,34.5,13.8,17.25-13.8,34.5-13.8,17.25,13.8,34.5,13.8,17.25-13.8,34.5-13.8,17.25,13.8,34.5,13.8,17.25-13.8,34.5-13.8,17.25,13.8,34.5,13.8,17.25-13.8,34.49-13.8,17.26,13.8,34.51,13.8,17.25-13.8,34.5-13.8,17.25,13.8,34.5,13.8,17.25-13.8,34.5-13.8,17.26,13.8,34.51,13.8,17.26-13.8,34.51-13.8" transform="translate(-26 -656.1)"/></svg>