<?xml version="1.0" encoding="utf-8"?>
<!-- Generator: Adobe Illustrator 22.0.1, SVG Export Plug-In . SVG Version: 6.00 Build 0)  -->
<svg version="1.1" id="Capa_1" xmlns="http://www.w3.org/2000/svg" xmlns:xlink="http://www.w3.org/1999/xlink" x="0px" y="0px"
	 viewBox="0 0 290.2 23.9" style="enable-background:new 0 0 290.2 23.9;" xml:space="preserve">
<title>underline</title>
<path d="M290.2,9.2C286.2,5.1,281.3,0,272,0s-14.3,5.1-18.2,9.2c-3.6,3.8-6.5,6.7-12.4,6.7s-8.8-3-12.4-6.7C225,5.1,220.1,0,210.8,0
	c-9.4,0-14.2,5.1-18.2,9.2c-3.6,3.8-6.5,6.7-12.4,6.7c-5.9,0-8.8-3-12.4-6.7c-3.9-4.1-8.8-9.2-18.2-9.2s-14.2,5.1-18.2,9.2
	c-3.6,3.8-6.5,6.7-12.4,6.7c-5.9,0-8.8-3-12.4-6.7C102.6,5.1,97.7,0,88.4,0S74.1,5.1,70.2,9.2c-3.6,3.8-6.5,6.7-12.4,6.7
	s-8.8-3-12.4-6.7C41.4,5.1,36.5,0,27.2,0C17.8,0,12.9,5.1,9,9.2c-2.8,3-5.2,5.4-9,6.3c0.3,2.7,0.6,5.3,0.9,8
	c6.6-1.3,10.6-5.4,13.9-8.8C18.4,11,21.2,8,27.2,8c5.9,0,8.8,3,12.4,6.7c3.9,4.1,8.8,9.2,18.2,9.2S72,18.8,76,14.7
	C79.6,11,82.4,8,88.4,8c5.9,0,8.8,3,12.4,6.7c3.9,4.1,8.8,9.2,18.2,9.2c9.4,0,14.2-5.1,18.2-9.2c3.6-3.8,6.5-6.7,12.4-6.7
	c5.9,0,8.8,3,12.4,6.7c3.9,4.1,8.8,9.2,18.2,9.2s14.2-5.1,18.2-9.2C202,11,204.8,8,210.8,8c5.9,0,8.8,3,12.4,6.7
	c3.9,4.1,8.8,9.2,18.2,9.2s14.2-5.1,18.2-9.2C263.2,11,266,8,272,8c5.9,0,8.8,3,12.4,6.7c1.7,1.7,3.5,3.7,5.8,5.3L290.2,9.2
	C290.2,9.2,290.2,9.2,290.2,9.2z"/>
</svg>
