<?xml version="1.0" encoding="utf-8"?>
<!-- Generator: Adobe Illustrator 22.0.1, SVG Export Plug-In . SVG Version: 6.00 Build 0)  -->
<svg version="1.1" id="Capa_1" xmlns="http://www.w3.org/2000/svg" xmlns:xlink="http://www.w3.org/1999/xlink" x="0px" y="0px"
	 viewBox="0 0 292.7 141.2" enable-background="new 0 0 292.7 141.2" xml:space="preserve">
<g>
	<polygon fill="#FFFFFF" stroke="#101C22" stroke-width="3" stroke-miterlimit="10" points="291.2,1.5 1.5,1.5 1.5,113.5 
		29.8,113.5 44,138.2 58.3,113.5 291.2,113.5 	"/>
	<g>
		<path fill-rule="evenodd" clip-rule="evenodd" d="M53.6,38l0,24.4c0,0.5,0,3.5-0.3,4.2c-0.8,1.8-4.7,2.1-6.2,2.3l-0.3,0l0-0.2l0,0
			l0,0l0,0l0,0l0,0l0,0l0,0l0,0l0,0l0,0l0,0l0,0l0,0l0,0l0,0l0,0l0,0l0,0l0,0l0,0l0,0l0,0l0,0l0,0l0,0l0,0l0,0l0,0l0,0l0,0l0,0l0,0
			l0,0l0,0l0,0l0,0l0,0l0,0l0,0l0,0l0,0l0,0l0,0l0,0l0,0l0,0l0,0l0,0l0,0l0,0l0,0l0,0l0,0l0,0l0,0l0,0l0,0l0,0l0,0l0,0l0,0l0,0l0,0
			l0,0l0,0l0,0l0,0l0,0l0,0l0,0l0,0l0,0l0,0l0,0l0,0l0,0l0,0l0,0l0,0l0,0l0,0l0,0l0,0l0,0l0,0l0,0l0,0l0,0l0,0l0,0l0-0.1l0-0.1
			l0-0.1l0-0.1l0-0.1l0-0.1l0-0.1l0-0.1l0-0.1l0-0.1l0-0.1l0-0.1l0-0.1l0-0.1l0-0.1l0-0.1l0-0.1l0-0.1l0-0.1l0-0.1l0-0.1l0-0.1
			l0-0.1l0-0.1l0-0.1l0-0.1l0-0.1l0-0.1l0-0.1l0-0.1l0-0.1l0-0.1l0-0.1l0-0.1l0-0.1l0-0.1l0-0.1l0-0.1l0-0.1l0-0.1l0-0.1l0-0.1
			l0-0.1l0-0.1l0-0.1l0-0.1l0-0.1l0,0l0,0l0,0l0,0v0l0,0v0v0l0,0v0V44.8l0-6.5l-13.5,0l0-0.3l0-0.8l0-0.4l0-0.4l0-0.4l0-0.4l0-0.4
			l0-0.4l0-0.4l0-0.4l0-0.4l0-0.4l0-0.4l0-0.4l0-0.4l0-0.4l0-0.3h20.7L53.6,38z"/>
		<rect x="32.8" y="17.5" fill-rule="evenodd" clip-rule="evenodd" width="47.8" height="7.3"/>
		<polygon fill-rule="evenodd" clip-rule="evenodd" fill="#E4B232" points="67.1,44.8 67.1,62.3 67.1,62.4 67.1,62.4 67.1,62.5 
			67.1,62.5 67.1,62.6 67.1,62.6 67.1,62.7 67.1,62.7 67.1,62.8 67.1,62.8 67.1,62.9 67.1,62.9 67.1,63 67.1,63 67.1,63.1 
			67.1,63.1 67.1,63.2 67.1,63.2 67.1,63.3 67.1,63.3 67.1,63.4 67.1,63.4 67.1,63.5 67.1,63.5 67.1,63.6 67.1,63.6 67.1,63.7 
			67.1,63.7 67.1,63.8 67.1,63.9 67.1,64 67.1,64.1 67.1,64.2 67.1,64.2 67.1,64.3 67.1,64.4 67.1,64.5 67.1,64.5 67.1,64.6 
			67,64.7 67,64.8 67,64.8 67,64.9 67,65 67,65.1 67,65.2 67,65.2 67,65.3 67,65.4 67,65.5 67,65.5 67,65.6 67,65.7 67,65.8 
			67,65.8 67,65.9 67,66 67,66.1 67,66.1 67,66.2 66.9,66.3 66.9,66.4 66.9,66.4 66.9,66.5 66.9,66.6 66.9,66.6 66.9,66.7 
			66.9,66.7 66.9,66.8 66.9,66.8 66.9,66.8 66.9,66.9 66.9,66.9 66.9,66.9 66.9,66.9 66.9,67 66.9,67 66.9,67 66.9,67.1 66.9,67.1 
			66.9,67.1 66.9,67.2 66.9,67.2 66.9,67.2 66.9,67.3 66.9,67.3 66.9,67.3 66.9,67.4 66.8,67.4 66.8,67.4 66.8,67.5 66.8,67.5 
			66.8,67.5 66.8,67.6 66.8,67.6 66.8,67.6 66.8,67.7 66.8,67.7 66.8,67.7 66.8,67.7 66.8,67.7 66.8,67.8 66.8,67.8 66.8,67.8 
			66.8,67.8 66.8,67.8 66.8,67.8 66.8,67.9 66.8,67.9 66.8,67.9 66.8,67.9 66.8,67.9 66.8,67.9 66.8,67.9 66.8,68 66.8,68 66.8,68 
			66.8,68 66.8,68 66.8,68 66.8,68.1 66.8,68.1 66.8,68.1 66.8,68.1 66.8,68.1 66.8,68.1 66.7,68.2 66.7,68.2 66.7,68.2 66.7,68.2 
			66.7,68.2 66.7,68.2 66.7,68.3 66.7,68.3 66.7,68.3 66.7,68.3 66.7,68.3 66.7,68.3 66.7,68.3 66.7,68.4 66.7,68.4 66.7,68.4 
			66.7,68.4 66.7,68.4 66.7,68.4 66.7,68.5 66.7,68.5 66.7,68.5 66.7,68.5 66.7,68.5 66.7,68.5 66.7,68.5 66.7,68.6 66.7,68.6 
			66.7,68.6 66.7,68.6 66.7,68.6 66.7,68.6 66.7,68.6 66.7,68.6 66.7,68.7 66.7,68.7 66.7,68.7 66.7,68.7 66.6,68.7 66.6,68.7 
			66.6,68.7 66.6,68.8 66.6,68.8 66.6,68.8 66.6,68.8 66.6,68.8 66.6,68.8 66.6,68.8 66.6,68.9 66.6,68.9 66.6,68.9 66.6,68.9 
			66.6,68.9 66.6,69 66.6,69 66.6,69 66.6,69 66.6,69.1 66.6,69.1 66.6,69.1 66.6,69.1 66.6,69.2 66.5,69.2 66.5,69.2 66.5,69.3 
			66.5,69.3 66.5,69.3 66.5,69.3 66.5,69.4 66.5,69.4 66.5,69.4 66.5,69.4 66.5,69.5 66.5,69.5 66.5,69.5 66.5,69.6 66.5,69.6 
			66.4,69.6 66.4,69.6 66.4,69.7 66.4,69.7 66.4,69.7 66.4,69.7 66.4,69.8 66.4,69.8 66.4,69.8 66.4,69.9 66.4,69.9 66.4,69.9 
			66.4,69.9 66.4,70 66.4,70 66.3,70 66.3,70 66.3,70.1 66.3,70.1 66.3,70.1 66.3,70.2 66.3,70.2 66.3,70.2 66.3,70.3 66.3,70.3 
			66.3,70.3 66.2,70.4 66.2,70.4 66.2,70.4 66.2,70.5 66.2,70.5 66.2,70.5 66.2,70.6 66.2,70.6 66.2,70.6 66.2,70.7 66.2,70.7 
			66.1,70.7 66.1,70.8 66.1,70.8 66.1,70.8 66.1,70.9 66.1,70.9 66.1,70.9 66.1,71 66.1,71 66.1,71 66.1,71 66.1,71 66,71 66,71 
			66,71.1 66,71.1 66,71.1 66,71.1 66,71.1 66,71.1 66,71.2 66,71.2 66,71.2 66,71.2 66,71.2 66,71.2 66,71.3 66,71.3 66,71.3 
			66,71.3 66,71.3 66,71.3 65.9,71.4 65.9,71.4 65.9,71.4 65.9,71.4 65.9,71.4 65.9,71.4 65.9,71.4 65.9,71.5 65.9,71.5 65.9,71.5 
			65.9,71.5 65.9,71.5 65.9,71.5 65.9,71.6 65.9,71.6 65.9,71.6 65.9,71.6 65.9,71.6 65.8,71.6 65.8,71.7 65.8,71.7 65.8,71.7 
			65.8,71.7 65.8,71.7 65.8,71.7 65.8,71.7 65.8,71.8 65.8,71.8 65.8,71.8 65.8,71.8 65.8,71.8 65.8,71.8 65.8,71.9 65.8,71.9 
			65.8,71.9 65.7,71.9 65.7,71.9 65.7,71.9 65.7,72 65.7,72 65.7,72 65.7,72 65.7,72 65.7,72 65.7,72 65.7,72.1 65.7,72.1 
			65.7,72.1 65.7,72.1 65.7,72.1 65.7,72.1 65.6,72.2 65.6,72.2 65.6,72.2 65.6,72.2 65.6,72.2 65.6,72.2 65.6,72.2 65.6,72.3 
			65.6,72.3 65.6,72.3 65.6,72.3 65.6,72.3 65.6,72.3 65.6,72.3 65.6,72.4 65.6,72.4 65.6,72.4 65.5,72.4 65.5,72.4 65.5,72.4 
			65.5,72.4 65.5,72.5 65.5,72.5 65.5,72.5 65.5,72.5 65.5,72.5 65.5,72.5 65.5,72.5 65.5,72.6 65.5,72.6 65.5,72.6 65.5,72.6 
			65.4,72.6 65.4,72.6 65.4,72.6 65.4,72.7 65.4,72.7 65.4,72.7 65.4,72.7 65.4,72.7 65.4,72.7 65.4,72.7 65.4,72.8 65.4,72.8 
			65.4,72.8 65.4,72.8 65.4,72.8 65.3,72.8 65.3,72.8 65.3,72.9 65.3,72.9 65.3,72.9 65.3,72.9 65.3,72.9 65.3,72.9 65.3,72.9 
			65.3,73 65.3,73 65.3,73 65.3,73 65.3,73 65.3,73 65.2,73 65.2,73 65.2,73.1 65.2,73.1 65.2,73.1 65.2,73.1 65.2,73.1 65.2,73.1 
			65.2,73.1 65.2,73.2 65.2,73.2 65.2,73.2 65.2,73.2 65.2,73.2 65.1,73.2 65.1,73.2 65.1,73.3 65.1,73.3 65.1,73.3 65.1,73.3 
			65.1,73.3 65.1,73.3 65.1,73.3 65.1,73.4 65.1,73.4 65.1,73.4 65.1,73.4 65,73.4 65,73.4 65,73.4 65,73.4 65,73.5 65,73.5 
			65,73.5 65,73.5 65,73.5 65,73.5 65,73.5 65,73.6 65,73.6 64.9,73.6 64.9,73.6 64.9,73.6 64.9,73.6 64.9,73.6 64.9,73.7 
			64.9,73.7 64.9,73.7 64.9,73.7 64.9,73.7 64.9,73.7 64.9,73.7 64.9,73.7 64.8,73.8 64.8,73.8 64.8,73.8 64.8,73.8 64.8,73.8 
			64.8,73.8 64.8,73.8 64.8,73.9 64.8,73.9 64.8,73.9 64.8,73.9 64.8,73.9 64.7,73.9 64.7,73.9 64.7,73.9 64.7,74 64.7,74 64.7,74 
			64.7,74 64.7,74 64.7,74 64.7,74 64.7,74 64.7,74.1 64.7,74.1 64.6,74.1 64.6,74.1 64.6,74.1 64.6,74.1 64.6,74.1 64.6,74.1 
			64.6,74.1 64.6,74.2 64.6,74.2 64.6,74.2 64.6,74.2 64.6,74.2 64.6,74.2 64.5,74.2 64.5,74.2 64.5,74.2 64.5,74.3 64.5,74.3 
			64.5,74.3 64.5,74.3 64.5,74.3 64.5,74.3 64.5,74.3 64.5,74.3 64.5,74.4 64.5,74.4 64.4,74.4 64.4,74.4 64.4,74.4 64.4,74.4 
			64.4,74.4 64.4,74.4 64.4,74.4 64.4,74.5 64.4,74.5 64.4,74.5 64.4,74.5 64.4,74.5 64.4,74.5 64.3,74.5 64.3,74.5 64.3,74.5 
			64.3,74.6 64.3,74.6 64.3,74.6 64.3,74.6 64.3,74.6 64.3,74.6 64.3,74.6 64.3,74.6 64.3,74.6 64.3,74.7 64.2,74.7 64.2,74.7 
			64.2,74.7 64.2,74.7 64.2,74.7 64.2,74.7 64.2,74.7 64.2,74.7 64.2,74.8 64.2,74.8 64.2,74.8 64.2,74.8 64.1,74.8 64.1,74.8 
			64.1,74.8 64.1,74.8 64.1,74.8 64.1,74.9 64.1,74.9 64.1,74.9 64.1,74.9 64.1,74.9 64.1,74.9 64.1,74.9 64,74.9 64,74.9 64,75 
			64,75 64,75 64,75 64,75 64,75 64,75 64,75 64,75 64,75.1 63.9,75.1 63.9,75.1 63.9,75.1 63.9,75.1 63.9,75.1 63.9,75.1 
			63.9,75.1 63.9,75.1 63.9,75.1 63.9,75.2 63.9,75.2 63.9,75.2 63.8,75.2 63.8,75.2 63.8,75.2 63.8,75.2 63.8,75.2 63.8,75.2 
			63.8,75.3 63.8,75.3 63.8,75.3 63.8,75.3 63.8,75.3 63.8,75.3 63.7,75.3 63.7,75.3 63.7,75.3 63.7,75.4 63.7,75.4 63.7,75.4 
			63.7,75.4 63.7,75.4 63.7,75.4 63.7,75.4 63.7,75.4 63.6,75.4 63.6,75.4 63.6,75.5 63.6,75.5 63.6,75.5 63.6,75.5 63.6,75.5 
			63.6,75.5 63.6,75.5 63.6,75.5 63.6,75.5 63.6,75.6 63.5,75.6 63.5,75.6 63.5,75.6 63.5,75.6 63.5,75.6 63.5,75.6 63.5,75.6 
			63.5,75.6 63.5,75.6 63.5,75.7 63.5,75.7 63.4,75.7 63.4,75.7 63.4,75.7 63.4,75.7 63.4,75.7 63.4,75.7 63.4,75.7 63.4,75.7 
			63.4,75.8 63.4,75.8 63.4,75.8 63.3,75.8 63.3,75.8 63.3,75.8 63.3,75.8 63.3,75.8 63.3,75.8 63.3,75.9 63.3,75.9 63.3,75.9 
			63.3,75.9 63.3,75.9 63.2,75.9 63.2,75.9 63.2,75.9 63.2,75.9 63.2,75.9 63.2,76 63.2,76 63.2,76 63.2,76 63.2,76 63.1,76 
			63.1,76 63.1,76 63.1,76 63.1,76 63.1,76.1 63.1,76.1 63.1,76.1 63.1,76.1 63.1,76.1 63.1,76.1 63,76.1 63,76.1 63,76.1 63,76.1 
			63,76.2 63,76.2 63,76.2 63,76.2 63,76.2 63,76.2 63,76.2 62.9,76.2 62.9,76.2 62.9,76.3 62.9,76.3 62.9,76.3 62.8,76.3 
			62.8,76.3 62.8,76.4 62.8,76.4 62.8,76.4 62.8,76.4 62.7,76.4 62.7,76.5 62.7,76.5 62.7,76.5 62.7,76.5 62.6,76.5 62.6,76.6 
			62.6,76.6 62.6,76.6 62.6,76.6 62.5,76.6 62.5,76.6 62.5,76.7 62.5,76.7 62.5,76.7 62.4,76.7 62.4,76.7 62.4,76.7 62.4,76.8 
			62.4,76.8 62.4,76.8 62.4,76.8 62.3,76.8 62.3,76.8 62.3,76.8 62.3,76.8 62.3,76.9 62.3,76.9 62.3,76.9 62.2,76.9 62.2,76.9 
			62.2,76.9 62.2,76.9 62.2,77 62.2,77 62.2,77 62.1,77 62.1,77 62.1,77 62.1,77 62.1,77 62.1,77.1 62.1,77.1 62,77.1 62,77.1 
			62,77.1 62,77.1 62,77.1 62,77.2 62,77.2 61.9,77.2 61.9,77.2 61.9,77.2 61.9,77.2 61.9,77.2 61.9,77.2 61.9,77.3 61.8,77.3 
			61.8,77.3 61.8,77.3 61.8,77.3 61.8,77.3 61.8,77.3 61.8,77.3 61.7,77.4 61.7,77.4 61.7,77.4 61.7,77.4 61.7,77.4 61.7,77.4 
			61.6,77.4 61.6,77.4 61.6,77.5 61.6,77.5 61.6,77.5 61.6,77.5 61.6,77.5 61.5,77.5 61.5,77.5 61.5,77.5 61.5,77.6 61.5,77.6 
			61.5,77.6 61.5,77.6 61.4,77.6 61.4,77.6 61.4,77.6 61.4,77.6 61.4,77.7 61.4,77.7 61.3,77.7 61.3,77.7 61.3,77.7 61.3,77.7 
			61.3,77.7 61.3,77.7 61.3,77.8 61.2,77.8 61.2,77.8 61.2,77.8 61.2,77.8 61.2,77.8 61.2,77.8 61.1,77.8 61.1,77.8 61.1,77.9 
			61.1,77.9 61.1,77.9 61.1,77.9 61.1,77.9 61,77.9 61,77.9 61,77.9 61,78 61,78 61,78 60.9,78 60.9,78 60.9,78 60.9,78 60.9,78 
			60.9,78 60.9,78.1 60.8,78.1 60.8,78.1 60.8,78.1 60.8,78.1 60.8,78.1 60.8,78.1 60.7,78.1 60.7,78.2 60.7,78.2 60.7,78.2 
			60.7,78.2 60.7,78.2 60.7,78.2 60.6,78.2 60.6,78.2 60.6,78.2 60.6,78.3 60.6,78.3 60.6,78.3 60.5,78.3 60.5,78.3 60.5,78.3 
			60.5,78.3 60.5,78.3 60.5,78.3 60.4,78.4 60.4,78.4 60.4,78.4 60.4,78.4 60.4,78.4 60.4,78.4 60.3,78.4 60.3,78.4 60.3,78.4 
			60.3,78.5 60.3,78.5 60.3,78.5 60.3,78.5 60.2,78.5 60.2,78.5 60.2,78.5 60.2,78.5 60.2,78.5 60.2,78.6 60.1,78.6 60.1,78.6 
			60.1,78.6 60.1,78.6 60.1,78.6 60.1,78.6 60,78.6 60,78.6 60,78.7 60,78.7 60,78.7 60,78.7 59.9,78.7 59.9,78.7 59.9,78.7 
			59.9,78.7 59.9,78.7 59.9,78.7 59.8,78.8 59.8,78.8 59.8,78.8 59.8,78.8 59.8,78.8 59.8,78.8 59.7,78.8 59.7,78.8 59.7,78.8 
			59.7,78.9 59.7,78.9 59.7,78.9 59.6,78.9 59.6,78.9 59.6,78.9 59.6,78.9 59.6,78.9 59.6,78.9 59.5,78.9 59.5,79 59.5,79 59.5,79 
			59.5,79 59.5,79 59.4,79 59.4,79 59.4,79 59.4,79 59.4,79 59.4,79.1 59.3,79.1 59.3,79.1 59.3,79.1 59.3,79.1 59.3,79.1 
			59.3,79.1 59.2,79.1 59.2,79.1 59.2,79.1 59.2,79.2 59.2,79.2 59.2,79.2 59.1,79.2 59.1,79.2 59.1,79.2 59.1,79.2 59.1,79.2 
			59.1,79.2 59,79.2 59,79.3 59,79.3 59,79.3 59,79.3 59,79.3 58.9,79.3 58.9,79.3 58.9,79.3 58.9,79.3 58.9,79.3 58.9,79.4 
			58.8,79.4 58.8,79.4 58.8,79.4 58.8,79.4 58.8,79.4 58.8,79.4 58.7,79.4 58.7,79.4 58.7,79.4 58.7,79.4 58.7,79.5 58.7,79.5 
			58.6,79.5 58.6,79.5 58.6,79.5 58.6,79.5 58.6,79.5 58.6,79.5 58.5,79.5 58.5,79.5 58.5,79.5 58.5,79.6 58.5,79.6 58.4,79.6 
			58.4,79.6 58.4,79.6 58.4,79.6 58.4,79.6 58.3,79.6 58.3,79.6 58.3,79.7 58.3,79.7 58.2,79.7 58.2,79.7 58.2,79.7 58.2,79.7 
			58.1,79.7 58.1,79.8 58.1,79.8 58.1,79.8 58,79.8 58,79.8 58,79.8 58,79.8 57.9,79.8 57.9,79.8 57.9,79.9 57.9,79.9 57.8,79.9 
			57.8,79.9 57.8,79.9 57.8,79.9 57.7,79.9 57.7,79.9 57.7,80 57.7,80 57.6,80 57.6,80 57.6,80 57.6,80 57.5,80 57.5,80 57.5,80.1 
			57.5,80.1 57.4,80.1 57.4,80.1 57.4,80.1 57.4,80.1 57.3,80.1 57.3,80.1 57.3,80.1 57.3,80.2 57.2,80.2 57.2,80.2 57.2,80.2 
			57.2,80.2 57.1,80.2 57.1,80.2 57.1,80.2 57.1,80.2 57,80.3 57,80.3 57,80.3 57,80.3 56.9,80.3 56.9,80.3 56.9,80.3 56.9,80.3 
			56.8,80.3 56.7,80.4 56.6,80.3 56.6,80.3 56.6,80.3 56.5,80.3 56.5,80.3 56.5,80.3 56.4,80.3 56.4,80.2 56.4,80.2 56.3,80.2 
			56.3,80.2 56.3,80.2 56.2,80.2 56.2,80.2 56.2,80.2 56.1,80.1 56.1,80.1 56.1,80.1 56.1,80.1 56,80.1 56,80.1 56,80.1 55.9,80 
			55.9,80 55.9,80 55.8,80 55.8,80 55.8,80 55.7,80 55.7,79.9 55.7,79.9 55.7,79.9 55.6,79.9 55.6,79.9 55.6,79.9 55.5,79.9 
			55.5,79.8 55.5,79.8 55.4,79.8 55.4,79.8 55.4,79.8 55.4,79.8 55.3,79.7 55.3,79.7 55.3,79.7 55.2,79.7 55.2,79.7 55.2,79.7 
			55.1,79.7 55.1,79.6 55.1,79.6 55.1,79.6 55,79.6 55,79.6 55,79.6 55,79.6 55,79.6 55,79.6 54.9,79.5 54.9,79.5 54.9,79.5 
			54.9,79.5 54.9,79.5 54.9,79.5 54.9,79.5 54.8,79.5 54.8,79.5 54.8,79.5 54.8,79.5 54.8,79.5 54.8,79.5 54.8,79.4 54.7,79.4 
			54.7,79.4 54.7,79.4 54.7,79.4 54.7,79.4 54.7,79.4 54.6,79.4 54.6,79.4 54.6,79.4 54.6,79.4 54.6,79.4 54.6,79.3 54.6,79.3 
			54.5,79.3 54.5,79.3 54.5,79.3 54.5,79.3 54.5,79.3 54.5,79.3 54.5,79.3 54.4,79.3 54.4,79.3 54.4,79.3 54.4,79.2 54.4,79.2 
			54.4,79.2 54.4,79.2 54.3,79.2 54.3,79.2 54.3,79.2 54.3,79.2 54.3,79.2 54.3,79.2 54.3,79.2 54.2,79.2 54.2,79.1 54.2,79.1 
			54.2,79.1 54.2,79.1 54.2,79.1 54.1,79.1 54.1,79.1 54.1,79.1 54.1,79.1 54.1,79.1 54.1,79.1 54.1,79 54,79 54,79 54,79 54,79 
			54,79 54,79 54,79 53.9,79 53.9,79 53.9,79 53.9,79 53.9,78.9 53.9,78.9 53.9,78.9 53.8,78.9 53.8,78.9 53.8,78.9 53.8,78.9 
			53.8,78.9 53.8,78.9 53.8,78.9 53.7,78.9 53.7,78.8 53.7,78.8 53.7,78.8 53.7,78.8 53.7,78.8 53.7,78.8 53.6,78.8 53.6,78.8 
			53.6,78.8 53.6,78.8 53.6,78.8 53.6,78.7 53.6,78.7 53.5,78.7 53.5,78.7 53.5,78.7 53.5,78.7 53.5,78.7 53.5,78.7 53.5,78.7 
			53.4,78.7 53.4,78.7 53.4,78.6 53.4,78.6 53.4,78.6 53.4,78.6 53.4,78.6 53.3,78.6 53.3,78.6 53.3,78.6 53.3,78.6 53.3,78.6 
			53.3,78.5 53.3,78.5 53.2,78.5 53.2,78.5 53.2,78.5 53.2,78.5 53.2,78.5 53.2,78.5 53.2,78.5 53.1,78.5 53.1,78.5 53.1,78.4 
			53.1,78.4 53.1,78.4 53.1,78.4 53.1,78.4 53.1,78.4 53,78.4 53,78.4 53,78.4 53,78.4 53,78.3 53,78.3 53,78.3 52.9,78.3 
			52.9,78.3 52.9,78.3 52.9,78.3 52.9,78.3 52.9,78.3 52.9,78.3 52.8,78.2 52.8,78.2 52.8,78.2 52.8,78.2 52.8,78.2 52.8,78.2 
			52.8,78.2 52.7,78.2 52.7,78.2 52.7,78.2 52.7,78.1 52.7,78.1 52.7,78.1 52.7,78.1 52.6,78.1 52.6,78.1 52.6,78.1 52.6,78.1 
			52.6,78.1 52.6,78.1 52.6,78 52.5,78 52.5,78 52.5,78 52.5,78 52.5,78 52.5,78 52.5,78 52.5,78 52.4,77.9 52.4,77.9 52.4,77.9 
			52.4,77.9 52.4,77.9 52.4,77.9 52.4,77.9 52.3,77.9 52.3,77.9 52.3,77.9 52.3,77.8 52.3,77.8 52.3,77.8 52.3,77.8 52.2,77.8 
			52.2,77.8 52.2,77.8 52.2,77.8 52.2,77.8 52.2,77.7 52.2,77.7 52.2,77.7 52.1,77.7 52.1,77.7 52.1,77.7 52.1,77.7 52.1,77.7 
			52.1,77.7 52.1,77.6 52,77.6 52,77.6 52,77.6 52,77.6 52,77.6 52,77.6 52,77.6 51.9,77.6 51.9,77.5 51.9,77.5 51.9,77.5 
			51.9,77.5 51.9,77.5 51.9,77.5 51.9,77.5 51.8,77.5 51.8,77.5 51.8,77.4 51.8,77.4 51.8,77.4 51.8,77.4 51.8,77.4 51.7,77.4 
			51.7,77.4 51.7,77.4 51.7,77.4 51.7,77.3 51.7,77.3 51.7,77.3 51.7,77.3 51.6,77.3 51.6,77.3 51.6,77.3 51.6,77.3 51.6,77.3 
			51.6,77.2 51.6,77.2 51.5,77.2 51.5,77.2 51.5,77.2 51.5,77.2 51.5,77.2 51.5,77.2 51.5,77.2 51.5,77.1 51.4,77.1 51.4,77.1 
			51.4,77.1 51.4,77.1 51.4,77.1 51.4,77.1 51.4,77.1 51.4,77.1 51.3,77 51.3,77 51.3,77 51.3,77 51.3,77 51.3,77 51.3,77 51.2,77 
			51.2,76.9 51.2,76.9 51.2,76.9 51.2,76.9 51.2,76.9 51.2,76.9 51.2,76.9 51.1,76.9 51.1,76.9 51.1,76.8 51.1,76.8 51.1,76.8 
			51.1,76.8 51.1,76.8 51.1,76.8 51,76.8 51,76.8 51,76.7 51,76.7 51,76.7 51,76.7 51,76.7 51,76.7 50.9,76.7 50.9,76.7 50.9,76.6 
			50.9,76.6 50.9,76.6 50.9,76.6 50.9,76.6 50.9,76.6 50.8,76.6 50.8,76.6 50.8,76.6 50.8,76.5 50.8,76.5 50.8,76.5 50.8,76.5 
			50.8,76.5 50.7,76.5 50.7,76.5 50.7,76.5 50.7,76.4 50.7,76.4 50.7,76.4 50.7,76.4 50.7,76.4 50.6,76.4 50.6,76.4 50.6,76.4 
			50.6,76.3 50.6,76.3 50.6,76.3 50.6,76.3 50.6,76.3 50.6,76.3 50.5,76.3 50.5,76.3 50.5,76.2 50.5,76.2 50.5,76.2 50.5,76.2 
			50.5,76.2 50.5,76.2 50.4,76.2 50.4,76.2 50.4,76.1 50.4,76.1 50.4,76.1 50.4,76.1 50.4,76.1 50.4,76.1 50.3,76.1 50.3,76.1 
			50.3,76 50.3,76 50.3,76 50.3,76 50.3,76 50.3,76 50.3,76 50.2,76 50.2,75.9 50.2,75.9 50.2,75.9 50.2,75.9 50.2,75.9 50.2,75.9 
			50.2,75.9 50.1,75.8 50.1,75.8 50.1,75.8 50.1,75.8 50.1,75.8 50.1,75.8 50.1,75.8 50.1,75.8 50.1,75.7 50,75.7 50,75.7 50,75.7 
			50,75.7 50,75.7 50,75.7 50,75.7 50,75.6 50,75.6 49.9,75.6 49.9,75.6 49.9,75.6 49.9,75.6 49.9,75.6 49.9,75.5 49.9,75.5 
			49.9,75.5 49.9,75.5 49.8,75.5 49.8,75.5 49.8,75.5 49.8,75.5 49.8,75.4 49.8,75.4 49.8,75.4 49.8,75.4 49.8,75.4 49.7,75.4 
			49.7,75.4 49.7,75.3 49.7,75.3 49.7,75.3 49.7,75.3 49.7,75.3 49.7,75.3 49.7,75.3 49.6,75.3 49.6,75.2 49.6,75.2 49.6,75.2 
			49.6,75.2 49.3,74.8 49.8,74.8 49.8,74.7 49.8,74.7 49.9,74.7 49.9,74.7 50,74.7 50,74.7 50,74.7 50.1,74.7 50.1,74.7 50.1,74.7 
			50.2,74.7 50.2,74.7 50.2,74.7 50.3,74.7 50.3,74.7 50.4,74.7 50.4,74.6 50.4,74.6 50.5,74.6 50.5,74.6 50.5,74.6 50.6,74.6 
			50.6,74.6 50.6,74.6 50.7,74.6 50.7,74.6 50.7,74.6 50.7,74.6 50.7,74.6 50.8,74.6 50.8,74.6 50.8,74.6 50.8,74.6 50.8,74.6 
			50.8,74.6 50.9,74.6 50.9,74.6 50.9,74.5 50.9,74.5 50.9,74.5 51,74.5 51,74.5 51,74.5 51,74.5 51,74.5 51,74.5 51.1,74.5 
			51.1,74.5 51.1,74.5 51.1,74.5 51.1,74.5 51.2,74.5 51.2,74.5 51.2,74.5 51.2,74.5 51.2,74.5 51.2,74.5 51.3,74.5 51.3,74.5 
			51.3,74.5 51.3,74.5 51.3,74.5 51.3,74.4 51.4,74.4 51.4,74.4 51.4,74.4 51.4,74.4 51.4,74.4 51.5,74.4 51.5,74.4 51.5,74.4 
			51.5,74.4 51.5,74.4 51.5,74.4 51.6,74.4 51.6,74.4 51.6,74.4 51.6,74.4 51.6,74.4 51.7,74.4 51.7,74.4 51.7,74.4 51.7,74.4 
			51.7,74.4 51.7,74.4 51.8,74.3 51.8,74.3 51.8,74.3 51.8,74.3 51.8,74.3 51.9,74.3 51.9,74.3 51.9,74.3 51.9,74.3 51.9,74.3 
			51.9,74.3 52,74.3 52,74.3 52,74.3 52,74.3 52,74.3 52,74.3 52.1,74.3 52.1,74.3 52.1,74.3 52.1,74.2 52.2,74.2 52.2,74.2 
			52.2,74.2 52.3,74.2 52.3,74.2 52.3,74.2 52.4,74.2 52.4,74.2 52.4,74.2 52.4,74.2 52.4,74.2 52.4,74.2 52.4,74.2 52.5,74.2 
			52.5,74.2 52.5,74.1 52.5,74.1 52.5,74.1 52.5,74.1 52.5,74.1 52.6,74.1 52.6,74.1 52.6,74.1 52.6,74.1 52.6,74.1 52.6,74.1 
			52.7,74.1 52.7,74.1 52.7,74.1 52.7,74.1 52.7,74.1 52.7,74.1 52.7,74.1 52.8,74.1 52.8,74.1 52.8,74.1 52.8,74 52.8,74 52.8,74 
			52.8,74 52.9,74 52.9,74 52.9,74 52.9,74 52.9,74 52.9,74 52.9,74 53,74 53,74 53,74 53,74 53,74 53,74 53.1,74 53.1,74 53.1,74 
			53.1,74 53.1,73.9 53.1,73.9 53.1,73.9 53.2,73.9 53.2,73.9 53.2,73.9 53.2,73.9 53.2,73.9 53.2,73.9 53.2,73.9 53.3,73.9 
			53.3,73.9 53.3,73.9 53.3,73.9 53.3,73.9 53.3,73.9 53.3,73.9 53.4,73.9 53.4,73.9 53.4,73.8 53.4,73.8 53.4,73.8 53.4,73.8 
			53.5,73.8 53.5,73.8 53.5,73.8 53.5,73.8 53.5,73.8 53.5,73.8 53.5,73.8 53.6,73.8 53.6,73.8 53.6,73.8 53.6,73.8 53.6,73.8 
			53.6,73.8 53.6,73.8 53.7,73.7 53.7,73.7 53.7,73.7 53.7,73.7 53.7,73.7 53.7,73.7 53.7,73.7 53.8,73.7 53.8,73.7 53.8,73.7 
			53.8,73.7 53.8,73.7 53.8,73.7 53.8,73.7 53.9,73.7 53.9,73.7 53.9,73.7 53.9,73.6 53.9,73.6 53.9,73.6 53.9,73.6 54,73.6 
			54,73.6 54,73.6 54,73.6 54,73.6 54,73.6 54,73.6 54.1,73.6 54.1,73.6 54.1,73.6 54.1,73.6 54.1,73.6 54.1,73.6 54.1,73.5 
			54.2,73.5 54.2,73.5 54.2,73.5 54.2,73.5 54.2,73.5 54.2,73.5 54.2,73.5 54.3,73.5 54.3,73.5 54.3,73.5 54.3,73.5 54.3,73.5 
			54.3,73.5 54.3,73.5 54.4,73.5 54.4,73.4 54.4,73.4 54.4,73.4 54.4,73.4 54.4,73.4 54.4,73.4 54.5,73.4 54.5,73.4 54.5,73.4 
			54.5,73.4 54.5,73.4 54.5,73.4 54.5,73.4 54.6,73.4 54.6,73.4 54.6,73.3 54.6,73.3 54.6,73.3 54.6,73.3 54.6,73.3 54.7,73.3 
			54.7,73.3 54.7,73.3 54.7,73.3 54.7,73.3 54.7,73.3 54.7,73.3 54.8,73.3 54.8,73.3 54.8,73.3 54.8,73.2 54.8,73.2 54.8,73.2 
			54.8,73.2 54.9,73.2 54.9,73.2 54.9,73.2 54.9,73.2 54.9,73.2 54.9,73.2 54.9,73.2 54.9,73.2 55,73.2 55,73.2 55,73.1 55,73.1 
			55,73.1 55,73.1 55,73.1 55.1,73.1 55.1,73.1 55.1,73.1 55.1,73.1 55.1,73.1 55.1,73.1 55.1,73.1 55.2,73.1 55.2,73.1 55.2,73 
			55.2,73 55.2,73 55.2,73 55.2,73 55.2,73 55.3,73 55.3,73 55.3,73 55.3,73 55.3,73 55.3,73 55.3,73 55.4,72.9 55.4,72.9 
			55.4,72.9 55.4,72.9 55.4,72.9 55.4,72.9 55.4,72.9 55.5,72.9 55.5,72.9 55.5,72.9 55.5,72.9 55.5,72.9 55.5,72.9 55.5,72.8 
			55.5,72.8 55.6,72.8 55.6,72.8 55.6,72.8 55.6,72.8 55.6,72.8 55.6,72.8 55.6,72.8 55.7,72.8 55.7,72.8 55.7,72.8 55.7,72.7 
			55.7,72.7 55.7,72.7 55.7,72.7 55.7,72.7 55.8,72.7 55.8,72.7 55.8,72.7 55.8,72.7 55.8,72.7 55.8,72.7 55.8,72.7 55.8,72.7 
			55.8,72.7 55.9,72.6 55.9,72.6 55.9,72.6 55.9,72.6 55.9,72.6 55.9,72.6 55.9,72.6 55.9,72.6 55.9,72.6 56,72.6 56,72.6 56,72.6 
			56,72.6 56,72.6 56,72.5 56,72.5 56,72.5 56,72.5 56.1,72.5 56.1,72.5 56.1,72.5 56.1,72.5 56.1,72.5 56.1,72.5 56.1,72.5 
			56.1,72.5 56.1,72.5 56.2,72.4 56.2,72.4 56.2,72.4 56.2,72.4 56.2,72.4 56.2,72.4 56.2,72.4 56.2,72.4 56.2,72.4 56.3,72.4 
			56.3,72.4 56.3,72.4 56.3,72.4 56.3,72.3 56.3,72.3 56.3,72.3 56.3,72.3 56.3,72.3 56.3,72.3 56.4,72.3 56.4,72.3 56.4,72.3 
			56.4,72.3 56.4,72.3 56.4,72.3 56.4,72.3 56.4,72.2 56.4,72.2 56.5,72.2 56.5,72.2 56.5,72.2 56.5,72.2 56.5,72.2 56.5,72.2 
			56.5,72.2 56.5,72.2 56.5,72.2 56.5,72.2 56.6,72.2 56.6,72.1 56.6,72.1 56.6,72.1 56.6,72.1 56.6,72.1 56.6,72.1 56.6,72.1 
			56.6,72.1 56.7,72.1 56.7,72.1 56.7,72.1 56.7,72.1 56.7,72 56.7,72 56.7,72 56.7,72 56.7,72 56.7,72 56.8,72 56.8,72 56.8,72 
			56.8,72 56.8,72 56.8,72 56.8,72 56.8,71.9 56.8,71.9 56.8,71.9 56.9,71.9 56.9,71.9 56.9,71.9 56.9,71.9 56.9,71.9 56.9,71.9 
			56.9,71.9 56.9,71.9 56.9,71.8 57,71.8 57,71.8 57,71.8 57,71.8 57,71.8 57,71.8 57,71.8 57,71.8 57,71.8 57,71.8 57.1,71.8 
			57.1,71.7 57.1,71.7 57.1,71.7 57.1,71.7 57.1,71.7 57.1,71.7 57.1,71.7 57.1,71.7 57.1,71.7 57.1,71.7 57.1,71.7 57.2,71.7 
			57.2,71.7 57.2,71.7 57.2,71.6 57.2,71.6 57.2,71.6 57.2,71.6 57.2,71.6 57.2,71.6 57.2,71.6 57.2,71.6 57.2,71.6 57.2,71.6 
			57.2,71.6 57.3,71.6 57.3,71.6 57.3,71.6 57.3,71.6 57.3,71.6 57.3,71.5 57.3,71.5 57.3,71.5 57.3,71.5 57.3,71.5 57.3,71.5 
			57.3,71.5 57.3,71.5 57.3,71.5 57.4,71.5 57.4,71.5 57.4,71.5 57.4,71.5 57.4,71.5 57.4,71.5 57.4,71.4 57.4,71.4 57.4,71.4 
			57.4,71.4 57.4,71.4 57.4,71.4 57.4,71.4 57.4,71.4 57.4,71.4 57.5,71.4 57.5,71.4 57.5,71.4 57.5,71.4 57.5,71.4 57.5,71.4 
			57.5,71.3 57.5,71.3 57.5,71.3 57.5,71.3 57.5,71.3 57.5,71.3 57.5,71.3 57.5,71.3 57.6,71.3 57.6,71.3 57.6,71.3 57.6,71.3 
			57.6,71.3 57.6,71.3 57.6,71.3 57.6,71.2 57.6,71.2 57.6,71.2 57.6,71.2 57.6,71.2 57.6,71.2 57.6,71.2 57.6,71.2 57.7,71.2 
			57.7,71.2 57.7,71.2 57.7,71.2 57.7,71.2 57.7,71.2 57.7,71.1 57.7,71.1 57.7,71.1 57.7,71.1 57.7,71.1 57.7,71.1 57.7,71.1 
			57.7,71.1 57.7,71.1 57.8,71.1 57.8,71.1 57.8,71.1 57.8,71.1 57.8,71.1 57.8,71 57.8,71 57.8,71 57.8,71 57.8,71 57.8,71 
			57.8,71 57.8,71 57.8,71 57.8,71 57.9,71 57.9,71 57.9,71 57.9,71 57.9,70.9 57.9,70.9 57.9,70.9 57.9,70.9 57.9,70.9 57.9,70.9 
			57.9,70.9 57.9,70.9 57.9,70.9 57.9,70.9 57.9,70.9 57.9,70.9 58,70.9 58,70.9 58,70.8 58,70.8 58,70.8 58,70.8 58,70.8 58,70.8 
			58,70.8 58,70.8 58,70.8 58,70.8 58,70.8 58,70.8 58,70.8 58,70.8 58,70.8 58,70.8 58,70.8 58,70.8 58.1,70.7 58.1,70.7 
			58.1,70.7 58.1,70.7 58.1,70.7 58.1,70.7 58.1,70.7 58.1,70.7 58.1,70.7 58.1,70.7 58.1,70.7 58.1,70.7 58.1,70.7 58.1,70.7 
			58.1,70.7 58.1,70.7 58.1,70.7 58.1,70.7 58.1,70.7 58.1,70.6 58.1,70.6 58.1,70.6 58.1,70.6 58.2,70.6 58.2,70.6 58.2,70.6 
			58.2,70.6 58.2,70.6 58.2,70.6 58.2,70.6 58.2,70.6 58.2,70.6 58.2,70.6 58.2,70.6 58.2,70.6 58.2,70.6 58.2,70.6 58.2,70.5 
			58.2,70.5 58.2,70.5 58.2,70.5 58.2,70.5 58.2,70.5 58.2,70.5 58.2,70.5 58.2,70.5 58.3,70.5 58.3,70.5 58.3,70.5 58.3,70.5 
			58.3,70.5 58.3,70.5 58.3,70.5 58.3,70.5 58.3,70.5 58.3,70.4 58.3,70.4 58.3,70.4 58.3,70.4 58.3,70.4 58.3,70.4 58.3,70.4 
			58.3,70.4 58.3,70.4 58.3,70.4 58.3,70.4 58.3,70.4 58.3,70.4 58.3,70.4 58.3,70.4 58.4,70.4 58.4,70.4 58.4,70.4 58.4,70.3 
			58.4,70.3 58.4,70.3 58.4,70.3 58.4,70.3 58.4,70.3 58.4,70.3 58.4,70.3 58.4,70.3 58.4,70.3 58.4,70.3 58.4,70.3 58.4,70.3 
			58.4,70.3 58.4,70.3 58.4,70.3 58.4,70.3 58.4,70.2 58.4,70.2 58.4,70.2 58.4,70.2 58.4,70.2 58.4,70.2 58.5,70.2 58.5,70.2 
			58.5,70.2 58.5,70.2 58.5,70.2 58.5,70.2 58.5,70.2 58.5,70.2 58.5,70.2 58.5,70.2 58.5,70.2 58.5,70.1 58.5,70.1 58.5,70.1 
			58.5,70.1 58.5,70.1 58.5,70.1 58.5,70.1 58.5,70.1 58.5,70.1 58.5,70.1 58.5,70.1 58.5,70.1 58.5,70.1 58.5,70.1 58.5,70.1 
			58.5,70.1 58.6,70.1 58.6,70.1 58.6,70 58.6,70 58.6,70 58.6,70 58.6,70 58.6,70 58.6,70 58.6,70 58.6,70 58.6,70 58.6,70 
			58.6,70 58.6,70 58.6,70 58.6,70 58.6,70 58.6,70 58.6,70 58.6,70 58.6,70 58.6,70 58.6,69.9 58.6,69.9 58.6,69.9 58.6,69.9 
			58.6,69.9 58.6,69.9 58.6,69.9 58.6,69.9 58.6,69.9 58.6,69.9 58.6,69.9 58.6,69.9 58.6,69.9 58.6,69.9 58.6,69.9 58.6,69.9 
			58.7,69.9 58.7,69.9 58.7,69.9 58.7,69.9 58.7,69.9 58.7,69.9 58.7,69.9 58.7,69.9 58.7,69.9 58.7,69.8 58.7,69.8 58.7,69.8 
			58.7,69.8 58.7,69.8 58.7,69.8 58.7,69.8 58.7,69.8 58.7,69.8 58.7,69.8 58.7,69.8 58.7,69.8 58.7,69.8 58.7,69.8 58.7,69.7 
			58.7,69.7 58.7,69.7 58.7,69.7 58.7,69.7 58.7,69.7 58.7,69.7 58.7,69.7 58.8,69.7 58.8,69.7 58.8,69.7 58.8,69.7 58.8,69.7 
			58.8,69.6 58.8,69.6 58.8,69.6 58.8,69.6 58.8,69.6 58.8,69.6 58.8,69.6 58.8,69.6 58.8,69.6 58.8,69.6 58.8,69.6 58.8,69.6 
			58.8,69.6 58.8,69.5 58.8,69.5 58.8,69.5 58.8,69.5 58.8,69.5 58.8,69.5 58.8,69.5 58.8,69.5 58.9,69.5 58.9,69.5 58.9,69.5 
			58.9,69.4 58.9,69.4 58.9,69.4 58.9,69.4 58.9,69.4 58.9,69.4 58.9,69.4 58.9,69.4 58.9,69.4 58.9,69.4 58.9,69.4 58.9,69.3 
			58.9,69.3 58.9,69.3 58.9,69.3 58.9,69.3 58.9,69.3 58.9,69.3 58.9,69.3 58.9,69.3 58.9,69.3 58.9,69.3 58.9,69.3 58.9,69.2 
			59,69.2 59,69.2 59,69.2 59,69.2 59,69.2 59,69.2 59,69.2 59,69.2 59,69.2 59,69.2 59,69.1 59,69.1 59,69.1 59,69.1 59,69.1 
			59,69.1 59,69.1 59,69.1 59,69.1 59,69.1 59,69.1 59,69 59,69 59,69 59,69 59,69 59,69 59,69 59,69 59,69 59,69 59.1,69 
			59.1,68.9 59.1,68.9 59.1,68.9 59.1,68.9 59.1,68.9 59.1,68.9 59.1,68.9 59.1,68.9 59.1,68.9 59.1,68.9 59.1,68.9 59.1,68.8 
			59.1,68.8 59.1,68.8 59.1,68.8 59.1,68.8 59.1,68.8 59.1,68.8 59.1,68.8 59.1,68.8 59.1,68.8 59.1,68.7 59.1,68.7 59.1,68.7 
			59.1,68.7 59.1,68.7 59.1,68.7 59.1,68.7 59.1,68.7 59.1,68.7 59.1,68.7 59.1,68.7 59.2,68.6 59.2,68.6 59.2,68.6 59.2,68.6 
			59.2,68.6 59.2,68.6 59.2,68.6 59.2,68.6 59.2,68.6 59.2,68.6 59.2,68.5 59.2,68.5 59.2,68.5 59.2,68.5 59.2,68.5 59.2,68.5 
			59.2,68.5 59.2,68.4 59.2,68.4 59.2,68.4 59.2,68.4 59.2,68.4 59.2,68.4 59.2,68.4 59.2,68.3 59.2,68.3 59.3,68.3 59.3,68.3 
			59.3,68.2 59.3,68.2 59.3,68.2 59.3,68.2 59.3,68.2 59.3,68.1 59.3,68.1 59.3,68.1 59.3,68.1 59.3,68.1 59.3,68 59.3,68 59.3,68 
			59.3,68 59.3,68 59.3,67.9 59.3,67.9 59.4,67.9 59.4,67.9 59.4,67.9 59.4,67.8 59.4,67.8 59.4,67.8 59.4,67.8 59.4,67.8 
			59.4,67.7 59.4,67.7 59.4,67.7 59.4,67.7 59.4,67.7 59.4,67.6 59.4,67.6 59.4,67.6 59.4,67.6 59.4,67.6 59.4,67.5 59.4,67.5 
			59.4,67.5 59.4,67.5 59.5,67.4 59.5,67.4 59.5,67.4 59.5,67.4 59.5,67.4 59.5,67.3 59.5,67.3 59.5,67.3 59.5,67.3 59.5,67.3 
			59.5,67.2 59.5,67.2 59.5,67.2 59.5,67.2 59.5,67.2 59.5,67.1 59.5,67.1 59.5,67.1 59.5,67.1 59.5,67 59.5,67 59.5,67 59.5,67 
			59.5,67 59.5,67 59.5,67 59.5,67 59.5,66.9 59.5,66.9 59.5,66.9 59.5,66.9 59.5,66.9 59.6,66.9 59.6,66.9 59.6,66.9 59.6,66.9 
			59.6,66.8 59.6,66.8 59.6,66.8 59.6,66.8 59.6,66.8 59.6,66.8 59.6,66.8 59.6,66.8 59.6,66.7 59.6,66.7 59.6,66.7 59.6,66.7 
			59.6,66.7 59.6,66.7 59.6,66.7 59.6,66.7 59.6,66.7 59.6,66.6 59.6,66.6 59.6,66.6 59.6,66.6 59.6,66.6 59.6,66.6 59.6,66.6 
			59.6,66.6 59.6,66.5 59.6,66.5 59.6,66.5 59.6,66.5 59.6,66.5 59.6,66.5 59.6,66.5 59.6,66.5 59.6,66.5 59.6,66.4 59.6,66.4 
			59.6,66.4 59.6,66.4 59.6,66.4 59.6,66.4 59.6,66.4 59.6,66.3 59.6,66.3 59.6,66.3 59.6,66.3 59.6,66.3 59.6,66.3 59.6,66.2 
			59.6,66.2 59.6,66.2 59.6,66.2 59.6,66.2 59.6,66.1 59.6,66.1 59.6,66.1 59.6,66.1 59.6,66.1 59.7,66.1 59.7,66 59.7,66 59.7,66 
			59.7,66 59.7,66 59.7,66 59.7,65.9 59.7,65.9 59.7,65.9 59.7,65.9 59.7,65.9 59.7,65.8 59.7,65.8 59.7,65.8 59.7,65.7 59.7,65.7 
			59.7,65.7 59.7,65.6 59.7,65.6 59.7,65.6 59.7,65.5 59.7,65.4 59.7,65.3 59.7,65.1 59.7,64.9 59.7,64.7 59.7,64.6 59.7,64.5 
			59.7,64.4 59.8,64.3 59.8,64.2 59.8,64.1 59.8,64 59.8,63.9 59.8,63.8 59.8,63.7 59.8,63.7 59.8,63.6 59.8,63.5 59.8,63.5 
			59.8,63.4 59.8,63.4 59.8,63.3 59.8,63.3 59.8,63.3 59.8,63.2 59.8,63.2 59.8,63.1 59.8,63.1 59.8,63 59.8,63 59.8,63 59.8,62.9 
			59.8,62.9 59.8,62.8 59.8,62.8 59.8,62.7 59.8,62.7 59.8,62.6 59.8,62.6 59.8,62.6 59.8,62.5 59.8,62.5 59.8,62.5 59.8,62.5 
			59.8,62.4 59.8,62.4 59.8,62.4 59.8,62.4 59.8,62.3 59.8,44.8 59.8,38 59.8,31.3 59.8,31 60,31 80.6,31 80.6,31.3 80.6,31.7 
			80.6,32.2 80.6,32.6 80.6,33 80.6,33.4 80.6,33.8 80.6,34.3 80.6,34.7 80.6,35.1 80.6,35.5 80.6,36 80.6,36.4 80.6,36.8 
			80.6,37.2 80.6,38.1 80.6,38.3 67.1,38.3 		"/>
		<path fill-rule="evenodd" clip-rule="evenodd" d="M58.6,69.9"/>
		<path fill-rule="evenodd" clip-rule="evenodd" d="M58.6,70"/>
		<path fill-rule="evenodd" clip-rule="evenodd" d="M58.6,70"/>
		<path fill-rule="evenodd" clip-rule="evenodd" d="M58.6,70"/>
		<path fill-rule="evenodd" clip-rule="evenodd" d="M58.6,70"/>
		<path fill-rule="evenodd" clip-rule="evenodd" d="M58.6,70"/>
		<path fill-rule="evenodd" clip-rule="evenodd" d="M58.6,70.1"/>
		<path fill-rule="evenodd" clip-rule="evenodd" d="M58.5,70.1"/>
		<path fill-rule="evenodd" clip-rule="evenodd" d="M58.5,70.1"/>
		<path fill-rule="evenodd" clip-rule="evenodd" d="M58.5,70.1"/>
		<path fill-rule="evenodd" clip-rule="evenodd" d="M58.5,70.1"/>
		<polygon fill-rule="evenodd" clip-rule="evenodd" points="73.3,44.5 80.6,44.5 80.6,62.3 80.6,62.4 80.6,62.5 80.6,62.5 
			80.6,62.6 80.6,62.6 80.6,62.7 80.6,62.7 80.6,62.8 80.6,62.9 80.6,62.9 80.6,63 80.6,63 80.6,63.1 80.6,63.2 80.6,63.2 
			80.6,63.3 80.6,63.4 80.6,63.4 80.6,63.5 80.6,63.5 80.6,63.6 80.6,63.7 80.6,63.7 80.6,63.8 80.6,63.9 80.6,63.9 80.6,64 
			80.6,64.1 80.6,64.1 80.6,64.2 80.6,64.3 80.6,64.4 80.6,64.4 80.6,64.5 80.6,64.6 80.6,64.6 80.6,64.7 80.6,64.8 80.6,64.8 
			80.6,64.9 80.6,65 80.5,65.1 80.5,65.1 80.5,65.2 80.5,65.3 80.5,65.3 80.5,65.4 80.5,65.5 80.5,65.6 80.5,65.6 80.5,65.7 
			80.5,65.8 80.5,65.9 80.5,65.9 80.5,66 80.5,66.1 80.5,66.2 80.5,66.2 80.5,66.3 80.5,66.4 80.5,66.4 80.5,66.5 80.5,66.6 
			80.5,66.7 80.5,66.7 80.4,66.8 80.4,66.9 80.4,67 80.4,67 80.4,67.1 80.4,67.2 80.4,67.3 80.4,67.3 80.4,67.4 80.4,67.5 
			80.4,67.6 80.4,67.6 80.4,67.7 80.4,67.8 80.4,67.8 80.4,67.9 80.4,68 80.3,68.1 80.3,68.1 80.3,68.2 80.3,68.3 80.3,68.3 
			80.3,68.4 80.3,68.5 80.3,68.6 80.3,68.6 80.3,68.7 80.3,68.8 80.3,68.8 80.3,68.9 80.3,69 80.2,69 80.2,69.1 80.2,69.1 
			80.2,69.1 80.2,69.2 80.2,69.2 80.2,69.2 80.2,69.3 80.2,69.3 80.2,69.3 80.2,69.4 80.2,69.4 80.2,69.4 80.2,69.5 80.2,69.5 
			80.2,69.5 80.2,69.6 80.2,69.6 80.2,69.6 80.2,69.7 80.2,69.7 80.2,69.7 80.2,69.8 80.2,69.8 80.1,69.8 80.1,69.9 80.1,69.9 
			80.1,69.9 80.1,70 80.1,70 80.1,70 80.1,70.1 80.1,70.1 80.1,70.1 80.1,70.2 80.1,70.2 80.1,70.2 80.1,70.2 80.1,70.3 80.1,70.3 
			80.1,70.3 80.1,70.4 80.1,70.4 80.1,70.4 80.1,70.5 80.1,70.5 80,70.5 80,70.5 80,70.6 80,70.6 80,70.6 80,70.7 80,70.7 80,70.7 
			80,70.7 80,70.8 80,70.8 80,70.8 80,70.9 80,70.9 80,70.9 80,70.9 80,71 80,71 79.9,71.1 79.9,71.1 79.9,71.1 79.9,71.2 
			79.9,71.2 79.9,71.3 79.9,71.3 79.9,71.4 79.9,71.4 79.9,71.5 79.9,71.5 79.8,71.6 79.8,71.6 79.8,71.6 79.8,71.7 79.8,71.7 
			79.8,71.8 79.8,71.8 79.8,71.9 79.8,71.9 79.8,72 79.7,72 79.7,72.1 79.7,72.1 79.7,72.1 79.7,72.2 79.7,72.2 79.7,72.3 
			79.7,72.3 79.7,72.4 79.7,72.4 79.6,72.5 79.6,72.5 79.6,72.6 79.6,72.6 79.6,72.7 79.6,72.7 79.6,72.7 79.6,72.8 79.6,72.8 
			79.5,72.9 79.5,72.9 79.5,73 79.5,73 79.5,73.1 79.5,73.1 79.5,73.2 79.5,73.2 79.5,73.2 79.4,73.3 79.4,73.3 79.4,73.4 
			79.4,73.4 79.4,73.5 79.4,73.5 79.4,73.6 79.4,73.6 79.4,73.6 79.3,73.7 79.3,73.7 79.3,73.8 79.3,73.8 79.3,73.9 79.3,73.9 
			79.3,74 79.3,74 79.2,74.1 79.2,74.1 79.2,74.1 79.2,74.2 79.2,74.2 79.2,74.3 79.2,74.3 79.1,74.4 79.1,74.4 79.1,74.5 
			79.1,74.5 79.1,74.5 79.1,74.6 79.1,74.6 79.1,74.7 79,74.7 79,74.8 79,74.8 79,74.9 79,74.9 79,75 79,75 78.9,75 78.9,75.1 
			78.9,75.1 78.9,75.2 78.9,75.2 78.9,75.3 78.9,75.3 78.8,75.4 78.8,75.4 78.8,75.4 78.8,75.5 78.8,75.5 78.8,75.6 78.8,75.6 
			78.7,75.7 78.7,75.7 78.7,75.7 78.7,75.8 78.7,75.8 78.7,75.9 78.7,75.9 78.6,76 78.6,76 78.6,76.1 78.6,76.1 78.6,76.1 
			78.6,76.2 78.5,76.2 78.5,76.3 78.5,76.3 78.5,76.4 78.5,76.4 78.5,76.5 78.4,76.5 78.4,76.5 78.4,76.6 78.4,76.6 78.4,76.7 
			78.4,76.7 78.4,76.7 78.3,76.7 78.3,76.8 78.3,76.8 78.3,76.8 78.3,76.9 78.3,76.9 78.3,76.9 78.3,77 78.3,77 78.2,77 78.2,77.1 
			78.2,77.1 78.2,77.1 78.2,77.1 78.2,77.2 78.2,77.2 78.2,77.2 78.1,77.3 78.1,77.3 78.1,77.3 78.1,77.4 78.1,77.4 78.1,77.4 
			78.1,77.5 78.1,77.5 78,77.5 78,77.5 78,77.6 78,77.6 78,77.6 78,77.7 78,77.7 77.9,77.7 77.9,77.8 77.9,77.8 77.9,77.8 
			77.9,77.8 77.9,77.9 77.9,77.9 77.9,77.9 77.8,78 77.8,78 77.8,78 77.8,78.1 77.8,78.1 77.8,78.1 77.8,78.1 77.7,78.2 77.7,78.2 
			77.7,78.2 77.7,78.3 77.7,78.3 77.7,78.3 77.7,78.4 77.6,78.4 77.6,78.4 77.6,78.4 77.6,78.5 77.6,78.5 77.6,78.5 77.6,78.6 
			77.6,78.6 77.5,78.6 77.5,78.7 77.5,78.7 77.5,78.7 77.5,78.7 77.5,78.8 77.5,78.8 77.4,78.8 77.4,78.9 77.4,78.9 77.4,78.9 
			77.4,79 77.4,79 77.3,79 77.3,79 77.3,79.1 77.3,79.1 77.3,79.1 77.3,79.2 77.3,79.2 77.2,79.2 77.2,79.2 77.2,79.3 77.2,79.3 
			77.2,79.3 77.2,79.4 77.2,79.4 77.1,79.4 77.1,79.5 77.1,79.5 77.1,79.5 77.1,79.5 77.1,79.6 77,79.6 77,79.6 77,79.7 77,79.7 
			77,79.7 77,79.7 77,79.8 76.9,79.8 76.9,79.8 76.9,79.9 76.9,79.9 76.9,79.9 76.9,79.9 76.8,80 76.8,80 76.8,80 76.8,80.1 
			76.8,80.1 76.8,80.1 76.7,80.2 76.7,80.2 76.7,80.2 76.7,80.2 76.7,80.3 76.7,80.3 76.6,80.3 76.6,80.4 76.6,80.4 76.6,80.4 
			76.6,80.4 76.6,80.5 76.5,80.5 76.5,80.5 76.5,80.5 76.5,80.6 76.5,80.6 76.5,80.6 76.5,80.6 76.4,80.7 76.4,80.7 76.4,80.7 
			76.4,80.7 76.4,80.8 76.4,80.8 76.4,80.8 76.4,80.8 76.3,80.8 76.3,80.9 76.3,80.9 76.3,80.9 76.3,80.9 76.3,81 76.3,81 76.2,81 
			76.2,81 76.2,81 76.2,81.1 76.2,81.1 76.2,81.1 76.2,81.1 76.1,81.2 76.1,81.2 76.1,81.2 76.1,81.2 76.1,81.3 76.1,81.3 
			76.1,81.3 76,81.3 76,81.3 76,81.4 76,81.4 76,81.4 76,81.4 76,81.5 75.9,81.5 75.9,81.5 75.9,81.5 75.9,81.5 75.9,81.6 
			75.9,81.6 75.9,81.6 75.8,81.6 75.8,81.7 75.8,81.7 75.8,81.7 75.8,81.7 75.8,81.7 75.8,81.8 75.7,81.8 75.7,81.8 75.7,81.8 
			75.7,81.9 75.7,81.9 75.7,81.9 75.6,81.9 75.6,81.9 75.6,82 75.6,82 75.6,82 75.6,82 75.6,82.1 75.5,82.1 75.5,82.1 75.5,82.1 
			75.5,82.1 75.5,82.2 75.5,82.2 75.4,82.2 75.4,82.2 75.4,82.2 75.4,82.3 75.4,82.3 75.4,82.3 75.4,82.3 75.3,82.4 75.3,82.4 
			75.3,82.4 75.3,82.4 75.3,82.4 75.3,82.5 75.2,82.5 75.2,82.5 75.2,82.5 75.2,82.6 75.2,82.6 75.2,82.6 75.2,82.6 75.1,82.6 
			75.1,82.7 75.1,82.7 75.1,82.7 75.1,82.7 75.1,82.7 75,82.8 75,82.8 75,82.8 75,82.8 75,82.9 75,82.9 75,82.9 74.9,82.9 
			74.9,82.9 74.9,83 74.9,83 74.9,83 74.9,83 74.8,83 74.8,83.1 74.8,83.1 74.8,83.1 74.8,83.1 74.8,83.2 74.7,83.2 74.7,83.2 
			74.7,83.2 74.7,83.2 74.7,83.3 74.7,83.3 74.6,83.3 74.6,83.3 74.6,83.3 74.6,83.4 74.6,83.4 74.6,83.4 74.5,83.4 74.5,83.4 
			74.5,83.5 74.5,83.5 74.5,83.5 74.5,83.5 74.4,83.5 74.4,83.6 74.4,83.6 74.4,83.6 74.4,83.6 74.4,83.7 74.3,83.7 74.3,83.7 
			74.3,83.7 74.3,83.7 74.3,83.8 74.3,83.8 74.2,83.8 74.2,83.8 74.2,83.8 74.2,83.9 74.2,83.9 74.2,83.9 74.1,83.9 74.1,83.9 
			74.1,84 74.1,84 74.1,84 74.1,84 74,84 74,84.1 74,84.1 74,84.1 74,84.1 74,84.1 73.9,84.2 73.9,84.2 73.9,84.2 73.9,84.2 
			73.9,84.2 73.9,84.3 73.8,84.3 73.8,84.3 73.8,84.3 73.8,84.4 73.8,84.4 73.7,84.4 73.7,84.4 73.7,84.4 73.7,84.5 73.7,84.5 
			73.7,84.5 73.6,84.5 73.6,84.5 73.6,84.6 73.6,84.6 73.6,84.6 73.6,84.6 73.5,84.6 73.5,84.7 73.5,84.7 73.5,84.7 73.5,84.7 
			73.5,84.7 73.4,84.8 73.4,84.8 73.4,84.8 73.4,84.8 73.4,84.8 73.3,84.9 73.3,84.9 73.3,84.9 73.3,84.9 73.3,84.9 73.3,85 
			73.2,85 73.2,85 73.2,85 73.2,85 73.2,85 73.1,85.1 73.1,85.1 73.1,85.1 73.1,85.1 73.1,85.1 73.1,85.2 73,85.2 73,85.2 73,85.2 
			73,85.2 73,85.3 72.9,85.3 72.9,85.3 72.9,85.3 72.9,85.3 72.9,85.4 72.9,85.4 72.8,85.4 72.8,85.4 72.8,85.4 72.8,85.5 
			72.8,85.5 72.7,85.5 72.7,85.5 72.7,85.5 72.7,85.6 72.7,85.6 72.7,85.6 72.6,85.6 72.6,85.6 72.6,85.7 72.6,85.7 72.6,85.7 
			72.5,85.7 72.5,85.7 72.5,85.7 72.5,85.8 72.5,85.8 72.4,85.8 72.4,85.8 72.4,85.8 72.4,85.9 72.4,85.9 72.4,85.9 72.3,85.9 
			72.3,85.9 72.3,86 72.3,86 72.3,86 72.2,86 72.2,86 72.2,86.1 72.2,86.1 72.2,86.1 72.1,86.1 72.1,86.1 72.1,86.1 72.1,86.2 
			72.1,86.2 72,86.2 72,86.2 72,86.2 72,86.3 72,86.3 71.9,86.3 71.9,86.3 71.9,86.3 71.9,86.4 71.9,86.4 71.9,86.4 71.8,86.4 
			71.8,86.4 71.8,86.5 71.8,86.5 71.8,86.5 71.7,86.5 71.7,86.5 71.7,86.5 71.7,86.6 71.7,86.6 71.6,86.6 71.6,86.6 71.6,86.6 
			71.6,86.7 71.6,86.7 71.5,86.7 71.5,86.7 71.5,86.7 71.5,86.8 71.5,86.8 71.4,86.8 71.4,86.8 71.4,86.8 71.4,86.8 71.4,86.9 
			71.3,86.9 71.3,86.9 71.3,86.9 71.3,86.9 71.3,87 71.2,87 71.2,87 71.2,87 71.2,87 71.2,87 71.1,87.1 71.1,87.1 71.1,87.1 
			71.1,87.1 71.1,87.1 71,87.2 71,87.2 71,87.2 71,87.2 71,87.2 70.9,87.2 70.9,87.3 70.9,87.3 70.9,87.3 70.8,87.3 70.8,87.3 
			70.8,87.4 70.8,87.4 70.8,87.4 70.7,87.4 70.7,87.4 70.7,87.4 70.7,87.5 70.7,87.5 70.6,87.5 70.6,87.5 70.6,87.5 70.6,87.6 
			70.6,87.6 70.5,87.6 70.5,87.6 70.5,87.6 70.5,87.6 70.5,87.7 70.4,87.7 70.4,87.7 70.4,87.7 70.4,87.7 70.4,87.7 70.3,87.8 
			70.3,87.8 70.3,87.8 70.3,87.8 70.2,87.8 70.2,87.9 70.2,87.9 70.2,87.9 70.2,87.9 70.1,87.9 70.1,87.9 70.1,88 70.1,88 70.1,88 
			70,88 70,88 70,88 70,88.1 70,88.1 69.9,88.1 69.9,88.1 69.9,88.1 69.9,88.1 69.8,88.2 69.8,88.2 69.8,88.2 69.8,88.2 69.8,88.2 
			69.7,88.2 69.7,88.3 69.7,88.3 69.7,88.3 69.7,88.3 69.6,88.3 69.6,88.4 69.6,88.4 69.6,88.4 69.6,88.4 69.5,88.4 69.5,88.4 
			69.5,88.5 69.5,88.5 69.4,88.5 69.4,88.5 69.4,88.5 69.4,88.5 69.4,88.6 69.3,88.6 69.3,88.6 69.3,88.6 69.3,88.6 69.3,88.6 
			69.2,88.7 69.2,88.7 69.2,88.7 69.2,88.7 69.1,88.7 69.1,88.7 69.1,88.8 69.1,88.8 69.1,88.8 69,88.8 69,88.8 69,88.8 69,88.8 
			68.9,88.9 68.9,88.9 68.9,88.9 68.9,88.9 68.9,88.9 68.8,88.9 68.8,89 68.8,89 68.8,89 68.7,89 68.7,89 68.7,89 68.7,89.1 
			68.7,89.1 68.6,89.1 68.6,89.1 68.6,89.1 68.6,89.1 68.6,89.2 68.5,89.2 68.5,89.2 68.5,89.2 68.5,89.2 68.4,89.2 68.4,89.3 
			68.4,89.3 68.4,89.3 68.4,89.3 68.3,89.3 68.3,89.3 68.3,89.3 68.3,89.4 68.2,89.4 68.2,89.4 68.2,89.4 68.2,89.4 68.2,89.4 
			68.1,89.5 68.1,89.5 68.1,89.5 68.1,89.5 68,89.5 68,89.6 67.9,89.6 67.9,89.6 67.8,89.7 67.8,89.7 67.7,89.7 67.7,89.8 
			67.7,89.8 67.6,89.8 67.6,89.8 67.5,89.9 67.5,89.9 67.4,89.9 67.4,90 67.3,90 67.3,90 67.2,90.1 67.2,90.1 67.2,90.1 67.1,90.1 
			67.1,90.2 67,90.2 67,90.2 66.9,90.3 66.9,90.3 66.9,90.3 66.8,90.3 66.8,90.3 66.8,90.4 66.7,90.4 66.7,90.4 66.7,90.4 
			66.7,90.4 66.6,90.4 66.6,90.5 66.6,90.5 66.5,90.5 66.5,90.5 66.5,90.5 66.4,90.6 66.4,90.6 66.4,90.6 66.4,90.6 66.3,90.6 
			66.3,90.6 66.3,90.7 66.2,90.7 66.2,90.7 66.2,90.7 66.1,90.7 66.1,90.8 66.1,90.8 66.1,90.8 66,90.8 66,90.8 66,90.8 65.9,90.9 
			65.9,90.9 65.9,90.9 65.8,90.9 65.8,90.9 65.8,90.9 65.8,91 65.7,91 65.7,91 65.7,91 65.6,91 65.6,91.1 65.6,91.1 65.5,91.1 
			65.5,91.1 65.5,91.1 65.4,91.1 65.4,91.2 65.4,91.2 65.4,91.2 65.3,91.2 65.3,91.2 65.3,91.2 65.2,91.3 65.2,91.3 65.2,91.3 
			65.1,91.3 65.1,91.3 65.1,91.3 65,91.4 65,91.4 65,91.4 65,91.4 64.9,91.4 64.9,91.4 64.9,91.5 64.8,91.5 64.8,91.5 64.8,91.5 
			64.7,91.5 64.7,91.5 64.7,91.6 64.6,91.6 64.6,91.6 64.6,91.6 64.5,91.6 64.5,91.6 64.5,91.7 64.5,91.7 64.4,91.7 64.4,91.7 
			64.4,91.7 64.3,91.7 64.3,91.8 64.3,91.8 64.2,91.8 64.2,91.8 64.2,91.8 64.1,91.8 64.1,91.8 64.1,91.9 64,91.9 64,91.9 64,91.9 
			64,91.9 63.9,91.9 63.9,92 63.9,92 63.8,92 63.8,92 63.8,92 63.7,92 63.7,92 63.7,92.1 63.6,92.1 63.6,92.1 63.6,92.1 63.5,92.1 
			63.5,92.1 63.5,92.2 63.4,92.2 63.4,92.2 63.4,92.2 63.3,92.2 63.3,92.2 63.3,92.2 63.3,92.3 63.2,92.3 63.2,92.3 63.2,92.3 
			63.1,92.3 63.1,92.3 63.1,92.3 63,92.4 63,92.4 63,92.4 62.9,92.4 62.9,92.4 62.8,92.5 62.8,92.5 62.7,92.5 62.7,92.5 62.6,92.5 
			62.6,92.6 62.5,92.6 62.5,92.6 62.5,92.6 62.4,92.6 62.4,92.7 62.3,92.7 62.3,92.7 62.2,92.7 62.2,92.7 62.1,92.8 62.1,92.8 
			62,92.8 62,92.8 61.9,92.8 61.9,92.9 61.8,92.9 61.8,92.9 61.7,92.9 61.7,92.9 61.6,93 61.6,93 61.6,93 61.5,93 61.5,93 61.4,93 
			61.4,93.1 61.3,93.1 61.3,93.1 61.2,93.1 61.2,93.1 61.1,93.2 61.1,93.2 61,93.2 61,93.2 60.9,93.2 60.9,93.3 60.8,93.3 
			60.8,93.3 60.7,93.3 60.7,93.3 60.6,93.3 60.6,93.4 60.6,93.4 60.5,93.4 60.5,93.4 60.4,93.4 60.4,93.4 60.3,93.5 60.3,93.5 
			60.2,93.5 60.2,93.5 60.1,93.5 60.1,93.5 60,93.6 60,93.6 59.9,93.6 59.9,93.6 59.8,93.6 59.8,93.6 59.7,93.7 59.7,93.7 
			59.6,93.7 59.6,93.7 59.5,93.7 59.5,93.7 59.4,93.8 59.4,93.8 59.3,93.8 59.3,93.8 59.2,93.8 59.2,93.8 59.1,93.9 59.1,93.9 
			59.1,93.9 59,93.9 59,93.9 58.9,93.9 58.9,94 58.8,94 58.8,94 58.7,94 58.7,94 58.6,94 58.6,94 58.5,94.1 58.5,94.1 58.4,94.1 
			58.4,94.1 58.3,94.1 58.3,94.1 58.2,94.1 58.2,94.2 58.1,94.2 58.1,94.2 58,94.2 58,94.2 57.9,94.2 57.9,94.2 57.8,94.3 
			57.8,94.3 57.7,94.3 57.7,94.3 57.6,94.3 57.6,94.3 57.5,94.3 57.5,94.4 57.4,94.4 57.4,94.4 57.3,94.4 57.3,94.4 57.2,94.4 
			57.2,94.4 57.1,94.4 57.1,94.5 57,94.5 57,94.5 56.9,94.5 56.9,94.5 56.8,94.5 56.8,94.5 56.7,94.6 56.7,94.5 56.6,94.5 
			56.5,94.5 56.5,94.5 56.4,94.5 56.3,94.4 56.3,94.4 56.2,94.4 56.1,94.4 56.1,94.4 56,94.4 56,94.4 55.9,94.3 55.9,94.3 
			55.9,94.3 55.8,94.3 55.8,94.3 55.8,94.3 55.7,94.3 55.7,94.3 55.7,94.3 55.6,94.3 55.6,94.3 55.6,94.2 55.5,94.2 55.5,94.2 
			55.5,94.2 55.4,94.2 55.4,94.2 55.4,94.2 55.3,94.2 55.3,94.2 55.3,94.2 55.2,94.1 55.2,94.1 55.2,94.1 55.1,94.1 55.1,94.1 
			55.1,94.1 55,94.1 55,94.1 55,94.1 55,94.1 54.9,94.1 54.9,94 54.9,94 54.8,94 54.8,94 54.8,94 54.7,94 54.7,94 54.7,94 54.6,94 
			54.6,94 54.6,93.9 54.5,93.9 54.5,93.9 54.5,93.9 54.4,93.9 54.4,93.9 54.4,93.9 54.3,93.9 54.3,93.9 54.3,93.8 54.2,93.8 
			54.2,93.8 54.2,93.8 54.1,93.8 54.1,93.8 54.1,93.8 54,93.8 54,93.8 54,93.8 53.9,93.7 53.9,93.7 53.9,93.7 53.8,93.7 53.8,93.7 
			53.8,93.7 53.8,93.7 53.7,93.7 53.7,93.7 53.7,93.6 53.6,93.6 53.6,93.6 53.6,93.6 53.5,93.6 53.5,93.6 53.5,93.6 53.4,93.6 
			53.4,93.6 53.4,93.5 53.3,93.5 53.3,93.5 53.3,93.5 53.2,93.5 53.2,93.5 53.2,93.5 53.1,93.5 53.1,93.5 53.1,93.4 53,93.4 
			53,93.4 53,93.4 53,93.4 52.9,93.4 52.9,93.4 52.9,93.4 52.8,93.4 52.8,93.3 52.8,93.3 52.7,93.3 52.7,93.3 52.7,93.3 52.6,93.3 
			52.6,93.3 52.6,93.3 52.5,93.2 52.5,93.2 52.5,93.2 52.4,93.2 52.4,93.2 52.4,93.2 52.3,93.2 52.3,93.2 52.3,93.1 52.3,93.1 
			52.2,93.1 52.2,93.1 52.2,93.1 52.1,93.1 52.1,93.1 52.1,93.1 52,93 52,93 52,93 51.9,93 51.9,93 51.9,93 51.8,93 51.8,93 
			51.8,92.9 51.7,92.9 51.7,92.9 51.7,92.9 51.7,92.9 51.6,92.9 51.6,92.9 51.6,92.9 51.5,92.8 51.5,92.8 51.5,92.8 51.4,92.8 
			51.4,92.8 51.4,92.8 51.3,92.8 51.3,92.8 51.3,92.7 51.2,92.7 51.2,92.7 51.2,92.7 51.1,92.7 51.1,92.7 51.1,92.7 51.1,92.6 
			51,92.6 51,92.6 51,92.6 50.9,92.6 50.9,92.6 50.9,92.6 50.8,92.6 50.8,92.5 50.8,92.5 50.7,92.5 50.7,92.5 50.7,92.5 50.7,92.5 
			50.6,92.5 50.6,92.4 50.6,92.4 50.5,92.4 50.5,92.4 50.5,92.4 50.4,92.4 50.4,92.4 50.4,92.3 50.3,92.3 50.3,92.3 50.3,92.3 
			50.3,92.3 50.2,92.3 50.2,92.3 50.2,92.2 50.1,92.2 50.1,92.2 50.1,92.2 50,92.2 50,92.2 50,92.2 49.9,92.1 49.9,92.1 49.9,92.1 
			49.9,92.1 49.8,92.1 49.8,92.1 49.8,92.1 49.7,92 49.7,92 49.7,92 49.6,92 49.6,92 49.6,92 49.5,91.9 49.5,91.9 49.5,91.9 
			49.5,91.9 49.4,91.9 49.4,91.9 49.4,91.9 49.3,91.8 49.3,91.8 49.3,91.8 49.2,91.8 49.2,91.8 49.2,91.8 49.2,91.8 49.1,91.7 
			49.1,91.7 49.1,91.7 49,91.7 49,91.7 49,91.7 48.9,91.6 48.9,91.6 48.9,91.6 48.8,91.6 48.8,91.6 48.8,91.6 48.8,91.6 48.7,91.5 
			48.7,91.5 48.7,91.5 48.6,91.5 48.6,91.5 48.6,91.5 48.5,91.4 48.5,91.4 48.5,91.4 48.5,91.4 48.4,91.4 48.4,91.4 48.4,91.3 
			48.3,91.3 48.3,91.3 48.3,91.3 48.2,91.3 48.2,91.2 48.2,91.2 48.1,91.2 48.1,91.2 48.1,91.2 48,91.2 48,91.1 48,91.1 47.9,91.1 
			47.9,91.1 47.9,91.1 47.8,91.1 47.8,91 47.8,91 47.8,91 47.7,91 47.7,91 47.7,90.9 47.6,90.9 47.6,90.9 47.6,90.9 47.5,90.9 
			47.5,90.9 47.5,90.8 47.4,90.8 47.4,90.8 47.4,90.8 47.3,90.8 47.3,90.7 47.3,90.7 47.2,90.7 47.2,90.7 47.2,90.7 47.2,90.6 
			47.1,90.6 47.1,90.6 47.1,90.6 47,90.6 47,90.6 47,90.5 46.9,90.5 46.9,90.5 46.9,90.5 46.8,90.5 46.8,90.4 46.8,90.4 46.7,90.4 
			46.7,90.4 46.7,90.4 46.7,90.3 46.6,90.3 46.6,90.3 46.6,90.3 46.5,90.3 46.5,90.2 46.5,90.2 46.4,90.2 46.4,90.2 46.4,90.2 
			46.3,90.1 46.3,90.1 46.3,90.1 46.3,90.1 46.2,90.1 46.2,90.1 46.2,90 46.1,90 46.1,90 46.1,90 46,90 46,89.9 46,89.9 46,89.9 
			45.9,89.9 45.9,89.9 45.9,89.8 45.8,89.8 45.8,89.8 45.8,89.8 45.7,89.7 45.7,89.7 45.7,89.7 45.6,89.7 45.6,89.7 45.6,89.6 
			45.6,89.6 45.5,89.6 45.5,89.6 45.5,89.6 45.4,89.5 45.4,89.5 45.4,89.5 45.3,89.5 45.3,89.5 45.3,89.4 45.3,89.4 45.2,89.4 
			45.2,89.4 45.2,89.4 45.1,89.3 45.1,89.3 45.1,89.3 45,89.3 45,89.3 45,89.2 45,89.2 44.9,89.2 44.9,89.2 44.9,89.1 44.8,89.1 
			44.8,89.1 44.8,89.1 44.8,89.1 44.7,89 44.7,89 44.7,89 44.6,89 44.6,89 44.6,88.9 44.5,88.9 44.5,88.9 44.5,88.9 44.5,88.8 
			44.4,88.8 44.4,88.8 44.4,88.8 44.3,88.8 44.3,88.7 44.3,88.7 44.3,88.7 44.2,88.7 44.2,88.6 44.2,88.6 44.1,88.6 44.1,88.6 
			44.1,88.6 44.1,88.5 44,88.5 44,88.5 44,88.5 43.9,88.4 43.9,88.4 43.9,88.4 43.9,88.4 43.8,88.4 43.8,88.3 43.8,88.3 43.7,88.3 
			43.7,88.3 43.7,88.2 43.7,88.2 43.6,88.2 43.6,88.2 43.6,88.1 43.5,88.1 43.5,88.1 43.5,88.1 43.5,88.1 43.4,88 43.4,88 43.4,88 
			43.3,88 43.3,87.9 43.3,87.9 43.3,87.9 43.2,87.9 43.2,87.8 43.2,87.8 43.1,87.8 43.1,87.8 43.1,87.8 43.1,87.7 43,87.7 43,87.7 
			43,87.7 43,87.6 42.9,87.6 42.9,87.6 42.9,87.6 42.8,87.5 42.8,87.5 42.8,87.5 42.8,87.5 42.7,87.4 42.7,87.4 42.7,87.4 
			42.6,87.4 42.6,87.4 42.6,87.3 42.6,87.3 42.5,87.3 42.5,87.3 42.5,87.2 42.5,87.2 42.4,87.2 42.4,87.2 42.4,87.1 42.3,87.1 
			42.3,87.1 42.3,87.1 42.3,87 42.2,87 42.2,87 42.2,87 42.2,86.9 42.1,86.9 42.1,86.9 42.1,86.9 42.1,86.8 42,86.8 42,86.8 
			42,86.8 41.9,86.7 41.9,86.7 41.9,86.7 41.9,86.7 41.8,86.6 41.8,86.6 41.8,86.6 41.8,86.6 41.7,86.5 41.7,86.5 41.7,86.5 
			41.7,86.5 41.6,86.4 41.6,86.4 41.6,86.4 41.5,86.4 41.5,86.3 41.5,86.3 41.5,86.3 41.4,86.3 41.4,86.2 41.4,86.2 41.4,86.2 
			41.3,86.2 41.3,86.1 41.3,86.1 41.3,86.1 41.2,86.1 41.2,86 41.2,86 41.2,86 41.1,86 41.1,85.9 41.1,85.9 41.1,85.9 41,85.9 
			41,85.8 41,85.8 41,85.8 40.9,85.7 40.9,85.7 40.9,85.7 40.9,85.7 40.8,85.6 40.8,85.6 40.8,85.6 40.8,85.6 40.7,85.5 40.7,85.5 
			40.7,85.5 40.7,85.5 40.6,85.4 40.6,85.4 40.6,85.4 40.6,85.4 40.5,85.3 40.5,85.3 40.5,85.3 40.5,85.3 40.4,85.2 40.4,85.2 
			40.4,85.2 40.4,85.2 40.3,85.1 40.3,85.1 40.3,85.1 40.3,85.1 40.3,85 40.2,85 40.2,85 40.2,84.9 40.2,84.9 40.1,84.9 40.1,84.9 
			40.1,84.8 40.1,84.8 40,84.8 40,84.8 40,84.7 40,84.7 39.9,84.7 39.9,84.7 39.9,84.6 39.9,84.6 39.9,84.6 39.8,84.6 39.8,84.5 
			39.8,84.5 39.8,84.5 39.7,84.4 39.7,84.4 39.7,84.4 39.7,84.4 39.6,84.3 39.6,84.3 39.6,84.3 39.6,84.3 39.6,84.2 39.5,84.2 
			39.5,84.2 39.5,84.1 39.5,84.1 39.4,84.1 39.4,84.1 39.4,84 39.4,84 39.3,84 39.3,84 39.3,83.9 39.3,83.9 39.3,83.9 39.2,83.8 
			39.2,83.8 39.2,83.8 39.2,83.8 39.1,83.7 39.1,83.7 39.1,83.7 39.1,83.7 39.1,83.6 39,83.6 39,83.6 39,83.5 39,83.5 38.9,83.5 
			38.9,83.5 38.9,83.4 38.9,83.4 38.9,83.4 38.8,83.3 38.8,83.3 38.8,83.3 38.8,83.3 38.8,83.2 38.7,83.2 38.7,83.2 38.7,83.2 
			38.7,83.1 38.6,83.1 38.6,83.1 38.6,83 38.6,83 38.6,83 38.5,83 38.5,82.9 38.5,82.9 38.5,82.9 38.5,82.8 38.4,82.8 38.4,82.8 
			38.4,82.8 38.4,82.7 38.3,82.7 38.3,82.7 38.3,82.6 38.3,82.6 38.3,82.6 38.2,82.6 38.2,82.5 38.2,82.5 38.2,82.5 38.2,82.4 
			38.1,82.4 38.1,82.4 38.1,82.4 38.1,82.3 38.1,82.3 38,82.3 38,82.2 38,82.2 38,82.2 38,82.1 37.9,82.1 37.9,82.1 37.9,82.1 
			37.9,82 37.9,82 37.8,82 37.8,81.9 37.8,81.9 37.8,81.9 37.8,81.9 37.7,81.8 37.7,81.8 37.7,81.8 37.7,81.7 37.7,81.7 37.6,81.7 
			37.6,81.7 37.6,81.6 37.6,81.6 37.6,81.6 37.5,81.5 37.5,81.5 37.5,81.5 37.5,81.4 37.5,81.4 37.4,81.4 37.4,81.4 37.4,81.3 
			37.4,81.3 37.4,81.3 37.4,81.2 37.3,81.2 37.3,81.2 37.3,81.1 37.3,81.1 37.3,81.1 37.2,81.1 37.2,81 37.2,81 37.2,81 37.2,80.9 
			37.1,80.9 37.1,80.9 37.1,80.8 37.1,80.8 37.1,80.8 37.1,80.8 37,80.7 37,80.7 37,80.7 37,80.6 37,80.6 36.9,80.6 36.9,80.5 
			36.9,80.5 36.9,80.5 36.9,80.5 36.9,80.4 36.8,80.4 36.8,80.4 36.8,80.3 36.8,80.3 36.8,80.3 36.7,80.2 36.7,80.2 36.7,80.2 
			36.7,80.1 36.7,80.1 36.7,80.1 36.6,80.1 36.6,80 36.6,80 36.6,80 36.6,79.9 36.6,79.9 36.5,79.9 36.5,79.8 36.5,79.8 36.5,79.8 
			36.5,79.7 36.5,79.7 36.4,79.7 36.4,79.6 36.4,79.6 36.4,79.6 36.4,79.6 36.4,79.5 36.3,79.5 36.3,79.5 36.3,79.4 36.3,79.4 
			36.3,79.4 36.3,79.3 36.2,79.3 36.2,79.3 36.2,79.2 36.2,79.2 36.2,79.2 36.2,79.1 36.1,79.1 36.1,79.1 36.1,79.1 36.1,79 
			36.1,79 36.1,79 36,78.9 36,78.9 36,78.9 36,78.8 36,78.8 36,78.8 36,78.7 35.9,78.7 35.9,78.7 35.9,78.6 35.9,78.6 35.9,78.6 
			35.9,78.5 35.9,78.5 35.8,78.5 35.8,78.5 35.8,78.4 35.8,78.4 35.8,78.4 35.8,78.3 35.8,78.3 35.7,78.3 35.7,78.3 35.7,78.2 
			35.7,78.2 35.7,78.2 35.7,78.2 35.7,78.1 35.7,78.1 35.6,78.1 35.6,78 35.6,78 35.6,78 35.6,78 35.6,77.9 35.6,77.9 35.6,77.9 
			35.5,77.8 35.5,77.8 35.5,77.8 35.5,77.8 35.5,77.7 35.5,77.7 35.5,77.7 35.5,77.6 35.4,77.6 35.4,77.6 35.4,77.6 35.4,77.5 
			35.4,77.5 35.4,77.5 35.4,77.4 35.4,77.4 35.3,77.4 35.3,77.4 35.3,77.3 35.3,77.3 35.3,77.3 35.3,77.2 35.3,77.2 35.3,77.2 
			35.3,77.1 35.2,77.1 35.2,77.1 35.2,77.1 35.2,77 35.2,77 35.2,77 35.2,76.9 35.2,76.9 35.1,76.9 35.1,76.9 35.1,76.8 35.1,76.8 
			35.1,76.8 35.1,76.7 35.1,76.7 35.1,76.7 35.1,76.7 35,76.6 35,76.6 35,76.6 35,76.5 35,76.5 35,76.5 35,76.5 35,76.4 35,76.4 
			34.9,76.4 34.9,76.3 34.9,76.3 34.9,76.3 34.9,76.2 34.9,76.2 34.9,76.2 34.9,76.2 34.9,76.1 34.9,76.1 34.8,76.1 34.8,76 
			34.8,76 34.8,76 34.8,76 34.8,75.9 34.8,75.9 34.8,75.9 34.8,75.8 34.7,75.8 34.7,75.8 34.7,75.7 34.7,75.7 34.7,75.7 34.7,75.7 
			34.7,75.6 34.7,75.6 34.7,75.6 34.7,75.5 34.6,75.5 34.6,75.5 34.6,75.5 34.6,75.4 34.6,75.4 34.6,75.4 34.6,75.3 34.6,75.3 
			34.6,75.3 34.6,75.2 34.5,75.2 34.5,75.2 34.5,75.2 34.5,75.1 34.5,75.1 34.5,75.1 34.5,75 34.5,75 34.5,75 34.5,74.9 34.5,74.9 
			34.4,74.9 34.4,74.9 34.4,74.8 34.4,74.8 34.4,74.8 34.4,74.7 34.4,74.7 34.4,74.7 34.4,74.7 34.4,74.6 34.4,74.6 34.3,74.6 
			34.3,74.5 34.3,74.5 34.3,74.5 34.3,74.4 34.3,74.4 34.3,74.4 34.3,74.4 34.3,74.3 34.3,74.3 34.3,74.3 34.3,74.2 34.2,74.2 
			34.2,74.2 34.2,74.1 34.2,74.1 34.2,74.1 34.2,74.1 34.2,74 34.2,74 34.2,74 34.2,73.9 34.2,73.9 34.1,73.9 34.1,73.8 34.1,73.8 
			34.1,73.8 34.1,73.8 34.1,73.7 34.1,73.7 34.1,73.7 34.1,73.6 34.1,73.6 34.1,73.6 34.1,73.5 34.1,73.5 34,73.5 34,73.4 34,73.4 
			34,73.4 34,73.4 34,73.3 34,73.3 34,73.3 34,73.2 34,73.2 34,73.2 34,73.1 34,73.1 33.9,73.1 33.9,73.1 33.9,73 33.9,73 33.9,73 
			33.9,72.9 33.9,72.9 33.9,72.9 33.9,72.8 33.9,72.8 33.9,72.8 33.9,72.8 33.9,72.7 33.8,72.7 33.8,72.7 33.8,72.6 33.8,72.6 
			33.8,72.6 33.8,72.5 33.8,72.5 33.8,72.5 33.8,72.4 33.8,72.4 33.8,72.4 33.8,72.3 33.7,72.2 33.7,72.2 33.7,72.1 33.7,72.1 
			33.7,72 33.7,71.9 33.7,71.9 33.7,71.8 33.6,71.7 33.6,71.7 33.6,71.6 33.6,71.6 33.6,71.5 33.6,71.4 33.6,71.4 33.6,71.3 
			33.5,71.3 33.5,71.2 33.5,71.1 33.5,71.1 33.5,71 33.5,71 33.5,70.9 33.5,70.8 33.5,70.8 33.4,70.7 33.4,70.6 33.4,70.6 
			33.4,70.6 33.4,70.6 33.4,70.5 33.4,70.5 33.4,70.5 33.4,70.4 33.4,70.4 33.4,70.4 33.4,70.3 33.4,70.3 33.4,70.3 33.4,70.2 
			33.4,70.2 33.4,70.2 33.3,70.2 33.3,70.1 33.3,70.1 33.3,70.1 33.3,70 33.3,70 33.3,70 33.3,69.9 33.3,69.9 33.3,69.9 33.3,69.8 
			33.3,69.8 33.3,69.8 33.3,69.8 33.3,69.7 33.3,69.7 33.3,69.7 33.3,69.6 33.3,69.6 33.3,69.6 33.3,69.5 33.2,69.5 33.2,69.5 
			33.2,69.4 33.2,69.4 33.2,69.4 33.2,69.4 33.2,69.3 33.2,69.3 33.2,69.3 33.2,69.2 33.2,69.2 33.2,69.2 33.2,69.1 33.2,69.1 
			33.2,69.1 33.2,69 33.2,69 33.2,69 33.2,68.9 33.2,68.9 33.2,68.9 33.2,68.8 33.2,68.8 33.2,68.8 33.2,68.7 33.1,68.7 33.1,68.7 
			33.1,68.6 33.1,68.6 33.1,68.5 33.1,68.5 33.1,68.5 33.1,68.4 33.1,68.4 33.1,68.4 33.1,68.3 33.1,68.3 33.1,68.3 33.1,68.2 
			33.1,68.2 33.1,68.2 33.1,68.1 33.1,68.1 33.1,68 33.1,68 33.1,68 33.1,67.9 33.1,67.9 33.1,67.8 33.1,67.8 33.1,67.7 33.1,67.6 
			33,67.5 33,67.5 33,67.4 33,67.3 33,67.2 33,67.2 33,67.1 33,67 33,67 33,66.8 33,66.7 33,66.5 33,66.4 33,66.3 33,66.1 32.9,66 
			32.9,65.9 32.9,65.7 32.9,65.6 32.9,65.5 32.9,65.3 32.9,65.2 32.9,65 32.9,65 32.9,64.9 32.9,64.8 32.9,64.8 32.9,64.7 
			32.9,64.6 32.9,64.6 32.9,64.5 32.9,64.4 32.9,64.4 32.9,64.3 32.9,64.2 32.9,64.2 32.9,64.1 32.9,64 32.9,64 32.8,63.9 
			32.8,63.8 32.8,63.8 32.8,63.7 32.8,63.6 32.8,63.6 32.8,63.5 32.8,63.4 32.8,63.4 32.8,63.3 32.8,63.2 32.8,63.2 32.8,63.1 
			32.8,63 32.8,63 32.8,62.9 32.8,62.8 32.8,62.7 32.8,62.7 32.8,62.6 32.8,62.5 32.8,62.5 32.8,62.4 32.8,62.3 32.8,44.5 
			40.1,44.5 40.1,62.3 40.1,62.4 40.1,62.5 40.1,62.5 40.1,62.6 40.1,62.6 40.1,62.7 40.1,62.7 40.1,62.8 40.1,62.8 40.1,62.9 
			40.1,63 40.1,63 40.1,63.1 40.1,63.1 40.1,63.2 40.1,63.2 40.1,63.3 40.1,63.3 40.1,63.4 40.1,63.5 40.1,63.5 40.1,63.6 
			40.1,63.6 40.1,63.7 40.1,63.7 40.2,63.8 40.2,63.8 40.2,63.9 40.2,64 40.2,64.1 40.2,64.2 40.2,64.3 40.2,64.4 40.2,64.5 
			40.2,64.6 40.2,64.6 40.2,64.7 40.2,64.8 40.2,64.9 40.2,65 40.2,65.1 40.2,65.2 40.2,65.2 40.2,65.3 40.2,65.4 40.2,65.5 
			40.2,65.6 40.2,65.7 40.2,65.8 40.2,65.9 40.3,65.9 40.3,66 40.3,66.1 40.3,66.2 40.3,66.3 40.3,66.4 40.3,66.5 40.3,66.5 
			40.3,66.6 40.3,66.7 40.3,66.8 40.3,66.9 40.3,67 40.3,67 40.3,67.1 40.3,67.2 40.4,67.3 40.4,67.3 40.4,67.4 40.4,67.4 
			40.4,67.4 40.4,67.5 40.4,67.5 40.4,67.5 40.4,67.6 40.4,67.6 40.4,67.7 40.4,67.7 40.4,67.7 40.4,67.8 40.4,67.8 40.4,67.9 
			40.4,67.9 40.4,67.9 40.4,68 40.4,68 40.4,68.1 40.4,68.1 40.4,68.1 40.4,68.2 40.4,68.2 40.5,68.2 40.5,68.3 40.5,68.3 
			40.5,68.4 40.5,68.4 40.5,68.4 40.5,68.5 40.5,68.5 40.5,68.6 40.5,68.6 40.5,68.6 40.5,68.7 40.5,68.7 40.5,68.7 40.5,68.8 
			40.5,68.8 40.5,68.8 40.5,68.9 40.5,68.9 40.5,68.9 40.5,68.9 40.5,68.9 40.5,69 40.5,69 40.6,69 40.6,69 40.6,69 40.6,69.1 
			40.6,69.1 40.6,69.1 40.6,69.1 40.6,69.1 40.6,69.1 40.6,69.2 40.6,69.2 40.6,69.2 40.6,69.2 40.6,69.2 40.6,69.3 40.6,69.3 
			40.6,69.3 40.6,69.3 40.6,69.3 40.6,69.4 40.6,69.4 40.6,69.4 40.6,69.4 40.6,69.4 40.6,69.5 40.6,69.5 40.6,69.5 40.6,69.5 
			40.6,69.5 40.6,69.5 40.6,69.6 40.6,69.6 40.7,69.6 40.7,69.6 40.7,69.6 40.7,69.7 40.7,69.7 40.7,69.7 40.7,69.7 40.7,69.7 
			40.7,69.8 40.7,69.8 40.7,69.8 40.7,69.8 40.7,69.8 40.7,69.8 40.7,69.9 40.7,69.9 40.7,69.9 40.7,69.9 40.7,69.9 40.7,70 
			40.7,70 40.7,70 40.7,70 40.7,70.1 40.7,70.1 40.8,70.1 40.8,70.2 40.8,70.2 40.8,70.3 40.8,70.3 40.8,70.3 40.8,70.4 40.8,70.4 
			40.8,70.4 40.8,70.5 40.8,70.5 40.8,70.5 40.9,70.6 40.9,70.6 40.9,70.7 40.9,70.7 40.9,70.7 40.9,70.8 40.9,70.8 40.9,70.8 
			40.9,70.9 40.9,70.9 40.9,71 40.9,71 41,71 41,71.1 41,71.1 41,71.1 41,71.2 41,71.2 41,71.2 41,71.3 41,71.3 41,71.4 41.1,71.4 
			41.1,71.4 41.1,71.5 41.1,71.5 41.1,71.5 41.1,71.6 41.1,71.6 41.1,71.6 41.1,71.7 41.1,71.7 41.1,71.8 41.2,71.8 41.2,71.9 
			41.2,71.9 41.2,71.9 41.2,72 41.2,72 41.2,72.1 41.2,72.1 41.3,72.2 41.3,72.2 41.3,72.3 41.3,72.3 41.3,72.3 41.3,72.4 
			41.3,72.4 41.4,72.5 41.4,72.5 41.4,72.6 41.4,72.6 41.4,72.7 41.4,72.7 41.4,72.7 41.4,72.7 41.4,72.8 41.4,72.8 41.5,72.8 
			41.5,72.8 41.5,72.9 41.5,72.9 41.5,72.9 41.5,72.9 41.5,72.9 41.5,73 41.5,73 41.5,73 41.5,73 41.5,73 41.5,73.1 41.5,73.1 
			41.5,73.1 41.6,73.1 41.6,73.2 41.6,73.2 41.6,73.2 41.6,73.2 41.6,73.2 41.6,73.3 41.6,73.3 41.6,73.3 41.6,73.3 41.6,73.4 
			41.6,73.4 41.6,73.4 41.7,73.4 41.7,73.4 41.7,73.5 41.7,73.5 41.7,73.5 41.7,73.5 41.7,73.6 41.7,73.6 41.7,73.6 41.7,73.6 
			41.7,73.6 41.7,73.7 41.7,73.7 41.7,73.7 41.8,73.7 41.8,73.7 41.8,73.8 41.8,73.8 41.8,73.8 41.8,73.8 41.8,73.9 41.8,73.9 
			41.8,73.9 41.8,73.9 41.8,73.9 41.8,74 41.9,74 41.9,74 41.9,74 41.9,74.1 41.9,74.1 41.9,74.1 41.9,74.1 41.9,74.1 41.9,74.2 
			41.9,74.2 41.9,74.2 41.9,74.2 42,74.2 42,74.3 42,74.3 42,74.3 42,74.3 42,74.4 42,74.4 42,74.4 42,74.4 42,74.4 42,74.5 
			42,74.5 42.1,74.5 42.1,74.5 42.1,74.5 42.1,74.6 42.1,74.6 42.1,74.6 42.1,74.6 42.1,74.7 42.1,74.7 42.1,74.7 42.1,74.7 
			42.2,74.7 42.2,74.8 42.2,74.8 42.2,74.8 42.2,74.8 42.2,74.8 42.2,74.9 42.2,74.9 42.2,74.9 42.2,74.9 42.2,75 42.3,75 42.3,75 
			42.3,75 42.3,75 42.3,75.1 42.3,75.1 42.3,75.1 42.3,75.1 42.3,75.1 42.3,75.2 42.4,75.2 42.4,75.2 42.4,75.2 42.4,75.2 
			42.4,75.3 42.4,75.3 42.4,75.3 42.4,75.3 42.4,75.4 42.4,75.4 42.4,75.4 42.5,75.4 42.5,75.4 42.5,75.5 42.5,75.5 42.5,75.5 
			42.5,75.5 42.5,75.5 42.5,75.6 42.5,75.6 42.6,75.6 42.6,75.6 42.6,75.6 42.6,75.7 42.6,75.7 42.6,75.7 42.6,75.7 42.6,75.7 
			42.6,75.8 42.6,75.8 42.7,75.8 42.7,75.8 42.7,75.9 42.7,75.9 42.7,75.9 42.7,75.9 42.7,75.9 42.7,76 42.7,76 42.7,76 42.8,76 
			42.8,76 42.8,76.1 42.8,76.1 42.8,76.1 42.8,76.1 42.8,76.1 42.8,76.2 42.8,76.2 42.9,76.2 42.9,76.2 42.9,76.2 42.9,76.3 
			42.9,76.3 42.9,76.3 42.9,76.3 42.9,76.3 42.9,76.4 43,76.4 43,76.4 43,76.4 43,76.4 43,76.5 43,76.5 43,76.5 43,76.5 43.1,76.6 
			43.1,76.6 43.1,76.6 43.1,76.6 43.1,76.6 43.1,76.7 43.1,76.7 43.1,76.7 43.1,76.7 43.2,76.7 43.2,76.8 43.2,76.8 43.2,76.8 
			43.2,76.8 43.2,76.8 43.2,76.9 43.2,76.9 43.2,76.9 43.3,76.9 43.3,76.9 43.3,77 43.3,77 43.3,77 43.3,77 43.3,77 43.3,77.1 
			43.4,77.1 43.4,77.1 43.4,77.1 43.4,77.1 43.4,77.2 43.4,77.2 43.4,77.2 43.4,77.2 43.4,77.2 43.5,77.2 43.5,77.3 43.5,77.3 
			43.5,77.3 43.5,77.3 43.5,77.3 43.5,77.3 43.5,77.4 43.5,77.4 43.6,77.4 43.6,77.4 43.6,77.4 43.6,77.4 43.6,77.5 43.6,77.5 
			43.6,77.5 43.6,77.5 43.6,77.5 43.7,77.5 43.7,77.6 43.7,77.6 43.7,77.6 43.7,77.6 43.7,77.6 43.7,77.6 43.7,77.7 43.7,77.7 
			43.7,77.7 43.8,77.7 43.8,77.7 43.8,77.7 43.8,77.8 43.8,77.8 43.8,77.8 43.8,77.8 43.8,77.8 43.8,77.8 43.9,77.8 43.9,77.9 
			43.9,77.9 43.9,77.9 43.9,77.9 43.9,77.9 43.9,77.9 43.9,78 43.9,78 44,78 44,78 44,78 44,78 44,78.1 44,78.1 44,78.1 44,78.1 
			44,78.1 44.1,78.1 44.1,78.2 44.1,78.2 44.1,78.2 44.1,78.2 44.1,78.2 44.1,78.2 44.1,78.3 44.2,78.3 44.2,78.3 44.2,78.3 
			44.2,78.3 44.2,78.3 44.2,78.3 44.2,78.4 44.2,78.4 44.2,78.4 44.3,78.4 44.3,78.4 44.3,78.4 44.3,78.5 44.3,78.5 44.3,78.5 
			44.3,78.5 44.3,78.5 44.4,78.5 44.4,78.6 44.4,78.6 44.4,78.6 44.4,78.6 44.4,78.6 44.4,78.6 44.4,78.7 44.4,78.7 44.5,78.7 
			44.5,78.7 44.5,78.7 44.5,78.7 44.5,78.7 44.5,78.8 44.5,78.8 44.5,78.8 44.6,78.8 44.6,78.8 44.6,78.8 44.6,78.9 44.6,78.9 
			44.6,78.9 44.6,78.9 44.6,78.9 44.6,78.9 44.7,78.9 44.7,79 44.7,79 44.7,79 44.7,79 44.7,79 44.7,79 44.7,79.1 44.8,79.1 
			44.8,79.1 44.8,79.1 44.8,79.1 44.8,79.1 44.8,79.1 44.8,79.2 44.8,79.2 44.9,79.2 44.9,79.2 44.9,79.2 44.9,79.2 44.9,79.3 
			44.9,79.3 44.9,79.3 44.9,79.3 45,79.3 45,79.3 45,79.3 45,79.4 45,79.4 45,79.4 45,79.4 45,79.4 45.1,79.4 45.1,79.5 45.1,79.5 
			45.1,79.5 45.1,79.5 45.1,79.5 45.1,79.5 45.1,79.5 45.2,79.6 45.2,79.6 45.2,79.6 45.2,79.6 45.2,79.6 45.2,79.6 45.2,79.6 
			45.3,79.7 45.3,79.7 45.3,79.7 45.3,79.7 45.3,79.7 45.3,79.7 45.3,79.8 45.3,79.8 45.4,79.8 45.4,79.8 45.4,79.8 45.4,79.8 
			45.4,79.8 45.4,79.9 45.4,79.9 45.4,79.9 45.5,79.9 45.5,79.9 45.5,79.9 45.5,79.9 45.5,80 45.5,80 45.5,80 45.6,80 45.6,80 
			45.6,80 45.6,80 45.6,80.1 45.6,80.1 45.6,80.1 45.6,80.1 45.7,80.1 45.7,80.1 45.7,80.1 45.7,80.2 45.7,80.2 45.7,80.2 
			45.7,80.2 45.7,80.2 45.8,80.2 45.8,80.3 45.8,80.3 45.8,80.3 45.8,80.3 45.8,80.3 45.8,80.3 45.9,80.3 45.9,80.4 45.9,80.4 
			45.9,80.4 45.9,80.4 45.9,80.4 45.9,80.4 46,80.4 46,80.5 46,80.5 46,80.5 46,80.5 46,80.5 46,80.5 46,80.5 46.1,80.6 46.1,80.6 
			46.1,80.6 46.1,80.6 46.1,80.6 46.1,80.6 46.1,80.6 46.2,80.7 46.2,80.7 46.2,80.7 46.2,80.7 46.2,80.7 46.2,80.7 46.2,80.7 
			46.3,80.7 46.3,80.8 46.3,80.8 46.3,80.8 46.3,80.8 46.3,80.8 46.3,80.8 46.4,80.8 46.4,80.9 46.4,80.9 46.4,80.9 46.4,80.9 
			46.4,80.9 46.4,80.9 46.4,80.9 46.5,81 46.5,81 46.5,81 46.5,81 46.5,81 46.5,81 46.5,81 46.6,81.1 46.6,81.1 46.6,81.1 
			46.6,81.1 46.6,81.1 46.6,81.1 46.7,81.2 46.7,81.2 46.7,81.2 46.7,81.2 46.7,81.2 46.8,81.2 46.8,81.3 46.8,81.3 46.8,81.3 
			46.8,81.3 46.9,81.3 46.9,81.4 46.9,81.4 46.9,81.4 46.9,81.4 47,81.4 47,81.4 47,81.5 47,81.5 47,81.5 47.1,81.5 47.1,81.5 
			47.1,81.6 47.1,81.6 47.1,81.6 47.2,81.6 47.2,81.6 47.2,81.6 47.2,81.7 47.2,81.7 47.3,81.7 47.3,81.7 47.3,81.7 47.3,81.8 
			47.3,81.8 47.4,81.8 47.4,81.8 47.4,81.8 47.4,81.8 47.4,81.9 47.5,81.9 47.5,81.9 47.5,81.9 47.5,81.9 47.5,81.9 47.6,82 
			47.6,82 47.6,82 47.6,82 47.6,82 47.7,82.1 47.7,82.1 47.7,82.1 47.7,82.1 47.7,82.1 47.8,82.1 47.8,82.2 47.8,82.2 47.8,82.2 
			47.8,82.2 47.9,82.2 47.9,82.2 47.9,82.3 47.9,82.3 47.9,82.3 48,82.3 48,82.3 48,82.3 48,82.4 48,82.4 48.1,82.4 48.1,82.4 
			48.1,82.4 48.1,82.4 48.1,82.5 48.2,82.5 48.2,82.5 48.2,82.5 48.2,82.5 48.3,82.5 48.3,82.6 48.3,82.6 48.3,82.6 48.3,82.6 
			48.4,82.6 48.4,82.6 48.4,82.7 48.4,82.7 48.4,82.7 48.5,82.7 48.5,82.7 48.5,82.7 48.5,82.8 48.5,82.8 48.6,82.8 48.6,82.8 
			48.6,82.8 48.6,82.8 48.7,82.9 48.7,82.9 48.7,82.9 48.7,82.9 48.7,82.9 48.8,82.9 48.8,83 48.8,83 48.8,83 48.8,83 48.9,83 
			48.9,83 48.9,83 48.9,83.1 48.9,83.1 49,83.1 49,83.1 49,83.1 49,83.1 49.1,83.2 49.1,83.2 49.1,83.2 49.1,83.2 49.1,83.2 
			49.2,83.2 49.2,83.3 49.2,83.3 49.2,83.3 49.3,83.3 49.3,83.3 49.3,83.3 49.3,83.3 49.3,83.4 49.4,83.4 49.4,83.4 49.4,83.4 
			49.4,83.4 49.4,83.4 49.5,83.5 49.5,83.5 49.5,83.5 49.5,83.5 49.6,83.5 49.6,83.5 49.6,83.5 49.6,83.6 49.6,83.6 49.7,83.6 
			49.7,83.6 49.7,83.6 49.7,83.6 49.8,83.7 49.8,83.7 49.8,83.7 49.8,83.7 49.8,83.7 49.9,83.7 49.9,83.7 49.9,83.8 49.9,83.8 
			50,83.8 50,83.8 50,83.8 50,83.8 50,83.8 50.1,83.9 50.1,83.9 50.1,83.9 50.1,83.9 50.2,83.9 50.2,83.9 50.2,83.9 50.2,84 
			50.2,84 50.3,84 50.3,84 50.3,84 50.3,84 50.4,84 50.4,84.1 50.4,84.1 50.4,84.1 50.4,84.1 50.5,84.1 50.5,84.1 50.5,84.1 
			50.5,84.2 50.6,84.2 50.6,84.2 50.6,84.2 50.6,84.2 50.7,84.2 50.7,84.2 50.7,84.3 50.7,84.3 50.7,84.3 50.8,84.3 50.8,84.3 
			50.8,84.3 50.8,84.3 50.9,84.4 50.9,84.4 50.9,84.4 50.9,84.4 50.9,84.4 51,84.4 51,84.4 51,84.5 51,84.5 51.1,84.5 51.1,84.5 
			51.1,84.5 51.1,84.5 51.2,84.5 51.2,84.5 51.2,84.6 51.2,84.6 51.2,84.6 51.3,84.6 51.3,84.6 51.3,84.6 51.3,84.6 51.4,84.7 
			51.4,84.7 51.4,84.7 51.4,84.7 51.5,84.7 51.5,84.7 51.5,84.7 51.5,84.7 51.5,84.8 51.6,84.8 51.6,84.8 51.6,84.8 51.6,84.8 
			51.7,84.8 51.7,84.8 51.7,84.8 51.7,84.9 51.8,84.9 51.8,84.9 51.8,84.9 51.8,84.9 51.9,84.9 51.9,84.9 51.9,85 51.9,85 51.9,85 
			52,85 52,85 52,85 52,85 52.1,85 52.1,85.1 52.1,85.1 52.1,85.1 52.2,85.1 52.2,85.1 52.2,85.1 52.3,85.2 52.3,85.2 52.4,85.2 
			52.4,85.2 52.4,85.2 52.5,85.2 52.5,85.3 52.5,85.3 52.6,85.3 52.6,85.3 52.6,85.3 52.7,85.3 52.7,85.4 52.7,85.4 52.8,85.4 
			52.8,85.4 52.8,85.4 52.9,85.5 52.9,85.5 52.9,85.5 53,85.5 53,85.5 53.1,85.5 53.1,85.6 53.1,85.6 53.2,85.6 53.2,85.6 
			53.2,85.6 53.3,85.6 53.3,85.7 53.3,85.7 53.4,85.7 53.4,85.7 53.4,85.7 53.5,85.7 53.5,85.8 53.5,85.8 53.6,85.8 53.6,85.8 
			53.7,85.8 53.7,85.8 53.7,85.8 53.8,85.9 53.8,85.9 53.8,85.9 53.9,85.9 53.9,85.9 53.9,85.9 54,86 54,86 54,86 54.1,86 54.1,86 
			54.2,86 54.2,86 54.2,86.1 54.3,86.1 54.3,86.1 54.3,86.1 54.4,86.1 54.4,86.1 54.4,86.2 54.5,86.2 54.5,86.2 54.6,86.2 
			54.6,86.2 54.6,86.2 54.7,86.2 54.7,86.3 54.7,86.3 54.8,86.3 54.8,86.3 54.8,86.3 54.9,86.3 54.9,86.3 55,86.4 55,86.4 55,86.4 
			55.1,86.4 55.1,86.4 55.1,86.4 55.2,86.4 55.2,86.4 55.2,86.5 55.3,86.5 55.3,86.5 55.4,86.5 55.4,86.5 55.4,86.5 55.5,86.5 
			55.5,86.6 55.5,86.6 55.6,86.6 55.6,86.6 55.6,86.6 55.7,86.6 55.7,86.6 55.8,86.6 55.8,86.7 55.8,86.7 55.9,86.7 55.9,86.7 
			55.9,86.7 56,86.7 56,86.7 56.1,86.8 56.1,86.8 56.1,86.8 56.2,86.8 56.2,86.8 56.2,86.8 56.3,86.8 56.3,86.8 56.3,86.8 
			56.4,86.9 56.4,86.9 56.5,86.9 56.5,86.9 56.5,86.9 56.6,86.9 56.6,86.9 56.6,86.9 56.7,87 56.7,87 56.8,87 56.8,86.9 56.8,86.9 
			56.9,86.9 56.9,86.9 56.9,86.9 57,86.9 57,86.9 57.1,86.9 57.1,86.8 57.1,86.8 57.2,86.8 57.2,86.8 57.2,86.8 57.3,86.8 
			57.3,86.8 57.4,86.8 57.4,86.8 57.4,86.7 57.5,86.7 57.5,86.7 57.5,86.7 57.6,86.7 57.6,86.7 57.6,86.7 57.7,86.6 57.7,86.6 
			57.8,86.6 57.8,86.6 57.8,86.6 57.9,86.6 57.9,86.6 57.9,86.6 58,86.5 58,86.5 58.1,86.5 58.1,86.5 58.1,86.5 58.2,86.5 
			58.2,86.5 58.2,86.4 58.3,86.4 58.3,86.4 58.3,86.4 58.4,86.4 58.4,86.4 58.5,86.4 58.5,86.4 58.5,86.3 58.6,86.3 58.6,86.3 
			58.6,86.3 58.7,86.3 58.7,86.3 58.7,86.3 58.8,86.2 58.8,86.2 58.9,86.2 58.9,86.2 58.9,86.2 59,86.2 59,86.2 59,86.1 59.1,86.1 
			59.1,86.1 59.1,86.1 59.2,86.1 59.2,86.1 59.2,86 59.3,86 59.3,86 59.4,86 59.4,86 59.4,86 59.5,86 59.5,85.9 59.5,85.9 
			59.6,85.9 59.6,85.9 59.6,85.9 59.7,85.9 59.7,85.8 59.8,85.8 59.8,85.8 59.8,85.8 59.9,85.8 59.9,85.8 59.9,85.8 60,85.7 
			60,85.7 60,85.7 60.1,85.7 60.1,85.7 60.1,85.7 60.2,85.6 60.2,85.6 60.2,85.6 60.3,85.6 60.3,85.6 60.4,85.6 60.4,85.5 
			60.4,85.5 60.5,85.5 60.5,85.5 60.5,85.5 60.6,85.5 60.6,85.4 60.6,85.4 60.7,85.4 60.7,85.4 60.7,85.4 60.8,85.3 60.8,85.3 
			60.8,85.3 60.9,85.3 60.9,85.3 60.9,85.3 61,85.2 61,85.2 61.1,85.2 61.1,85.2 61.1,85.2 61.2,85.2 61.2,85.1 61.2,85.1 
			61.3,85.1 61.3,85.1 61.3,85.1 61.4,85.1 61.4,85 61.4,85 61.4,85 61.4,85 61.5,85 61.5,85 61.5,85 61.5,85 61.6,84.9 61.6,84.9 
			61.6,84.9 61.6,84.9 61.7,84.9 61.7,84.9 61.7,84.9 61.7,84.8 61.8,84.8 61.8,84.8 61.8,84.8 61.8,84.8 61.8,84.8 61.9,84.8 
			61.9,84.8 61.9,84.7 61.9,84.7 62,84.7 62,84.7 62,84.7 62,84.7 62.1,84.7 62.1,84.7 62.1,84.6 62.1,84.6 62.1,84.6 62.2,84.6 
			62.2,84.6 62.2,84.6 62.2,84.6 62.3,84.5 62.3,84.5 62.3,84.5 62.3,84.5 62.4,84.5 62.4,84.5 62.4,84.5 62.4,84.5 62.4,84.4 
			62.5,84.4 62.5,84.4 62.5,84.4 62.5,84.4 62.6,84.4 62.6,84.4 62.6,84.3 62.6,84.3 62.7,84.3 62.7,84.3 62.7,84.3 62.7,84.3 
			62.7,84.3 62.8,84.2 62.8,84.2 62.8,84.2 62.8,84.2 62.9,84.2 62.9,84.2 62.9,84.2 62.9,84.1 62.9,84.1 63,84.1 63,84.1 63,84.1 
			63,84.1 63.1,84.1 63.1,84 63.1,84 63.1,84 63.2,84 63.2,84 63.2,84 63.2,84 63.2,83.9 63.3,83.9 63.3,83.9 63.3,83.9 63.3,83.9 
			63.4,83.9 63.4,83.9 63.4,83.8 63.4,83.8 63.4,83.8 63.5,83.8 63.5,83.8 63.5,83.8 63.5,83.8 63.6,83.7 63.6,83.7 63.6,83.7 
			63.6,83.7 63.6,83.7 63.7,83.7 63.7,83.7 63.7,83.6 63.7,83.6 63.8,83.6 63.8,83.6 63.8,83.6 63.8,83.6 63.8,83.5 63.9,83.5 
			63.9,83.5 63.9,83.5 63.9,83.5 63.9,83.5 64,83.5 64,83.4 64,83.4 64,83.4 64.1,83.4 64.1,83.4 64.1,83.4 64.1,83.3 64.1,83.3 
			64.2,83.3 64.2,83.3 64.2,83.3 64.2,83.3 64.3,83.3 64.3,83.2 64.3,83.2 64.3,83.2 64.3,83.2 64.4,83.2 64.4,83.2 64.4,83.1 
			64.4,83.1 64.4,83.1 64.5,83.1 64.5,83.1 64.5,83.1 64.5,83 64.6,83 64.6,83 64.6,83 64.6,83 64.6,83 64.7,83 64.7,82.9 
			64.7,82.9 64.7,82.9 64.7,82.9 64.8,82.9 64.8,82.9 64.8,82.8 64.8,82.8 64.9,82.8 64.9,82.8 64.9,82.8 64.9,82.8 64.9,82.7 
			65,82.7 65,82.7 65,82.7 65,82.7 65,82.7 65.1,82.6 65.1,82.6 65.1,82.6 65.1,82.6 65.1,82.6 65.2,82.6 65.2,82.5 65.2,82.5 
			65.2,82.5 65.3,82.5 65.3,82.5 65.3,82.5 65.3,82.4 65.3,82.4 65.4,82.4 65.4,82.4 65.4,82.4 65.4,82.4 65.4,82.3 65.5,82.3 
			65.5,82.3 65.5,82.3 65.5,82.3 65.5,82.3 65.6,82.2 65.6,82.2 65.6,82.2 65.6,82.2 65.6,82.2 65.7,82.2 65.7,82.1 65.7,82.1 
			65.7,82.1 65.7,82.1 65.8,82.1 65.8,82.1 65.8,82 65.8,82 65.8,82 65.9,82 65.9,82 65.9,81.9 65.9,81.9 65.9,81.9 66,81.9 
			66,81.9 66,81.9 66,81.8 66,81.8 66.1,81.8 66.1,81.8 66.1,81.8 66.1,81.8 66.1,81.7 66.2,81.7 66.2,81.7 66.2,81.7 66.2,81.7 
			66.2,81.6 66.3,81.6 66.3,81.6 66.3,81.6 66.3,81.6 66.3,81.6 66.4,81.5 66.4,81.5 66.4,81.5 66.4,81.5 66.4,81.5 66.5,81.4 
			66.5,81.4 66.5,81.4 66.5,81.4 66.5,81.4 66.6,81.4 66.6,81.3 66.6,81.3 66.6,81.3 66.6,81.3 66.7,81.3 66.7,81.2 66.7,81.2 
			66.7,81.2 66.7,81.2 66.8,81.2 66.8,81.2 66.8,81.1 66.8,81.1 66.8,81.1 66.9,81.1 66.9,81.1 66.9,81 66.9,81 66.9,81 66.9,81 
			67,81 67,81 67,80.9 67,80.9 67,80.9 67.1,80.9 67.1,80.9 67.1,80.8 67.1,80.8 67.1,80.8 67.1,80.8 67.2,80.8 67.2,80.8 
			67.2,80.7 67.2,80.7 67.2,80.7 67.3,80.7 67.3,80.7 67.3,80.6 67.3,80.6 67.3,80.6 67.3,80.6 67.4,80.6 67.4,80.5 67.4,80.5 
			67.4,80.5 67.4,80.5 67.5,80.5 67.5,80.5 67.5,80.4 67.5,80.4 67.5,80.4 67.5,80.4 67.6,80.4 67.6,80.3 67.6,80.3 67.6,80.3 
			67.6,80.3 67.7,80.3 67.7,80.2 67.7,80.2 67.7,80.2 67.7,80.2 67.7,80.2 67.8,80.1 67.8,80.1 67.8,80.1 67.8,80.1 67.8,80.1 
			67.8,80.1 67.9,80 67.9,80 67.9,80 67.9,80 67.9,80 67.9,79.9 68,79.9 68,79.9 68,79.9 68,79.9 68,79.8 68.1,79.8 68.1,79.8 
			68.1,79.8 68.1,79.8 68.1,79.7 68.1,79.7 68.2,79.7 68.2,79.7 68.2,79.7 68.2,79.6 68.2,79.6 68.2,79.6 68.3,79.6 68.3,79.6 
			68.3,79.5 68.3,79.5 68.3,79.5 68.3,79.5 68.4,79.5 68.4,79.4 68.4,79.4 68.4,79.4 68.4,79.4 68.4,79.4 68.5,79.3 68.5,79.3 
			68.5,79.3 68.5,79.3 68.5,79.3 68.5,79.2 68.6,79.2 68.6,79.2 68.6,79.2 68.6,79.2 68.6,79.1 68.6,79.1 68.7,79.1 68.7,79.1 
			68.7,79.1 68.7,79 68.7,79 68.7,79 68.8,79 68.8,79 68.8,78.9 68.8,78.9 68.8,78.9 68.8,78.9 68.8,78.9 68.9,78.8 68.9,78.8 
			68.9,78.8 68.9,78.8 68.9,78.8 68.9,78.7 69,78.7 69,78.7 69,78.7 69,78.7 69,78.6 69,78.6 69.1,78.6 69.1,78.6 69.1,78.5 
			69.1,78.5 69.1,78.5 69.1,78.5 69.2,78.5 69.2,78.4 69.2,78.4 69.2,78.4 69.2,78.4 69.2,78.4 69.2,78.3 69.3,78.3 69.3,78.3 
			69.3,78.3 69.3,78.2 69.3,78.2 69.3,78.2 69.4,78.2 69.4,78.2 69.4,78.1 69.4,78.1 69.4,78.1 69.4,78.1 69.4,78 69.5,78 69.5,78 
			69.5,78 69.5,78 69.5,77.9 69.5,77.9 69.6,77.9 69.6,77.9 69.6,77.8 69.6,77.8 69.6,77.8 69.6,77.8 69.6,77.8 69.7,77.7 
			69.7,77.7 69.7,77.7 69.7,77.7 69.7,77.6 69.7,77.6 69.7,77.6 69.8,77.6 69.8,77.6 69.8,77.5 69.8,77.5 69.8,77.5 69.8,77.5 
			69.9,77.4 69.9,77.4 69.9,77.4 69.9,77.4 69.9,77.4 69.9,77.3 69.9,77.3 70,77.3 70,77.3 70,77.2 70,77.2 70,77.2 70,77.2 
			70,77.2 70,77.1 70.1,77.1 70.1,77.1 70.1,77.1 70.1,77.1 70.1,77 70.1,77 70.1,77 70.1,77 70.2,77 70.2,76.9 70.2,76.9 
			70.2,76.9 70.2,76.9 70.2,76.9 70.2,76.8 70.2,76.8 70.3,76.8 70.3,76.8 70.3,76.8 70.3,76.7 70.3,76.7 70.3,76.7 70.3,76.7 
			70.3,76.7 70.3,76.6 70.4,76.6 70.4,76.6 70.4,76.6 70.4,76.6 70.4,76.5 70.4,76.5 70.4,76.5 70.4,76.5 70.4,76.4 70.5,76.4 
			70.5,76.4 70.5,76.4 70.5,76.4 70.5,76.3 70.5,76.3 70.5,76.3 70.5,76.3 70.5,76.3 70.6,76.2 70.6,76.2 70.6,76.2 70.6,76.2 
			70.6,76.2 70.6,76.1 70.6,76.1 70.6,76.1 70.6,76.1 70.7,76.1 70.7,76 70.7,76 70.7,76 70.7,76 70.7,76 70.7,75.9 70.7,75.9 
			70.7,75.9 70.8,75.9 70.8,75.9 70.8,75.8 70.8,75.8 70.8,75.8 70.8,75.8 70.8,75.7 70.8,75.7 70.8,75.7 70.9,75.7 70.9,75.7 
			70.9,75.6 70.9,75.6 70.9,75.6 70.9,75.6 70.9,75.6 70.9,75.5 70.9,75.5 70.9,75.5 71,75.5 71,75.5 71,75.4 71,75.4 71,75.4 
			71,75.4 71,75.4 71,75.3 71,75.3 71,75.3 71.1,75.3 71.1,75.2 71.1,75.2 71.1,75.2 71.1,75.2 71.1,75.2 71.1,75.1 71.1,75.1 
			71.1,75.1 71.1,75.1 71.1,75.1 71.2,75 71.2,75 71.2,75 71.2,75 71.2,75 71.2,74.9 71.2,74.9 71.2,74.9 71.2,74.9 71.2,74.8 
			71.3,74.8 71.3,74.8 71.3,74.8 71.3,74.8 71.3,74.7 71.3,74.7 71.3,74.7 71.3,74.7 71.3,74.7 71.3,74.6 71.3,74.6 71.4,74.6 
			71.4,74.6 71.4,74.5 71.4,74.5 71.4,74.5 71.4,74.5 71.4,74.5 71.4,74.4 71.4,74.4 71.4,74.4 71.4,74.4 71.4,74.4 71.5,74.3 
			71.5,74.3 71.5,74.3 71.5,74.3 71.5,74.2 71.5,74.2 71.5,74.2 71.5,74.2 71.5,74.2 71.5,74.1 71.5,74.1 71.5,74.1 71.6,74.1 
			71.6,74.1 71.6,74 71.6,74 71.6,74 71.6,74 71.6,73.9 71.6,73.9 71.6,73.9 71.6,73.9 71.6,73.9 71.6,73.8 71.7,73.8 71.7,73.8 
			71.7,73.8 71.7,73.7 71.7,73.7 71.7,73.7 71.7,73.7 71.7,73.7 71.7,73.6 71.7,73.6 71.7,73.6 71.7,73.6 71.7,73.6 71.8,73.5 
			71.8,73.5 71.8,73.5 71.8,73.5 71.8,73.4 71.8,73.4 71.8,73.4 71.8,73.4 71.8,73.4 71.8,73.3 71.8,73.3 71.8,73.3 71.8,73.3 
			71.8,73.2 71.9,73.2 71.9,73.2 71.9,73.2 71.9,73.2 71.9,73.1 71.9,73.1 71.9,73.1 71.9,73.1 71.9,73 71.9,73 71.9,73 71.9,73 
			71.9,73 71.9,72.9 72,72.9 72,72.9 72,72.9 72,72.9 72,72.8 72,72.8 72,72.8 72,72.8 72,72.7 72,72.7 72,72.7 72,72.7 72.1,72.6 
			72.1,72.6 72.1,72.5 72.1,72.5 72.1,72.4 72.1,72.4 72.1,72.3 72.1,72.3 72.2,72.3 72.2,72.2 72.2,72.2 72.2,72.1 72.2,72.1 
			72.2,72 72.2,72 72.2,71.9 72.3,71.9 72.3,71.9 72.3,71.8 72.3,71.8 72.3,71.7 72.3,71.7 72.3,71.6 72.3,71.6 72.3,71.6 
			72.4,71.5 72.4,71.5 72.4,71.5 72.4,71.4 72.4,71.4 72.4,71.4 72.4,71.3 72.4,71.3 72.4,71.2 72.4,71.2 72.4,71.2 72.5,71.1 
			72.5,71.1 72.5,71.1 72.5,71 72.5,71 72.5,71 72.5,70.9 72.5,70.9 72.5,70.8 72.5,70.8 72.5,70.8 72.6,70.7 72.6,70.7 72.6,70.7 
			72.6,70.6 72.6,70.6 72.6,70.5 72.6,70.5 72.6,70.5 72.6,70.4 72.6,70.4 72.6,70.4 72.6,70.3 72.7,70.3 72.7,70.3 72.7,70.2 
			72.7,70.2 72.7,70.1 72.7,70.1 72.7,70.1 72.7,70 72.7,70 72.7,70 72.7,70 72.7,69.9 72.7,69.9 72.7,69.9 72.7,69.9 72.7,69.9 
			72.7,69.8 72.7,69.8 72.8,69.8 72.8,69.8 72.8,69.8 72.8,69.8 72.8,69.7 72.8,69.7 72.8,69.7 72.8,69.7 72.8,69.7 72.8,69.6 
			72.8,69.6 72.8,69.6 72.8,69.6 72.8,69.6 72.8,69.5 72.8,69.5 72.8,69.5 72.8,69.5 72.8,69.5 72.8,69.5 72.8,69.4 72.8,69.4 
			72.8,69.4 72.8,69.4 72.8,69.4 72.8,69.3 72.8,69.3 72.8,69.3 72.8,69.3 72.8,69.3 72.9,69.2 72.9,69.2 72.9,69.2 72.9,69.2 
			72.9,69.2 72.9,69.1 72.9,69.1 72.9,69.1 72.9,69.1 72.9,69.1 72.9,69.1 72.9,69 72.9,69 72.9,69 72.9,69 72.9,69 72.9,68.9 
			72.9,68.9 72.9,68.9 72.9,68.9 72.9,68.9 72.9,68.8 72.9,68.8 72.9,68.8 72.9,68.7 72.9,68.7 72.9,68.7 72.9,68.6 72.9,68.6 
			73,68.6 73,68.5 73,68.5 73,68.4 73,68.4 73,68.4 73,68.3 73,68.3 73,68.2 73,68.2 73,68.2 73,68.1 73,68.1 73,68.1 73,68 73,68 
			73,67.9 73,67.9 73,67.9 73,67.8 73,67.8 73,67.7 73,67.7 73.1,67.7 73.1,67.6 73.1,67.6 73.1,67.5 73.1,67.5 73.1,67.5 
			73.1,67.4 73.1,67.4 73.1,67.4 73.1,67.3 73.1,67.3 73.1,67.2 73.1,67.1 73.1,67 73.1,67 73.1,66.9 73.1,66.8 73.1,66.7 
			73.1,66.6 73.1,66.5 73.2,66.5 73.2,66.4 73.2,66.3 73.2,66.2 73.2,66.1 73.2,66 73.2,65.9 73.2,65.9 73.2,65.8 73.2,65.7 
			73.2,65.6 73.2,65.5 73.2,65.4 73.2,65.3 73.2,65.2 73.2,65.2 73.2,65.1 73.2,65 73.2,64.9 73.3,64.8 73.3,64.7 73.3,64.6 
			73.3,64.6 73.3,64.5 73.3,64.4 73.3,64.3 73.3,64.2 73.3,64.1 73.3,64 73.3,63.9 73.3,63.8 73.3,63.8 73.3,63.7 73.3,63.7 
			73.3,63.6 73.3,63.6 73.3,63.5 73.3,63.5 73.3,63.4 73.3,63.3 73.3,63.3 73.3,63.2 73.3,63.2 73.3,63.1 73.3,63.1 73.3,63 
			73.3,63 73.3,62.9 73.3,62.8 73.3,62.8 73.3,62.7 73.3,62.7 73.3,62.6 73.3,62.6 73.3,62.5 73.3,62.5 73.3,62.4 73.3,62.3 		"/>
		<path fill-rule="evenodd" clip-rule="evenodd" d="M58.5,70.1"/>
		<g>
			<path d="M59.1,101.1h-1.6v1.6h1.2v0.3h-1.2v1.6h1.6l0.1-0.6h0.3v1h-2.8v-0.3l0.4-0.1v-3.5l-0.4-0.1v-0.3h2.7v1h-0.3L59.1,101.1z"
				/>
			<path d="M60.7,104.6h1c0.5,0,0.7-0.2,0.7-0.7v-0.1c0-0.5-0.2-0.7-0.7-0.7h-0.4c-0.7,0-1.1-0.4-1.1-1.1v-0.1
				c0-0.7,0.3-1.1,1.1-1.1h1.3v0.9h-0.3l-0.1-0.6h-0.9c-0.5,0-0.7,0.2-0.7,0.7v0.1c0,0.5,0.2,0.7,0.7,0.7h0.4c0.7,0,1.1,0.4,1.1,1.1
				v0.1c0,0.8-0.4,1.1-1.1,1.1h-1.4V104h0.3L60.7,104.6z"/>
			<path d="M64.7,101.1h-0.9l-0.1,0.6h-0.3v-0.9h2.9v0.9H66l-0.1-0.6H65v3.5l0.4,0.1v0.3h-1.2v-0.3l0.4-0.1V101.1z"/>
		</g>
		<g>
			<path d="M66.7,104.6c0.1,0,0.2,0.1,0.2,0.2c0,0.1-0.1,0.2-0.2,0.2c-0.1,0-0.2-0.1-0.2-0.2C66.4,104.7,66.5,104.6,66.7,104.6z"/>
			<path d="M69.4,104.6v-3.4l-0.6,0.2v-0.3l0.8-0.4h0.3v3.8l0.4,0.1v0.3h-1.2v-0.3L69.4,104.6z"/>
			<path d="M73.2,103.2H72c-0.7,0-1.1-0.4-1.1-1.1v-0.3c0-0.7,0.4-1.1,1.1-1.1h0.5c0.7,0,1.1,0.4,1.1,1.1v2.1c0,0.7-0.4,1.1-1.1,1.1
				h-1.4V104h0.3l0,0.6h1c0.5,0,0.7-0.2,0.7-0.7V103.2z M73.2,102.8v-1c0-0.5-0.2-0.7-0.7-0.7H72c-0.5,0-0.7,0.2-0.7,0.7v0.3
				c0,0.5,0.2,0.7,0.7,0.7H73.2z"/>
			<path d="M76,100.7c0.7,0,1.1,0.4,1.1,1.1v0.1c0,0.8-0.5,0.9-0.5,0.9v0c0,0,0.6,0.1,0.6,0.9v0.2c0,0.7-0.4,1.1-1.1,1.1h-0.6
				c-0.8,0-1.1-0.4-1.1-1.1v-0.1c0-0.8,0.6-0.9,0.6-0.9v0c0,0-0.5-0.1-0.5-0.9v-0.1c0-0.7,0.4-1.1,1.1-1.1H76z M74.8,103.9
				c0,0.5,0.2,0.7,0.7,0.7h0.5c0.5,0,0.7-0.2,0.7-0.7v-0.2c0-0.5-0.2-0.7-0.7-0.7h-0.5c-0.5,0-0.7,0.2-0.7,0.7V103.9z M74.9,101.9
				c0,0.5,0.2,0.7,0.7,0.7H76c0.5,0,0.7-0.2,0.7-0.7v-0.1c0-0.5-0.2-0.7-0.7-0.7h-0.4C75.1,101.1,74.9,101.3,74.9,101.9L74.9,101.9z
				"/>
			<path d="M80.6,102c0,0.7-0.4,1.1-1.1,1.1h-0.4c-0.5,0-0.7,0.2-0.7,0.7v0.8h1.8l0.1-0.6h0.3v0.9H78v-1.2c0-0.7,0.4-1.1,1.1-1.1
				h0.4c0.5,0,0.7-0.2,0.7-0.7v-0.2c0-0.5-0.2-0.7-0.7-0.7h-1.1l-0.1,0.6h-0.3v-1h1.5c0.7,0,1.1,0.4,1.1,1.1V102z"/>
		</g>
		<g>
			<path d="M110.5,28.3h-2.6c-1.1,0-1.6,0.4-1.6,1.6v7.2c0,1.1,0.4,1.6,1.6,1.6h6V42h-6.7c-3.1,0-4.8-1.7-4.8-4.8v-7.5
				c0-3.1,1.7-4.8,4.8-4.8h6.7v5.3h-3L110.5,28.3z"/>
			<path d="M130.1,37.4c0,3.1-1.7,4.8-4.8,4.8h-3.5c-3.1,0-4.8-1.7-4.8-4.8v-7.8c0-3.1,1.7-4.8,4.8-4.8h3.5c3.1,0,4.8,1.7,4.8,4.8
				V37.4z M121,37.1c0,1.1,0.5,1.7,1.6,1.7h2.1c1.1,0,1.6-0.4,1.6-1.7v-7.3c0-1.1-0.4-1.6-1.6-1.6h-2.1c-1.1,0-1.6,0.5-1.6,1.6V37.1
				z"/>
			<path d="M134.5,28.1l-1.5-0.2V25h6.8v2.9l-1.5,0.2v10.6h3.6l0.4-1.9h3V42H133v-2.9l1.5-0.2V28.1z"/>
			<path d="M156.5,28.3h-3.9v3.6h3.8v3.1h-3.8v3.6h4.1l0.4-1.9h3V42h-12.8v-2.9l1.5-0.2V28.1l-1.5-0.2V25h12.6v5.3h-3L156.5,28.3z"
				/>
			<path d="M167.9,42c-3.1,0-4.8-1.7-4.8-4.8v-7.5c0-3.1,1.7-4.8,4.8-4.8h6.7v5.3h-3l-0.4-1.9h-2.6c-1.1,0-1.6,0.4-1.6,1.6v7.2
				c0,1.1,0.4,1.6,1.6,1.6h2.9v-3h-1.6v-3.3h5.4V42H167.9z"/>
			<path d="M183.6,38.9l1.5,0.2V42h-6.8v-2.9l1.5-0.2V28.1l-1.5-0.2V25h6.8v2.9l-1.5,0.2V38.9z"/>
			<path d="M201.1,37.4c0,3.1-1.7,4.8-4.8,4.8h-3.5c-3.1,0-4.8-1.7-4.8-4.8v-7.8c0-3.1,1.7-4.8,4.8-4.8h3.5c3.1,0,4.8,1.7,4.8,4.8
				V37.4z M191.9,37.1c0,1.1,0.5,1.7,1.6,1.7h2.1c1.1,0,1.6-0.4,1.6-1.7v-7.3c0-1.1-0.4-1.6-1.6-1.6h-2.1c-1.1,0-1.6,0.5-1.6,1.6
				V37.1z"/>
		</g>
		<g>
			<path d="M106.3,50.7h-2l-0.3,1.6h-2.6v-5h13.7v5h-2.6l-0.3-1.6h-2v10.6l1.5,0.2v2.9h-6.8v-2.9l1.5-0.2V50.7z"/>
			<path d="M126.3,50.7h-3.9v3.6h3.8v3.1h-3.8v3.6h4.1l0.4-1.9h3v5.3H117v-2.9l1.5-0.2V50.5l-1.5-0.2v-2.9h12.6v5.3h-3L126.3,50.7z"
				/>
			<path d="M141,50.7h-2.6c-1.1,0-1.6,0.4-1.6,1.6v7.2c0,1.1,0.4,1.6,1.6,1.6h6v3.4h-6.7c-3.1,0-4.8-1.7-4.8-4.8v-7.5
				c0-3.1,1.7-4.8,4.8-4.8h6.7v5.3h-3L141,50.7z"/>
			<path d="M162.6,47.4v2.9l-1.5,0.2v14h-3.9l-4.5-9h-0.2v9h-5.4v-2.9l1.5-0.2V50.5l-1.5-0.2v-2.9h5.4l4.5,9h0.2v-9H162.6z"/>
			<path d="M178.3,59.8c0,3.1-1.7,4.8-4.8,4.8H170c-3.1,0-4.8-1.7-4.8-4.8V52c0-3.1,1.7-4.8,4.8-4.8h3.5c3.1,0,4.8,1.7,4.8,4.8V59.8
				z M169.1,59.5c0,1.1,0.5,1.7,1.6,1.7h2.1c1.1,0,1.6-0.4,1.6-1.7v-7.3c0-1.1-0.4-1.6-1.6-1.6h-2.1c-1.1,0-1.6,0.5-1.6,1.6V59.5z"
				/>
			<path d="M182.7,50.5l-1.5-0.2v-2.9h6.8v2.9l-1.5,0.2v10.6h3.6l0.4-1.9h3v5.3h-12.3v-2.9l1.5-0.2V50.5z"/>
			<path d="M209,59.8c0,3.1-1.7,4.8-4.8,4.8h-3.5c-3.1,0-4.8-1.7-4.8-4.8V52c0-3.1,1.7-4.8,4.8-4.8h3.5c3.1,0,4.8,1.7,4.8,4.8V59.8z
				 M199.8,59.5c0,1.1,0.5,1.7,1.6,1.7h2.1c1.1,0,1.6-0.4,1.6-1.7v-7.3c0-1.1-0.4-1.6-1.6-1.6h-2.1c-1.1,0-1.6,0.5-1.6,1.6V59.5z
				 M206.4,43.8l-4.2,2.2l-1.2-1.7l3.7-2.9L206.4,43.8z"/>
			<path d="M217.2,64.4c-3.1,0-4.8-1.7-4.8-4.8v-7.5c0-3.1,1.7-4.8,4.8-4.8h6.7v5.3h-3l-0.4-1.9h-2.6c-1.1,0-1.6,0.4-1.6,1.6v7.2
				c0,1.1,0.4,1.6,1.6,1.6h2.9v-3h-1.6v-3.3h5.4v9.7H217.2z"/>
			<path d="M232.9,61.3l1.5,0.2v2.9h-6.8v-2.9l1.5-0.2V50.5l-1.5-0.2v-2.9h6.8v2.9l-1.5,0.2V61.3z"/>
			<path d="M245.4,50.7h-2.6c-1.1,0-1.6,0.4-1.6,1.6v7.2c0,1.1,0.4,1.6,1.6,1.6h6v3.4h-6.7c-3.1,0-4.8-1.7-4.8-4.8v-7.5
				c0-3.1,1.7-4.8,4.8-4.8h6.7v5.3h-3L245.4,50.7z"/>
			<path d="M265,59.8c0,3.1-1.7,4.8-4.8,4.8h-3.5c-3.1,0-4.8-1.7-4.8-4.8V52c0-3.1,1.7-4.8,4.8-4.8h3.5c3.1,0,4.8,1.7,4.8,4.8V59.8z
				 M255.9,59.5c0,1.1,0.5,1.7,1.6,1.7h2.1c1.1,0,1.6-0.4,1.6-1.7v-7.3c0-1.1-0.4-1.6-1.6-1.6h-2.1c-1.1,0-1.6,0.5-1.6,1.6V59.5z"/>
		</g>
		<g>
			<path fill="#E4B232" d="M105.7,83.5h3c1.1,0,1.6-0.4,1.6-1.6v-0.3c0-1.1-0.4-1.6-1.6-1.6h-1.8c-3.3,0-4.8-1.8-4.8-5.1v-0.3
				c0-3.1,1.7-4.8,4.8-4.8h6.6v5.1h-3l-0.4-1.8h-2.5c-1.1,0-1.6,0.4-1.6,1.6V75c0,1.1,0.4,1.6,1.6,1.6h1.8c3.2,0,4.8,1.8,4.8,5.1
				v0.3c0,3.8-2.2,4.8-5.8,4.8h-6.1v-5.1h3L105.7,83.5z"/>
			<path fill="#E4B232" d="M125,72.6v-2.9h6.9v2.9l-1.5,0.2v9.3c0,3-1.7,4.8-4.8,4.8h-2.8c-3.1,0-4.8-1.7-4.8-4.8v-9.3l-1.5-0.2
				v-2.9h5.4V82c0,1.1,0.4,1.6,1.6,1.6h1.3c1.1,0,1.6-0.5,1.6-1.6v-9.1L125,72.6z"/>
			<path fill="#E4B232" d="M134,86.8V84l1.5-0.2V72.9l-1.5-0.2v-2.9h8.3c3.1,0,4.8,1.7,4.8,4.8v0.2c0,2.5-1.8,3.1-1.8,3.1v0.2
				c0,0,2.6,0.5,2.6,3.6v0.5c0,3.1-1.7,4.8-4.8,4.8H134z M141.6,76.5c1.1,0,1.6-0.4,1.6-1.6v-0.2c0-1.1-0.4-1.6-1.6-1.6h-2.2v3.4
				H141.6z M142.4,83.5c1.1,0,1.6-0.5,1.6-1.6v-0.4c0-1.5-0.6-1.6-2.3-1.6h-2.3v3.6H142.4z"/>
			<path fill="#E4B232" d="M159,82.1h-4.2l-0.5,1.6l1.5,0.2v2.9h-6.9V84l1.5-0.2l3.5-10.9l-1.5-0.2v-2.9h6.5l4.5,14l1.5,0.2v2.9H158
				V84l1.5-0.2L159,82.1z M155.7,79.2h2.5l-1.1-3.9h-0.2L155.7,79.2z"/>
		</g>
	</g>
</g>
<g>
</g>
<g>
</g>
<g>
</g>
<g>
</g>
<g>
</g>
<g>
</g>
<g>
</g>
<g>
</g>
<g>
</g>
<g>
</g>
<g>
</g>
</svg>
