<svg id="Capa_1" data-name="Capa 1" xmlns="http://www.w3.org/2000/svg" viewBox="0 0 60 60"><defs><style>.cls-1{stroke:#000;stroke-miterlimit:10;stroke-width:0.5px;}</style></defs><title>icon_email</title><path class="cls-1" d="M29.85,50.28c-8.5,0-17,0-25.5,0-1.32,0-1.82-.19-1.81-1.69q.1-19,0-38C2.54,9.24,3,9,4.22,9q25.67.06,51.35,0c1.31,0,1.68.32,1.67,1.66q-.08,18.92,0,37.84c0,1.55-.46,1.83-1.89,1.81C46.86,50.25,38.36,50.28,29.85,50.28ZM9.46,12.93l-.63.76,19,18.22c1.57,1.51,2.62,1.52,4.18,0C35,28.93,37.89,25.94,40.86,23c3.3-3.25,6.66-6.46,10-9.69l-.31-.39ZM50.21,46.26l.43-.51a6.37,6.37,0,0,1-1.41-.85c-3.76-3.8-7.52-7.6-11.2-11.49-.87-.91-1.34-1-2.15,0a11.33,11.33,0,0,1-2.46,2.28,6.81,6.81,0,0,1-8.34-1.14c-2.25-2.25-2.25-2.25-4.5.05-2.79,2.86-5.56,5.73-8.38,8.57-1,1-2,1.86-3.34,3.09ZM6.36,42.54c4.13-3.87,8.53-8,13-12.13.84-.77.58-1.12-.07-1.77-4-4-7.92-8-11.89-12-.27-.27-.44-.82-1-.63Zm46.88-.17V16.19c-4.44,4.4-8.76,8.7-13.11,13-.65.63-.05.87.26,1.16C44.78,34.46,49.18,38.57,53.24,42.37Z"/></svg>