<svg id="Capa_1" data-name="Capa 1" xmlns="http://www.w3.org/2000/svg" viewBox="0 0 60 60"><title>icon_face</title><path d="M43,2.62c0,.17,0,.35,0,.52,0,2.83,0,5.66,0,8.49,0,.4-.11.49-.5.49-1.54,0-3.08,0-4.61,0a10.2,10.2,0,0,0-1.57.19,2.1,2.1,0,0,0-1.72,2.07c-.08,2-.07,4-.1,6,0,.36.23.3.44.3H43l-1,9.48H34.44v.6q0,13.24,0,26.48c0,.16,0,.32,0,.48H24.12c0-.82,0-1.64,0-2.46V30.17H17.26c0-.19,0-.34,0-.48,0-2.84,0-5.69,0-8.54,0-.39.12-.49.5-.49,2,0,3.93,0,5.89,0,.42,0,.51-.13.51-.53,0-2.55,0-5.1.09-7.65a12.6,12.6,0,0,1,1.32-5.34A7.2,7.2,0,0,1,29.9,3.45C31,3.1,32.13,3,33.24,2.72l.47-.1Z"/></svg>