<?xml version="1.0" encoding="utf-8"?>
<!-- Generator: Adobe Illustrator 22.0.1, SVG Export Plug-In . SVG Version: 6.00 Build 0)  -->
<svg version="1.1" id="Capa_1" xmlns="http://www.w3.org/2000/svg" xmlns:xlink="http://www.w3.org/1999/xlink" x="0px" y="0px"
	 viewBox="0 0 60 60" style="enable-background:new 0 0 60 60;" xml:space="preserve">
<style type="text/css">
	.st0{fill-rule:evenodd;clip-rule:evenodd;}
	.st1{fill-rule:evenodd;clip-rule:evenodd;fill:#F8B520;}
	.st2{fill-rule:evenodd;clip-rule:evenodd;fill:#FFFFFF;}
	.st3{fill:#F8B520;}
</style>
<g>
	<g>
		<path class="st0" d="M28.1,25.3l0,14.9c0,0.3,0,2.1-0.2,2.6c-0.5,1.1-2.8,1.3-3.8,1.4l-0.2,0l0-0.2l0,0l0,0l0,0l0,0l0,0l0,0l0,0
			l0,0l0,0l0,0l0,0l0,0l0,0l0,0l0,0l0,0l0,0l0,0l0,0l0,0l0,0l0,0l0,0l0,0l0,0l0,0l0,0l0,0l0,0l0,0l0,0l0,0l0,0l0,0l0,0l0,0l0,0l0,0
			l0,0l0,0l0,0l0,0l0,0l0,0l0,0l0,0l0,0l0,0l0,0l0,0l0,0l0,0l0,0l0,0l0,0l0,0l0,0l0,0l0,0l0,0l0,0l0,0l0,0l0,0l0,0l0,0l0,0l0,0l0,0
			l0,0l0,0l0,0l0,0l0,0l0,0l0,0l0,0l0,0l0,0l0,0l0,0l0,0l0,0l0,0l0,0l0,0l0,0l0,0l0,0l0,0l0,0l0,0l0,0l0,0l0-0.1l0-0.1l0-0.1l0-0.1
			l0-0.1l0-0.1l0-0.1l0-0.1l0-0.1l0-0.1l0-0.1l0-0.1l0-0.1l0-0.1l0-0.1l0-0.1l0,0l0,0l0,0l0,0l0,0l0,0l0,0l0,0l0,0l0,0l0,0l0,0l0,0
			l0,0l0,0l0,0l0,0l0,0l0,0l0,0l0,0l0,0l0,0l0,0l0,0l0,0l0,0l0,0l0,0l0,0l0,0v0l0,0v0v0l0,0v0V29.5l0-4l-8.3,0l0-0.2l0-0.5l0-0.3
			l0-0.3l0-0.3l0-0.3l0-0.3l0-0.3l0-0.3l0-0.3l0-0.3l0-0.3l0-0.3l0-0.3l0-0.3l0-0.3l0-0.2h12.7L28.1,25.3z"/>
		<polygon class="st1" points="36.4,29.5 36.4,40.3 36.4,40.3 36.4,40.3 36.4,40.4 36.4,40.4 36.4,40.4 36.4,40.5 36.4,40.5 
			36.4,40.5 36.4,40.5 36.4,40.6 36.4,40.6 36.4,40.6 36.4,40.7 36.4,40.7 36.4,40.7 36.4,40.8 36.4,40.8 36.4,40.8 36.4,40.8 
			36.4,40.9 36.4,40.9 36.4,40.9 36.4,41 36.4,41 36.4,41 36.4,41.1 36.4,41.1 36.4,41.1 36.4,41.2 36.3,41.2 36.3,41.3 36.3,41.3 
			36.3,41.4 36.3,41.4 36.3,41.5 36.3,41.5 36.3,41.6 36.3,41.6 36.3,41.7 36.3,41.7 36.3,41.8 36.3,41.8 36.3,41.9 36.3,41.9 
			36.3,41.9 36.3,42 36.3,42 36.3,42.1 36.3,42.1 36.3,42.2 36.3,42.2 36.3,42.3 36.3,42.3 36.3,42.4 36.3,42.4 36.3,42.5 
			36.3,42.5 36.3,42.5 36.3,42.6 36.3,42.6 36.3,42.7 36.3,42.7 36.3,42.8 36.3,42.8 36.3,42.9 36.2,42.9 36.2,42.9 36.2,43 
			36.2,43 36.2,43 36.2,43 36.2,43 36.2,43.1 36.2,43.1 36.2,43.1 36.2,43.1 36.2,43.1 36.2,43.2 36.2,43.2 36.2,43.2 36.2,43.2 
			36.2,43.2 36.2,43.2 36.2,43.3 36.2,43.3 36.2,43.3 36.2,43.3 36.2,43.3 36.2,43.4 36.2,43.4 36.2,43.4 36.2,43.4 36.2,43.4 
			36.2,43.5 36.2,43.5 36.2,43.5 36.2,43.5 36.2,43.5 36.2,43.6 36.2,43.6 36.2,43.6 36.2,43.6 36.2,43.6 36.2,43.6 36.2,43.6 
			36.2,43.6 36.2,43.6 36.2,43.6 36.2,43.7 36.2,43.7 36.2,43.7 36.2,43.7 36.2,43.7 36.2,43.7 36.2,43.7 36.2,43.7 36.2,43.7 
			36.2,43.7 36.2,43.8 36.2,43.8 36.2,43.8 36.2,43.8 36.1,43.8 36.1,43.8 36.1,43.8 36.1,43.8 36.1,43.8 36.1,43.8 36.1,43.9 
			36.1,43.9 36.1,43.9 36.1,43.9 36.1,43.9 36.1,43.9 36.1,43.9 36.1,43.9 36.1,43.9 36.1,43.9 36.1,43.9 36.1,44 36.1,44 36.1,44 
			36.1,44 36.1,44 36.1,44 36.1,44 36.1,44 36.1,44 36.1,44 36.1,44 36.1,44.1 36.1,44.1 36.1,44.1 36.1,44.1 36.1,44.1 36.1,44.1 
			36.1,44.1 36.1,44.1 36.1,44.1 36.1,44.1 36.1,44.1 36.1,44.1 36.1,44.2 36.1,44.2 36.1,44.2 36.1,44.2 36.1,44.2 36.1,44.2 
			36.1,44.2 36.1,44.2 36.1,44.2 36.1,44.2 36.1,44.2 36.1,44.3 36.1,44.3 36.1,44.3 36.1,44.3 36.1,44.3 36.1,44.3 36.1,44.3 
			36,44.3 36,44.4 36,44.4 36,44.4 36,44.4 36,44.4 36,44.4 36,44.5 36,44.5 36,44.5 36,44.5 36,44.5 36,44.5 36,44.6 36,44.6 
			36,44.6 36,44.6 36,44.6 36,44.6 36,44.7 36,44.7 36,44.7 36,44.7 36,44.7 36,44.7 36,44.8 35.9,44.8 35.9,44.8 35.9,44.8 
			35.9,44.8 35.9,44.8 35.9,44.9 35.9,44.9 35.9,44.9 35.9,44.9 35.9,44.9 35.9,44.9 35.9,45 35.9,45 35.9,45 35.9,45 35.9,45 
			35.9,45 35.9,45.1 35.9,45.1 35.9,45.1 35.9,45.1 35.8,45.1 35.8,45.2 35.8,45.2 35.8,45.2 35.8,45.2 35.8,45.2 35.8,45.3 
			35.8,45.3 35.8,45.3 35.8,45.3 35.8,45.3 35.8,45.4 35.8,45.4 35.8,45.4 35.8,45.4 35.8,45.4 35.8,45.5 35.7,45.5 35.7,45.5 
			35.7,45.5 35.7,45.5 35.7,45.6 35.7,45.6 35.7,45.6 35.7,45.6 35.7,45.6 35.7,45.6 35.7,45.6 35.7,45.6 35.7,45.6 35.7,45.6 
			35.7,45.7 35.7,45.7 35.7,45.7 35.7,45.7 35.7,45.7 35.7,45.7 35.7,45.7 35.7,45.7 35.7,45.7 35.7,45.7 35.7,45.7 35.7,45.8 
			35.7,45.8 35.7,45.8 35.7,45.8 35.6,45.8 35.6,45.8 35.6,45.8 35.6,45.8 35.6,45.8 35.6,45.8 35.6,45.9 35.6,45.9 35.6,45.9 
			35.6,45.9 35.6,45.9 35.6,45.9 35.6,45.9 35.6,45.9 35.6,45.9 35.6,45.9 35.6,46 35.6,46 35.6,46 35.6,46 35.6,46 35.6,46 
			35.6,46 35.6,46 35.6,46 35.6,46 35.6,46.1 35.6,46.1 35.6,46.1 35.5,46.1 35.5,46.1 35.5,46.1 35.5,46.1 35.5,46.1 35.5,46.1 
			35.5,46.1 35.5,46.1 35.5,46.2 35.5,46.2 35.5,46.2 35.5,46.2 35.5,46.2 35.5,46.2 35.5,46.2 35.5,46.2 35.5,46.2 35.5,46.2 
			35.5,46.3 35.5,46.3 35.5,46.3 35.5,46.3 35.5,46.3 35.5,46.3 35.5,46.3 35.5,46.3 35.5,46.3 35.4,46.3 35.4,46.3 35.4,46.4 
			35.4,46.4 35.4,46.4 35.4,46.4 35.4,46.4 35.4,46.4 35.4,46.4 35.4,46.4 35.4,46.4 35.4,46.4 35.4,46.4 35.4,46.4 35.4,46.5 
			35.4,46.5 35.4,46.5 35.4,46.5 35.4,46.5 35.4,46.5 35.4,46.5 35.4,46.5 35.4,46.5 35.4,46.5 35.4,46.5 35.4,46.6 35.3,46.6 
			35.3,46.6 35.3,46.6 35.3,46.6 35.3,46.6 35.3,46.6 35.3,46.6 35.3,46.6 35.3,46.6 35.3,46.6 35.3,46.6 35.3,46.7 35.3,46.7 
			35.3,46.7 35.3,46.7 35.3,46.7 35.3,46.7 35.3,46.7 35.3,46.7 35.3,46.7 35.3,46.7 35.3,46.7 35.3,46.8 35.3,46.8 35.2,46.8 
			35.2,46.8 35.2,46.8 35.2,46.8 35.2,46.8 35.2,46.8 35.2,46.8 35.2,46.8 35.2,46.8 35.2,46.8 35.2,46.9 35.2,46.9 35.2,46.9 
			35.2,46.9 35.2,46.9 35.2,46.9 35.2,46.9 35.2,46.9 35.2,46.9 35.2,46.9 35.2,46.9 35.2,46.9 35.2,47 35.1,47 35.1,47 35.1,47 
			35.1,47 35.1,47 35.1,47 35.1,47 35.1,47 35.1,47 35.1,47 35.1,47 35.1,47.1 35.1,47.1 35.1,47.1 35.1,47.1 35.1,47.1 35.1,47.1 
			35.1,47.1 35.1,47.1 35.1,47.1 35.1,47.1 35,47.1 35,47.1 35,47.2 35,47.2 35,47.2 35,47.2 35,47.2 35,47.2 35,47.2 35,47.2 
			35,47.2 35,47.2 35,47.2 35,47.2 35,47.3 35,47.3 35,47.3 35,47.3 35,47.3 35,47.3 35,47.3 34.9,47.3 34.9,47.3 34.9,47.3 
			34.9,47.3 34.9,47.3 34.9,47.4 34.9,47.4 34.9,47.4 34.9,47.4 34.9,47.4 34.9,47.4 34.9,47.4 34.9,47.4 34.9,47.4 34.9,47.4 
			34.9,47.4 34.9,47.4 34.9,47.4 34.9,47.5 34.9,47.5 34.9,47.5 34.8,47.5 34.8,47.5 34.8,47.5 34.8,47.5 34.8,47.5 34.8,47.5 
			34.8,47.5 34.8,47.5 34.8,47.5 34.8,47.5 34.8,47.5 34.8,47.5 34.8,47.6 34.8,47.6 34.8,47.6 34.8,47.6 34.8,47.6 34.8,47.6 
			34.8,47.6 34.8,47.6 34.8,47.6 34.7,47.6 34.7,47.6 34.7,47.6 34.7,47.6 34.7,47.6 34.7,47.7 34.7,47.7 34.7,47.7 34.7,47.7 
			34.7,47.7 34.7,47.7 34.7,47.7 34.7,47.7 34.7,47.7 34.7,47.7 34.7,47.7 34.7,47.7 34.7,47.7 34.7,47.7 34.7,47.8 34.7,47.8 
			34.6,47.8 34.6,47.8 34.6,47.8 34.6,47.8 34.6,47.8 34.6,47.8 34.6,47.8 34.6,47.8 34.6,47.8 34.6,47.8 34.6,47.8 34.6,47.8 
			34.6,47.8 34.6,47.9 34.6,47.9 34.6,47.9 34.6,47.9 34.6,47.9 34.6,47.9 34.6,47.9 34.5,47.9 34.5,47.9 34.5,47.9 34.5,47.9 
			34.5,47.9 34.5,47.9 34.5,47.9 34.5,47.9 34.5,48 34.5,48 34.5,48 34.5,48 34.5,48 34.5,48 34.5,48 34.5,48 34.5,48 34.5,48 
			34.5,48 34.5,48 34.4,48 34.4,48 34.4,48 34.4,48.1 34.4,48.1 34.4,48.1 34.4,48.1 34.4,48.1 34.4,48.1 34.4,48.1 34.4,48.1 
			34.4,48.1 34.4,48.1 34.4,48.1 34.4,48.1 34.4,48.1 34.4,48.1 34.4,48.1 34.4,48.2 34.3,48.2 34.3,48.2 34.3,48.2 34.3,48.2 
			34.3,48.2 34.3,48.2 34.3,48.2 34.3,48.2 34.3,48.2 34.3,48.2 34.3,48.2 34.3,48.2 34.3,48.2 34.3,48.2 34.3,48.3 34.3,48.3 
			34.3,48.3 34.3,48.3 34.3,48.3 34.2,48.3 34.2,48.3 34.2,48.3 34.2,48.3 34.2,48.3 34.2,48.3 34.2,48.3 34.2,48.3 34.2,48.3 
			34.2,48.3 34.2,48.3 34.2,48.4 34.2,48.4 34.2,48.4 34.2,48.4 34.2,48.4 34.2,48.4 34.2,48.4 34.2,48.4 34.1,48.4 34.1,48.4 
			34.1,48.4 34.1,48.4 34.1,48.4 34.1,48.4 34.1,48.4 34.1,48.5 34.1,48.5 34.1,48.5 34.1,48.5 34.1,48.5 34.1,48.5 34.1,48.5 
			34.1,48.5 34.1,48.5 34.1,48.5 34.1,48.5 34,48.5 34,48.5 34,48.5 34,48.5 34,48.5 34,48.6 34,48.6 34,48.6 34,48.6 34,48.6 
			34,48.6 34,48.6 34,48.6 34,48.6 34,48.6 34,48.6 34,48.6 33.9,48.6 33.9,48.6 33.9,48.6 33.9,48.6 33.9,48.7 33.9,48.7 
			33.9,48.7 33.9,48.7 33.9,48.7 33.9,48.7 33.9,48.7 33.9,48.7 33.9,48.7 33.9,48.7 33.9,48.7 33.9,48.7 33.9,48.7 33.9,48.7 
			33.8,48.7 33.8,48.7 33.8,48.7 33.8,48.8 33.8,48.8 33.8,48.8 33.8,48.8 33.8,48.8 33.8,48.8 33.8,48.8 33.8,48.8 33.8,48.8 
			33.7,48.8 33.7,48.9 33.7,48.9 33.7,48.9 33.7,48.9 33.7,48.9 33.7,48.9 33.7,48.9 33.6,48.9 33.6,49 33.6,49 33.6,49 33.6,49 
			33.6,49 33.6,49 33.6,49 33.6,49 33.5,49 33.5,49.1 33.5,49.1 33.5,49.1 33.5,49.1 33.5,49.1 33.5,49.1 33.5,49.1 33.5,49.1 
			33.5,49.1 33.4,49.1 33.4,49.1 33.4,49.1 33.4,49.2 33.4,49.2 33.4,49.2 33.4,49.2 33.4,49.2 33.4,49.2 33.4,49.2 33.4,49.2 
			33.4,49.2 33.3,49.2 33.3,49.2 33.3,49.2 33.3,49.3 33.3,49.3 33.3,49.3 33.3,49.3 33.3,49.3 33.3,49.3 33.3,49.3 33.3,49.3 
			33.2,49.3 33.2,49.3 33.2,49.3 33.2,49.3 33.2,49.3 33.2,49.4 33.2,49.4 33.2,49.4 33.2,49.4 33.2,49.4 33.2,49.4 33.1,49.4 
			33.1,49.4 33.1,49.4 33.1,49.4 33.1,49.4 33.1,49.4 33.1,49.5 33.1,49.5 33.1,49.5 33.1,49.5 33.1,49.5 33,49.5 33,49.5 33,49.5 
			33,49.5 33,49.5 33,49.5 33,49.5 33,49.5 33,49.6 33,49.6 33,49.6 32.9,49.6 32.9,49.6 32.9,49.6 32.9,49.6 32.9,49.6 32.9,49.6 
			32.9,49.6 32.9,49.6 32.9,49.6 32.9,49.6 32.9,49.6 32.8,49.7 32.8,49.7 32.8,49.7 32.8,49.7 32.8,49.7 32.8,49.7 32.8,49.7 
			32.8,49.7 32.8,49.7 32.8,49.7 32.8,49.7 32.7,49.7 32.7,49.7 32.7,49.8 32.7,49.8 32.7,49.8 32.7,49.8 32.7,49.8 32.7,49.8 
			32.7,49.8 32.7,49.8 32.6,49.8 32.6,49.8 32.6,49.8 32.6,49.8 32.6,49.8 32.6,49.8 32.6,49.9 32.6,49.9 32.6,49.9 32.6,49.9 
			32.6,49.9 32.5,49.9 32.5,49.9 32.5,49.9 32.5,49.9 32.5,49.9 32.5,49.9 32.5,49.9 32.5,49.9 32.5,49.9 32.5,50 32.4,50 32.4,50 
			32.4,50 32.4,50 32.4,50 32.4,50 32.4,50 32.4,50 32.4,50 32.4,50 32.3,50 32.3,50 32.3,50 32.3,50.1 32.3,50.1 32.3,50.1 
			32.3,50.1 32.3,50.1 32.3,50.1 32.3,50.1 32.3,50.1 32.2,50.1 32.2,50.1 32.2,50.1 32.2,50.1 32.2,50.1 32.2,50.1 32.2,50.1 
			32.2,50.2 32.2,50.2 32.2,50.2 32.1,50.2 32.1,50.2 32.1,50.2 32.1,50.2 32.1,50.2 32.1,50.2 32.1,50.2 32.1,50.2 32.1,50.2 
			32.1,50.2 32,50.2 32,50.2 32,50.3 32,50.3 32,50.3 32,50.3 32,50.3 32,50.3 32,50.3 32,50.3 31.9,50.3 31.9,50.3 31.9,50.3 
			31.9,50.3 31.9,50.3 31.9,50.3 31.9,50.3 31.9,50.4 31.9,50.4 31.9,50.4 31.8,50.4 31.8,50.4 31.8,50.4 31.8,50.4 31.8,50.4 
			31.8,50.4 31.8,50.4 31.8,50.4 31.8,50.4 31.8,50.4 31.7,50.4 31.7,50.4 31.7,50.4 31.7,50.5 31.7,50.5 31.7,50.5 31.7,50.5 
			31.7,50.5 31.7,50.5 31.7,50.5 31.6,50.5 31.6,50.5 31.6,50.5 31.6,50.5 31.6,50.5 31.6,50.5 31.6,50.5 31.6,50.5 31.6,50.5 
			31.5,50.6 31.5,50.6 31.5,50.6 31.5,50.6 31.5,50.6 31.5,50.6 31.5,50.6 31.5,50.6 31.5,50.6 31.5,50.6 31.4,50.6 31.4,50.6 
			31.4,50.6 31.4,50.6 31.4,50.6 31.4,50.6 31.4,50.6 31.4,50.7 31.4,50.7 31.4,50.7 31.3,50.7 31.3,50.7 31.3,50.7 31.3,50.7 
			31.3,50.7 31.3,50.7 31.3,50.7 31.3,50.7 31.3,50.7 31.2,50.7 31.2,50.7 31.2,50.7 31.2,50.7 31.2,50.7 31.2,50.8 31.2,50.8 
			31.2,50.8 31.2,50.8 31.2,50.8 31.1,50.8 31.1,50.8 31.1,50.8 31.1,50.8 31.1,50.8 31.1,50.8 31.1,50.8 31.1,50.8 31.1,50.8 
			31,50.8 31,50.8 31,50.8 31,50.9 31,50.9 31,50.9 31,50.9 30.9,50.9 30.9,50.9 30.9,50.9 30.9,50.9 30.9,50.9 30.9,50.9 
			30.9,50.9 30.8,50.9 30.8,50.9 30.8,51 30.8,51 30.8,51 30.8,51 30.7,51 30.7,51 30.7,51 30.7,51 30.7,51 30.7,51 30.7,51 
			30.6,51 30.6,51 30.6,51.1 30.6,51.1 30.6,51.1 30.6,51.1 30.5,51.1 30.5,51.1 30.5,51.1 30.5,51.1 30.5,51.1 30.5,51.1 
			30.5,51.1 30.4,51.1 30.4,51.1 30.4,51.1 30.4,51.2 30.4,51.2 30.4,51.2 30.3,51.2 30.3,51.2 30.3,51.2 30.3,51.2 30.3,51.2 
			30.3,51.2 30.3,51.2 30.2,51.2 30.2,51.2 30.2,51.2 30.2,51.2 30.2,51.2 30.2,51.3 30.1,51.3 30.1,51.3 30.1,51.3 30.1,51.3 
			30.1,51.3 30.1,51.3 30,51.3 29.9,51.3 29.9,51.3 29.9,51.3 29.9,51.3 29.9,51.3 29.8,51.3 29.8,51.2 29.8,51.2 29.8,51.2 
			29.8,51.2 29.7,51.2 29.7,51.2 29.7,51.2 29.7,51.2 29.7,51.2 29.6,51.2 29.6,51.2 29.6,51.2 29.6,51.1 29.6,51.1 29.6,51.1 
			29.5,51.1 29.5,51.1 29.5,51.1 29.5,51.1 29.5,51.1 29.4,51.1 29.4,51.1 29.4,51.1 29.4,51 29.4,51 29.3,51 29.3,51 29.3,51 
			29.3,51 29.3,51 29.3,51 29.2,51 29.2,51 29.2,51 29.2,50.9 29.2,50.9 29.1,50.9 29.1,50.9 29.1,50.9 29.1,50.9 29.1,50.9 
			29.1,50.9 29,50.9 29,50.9 29,50.9 29,50.8 29,50.8 29,50.8 28.9,50.8 28.9,50.8 28.9,50.8 28.9,50.8 28.9,50.8 28.9,50.8 
			28.9,50.8 28.9,50.8 28.9,50.8 28.9,50.8 28.9,50.8 28.8,50.8 28.8,50.8 28.8,50.8 28.8,50.8 28.8,50.8 28.8,50.8 28.8,50.7 
			28.8,50.7 28.8,50.7 28.8,50.7 28.8,50.7 28.7,50.7 28.7,50.7 28.7,50.7 28.7,50.7 28.7,50.7 28.7,50.7 28.7,50.7 28.7,50.7 
			28.7,50.7 28.7,50.7 28.7,50.7 28.6,50.7 28.6,50.7 28.6,50.7 28.6,50.7 28.6,50.6 28.6,50.6 28.6,50.6 28.6,50.6 28.6,50.6 
			28.6,50.6 28.6,50.6 28.5,50.6 28.5,50.6 28.5,50.6 28.5,50.6 28.5,50.6 28.5,50.6 28.5,50.6 28.5,50.6 28.5,50.6 28.5,50.6 
			28.5,50.6 28.5,50.6 28.4,50.5 28.4,50.5 28.4,50.5 28.4,50.5 28.4,50.5 28.4,50.5 28.4,50.5 28.4,50.5 28.4,50.5 28.4,50.5 
			28.4,50.5 28.3,50.5 28.3,50.5 28.3,50.5 28.3,50.5 28.3,50.5 28.3,50.5 28.3,50.5 28.3,50.4 28.3,50.4 28.3,50.4 28.3,50.4 
			28.2,50.4 28.2,50.4 28.2,50.4 28.2,50.4 28.2,50.4 28.2,50.4 28.2,50.4 28.2,50.4 28.2,50.4 28.2,50.4 28.2,50.4 28.2,50.4 
			28.1,50.4 28.1,50.4 28.1,50.4 28.1,50.3 28.1,50.3 28.1,50.3 28.1,50.3 28.1,50.3 28.1,50.3 28.1,50.3 28.1,50.3 28,50.3 
			28,50.3 28,50.3 28,50.3 28,50.3 28,50.3 28,50.3 28,50.3 28,50.3 28,50.2 28,50.2 27.9,50.2 27.9,50.2 27.9,50.2 27.9,50.2 
			27.9,50.2 27.9,50.2 27.9,50.2 27.9,50.2 27.9,50.2 27.9,50.2 27.9,50.2 27.9,50.2 27.8,50.2 27.8,50.2 27.8,50.2 27.8,50.1 
			27.8,50.1 27.8,50.1 27.8,50.1 27.8,50.1 27.8,50.1 27.8,50.1 27.8,50.1 27.8,50.1 27.7,50.1 27.7,50.1 27.7,50.1 27.7,50.1 
			27.7,50.1 27.7,50.1 27.7,50.1 27.7,50.1 27.7,50 27.7,50 27.7,50 27.7,50 27.6,50 27.6,50 27.6,50 27.6,50 27.6,50 27.6,50 
			27.6,50 27.6,50 27.6,50 27.6,50 27.6,50 27.5,50 27.5,50 27.5,49.9 27.5,49.9 27.5,49.9 27.5,49.9 27.5,49.9 27.5,49.9 
			27.5,49.9 27.5,49.9 27.5,49.9 27.5,49.9 27.4,49.9 27.4,49.9 27.4,49.9 27.4,49.9 27.4,49.9 27.4,49.8 27.4,49.8 27.4,49.8 
			27.4,49.8 27.4,49.8 27.4,49.8 27.4,49.8 27.3,49.8 27.3,49.8 27.3,49.8 27.3,49.8 27.3,49.8 27.3,49.8 27.3,49.8 27.3,49.8 
			27.3,49.8 27.3,49.7 27.3,49.7 27.3,49.7 27.2,49.7 27.2,49.7 27.2,49.7 27.2,49.7 27.2,49.7 27.2,49.7 27.2,49.7 27.2,49.7 
			27.2,49.7 27.2,49.7 27.2,49.7 27.2,49.7 27.1,49.6 27.1,49.6 27.1,49.6 27.1,49.6 27.1,49.6 27.1,49.6 27.1,49.6 27.1,49.6 
			27.1,49.6 27.1,49.6 27.1,49.6 27.1,49.6 27,49.6 27,49.6 27,49.6 27,49.5 27,49.5 27,49.5 27,49.5 27,49.5 27,49.5 27,49.5 
			27,49.5 27,49.5 26.9,49.5 26.9,49.5 26.9,49.5 26.9,49.5 26.9,49.5 26.9,49.4 26.9,49.4 26.9,49.4 26.9,49.4 26.9,49.4 
			26.9,49.4 26.9,49.4 26.8,49.4 26.8,49.4 26.8,49.4 26.8,49.4 26.8,49.4 26.8,49.4 26.8,49.4 26.8,49.4 26.8,49.3 26.8,49.3 
			26.8,49.3 26.8,49.3 26.8,49.3 26.7,49.3 26.7,49.3 26.7,49.3 26.7,49.3 26.7,49.3 26.7,49.3 26.7,49.3 26.7,49.3 26.7,49.3 
			26.7,49.2 26.7,49.2 26.7,49.2 26.6,49.2 26.6,49.2 26.6,49.2 26.6,49.2 26.6,49.2 26.6,49.2 26.6,49.2 26.6,49.2 26.6,49.2 
			26.6,49.2 26.6,49.2 26.6,49.1 26.6,49.1 26.5,49.1 26.5,49.1 26.5,49.1 26.5,49.1 26.5,49.1 26.5,49.1 26.5,49.1 26.5,49.1 
			26.5,49.1 26.5,49.1 26.5,49.1 26.5,49 26.5,49 26.4,49 26.4,49 26.4,49 26.4,49 26.4,49 26.4,49 26.4,49 26.4,49 26.4,49 
			26.4,49 26.4,49 26.4,49 26.4,48.9 26.3,48.9 26.3,48.9 26.3,48.9 26.3,48.9 26.3,48.9 26.3,48.9 26.3,48.9 26.3,48.9 26.3,48.9 
			26.3,48.9 26.3,48.9 26.3,48.9 26.3,48.8 26.3,48.8 26.2,48.8 26.2,48.8 26.2,48.8 26.2,48.8 26.2,48.8 26.2,48.8 26.2,48.8 
			26.2,48.8 26.2,48.8 26.2,48.8 26.2,48.8 26.2,48.7 26.2,48.7 26.1,48.7 26.1,48.7 26.1,48.7 26.1,48.7 26.1,48.7 26.1,48.7 
			26.1,48.7 26.1,48.7 26.1,48.7 26.1,48.7 26.1,48.7 26.1,48.6 26.1,48.6 26.1,48.6 26,48.6 26,48.6 26,48.6 26,48.6 26,48.6 
			26,48.6 26,48.6 26,48.6 26,48.6 26,48.6 26,48.5 26,48.5 26,48.5 26,48.5 25.9,48.5 25.9,48.5 25.9,48.5 25.9,48.5 25.9,48.5 
			25.9,48.5 25.9,48.5 25.9,48.5 25.9,48.4 25.9,48.4 25.9,48.4 25.9,48.4 25.9,48.4 25.9,48.4 25.8,48.4 25.8,48.4 25.8,48.4 
			25.8,48.4 25.8,48.4 25.8,48.4 25.8,48.3 25.8,48.3 25.8,48.3 25.8,48.3 25.8,48.3 25.8,48.3 25.8,48.3 25.8,48.3 25.8,48.3 
			25.7,48.3 25.7,48.3 25.7,48.3 25.7,48.3 25.7,48.2 25.7,48.2 25.7,48.2 25.7,48.2 25.7,48.2 25.7,48.2 25.7,48.2 25.7,48.2 
			25.7,48.2 25.7,48.2 25.7,48.2 25.6,48.2 25.6,48.1 25.5,47.9 25.7,47.9 25.8,47.9 25.8,47.9 25.8,47.9 25.8,47.9 25.9,47.9 
			25.9,47.9 25.9,47.8 25.9,47.8 25.9,47.8 26,47.8 26,47.8 26,47.8 26,47.8 26.1,47.8 26.1,47.8 26.1,47.8 26.1,47.8 26.1,47.8 
			26.2,47.8 26.2,47.8 26.2,47.8 26.2,47.8 26.3,47.8 26.3,47.8 26.3,47.8 26.3,47.8 26.3,47.8 26.3,47.8 26.3,47.8 26.3,47.8 
			26.4,47.8 26.4,47.8 26.4,47.8 26.4,47.8 26.4,47.8 26.4,47.8 26.4,47.7 26.4,47.7 26.4,47.7 26.5,47.7 26.5,47.7 26.5,47.7 
			26.5,47.7 26.5,47.7 26.5,47.7 26.5,47.7 26.5,47.7 26.5,47.7 26.6,47.7 26.6,47.7 26.6,47.7 26.6,47.7 26.6,47.7 26.6,47.7 
			26.6,47.7 26.6,47.7 26.6,47.7 26.7,47.7 26.7,47.7 26.7,47.7 26.7,47.7 26.7,47.7 26.7,47.7 26.7,47.7 26.7,47.7 26.7,47.7 
			26.8,47.7 26.8,47.7 26.8,47.7 26.8,47.7 26.8,47.7 26.8,47.7 26.8,47.7 26.8,47.7 26.8,47.7 26.9,47.7 26.9,47.6 26.9,47.6 
			26.9,47.6 26.9,47.6 26.9,47.6 26.9,47.6 26.9,47.6 26.9,47.6 27,47.6 27,47.6 27,47.6 27,47.6 27,47.6 27,47.6 27,47.6 27,47.6 
			27,47.6 27,47.6 27.1,47.6 27.1,47.6 27.1,47.6 27.1,47.6 27.1,47.6 27.1,47.6 27.1,47.6 27.1,47.6 27.1,47.6 27.2,47.6 
			27.2,47.6 27.2,47.6 27.2,47.6 27.2,47.6 27.3,47.5 27.3,47.5 27.3,47.5 27.3,47.5 27.3,47.5 27.3,47.5 27.3,47.5 27.4,47.5 
			27.4,47.5 27.4,47.5 27.4,47.5 27.4,47.5 27.4,47.5 27.4,47.5 27.4,47.5 27.4,47.5 27.4,47.5 27.4,47.5 27.5,47.5 27.5,47.5 
			27.5,47.5 27.5,47.5 27.5,47.5 27.5,47.5 27.5,47.5 27.5,47.5 27.5,47.5 27.5,47.5 27.5,47.5 27.6,47.5 27.6,47.5 27.6,47.4 
			27.6,47.4 27.6,47.4 27.6,47.4 27.6,47.4 27.6,47.4 27.6,47.4 27.6,47.4 27.6,47.4 27.7,47.4 27.7,47.4 27.7,47.4 27.7,47.4 
			27.7,47.4 27.7,47.4 27.7,47.4 27.7,47.4 27.7,47.4 27.7,47.4 27.7,47.4 27.8,47.4 27.8,47.4 27.8,47.4 27.8,47.4 27.8,47.4 
			27.8,47.4 27.8,47.4 27.8,47.4 27.8,47.4 27.8,47.4 27.8,47.4 27.9,47.4 27.9,47.4 27.9,47.3 27.9,47.3 27.9,47.3 27.9,47.3 
			27.9,47.3 27.9,47.3 27.9,47.3 27.9,47.3 27.9,47.3 28,47.3 28,47.3 28,47.3 28,47.3 28,47.3 28,47.3 28,47.3 28,47.3 28,47.3 
			28,47.3 28,47.3 28.1,47.3 28.1,47.3 28.1,47.3 28.1,47.3 28.1,47.3 28.1,47.3 28.1,47.3 28.1,47.3 28.1,47.3 28.1,47.3 
			28.1,47.2 28.1,47.2 28.2,47.2 28.2,47.2 28.2,47.2 28.2,47.2 28.2,47.2 28.2,47.2 28.2,47.2 28.2,47.2 28.2,47.2 28.2,47.2 
			28.2,47.2 28.3,47.2 28.3,47.2 28.3,47.2 28.3,47.2 28.3,47.2 28.3,47.2 28.3,47.2 28.3,47.2 28.3,47.2 28.3,47.2 28.3,47.2 
			28.4,47.2 28.4,47.2 28.4,47.2 28.4,47.2 28.4,47.1 28.4,47.1 28.4,47.1 28.4,47.1 28.4,47.1 28.4,47.1 28.4,47.1 28.4,47.1 
			28.5,47.1 28.5,47.1 28.5,47.1 28.5,47.1 28.5,47.1 28.5,47.1 28.5,47.1 28.5,47.1 28.5,47.1 28.5,47.1 28.5,47.1 28.6,47.1 
			28.6,47.1 28.6,47.1 28.6,47.1 28.6,47.1 28.6,47.1 28.6,47.1 28.6,47 28.6,47 28.6,47 28.6,47 28.6,47 28.7,47 28.7,47 28.7,47 
			28.7,47 28.7,47 28.7,47 28.7,47 28.7,47 28.7,47 28.7,47 28.7,47 28.8,47 28.8,47 28.8,47 28.8,47 28.8,47 28.8,47 28.8,47 
			28.8,47 28.8,46.9 28.8,46.9 28.8,46.9 28.8,46.9 28.9,46.9 28.9,46.9 28.9,46.9 28.9,46.9 28.9,46.9 28.9,46.9 28.9,46.9 
			28.9,46.9 28.9,46.9 28.9,46.9 28.9,46.9 28.9,46.9 29,46.9 29,46.9 29,46.9 29,46.9 29,46.9 29,46.9 29,46.9 29,46.8 29,46.8 
			29,46.8 29,46.8 29,46.8 29.1,46.8 29.1,46.8 29.1,46.8 29.1,46.8 29.1,46.8 29.1,46.8 29.1,46.8 29.1,46.8 29.1,46.8 29.1,46.8 
			29.1,46.8 29.1,46.8 29.2,46.8 29.2,46.8 29.2,46.8 29.2,46.8 29.2,46.8 29.2,46.7 29.2,46.7 29.2,46.7 29.2,46.7 29.2,46.7 
			29.2,46.7 29.2,46.7 29.3,46.7 29.3,46.7 29.3,46.7 29.3,46.7 29.3,46.7 29.3,46.7 29.3,46.7 29.3,46.7 29.3,46.7 29.3,46.7 
			29.3,46.7 29.3,46.7 29.4,46.7 29.4,46.6 29.4,46.6 29.4,46.6 29.4,46.6 29.4,46.6 29.4,46.6 29.4,46.6 29.4,46.6 29.4,46.6 
			29.4,46.6 29.4,46.6 29.4,46.6 29.5,46.6 29.5,46.6 29.5,46.6 29.5,46.6 29.5,46.6 29.5,46.6 29.5,46.6 29.5,46.6 29.5,46.6 
			29.5,46.6 29.5,46.5 29.5,46.5 29.5,46.5 29.5,46.5 29.5,46.5 29.6,46.5 29.6,46.5 29.6,46.5 29.6,46.5 29.6,46.5 29.6,46.5 
			29.6,46.5 29.6,46.5 29.6,46.5 29.6,46.5 29.6,46.5 29.6,46.5 29.6,46.5 29.6,46.5 29.6,46.5 29.7,46.5 29.7,46.5 29.7,46.5 
			29.7,46.4 29.7,46.4 29.7,46.4 29.7,46.4 29.7,46.4 29.7,46.4 29.7,46.4 29.7,46.4 29.7,46.4 29.7,46.4 29.7,46.4 29.7,46.4 
			29.8,46.4 29.8,46.4 29.8,46.4 29.8,46.4 29.8,46.4 29.8,46.4 29.8,46.4 29.8,46.4 29.8,46.4 29.8,46.3 29.8,46.3 29.8,46.3 
			29.8,46.3 29.8,46.3 29.8,46.3 29.8,46.3 29.9,46.3 29.9,46.3 29.9,46.3 29.9,46.3 29.9,46.3 29.9,46.3 29.9,46.3 29.9,46.3 
			29.9,46.3 29.9,46.3 29.9,46.3 29.9,46.3 29.9,46.3 29.9,46.3 29.9,46.2 30,46.2 30,46.2 30,46.2 30,46.2 30,46.2 30,46.2 
			30,46.2 30,46.2 30,46.2 30,46.2 30,46.2 30,46.2 30,46.2 30,46.2 30,46.2 30,46.2 30.1,46.2 30.1,46.2 30.1,46.1 30.1,46.1 
			30.1,46.1 30.1,46.1 30.1,46.1 30.1,46.1 30.1,46.1 30.1,46.1 30.1,46.1 30.1,46.1 30.1,46.1 30.1,46.1 30.1,46.1 30.1,46.1 
			30.2,46.1 30.2,46.1 30.2,46.1 30.2,46.1 30.2,46.1 30.2,46.1 30.2,46 30.2,46 30.2,46 30.2,46 30.2,46 30.2,46 30.2,46 30.2,46 
			30.2,46 30.2,46 30.2,46 30.3,46 30.3,46 30.3,46 30.3,46 30.3,46 30.3,46 30.3,46 30.3,46 30.3,46 30.3,46 30.3,46 30.3,46 
			30.3,45.9 30.3,45.9 30.3,45.9 30.3,45.9 30.3,45.9 30.3,45.9 30.3,45.9 30.3,45.9 30.3,45.9 30.3,45.9 30.3,45.9 30.4,45.9 
			30.4,45.9 30.4,45.9 30.4,45.9 30.4,45.9 30.4,45.9 30.4,45.9 30.4,45.9 30.4,45.9 30.4,45.9 30.4,45.9 30.4,45.9 30.4,45.9 
			30.4,45.9 30.4,45.8 30.4,45.8 30.4,45.8 30.4,45.8 30.4,45.8 30.4,45.8 30.4,45.8 30.4,45.8 30.4,45.8 30.5,45.8 30.5,45.8 
			30.5,45.8 30.5,45.8 30.5,45.8 30.5,45.8 30.5,45.8 30.5,45.8 30.5,45.8 30.5,45.8 30.5,45.8 30.5,45.8 30.5,45.8 30.5,45.8 
			30.5,45.8 30.5,45.7 30.5,45.7 30.5,45.7 30.5,45.7 30.5,45.7 30.5,45.7 30.5,45.7 30.5,45.7 30.5,45.7 30.6,45.7 30.6,45.7 
			30.6,45.7 30.6,45.7 30.6,45.7 30.6,45.7 30.6,45.7 30.6,45.7 30.6,45.7 30.6,45.7 30.6,45.7 30.6,45.7 30.6,45.7 30.6,45.7 
			30.6,45.7 30.6,45.6 30.6,45.6 30.6,45.6 30.6,45.6 30.6,45.6 30.6,45.6 30.6,45.6 30.6,45.6 30.6,45.6 30.6,45.6 30.7,45.6 
			30.7,45.6 30.7,45.6 30.7,45.6 30.7,45.6 30.7,45.6 30.7,45.6 30.7,45.6 30.7,45.6 30.7,45.6 30.7,45.6 30.7,45.6 30.7,45.6 
			30.7,45.5 30.7,45.5 30.7,45.5 30.7,45.5 30.7,45.5 30.7,45.5 30.7,45.5 30.7,45.5 30.7,45.5 30.7,45.5 30.7,45.5 30.7,45.5 
			30.8,45.5 30.8,45.5 30.8,45.5 30.8,45.5 30.8,45.5 30.8,45.5 30.8,45.5 30.8,45.5 30.8,45.5 30.8,45.5 30.8,45.5 30.8,45.5 
			30.8,45.4 30.8,45.4 30.8,45.4 30.8,45.4 30.8,45.4 30.8,45.4 30.8,45.4 30.8,45.4 30.8,45.4 30.8,45.4 30.8,45.4 30.8,45.4 
			30.8,45.4 30.8,45.4 30.8,45.4 30.8,45.4 30.8,45.4 30.8,45.4 30.8,45.4 30.8,45.4 30.8,45.4 30.8,45.4 30.9,45.4 30.9,45.4 
			30.9,45.4 30.9,45.4 30.9,45.4 30.9,45.4 30.9,45.4 30.9,45.4 30.9,45.4 30.9,45.3 30.9,45.3 30.9,45.3 30.9,45.3 30.9,45.3 
			30.9,45.3 30.9,45.3 30.9,45.3 30.9,45.3 30.9,45.3 30.9,45.3 30.9,45.3 30.9,45.3 30.9,45.3 30.9,45.3 30.9,45.3 30.9,45.3 
			30.9,45.3 30.9,45.3 30.9,45.3 30.9,45.3 30.9,45.3 30.9,45.3 30.9,45.3 30.9,45.3 30.9,45.3 30.9,45.3 30.9,45.3 30.9,45.3 
			31,45.2 31,45.2 31,45.2 31,45.2 31,45.2 31,45.2 31,45.2 31,45.2 31,45.2 31,45.2 31,45.2 31,45.2 31,45.2 31,45.2 31,45.2 
			31,45.2 31,45.2 31,45.2 31,45.2 31,45.2 31,45.2 31,45.2 31,45.2 31,45.2 31,45.2 31,45.2 31,45.2 31,45.2 31,45.2 31,45.1 
			31,45.1 31,45.1 31,45.1 31,45.1 31,45.1 31,45.1 31,45.1 31,45.1 31,45.1 31,45.1 31,45.1 31.1,45.1 31.1,45.1 31.1,45.1 
			31.1,45.1 31.1,45.1 31.1,45.1 31.1,45.1 31.1,45.1 31.1,45.1 31.1,45.1 31.1,45.1 31.1,45.1 31.1,45.1 31.1,45.1 31.1,45.1 
			31.1,45.1 31.1,45 31.1,45 31.1,45 31.1,45 31.1,45 31.1,45 31.1,45 31.1,45 31.1,45 31.1,45 31.1,45 31.1,45 31.1,45 31.1,45 
			31.1,45 31.1,45 31.1,45 31.1,45 31.1,45 31.1,45 31.1,45 31.1,45 31.1,45 31.1,45 31.1,45 31.1,45 31.1,45 31.1,45 31.1,45 
			31.1,45 31.1,44.9 31.2,44.9 31.2,44.9 31.2,44.9 31.2,44.9 31.2,44.9 31.2,44.9 31.2,44.9 31.2,44.9 31.2,44.9 31.2,44.9 
			31.2,44.9 31.2,44.9 31.2,44.9 31.2,44.9 31.2,44.9 31.2,44.9 31.2,44.9 31.2,44.9 31.2,44.9 31.2,44.9 31.2,44.9 31.2,44.9 
			31.2,44.9 31.2,44.9 31.2,44.9 31.2,44.9 31.2,44.9 31.2,44.9 31.2,44.9 31.2,44.9 31.2,44.9 31.2,44.9 31.2,44.9 31.2,44.9 
			31.2,44.9 31.2,44.9 31.2,44.9 31.2,44.8 31.2,44.8 31.2,44.8 31.2,44.8 31.2,44.8 31.2,44.8 31.2,44.8 31.2,44.8 31.2,44.8 
			31.2,44.8 31.2,44.8 31.2,44.8 31.2,44.8 31.2,44.8 31.2,44.8 31.2,44.8 31.2,44.8 31.2,44.8 31.2,44.8 31.2,44.8 31.3,44.8 
			31.3,44.7 31.3,44.7 31.3,44.7 31.3,44.7 31.3,44.7 31.3,44.7 31.3,44.7 31.3,44.7 31.3,44.7 31.3,44.7 31.3,44.7 31.3,44.7 
			31.3,44.7 31.3,44.7 31.3,44.7 31.3,44.7 31.3,44.7 31.3,44.7 31.3,44.7 31.3,44.7 31.3,44.6 31.3,44.6 31.3,44.6 31.3,44.6 
			31.3,44.6 31.3,44.6 31.3,44.6 31.3,44.6 31.3,44.6 31.3,44.6 31.3,44.6 31.3,44.6 31.3,44.6 31.3,44.6 31.3,44.6 31.3,44.6 
			31.3,44.6 31.3,44.6 31.3,44.6 31.3,44.5 31.3,44.5 31.3,44.5 31.4,44.5 31.4,44.5 31.4,44.5 31.4,44.5 31.4,44.5 31.4,44.5 
			31.4,44.5 31.4,44.5 31.4,44.5 31.4,44.5 31.4,44.5 31.4,44.5 31.4,44.5 31.4,44.5 31.4,44.5 31.4,44.4 31.4,44.4 31.4,44.4 
			31.4,44.4 31.4,44.4 31.4,44.4 31.4,44.4 31.4,44.4 31.4,44.4 31.4,44.4 31.4,44.4 31.4,44.4 31.4,44.4 31.4,44.4 31.4,44.4 
			31.4,44.4 31.4,44.4 31.4,44.4 31.4,44.3 31.4,44.3 31.4,44.3 31.4,44.3 31.4,44.3 31.4,44.3 31.4,44.3 31.4,44.3 31.4,44.3 
			31.4,44.3 31.4,44.3 31.4,44.3 31.4,44.3 31.4,44.3 31.4,44.3 31.4,44.3 31.4,44.3 31.5,44.3 31.5,44.2 31.5,44.2 31.5,44.2 
			31.5,44.2 31.5,44.2 31.5,44.2 31.5,44.2 31.5,44.2 31.5,44.2 31.5,44.2 31.5,44.2 31.5,44.2 31.5,44.2 31.5,44.2 31.5,44.2 
			31.5,44.2 31.5,44.2 31.5,44.1 31.5,44.1 31.5,44.1 31.5,44.1 31.5,44.1 31.5,44.1 31.5,44.1 31.5,44.1 31.5,44.1 31.5,44.1 
			31.5,44.1 31.5,44.1 31.5,44.1 31.5,44.1 31.5,44.1 31.5,44 31.5,44 31.5,44 31.5,44 31.5,44 31.5,44 31.5,44 31.5,44 31.5,44 
			31.5,44 31.5,44 31.5,43.9 31.5,43.9 31.5,43.9 31.6,43.9 31.6,43.9 31.6,43.9 31.6,43.9 31.6,43.9 31.6,43.8 31.6,43.8 
			31.6,43.8 31.6,43.8 31.6,43.8 31.6,43.8 31.6,43.8 31.6,43.8 31.6,43.7 31.6,43.7 31.6,43.7 31.6,43.7 31.6,43.7 31.6,43.7 
			31.6,43.7 31.6,43.7 31.6,43.6 31.6,43.6 31.6,43.6 31.6,43.6 31.6,43.6 31.6,43.6 31.6,43.6 31.6,43.6 31.6,43.5 31.6,43.5 
			31.6,43.5 31.6,43.5 31.7,43.5 31.7,43.5 31.7,43.5 31.7,43.5 31.7,43.4 31.7,43.4 31.7,43.4 31.7,43.4 31.7,43.4 31.7,43.4 
			31.7,43.4 31.7,43.4 31.7,43.3 31.7,43.3 31.7,43.3 31.7,43.3 31.7,43.3 31.7,43.3 31.7,43.3 31.7,43.3 31.7,43.2 31.7,43.2 
			31.7,43.2 31.7,43.2 31.7,43.2 31.7,43.2 31.7,43.2 31.7,43.1 31.7,43.1 31.7,43.1 31.7,43.1 31.7,43.1 31.7,43.1 31.7,43.1 
			31.7,43.1 31.7,43.1 31.7,43.1 31.7,43.1 31.7,43.1 31.7,43.1 31.7,43.1 31.7,43 31.7,43 31.7,43 31.7,43 31.7,43 31.7,43 
			31.7,43 31.7,43 31.7,43 31.7,43 31.7,43 31.7,43 31.7,43 31.7,43 31.7,42.9 31.8,42.9 31.8,42.9 31.8,42.9 31.8,42.9 31.8,42.9 
			31.8,42.9 31.8,42.9 31.8,42.9 31.8,42.9 31.8,42.9 31.8,42.9 31.8,42.9 31.8,42.9 31.8,42.8 31.8,42.8 31.8,42.8 31.8,42.8 
			31.8,42.8 31.8,42.8 31.8,42.8 31.8,42.8 31.8,42.8 31.8,42.8 31.8,42.8 31.8,42.8 31.8,42.8 31.8,42.7 31.8,42.7 31.8,42.7 
			31.8,42.7 31.8,42.7 31.8,42.7 31.8,42.7 31.8,42.7 31.8,42.7 31.8,42.7 31.8,42.6 31.8,42.6 31.8,42.6 31.8,42.6 31.8,42.6 
			31.8,42.6 31.8,42.6 31.8,42.6 31.8,42.6 31.8,42.5 31.8,42.5 31.8,42.5 31.8,42.5 31.8,42.5 31.8,42.5 31.8,42.5 31.8,42.5 
			31.8,42.5 31.8,42.4 31.8,42.4 31.8,42.4 31.8,42.4 31.8,42.4 31.8,42.4 31.8,42.4 31.8,42.3 31.8,42.3 31.8,42.3 31.8,42.3 
			31.8,42.2 31.8,42.2 31.8,42.2 31.8,42.1 31.8,42 31.8,41.8 31.8,41.7 31.8,41.7 31.9,41.6 31.9,41.5 31.9,41.5 31.9,41.4 
			31.9,41.4 31.9,41.3 31.9,41.2 31.9,41.2 31.9,41.1 31.9,41.1 31.9,41 31.9,41 31.9,41 31.9,40.9 31.9,40.9 31.9,40.9 31.9,40.9 
			31.9,40.8 31.9,40.8 31.9,40.8 31.9,40.8 31.9,40.7 31.9,40.7 31.9,40.7 31.9,40.6 31.9,40.6 31.9,40.6 31.9,40.6 31.9,40.5 
			31.9,40.5 31.9,40.5 31.9,40.5 31.9,40.4 31.9,40.4 31.9,40.4 31.9,40.4 31.9,40.3 31.9,40.3 31.9,40.3 31.9,40.3 31.9,40.3 
			31.9,40.3 31.9,40.3 31.9,29.5 31.9,25.4 31.9,21.3 31.9,21.1 32,21.1 44.6,21.1 44.6,21.3 44.6,21.5 44.6,21.8 44.6,22 
			44.6,22.3 44.6,22.5 44.6,22.8 44.6,23.1 44.6,23.3 44.6,23.6 44.6,23.8 44.6,24.1 44.6,24.4 44.6,24.6 44.6,24.9 44.6,25.4 
			44.6,25.6 36.4,25.6 		"/>
		<path class="st2" d="M31.2,44.9"/>
		<path class="st2" d="M31.2,44.9"/>
		<path class="st2" d="M31.1,45"/>
		<path class="st2" d="M31.1,45"/>
		<path class="st2" d="M31.1,45"/>
		<path class="st2" d="M31.1,45"/>
		<path class="st2" d="M31.1,45"/>
		<path class="st2" d="M31.1,45"/>
		<path class="st2" d="M31.1,45"/>
		<path class="st2" d="M31.1,45"/>
		<path class="st2" d="M31.1,45"/>
		<polygon class="st0" points="40.2,29.4 44.6,29.4 44.6,40.3 44.6,40.3 44.6,40.3 44.6,40.4 44.6,40.4 44.6,40.4 44.6,40.5 
			44.6,40.5 44.6,40.5 44.6,40.6 44.6,40.6 44.6,40.7 44.6,40.7 44.6,40.7 44.6,40.8 44.6,40.8 44.6,40.8 44.6,40.9 44.6,40.9 
			44.6,41 44.6,41 44.6,41 44.6,41.1 44.6,41.1 44.6,41.2 44.6,41.2 44.6,41.2 44.6,41.3 44.6,41.3 44.6,41.4 44.6,41.4 44.6,41.5 
			44.6,41.5 44.6,41.5 44.6,41.6 44.6,41.6 44.6,41.7 44.6,41.7 44.6,41.8 44.6,41.8 44.6,41.8 44.6,41.9 44.6,41.9 44.6,42 
			44.6,42 44.6,42.1 44.6,42.1 44.6,42.2 44.6,42.2 44.6,42.2 44.6,42.3 44.6,42.3 44.6,42.4 44.6,42.4 44.6,42.5 44.6,42.5 
			44.6,42.6 44.6,42.6 44.6,42.6 44.6,42.7 44.6,42.7 44.6,42.8 44.5,42.8 44.5,42.9 44.5,42.9 44.5,43 44.5,43 44.5,43.1 
			44.5,43.1 44.5,43.1 44.5,43.2 44.5,43.2 44.5,43.3 44.5,43.3 44.5,43.4 44.5,43.4 44.5,43.5 44.5,43.5 44.5,43.5 44.5,43.6 
			44.5,43.6 44.5,43.7 44.5,43.7 44.5,43.8 44.5,43.8 44.5,43.9 44.5,43.9 44.5,43.9 44.5,44 44.4,44 44.4,44.1 44.4,44.1 
			44.4,44.2 44.4,44.2 44.4,44.2 44.4,44.3 44.4,44.3 44.4,44.4 44.4,44.4 44.4,44.4 44.4,44.4 44.4,44.5 44.4,44.5 44.4,44.5 
			44.4,44.5 44.4,44.5 44.4,44.6 44.4,44.6 44.4,44.6 44.4,44.6 44.4,44.6 44.4,44.7 44.4,44.7 44.4,44.7 44.4,44.7 44.4,44.7 
			44.4,44.8 44.4,44.8 44.4,44.8 44.4,44.8 44.4,44.8 44.4,44.9 44.3,44.9 44.3,44.9 44.3,44.9 44.3,44.9 44.3,45 44.3,45 44.3,45 
			44.3,45 44.3,45 44.3,45.1 44.3,45.1 44.3,45.1 44.3,45.1 44.3,45.1 44.3,45.1 44.3,45.2 44.3,45.2 44.3,45.2 44.3,45.2 
			44.3,45.2 44.3,45.3 44.3,45.3 44.3,45.3 44.3,45.3 44.3,45.3 44.3,45.3 44.3,45.4 44.3,45.4 44.3,45.4 44.3,45.4 44.3,45.4 
			44.3,45.4 44.3,45.5 44.3,45.5 44.2,45.5 44.2,45.5 44.2,45.5 44.2,45.5 44.2,45.6 44.2,45.6 44.2,45.6 44.2,45.7 44.2,45.7 
			44.2,45.7 44.2,45.7 44.2,45.8 44.2,45.8 44.2,45.8 44.2,45.9 44.2,45.9 44.2,45.9 44.2,45.9 44.2,46 44.1,46 44.1,46 44.1,46.1 
			44.1,46.1 44.1,46.1 44.1,46.1 44.1,46.2 44.1,46.2 44.1,46.2 44.1,46.2 44.1,46.3 44.1,46.3 44.1,46.3 44.1,46.4 44.1,46.4 
			44.1,46.4 44,46.4 44,46.5 44,46.5 44,46.5 44,46.6 44,46.6 44,46.6 44,46.6 44,46.7 44,46.7 44,46.7 44,46.8 44,46.8 44,46.8 
			44,46.8 43.9,46.9 43.9,46.9 43.9,46.9 43.9,46.9 43.9,47 43.9,47 43.9,47 43.9,47.1 43.9,47.1 43.9,47.1 43.9,47.1 43.9,47.2 
			43.9,47.2 43.9,47.2 43.8,47.3 43.8,47.3 43.8,47.3 43.8,47.3 43.8,47.4 43.8,47.4 43.8,47.4 43.8,47.4 43.8,47.5 43.8,47.5 
			43.8,47.5 43.8,47.6 43.8,47.6 43.7,47.6 43.7,47.6 43.7,47.7 43.7,47.7 43.7,47.7 43.7,47.7 43.7,47.8 43.7,47.8 43.7,47.8 
			43.7,47.9 43.7,47.9 43.7,47.9 43.6,47.9 43.6,48 43.6,48 43.6,48 43.6,48 43.6,48.1 43.6,48.1 43.6,48.1 43.6,48.2 43.6,48.2 
			43.6,48.2 43.6,48.2 43.5,48.3 43.5,48.3 43.5,48.3 43.5,48.3 43.5,48.4 43.5,48.4 43.5,48.4 43.5,48.5 43.5,48.5 43.5,48.5 
			43.5,48.5 43.4,48.6 43.4,48.6 43.4,48.6 43.4,48.6 43.4,48.7 43.4,48.7 43.4,48.7 43.4,48.8 43.4,48.8 43.4,48.8 43.3,48.8 
			43.3,48.9 43.3,48.9 43.3,48.9 43.3,48.9 43.3,49 43.3,49 43.3,49 43.3,49 43.3,49.1 43.3,49.1 43.2,49.1 43.2,49.1 43.2,49.1 
			43.2,49.2 43.2,49.2 43.2,49.2 43.2,49.2 43.2,49.2 43.2,49.2 43.2,49.3 43.2,49.3 43.2,49.3 43.2,49.3 43.2,49.3 43.1,49.4 
			43.1,49.4 43.1,49.4 43.1,49.4 43.1,49.4 43.1,49.5 43.1,49.5 43.1,49.5 43.1,49.5 43.1,49.5 43.1,49.5 43.1,49.6 43.1,49.6 
			43,49.6 43,49.6 43,49.6 43,49.7 43,49.7 43,49.7 43,49.7 43,49.7 43,49.7 43,49.8 43,49.8 43,49.8 42.9,49.8 42.9,49.8 
			42.9,49.9 42.9,49.9 42.9,49.9 42.9,49.9 42.9,49.9 42.9,50 42.9,50 42.9,50 42.9,50 42.9,50 42.8,50 42.8,50.1 42.8,50.1 
			42.8,50.1 42.8,50.1 42.8,50.1 42.8,50.2 42.8,50.2 42.8,50.2 42.8,50.2 42.8,50.2 42.8,50.2 42.7,50.3 42.7,50.3 42.7,50.3 
			42.7,50.3 42.7,50.3 42.7,50.4 42.7,50.4 42.7,50.4 42.7,50.4 42.7,50.4 42.7,50.4 42.6,50.5 42.6,50.5 42.6,50.5 42.6,50.5 
			42.6,50.5 42.6,50.6 42.6,50.6 42.6,50.6 42.6,50.6 42.6,50.6 42.6,50.6 42.5,50.7 42.5,50.7 42.5,50.7 42.5,50.7 42.5,50.7 
			42.5,50.8 42.5,50.8 42.5,50.8 42.5,50.8 42.5,50.8 42.5,50.8 42.4,50.9 42.4,50.9 42.4,50.9 42.4,50.9 42.4,50.9 42.4,50.9 
			42.4,51 42.4,51 42.4,51 42.4,51 42.3,51 42.3,51.1 42.3,51.1 42.3,51.1 42.3,51.1 42.3,51.1 42.3,51.1 42.3,51.2 42.3,51.2 
			42.3,51.2 42.2,51.2 42.2,51.2 42.2,51.2 42.2,51.3 42.2,51.3 42.2,51.3 42.2,51.3 42.2,51.3 42.2,51.4 42.2,51.4 42.1,51.4 
			42.1,51.4 42.1,51.4 42.1,51.4 42.1,51.4 42.1,51.5 42.1,51.5 42.1,51.5 42.1,51.5 42.1,51.5 42.1,51.5 42.1,51.5 42,51.6 
			42,51.6 42,51.6 42,51.6 42,51.6 42,51.6 42,51.6 42,51.7 42,51.7 42,51.7 42,51.7 41.9,51.7 41.9,51.7 41.9,51.7 41.9,51.8 
			41.9,51.8 41.9,51.8 41.9,51.8 41.9,51.8 41.9,51.8 41.9,51.8 41.9,51.9 41.9,51.9 41.8,51.9 41.8,51.9 41.8,51.9 41.8,51.9 
			41.8,51.9 41.8,51.9 41.8,52 41.8,52 41.8,52 41.8,52 41.8,52 41.7,52 41.7,52 41.7,52.1 41.7,52.1 41.7,52.1 41.7,52.1 
			41.7,52.1 41.7,52.1 41.7,52.1 41.7,52.2 41.7,52.2 41.6,52.2 41.6,52.2 41.6,52.2 41.6,52.2 41.6,52.2 41.6,52.2 41.6,52.3 
			41.6,52.3 41.6,52.3 41.6,52.3 41.6,52.3 41.5,52.3 41.5,52.3 41.5,52.4 41.5,52.4 41.5,52.4 41.5,52.4 41.5,52.4 41.5,52.4 
			41.5,52.4 41.5,52.5 41.5,52.5 41.4,52.5 41.4,52.5 41.4,52.5 41.4,52.5 41.4,52.5 41.4,52.5 41.4,52.6 41.4,52.6 41.4,52.6 
			41.4,52.6 41.4,52.6 41.3,52.6 41.3,52.6 41.3,52.6 41.3,52.7 41.3,52.7 41.3,52.7 41.3,52.7 41.3,52.7 41.3,52.7 41.3,52.7 
			41.2,52.8 41.2,52.8 41.2,52.8 41.2,52.8 41.2,52.8 41.2,52.8 41.2,52.8 41.2,52.8 41.2,52.9 41.2,52.9 41.1,52.9 41.1,52.9 
			41.1,52.9 41.1,52.9 41.1,52.9 41.1,53 41.1,53 41.1,53 41.1,53 41.1,53 41,53 41,53 41,53 41,53.1 41,53.1 41,53.1 41,53.1 
			41,53.1 41,53.1 41,53.1 40.9,53.1 40.9,53.2 40.9,53.2 40.9,53.2 40.9,53.2 40.9,53.2 40.9,53.2 40.9,53.2 40.9,53.2 40.9,53.3 
			40.8,53.3 40.8,53.3 40.8,53.3 40.8,53.3 40.8,53.3 40.8,53.3 40.8,53.4 40.8,53.4 40.8,53.4 40.8,53.4 40.7,53.4 40.7,53.4 
			40.7,53.4 40.7,53.4 40.7,53.5 40.7,53.5 40.7,53.5 40.7,53.5 40.7,53.5 40.7,53.5 40.6,53.5 40.6,53.5 40.6,53.6 40.6,53.6 
			40.6,53.6 40.6,53.6 40.6,53.6 40.6,53.6 40.6,53.6 40.5,53.6 40.5,53.7 40.5,53.7 40.5,53.7 40.5,53.7 40.5,53.7 40.5,53.7 
			40.5,53.7 40.5,53.7 40.5,53.8 40.4,53.8 40.4,53.8 40.4,53.8 40.4,53.8 40.4,53.8 40.4,53.8 40.4,53.8 40.4,53.9 40.4,53.9 
			40.3,53.9 40.3,53.9 40.3,53.9 40.3,53.9 40.3,53.9 40.3,53.9 40.3,53.9 40.3,54 40.3,54 40.2,54 40.2,54 40.2,54 40.2,54 
			40.2,54 40.2,54 40.2,54.1 40.2,54.1 40.2,54.1 40.2,54.1 40.1,54.1 40.1,54.1 40.1,54.1 40.1,54.1 40.1,54.2 40.1,54.2 
			40.1,54.2 40.1,54.2 40.1,54.2 40,54.2 40,54.2 40,54.2 40,54.3 40,54.3 40,54.3 40,54.3 40,54.3 40,54.3 39.9,54.3 39.9,54.3 
			39.9,54.3 39.9,54.4 39.9,54.4 39.9,54.4 39.9,54.4 39.9,54.4 39.9,54.4 39.8,54.4 39.8,54.4 39.8,54.5 39.8,54.5 39.8,54.5 
			39.8,54.5 39.8,54.5 39.8,54.5 39.7,54.5 39.7,54.5 39.7,54.5 39.7,54.6 39.7,54.6 39.7,54.6 39.7,54.6 39.7,54.6 39.7,54.6 
			39.6,54.6 39.6,54.6 39.6,54.7 39.6,54.7 39.6,54.7 39.6,54.7 39.6,54.7 39.6,54.7 39.6,54.7 39.5,54.7 39.5,54.7 39.5,54.8 
			39.5,54.8 39.5,54.8 39.5,54.8 39.5,54.8 39.5,54.8 39.4,54.8 39.4,54.8 39.4,54.9 39.4,54.9 39.4,54.9 39.4,54.9 39.4,54.9 
			39.4,54.9 39.4,54.9 39.3,54.9 39.3,54.9 39.3,55 39.3,55 39.3,55 39.3,55 39.3,55 39.3,55 39.2,55 39.2,55 39.2,55.1 39.2,55.1 
			39.2,55.1 39.2,55.1 39.2,55.1 39.2,55.1 39.1,55.1 39.1,55.1 39.1,55.1 39.1,55.2 39.1,55.2 39.1,55.2 39.1,55.2 39.1,55.2 
			39.1,55.2 39,55.2 39,55.2 39,55.2 39,55.3 39,55.3 39,55.3 39,55.3 39,55.3 38.9,55.3 38.9,55.3 38.9,55.3 38.9,55.3 38.9,55.4 
			38.9,55.4 38.9,55.4 38.9,55.4 38.8,55.4 38.8,55.4 38.8,55.4 38.8,55.4 38.8,55.4 38.8,55.5 38.8,55.5 38.8,55.5 38.7,55.5 
			38.7,55.5 38.7,55.5 38.7,55.5 38.7,55.5 38.7,55.5 38.7,55.6 38.7,55.6 38.6,55.6 38.6,55.6 38.6,55.6 38.6,55.6 38.6,55.6 
			38.6,55.6 38.6,55.6 38.6,55.7 38.5,55.7 38.5,55.7 38.5,55.7 38.5,55.7 38.5,55.7 38.5,55.7 38.5,55.7 38.5,55.7 38.4,55.8 
			38.4,55.8 38.4,55.8 38.4,55.8 38.4,55.8 38.4,55.8 38.4,55.8 38.4,55.8 38.3,55.8 38.3,55.9 38.3,55.9 38.3,55.9 38.3,55.9 
			38.3,55.9 38.3,55.9 38.2,55.9 38.2,55.9 38.2,55.9 38.2,56 38.2,56 38.2,56 38.2,56 38.2,56 38.1,56 38.1,56 38.1,56 38.1,56 
			38.1,56 38.1,56.1 38.1,56.1 38.1,56.1 38,56.1 38,56.1 38,56.1 38,56.1 38,56.1 38,56.1 38,56.2 38,56.2 37.9,56.2 37.9,56.2 
			37.9,56.2 37.9,56.2 37.9,56.2 37.9,56.2 37.9,56.2 37.8,56.2 37.8,56.3 37.8,56.3 37.8,56.3 37.8,56.3 37.8,56.3 37.8,56.3 
			37.8,56.3 37.7,56.3 37.7,56.3 37.7,56.3 37.7,56.4 37.7,56.4 37.7,56.4 37.7,56.4 37.6,56.4 37.6,56.4 37.6,56.4 37.6,56.4 
			37.6,56.4 37.6,56.4 37.6,56.5 37.6,56.5 37.5,56.5 37.5,56.5 37.5,56.5 37.5,56.5 37.5,56.5 37.5,56.5 37.5,56.5 37.4,56.5 
			37.4,56.6 37.4,56.6 37.4,56.6 37.4,56.6 37.4,56.6 37.4,56.6 37.4,56.6 37.3,56.6 37.3,56.6 37.3,56.6 37.3,56.7 37.3,56.7 
			37.3,56.7 37.3,56.7 37.2,56.7 37.2,56.7 37.2,56.7 37.2,56.7 37.2,56.7 37.2,56.7 37.2,56.8 37.2,56.8 37.1,56.8 37.1,56.8 
			37.1,56.8 37.1,56.8 37.1,56.8 37.1,56.8 37.1,56.8 37,56.8 37,56.9 37,56.9 37,56.9 37,56.9 37,56.9 37,56.9 36.9,56.9 
			36.9,56.9 36.9,56.9 36.9,57 36.8,57 36.8,57 36.8,57 36.8,57 36.7,57.1 36.7,57.1 36.7,57.1 36.6,57.1 36.6,57.1 36.6,57.2 
			36.6,57.2 36.5,57.2 36.5,57.2 36.5,57.2 36.4,57.2 36.4,57.3 36.4,57.3 36.4,57.3 36.3,57.3 36.3,57.3 36.3,57.4 36.3,57.4 
			36.2,57.4 36.2,57.4 36.2,57.4 36.2,57.4 36.2,57.4 36.1,57.4 36.1,57.5 36.1,57.5 36.1,57.5 36.1,57.5 36.1,57.5 36,57.5 
			36,57.5 36,57.5 36,57.5 36,57.6 35.9,57.6 35.9,57.6 35.9,57.6 35.9,57.6 35.9,57.6 35.8,57.6 35.8,57.6 35.8,57.6 35.8,57.7 
			35.8,57.7 35.8,57.7 35.7,57.7 35.7,57.7 35.7,57.7 35.7,57.7 35.7,57.7 35.6,57.7 35.6,57.7 35.6,57.8 35.6,57.8 35.6,57.8 
			35.6,57.8 35.5,57.8 35.5,57.8 35.5,57.8 35.5,57.8 35.5,57.8 35.4,57.9 35.4,57.9 35.4,57.9 35.4,57.9 35.4,57.9 35.3,57.9 
			35.3,57.9 35.3,57.9 35.3,57.9 35.3,58 35.3,58 35.2,58 35.2,58 35.2,58 35.2,58 35.2,58 35.1,58 35.1,58 35.1,58 35.1,58.1 
			35.1,58.1 35,58.1 35,58.1 35,58.1 35,58.1 35,58.1 34.9,58.1 34.9,58.1 34.9,58.1 34.9,58.2 34.9,58.2 34.9,58.2 34.8,58.2 
			34.8,58.2 34.8,58.2 34.8,58.2 34.8,58.2 34.7,58.2 34.7,58.2 34.7,58.3 34.7,58.3 34.7,58.3 34.6,58.3 34.6,58.3 34.6,58.3 
			34.6,58.3 34.6,58.3 34.5,58.3 34.5,58.3 34.5,58.4 34.5,58.4 34.5,58.4 34.4,58.4 34.4,58.4 34.4,58.4 34.4,58.4 34.4,58.4 
			34.4,58.4 34.3,58.4 34.3,58.4 34.3,58.5 34.3,58.5 34.3,58.5 34.2,58.5 34.2,58.5 34.2,58.5 34.2,58.5 34.2,58.5 34.1,58.5 
			34.1,58.5 34.1,58.6 34.1,58.6 34.1,58.6 34,58.6 34,58.6 34,58.6 34,58.6 34,58.6 33.9,58.6 33.9,58.6 33.9,58.6 33.9,58.6 
			33.9,58.7 33.8,58.7 33.8,58.7 33.8,58.7 33.8,58.7 33.7,58.7 33.7,58.7 33.7,58.7 33.7,58.8 33.6,58.8 33.6,58.8 33.6,58.8 
			33.5,58.8 33.5,58.8 33.5,58.8 33.5,58.8 33.4,58.9 33.4,58.9 33.4,58.9 33.3,58.9 33.3,58.9 33.3,58.9 33.3,58.9 33.2,58.9 
			33.2,59 33.2,59 33.1,59 33.1,59 33.1,59 33,59 33,59 33,59 33,59 32.9,59.1 32.9,59.1 32.9,59.1 32.8,59.1 32.8,59.1 32.8,59.1 
			32.8,59.1 32.7,59.1 32.7,59.1 32.7,59.2 32.6,59.2 32.6,59.2 32.6,59.2 32.6,59.2 32.5,59.2 32.5,59.2 32.5,59.2 32.4,59.2 
			32.4,59.3 32.4,59.3 32.3,59.3 32.3,59.3 32.3,59.3 32.3,59.3 32.2,59.3 32.2,59.3 32.2,59.3 32.1,59.4 32.1,59.4 32.1,59.4 
			32.1,59.4 32,59.4 32,59.4 32,59.4 31.9,59.4 31.9,59.4 31.9,59.4 31.8,59.5 31.8,59.5 31.8,59.5 31.8,59.5 31.7,59.5 31.7,59.5 
			31.7,59.5 31.6,59.5 31.6,59.5 31.6,59.5 31.5,59.6 31.5,59.6 31.5,59.6 31.5,59.6 31.4,59.6 31.4,59.6 31.4,59.6 31.3,59.6 
			31.3,59.6 31.3,59.6 31.2,59.7 31.2,59.7 31.2,59.7 31.2,59.7 31.1,59.7 31.1,59.7 31.1,59.7 31,59.7 31,59.7 31,59.7 30.9,59.7 
			30.9,59.8 30.9,59.8 30.9,59.8 30.8,59.8 30.8,59.8 30.8,59.8 30.7,59.8 30.7,59.8 30.7,59.8 30.6,59.8 30.6,59.8 30.6,59.8 
			30.6,59.9 30.5,59.9 30.5,59.9 30.5,59.9 30.4,59.9 30.4,59.9 30.4,59.9 30.3,59.9 30.3,59.9 30.3,59.9 30.3,59.9 30.2,59.9 
			30.2,60 30.2,60 30.1,60 30.1,60 30.1,60 30,60 30,60 30,60 29.9,60 29.9,60 29.8,60 29.8,59.9 29.8,59.9 29.7,59.9 29.7,59.9 
			29.6,59.9 29.6,59.9 29.6,59.9 29.5,59.9 29.5,59.9 29.5,59.9 29.5,59.9 29.5,59.9 29.4,59.9 29.4,59.8 29.4,59.8 29.4,59.8 
			29.4,59.8 29.3,59.8 29.3,59.8 29.3,59.8 29.3,59.8 29.3,59.8 29.2,59.8 29.2,59.8 29.2,59.8 29.2,59.8 29.2,59.8 29.1,59.8 
			29.1,59.8 29.1,59.8 29.1,59.7 29.1,59.7 29,59.7 29,59.7 29,59.7 29,59.7 29,59.7 28.9,59.7 28.9,59.7 28.9,59.7 28.9,59.7 
			28.9,59.7 28.8,59.7 28.8,59.7 28.8,59.7 28.8,59.7 28.8,59.7 28.7,59.6 28.7,59.6 28.7,59.6 28.7,59.6 28.7,59.6 28.6,59.6 
			28.6,59.6 28.6,59.6 28.6,59.6 28.6,59.6 28.5,59.6 28.5,59.6 28.5,59.6 28.5,59.6 28.5,59.6 28.4,59.6 28.4,59.5 28.4,59.5 
			28.4,59.5 28.4,59.5 28.3,59.5 28.3,59.5 28.3,59.5 28.3,59.5 28.3,59.5 28.2,59.5 28.2,59.5 28.2,59.5 28.2,59.5 28.2,59.5 
			28.1,59.5 28.1,59.4 28.1,59.4 28.1,59.4 28.1,59.4 28,59.4 28,59.4 28,59.4 28,59.4 28,59.4 27.9,59.4 27.9,59.4 27.9,59.4 
			27.9,59.4 27.9,59.4 27.8,59.4 27.8,59.3 27.8,59.3 27.8,59.3 27.8,59.3 27.7,59.3 27.7,59.3 27.7,59.3 27.7,59.3 27.7,59.3 
			27.7,59.3 27.6,59.3 27.6,59.3 27.6,59.3 27.6,59.3 27.6,59.2 27.5,59.2 27.5,59.2 27.5,59.2 27.5,59.2 27.5,59.2 27.4,59.2 
			27.4,59.2 27.4,59.2 27.4,59.2 27.4,59.2 27.3,59.2 27.3,59.2 27.3,59.1 27.3,59.1 27.3,59.1 27.2,59.1 27.2,59.1 27.2,59.1 
			27.2,59.1 27.2,59.1 27.1,59.1 27.1,59.1 27.1,59.1 27.1,59.1 27.1,59.1 27,59 27,59 27,59 27,59 27,59 27,59 26.9,59 26.9,59 
			26.9,59 26.9,59 26.9,59 26.8,59 26.8,59 26.8,58.9 26.8,58.9 26.8,58.9 26.7,58.9 26.7,58.9 26.7,58.9 26.7,58.9 26.7,58.9 
			26.6,58.9 26.6,58.9 26.6,58.9 26.6,58.9 26.6,58.8 26.5,58.8 26.5,58.8 26.5,58.8 26.5,58.8 26.5,58.8 26.5,58.8 26.4,58.8 
			26.4,58.8 26.4,58.8 26.4,58.8 26.4,58.8 26.3,58.8 26.3,58.7 26.3,58.7 26.3,58.7 26.3,58.7 26.2,58.7 26.2,58.7 26.2,58.7 
			26.2,58.7 26.2,58.7 26.1,58.7 26.1,58.7 26.1,58.6 26.1,58.6 26.1,58.6 26.1,58.6 26,58.6 26,58.6 26,58.6 26,58.6 26,58.6 
			25.9,58.6 25.9,58.6 25.9,58.6 25.9,58.5 25.9,58.5 25.8,58.5 25.8,58.5 25.8,58.5 25.8,58.5 25.8,58.5 25.8,58.5 25.7,58.5 
			25.7,58.5 25.7,58.5 25.7,58.4 25.7,58.4 25.6,58.4 25.6,58.4 25.6,58.4 25.6,58.4 25.6,58.4 25.5,58.4 25.5,58.4 25.5,58.4 
			25.5,58.4 25.5,58.3 25.5,58.3 25.4,58.3 25.4,58.3 25.4,58.3 25.4,58.3 25.4,58.3 25.3,58.3 25.3,58.3 25.3,58.3 25.3,58.2 
			25.3,58.2 25.3,58.2 25.2,58.2 25.2,58.2 25.2,58.2 25.2,58.2 25.2,58.2 25.1,58.2 25.1,58.2 25.1,58.2 25.1,58.1 25.1,58.1 
			25,58.1 25,58.1 25,58.1 25,58.1 25,58.1 25,58.1 24.9,58.1 24.9,58.1 24.9,58 24.9,58 24.9,58 24.8,58 24.8,58 24.8,58 24.8,58 
			24.8,58 24.7,58 24.7,57.9 24.7,57.9 24.7,57.9 24.7,57.9 24.6,57.9 24.6,57.9 24.6,57.9 24.6,57.9 24.6,57.9 24.5,57.8 
			24.5,57.8 24.5,57.8 24.5,57.8 24.5,57.8 24.4,57.8 24.4,57.8 24.4,57.8 24.4,57.8 24.4,57.7 24.3,57.7 24.3,57.7 24.3,57.7 
			24.3,57.7 24.3,57.7 24.3,57.7 24.2,57.7 24.2,57.7 24.2,57.6 24.2,57.6 24.2,57.6 24.1,57.6 24.1,57.6 24.1,57.6 24.1,57.6 
			24.1,57.6 24,57.6 24,57.5 24,57.5 24,57.5 24,57.5 23.9,57.5 23.9,57.5 23.9,57.5 23.9,57.5 23.9,57.4 23.9,57.4 23.8,57.4 
			23.8,57.4 23.8,57.4 23.8,57.4 23.8,57.4 23.7,57.4 23.7,57.4 23.7,57.3 23.7,57.3 23.7,57.3 23.6,57.3 23.6,57.3 23.6,57.3 
			23.6,57.3 23.6,57.3 23.6,57.2 23.5,57.2 23.5,57.2 23.5,57.2 23.5,57.2 23.5,57.2 23.4,57.2 23.4,57.2 23.4,57.1 23.4,57.1 
			23.4,57.1 23.3,57.1 23.3,57.1 23.3,57.1 23.3,57.1 23.3,57.1 23.3,57 23.2,57 23.2,57 23.2,57 23.2,57 23.2,57 23.1,57 23.1,57 
			23.1,56.9 23.1,56.9 23.1,56.9 23.1,56.9 23,56.9 23,56.9 23,56.9 23,56.9 23,56.8 22.9,56.8 22.9,56.8 22.9,56.8 22.9,56.8 
			22.9,56.8 22.9,56.8 22.8,56.8 22.8,56.7 22.8,56.7 22.8,56.7 22.8,56.7 22.7,56.7 22.7,56.7 22.7,56.7 22.7,56.6 22.7,56.6 
			22.7,56.6 22.6,56.6 22.6,56.6 22.6,56.6 22.6,56.6 22.6,56.6 22.5,56.5 22.5,56.5 22.5,56.5 22.5,56.5 22.5,56.5 22.5,56.5 
			22.4,56.5 22.4,56.4 22.4,56.4 22.4,56.4 22.4,56.4 22.3,56.4 22.3,56.4 22.3,56.4 22.3,56.4 22.3,56.3 22.3,56.3 22.2,56.3 
			22.2,56.3 22.2,56.3 22.2,56.3 22.2,56.3 22.2,56.2 22.1,56.2 22.1,56.2 22.1,56.2 22.1,56.2 22.1,56.2 22,56.2 22,56.1 22,56.1 
			22,56.1 22,56.1 22,56.1 21.9,56.1 21.9,56.1 21.9,56.1 21.9,56 21.9,56 21.9,56 21.8,56 21.8,56 21.8,56 21.8,56 21.8,55.9 
			21.8,55.9 21.7,55.9 21.7,55.9 21.7,55.9 21.7,55.9 21.7,55.9 21.7,55.8 21.6,55.8 21.6,55.8 21.6,55.8 21.6,55.8 21.6,55.8 
			21.5,55.8 21.5,55.7 21.5,55.7 21.5,55.7 21.5,55.7 21.5,55.7 21.4,55.7 21.4,55.6 21.4,55.6 21.4,55.6 21.4,55.6 21.4,55.6 
			21.3,55.6 21.3,55.6 21.3,55.5 21.3,55.5 21.3,55.5 21.3,55.5 21.2,55.5 21.2,55.5 21.2,55.5 21.2,55.4 21.2,55.4 21.2,55.4 
			21.1,55.4 21.1,55.4 21.1,55.4 21.1,55.4 21.1,55.3 21.1,55.3 21,55.3 21,55.3 21,55.3 21,55.3 21,55.2 21,55.2 20.9,55.2 
			20.9,55.2 20.9,55.2 20.9,55.2 20.9,55.2 20.9,55.1 20.9,55.1 20.8,55.1 20.8,55.1 20.8,55.1 20.8,55.1 20.8,55 20.8,55 20.7,55 
			20.7,55 20.7,55 20.7,55 20.7,55 20.7,54.9 20.6,54.9 20.6,54.9 20.6,54.9 20.6,54.9 20.6,54.9 20.6,54.8 20.5,54.8 20.5,54.8 
			20.5,54.8 20.5,54.8 20.5,54.8 20.5,54.7 20.5,54.7 20.4,54.7 20.4,54.7 20.4,54.7 20.4,54.7 20.4,54.7 20.4,54.6 20.3,54.6 
			20.3,54.6 20.3,54.6 20.3,54.6 20.3,54.6 20.3,54.5 20.3,54.5 20.2,54.5 20.2,54.5 20.2,54.5 20.2,54.5 20.2,54.5 20.2,54.4 
			20.1,54.4 20.1,54.4 20.1,54.4 20.1,54.4 20.1,54.4 20.1,54.3 20.1,54.3 20,54.3 20,54.3 20,54.3 20,54.3 20,54.2 20,54.2 
			20,54.2 19.9,54.2 19.9,54.2 19.9,54.2 19.9,54.2 19.9,54.1 19.9,54.1 19.9,54.1 19.8,54.1 19.8,54.1 19.8,54.1 19.8,54 19.8,54 
			19.8,54 19.8,54 19.7,54 19.7,54 19.7,53.9 19.7,53.9 19.7,53.9 19.7,53.9 19.7,53.9 19.6,53.9 19.6,53.8 19.6,53.8 19.6,53.8 
			19.6,53.8 19.6,53.8 19.6,53.8 19.5,53.7 19.5,53.7 19.5,53.7 19.5,53.7 19.5,53.7 19.5,53.7 19.5,53.6 19.4,53.6 19.4,53.6 
			19.4,53.6 19.4,53.6 19.4,53.6 19.4,53.5 19.4,53.5 19.3,53.5 19.3,53.5 19.3,53.5 19.3,53.5 19.3,53.4 19.3,53.4 19.3,53.4 
			19.2,53.4 19.2,53.4 19.2,53.4 19.2,53.3 19.2,53.3 19.2,53.3 19.2,53.3 19.2,53.3 19.1,53.3 19.1,53.2 19.1,53.2 19.1,53.2 
			19.1,53.2 19.1,53.2 19.1,53.2 19,53.1 19,53.1 19,53.1 19,53.1 19,53.1 19,53.1 19,53 19,53 18.9,53 18.9,53 18.9,53 18.9,52.9 
			18.9,52.9 18.9,52.9 18.9,52.9 18.8,52.9 18.8,52.9 18.8,52.8 18.8,52.8 18.8,52.8 18.8,52.8 18.8,52.8 18.8,52.8 18.7,52.7 
			18.7,52.7 18.7,52.7 18.7,52.7 18.7,52.7 18.7,52.7 18.7,52.6 18.7,52.6 18.6,52.6 18.6,52.6 18.6,52.6 18.6,52.5 18.6,52.5 
			18.6,52.5 18.6,52.5 18.6,52.5 18.5,52.5 18.5,52.4 18.5,52.4 18.5,52.4 18.5,52.4 18.5,52.4 18.5,52.3 18.5,52.3 18.4,52.3 
			18.4,52.3 18.4,52.3 18.4,52.3 18.4,52.2 18.4,52.2 18.4,52.2 18.4,52.2 18.3,52.2 18.3,52.2 18.3,52.1 18.3,52.1 18.3,52.1 
			18.3,52.1 18.3,52.1 18.3,52 18.3,52 18.2,52 18.2,52 18.2,52 18.2,52 18.2,51.9 18.2,51.9 18.2,51.9 18.2,51.9 18.1,51.9 
			18.1,51.8 18.1,51.8 18.1,51.8 18.1,51.8 18.1,51.8 18.1,51.8 18.1,51.7 18.1,51.7 18,51.7 18,51.7 18,51.7 18,51.6 18,51.6 
			18,51.6 18,51.6 18,51.6 18,51.5 17.9,51.5 17.9,51.5 17.9,51.5 17.9,51.5 17.9,51.5 17.9,51.4 17.9,51.4 17.9,51.4 17.9,51.4 
			17.8,51.4 17.8,51.3 17.8,51.3 17.8,51.3 17.8,51.3 17.8,51.3 17.8,51.2 17.8,51.2 17.8,51.2 17.7,51.2 17.7,51.2 17.7,51.2 
			17.7,51.1 17.7,51.1 17.7,51.1 17.7,51.1 17.7,51.1 17.7,51 17.6,51 17.6,51 17.6,51 17.6,51 17.6,50.9 17.6,50.9 17.6,50.9 
			17.6,50.9 17.6,50.9 17.6,50.9 17.5,50.8 17.5,50.8 17.5,50.8 17.5,50.8 17.5,50.8 17.5,50.7 17.5,50.7 17.5,50.7 17.5,50.7 
			17.5,50.7 17.4,50.6 17.4,50.6 17.4,50.6 17.4,50.6 17.4,50.6 17.4,50.5 17.4,50.5 17.4,50.5 17.4,50.5 17.4,50.5 17.3,50.4 
			17.3,50.4 17.3,50.4 17.3,50.4 17.3,50.4 17.3,50.4 17.3,50.3 17.3,50.3 17.3,50.3 17.3,50.3 17.3,50.3 17.2,50.2 17.2,50.2 
			17.2,50.2 17.2,50.2 17.2,50.2 17.2,50.1 17.2,50.1 17.2,50.1 17.2,50.1 17.2,50.1 17.2,50.1 17.1,50 17.1,50 17.1,50 17.1,50 
			17.1,50 17.1,50 17.1,49.9 17.1,49.9 17.1,49.9 17.1,49.9 17.1,49.9 17.1,49.8 17.1,49.8 17,49.8 17,49.8 17,49.8 17,49.8 
			17,49.7 17,49.7 17,49.7 17,49.7 17,49.7 17,49.7 17,49.6 17,49.6 17,49.6 16.9,49.6 16.9,49.6 16.9,49.6 16.9,49.5 16.9,49.5 
			16.9,49.5 16.9,49.5 16.9,49.5 16.9,49.4 16.9,49.4 16.9,49.4 16.9,49.4 16.9,49.4 16.9,49.4 16.8,49.3 16.8,49.3 16.8,49.3 
			16.8,49.3 16.8,49.3 16.8,49.3 16.8,49.2 16.8,49.2 16.8,49.2 16.8,49.2 16.8,49.2 16.8,49.1 16.8,49.1 16.8,49.1 16.7,49.1 
			16.7,49.1 16.7,49.1 16.7,49 16.7,49 16.7,49 16.7,49 16.7,49 16.7,48.9 16.7,48.9 16.7,48.9 16.7,48.9 16.7,48.9 16.7,48.9 
			16.7,48.8 16.6,48.8 16.6,48.8 16.6,48.8 16.6,48.8 16.6,48.8 16.6,48.7 16.6,48.7 16.6,48.7 16.6,48.7 16.6,48.7 16.6,48.6 
			16.6,48.6 16.6,48.6 16.6,48.6 16.6,48.6 16.6,48.6 16.5,48.5 16.5,48.5 16.5,48.5 16.5,48.5 16.5,48.5 16.5,48.4 16.5,48.4 
			16.5,48.4 16.5,48.4 16.5,48.4 16.5,48.4 16.5,48.3 16.5,48.3 16.5,48.3 16.5,48.3 16.5,48.3 16.4,48.2 16.4,48.2 16.4,48.2 
			16.4,48.2 16.4,48.2 16.4,48.2 16.4,48.1 16.4,48.1 16.4,48.1 16.4,48.1 16.4,48.1 16.4,48 16.4,48 16.4,48 16.4,48 16.4,48 
			16.4,48 16.3,47.9 16.3,47.9 16.3,47.9 16.3,47.9 16.3,47.9 16.3,47.8 16.3,47.8 16.3,47.8 16.3,47.8 16.3,47.8 16.3,47.8 
			16.3,47.7 16.3,47.7 16.3,47.7 16.3,47.7 16.3,47.7 16.3,47.6 16.3,47.6 16.2,47.6 16.2,47.6 16.2,47.6 16.2,47.6 16.2,47.5 
			16.2,47.5 16.2,47.5 16.2,47.5 16.2,47.5 16.2,47.4 16.2,47.4 16.2,47.4 16.2,47.4 16.2,47.4 16.2,47.4 16.2,47.3 16.2,47.3 
			16.2,47.3 16.2,47.3 16.2,47.3 16.1,47.2 16.1,47.2 16.1,47.2 16.1,47.2 16.1,47.2 16.1,47.1 16.1,47.1 16.1,47.1 16.1,47.1 
			16.1,47.1 16.1,47.1 16.1,47 16.1,47 16.1,47 16.1,47 16.1,47 16.1,46.9 16.1,46.9 16.1,46.9 16.1,46.9 16.1,46.9 16,46.9 
			16,46.8 16,46.8 16,46.8 16,46.8 16,46.8 16,46.7 16,46.7 16,46.7 16,46.7 16,46.7 16,46.6 16,46.6 16,46.6 16,46.6 16,46.6 
			16,46.6 16,46.5 16,46.5 16,46.5 16,46.5 16,46.5 16,46.4 15.9,46.4 15.9,46.4 15.9,46.3 15.9,46.3 15.9,46.3 15.9,46.2 
			15.9,46.2 15.9,46.1 15.9,46.1 15.9,46.1 15.9,46 15.9,46 15.8,46 15.8,45.9 15.8,45.9 15.8,45.8 15.8,45.8 15.8,45.8 15.8,45.7 
			15.8,45.7 15.8,45.7 15.8,45.6 15.8,45.6 15.8,45.5 15.8,45.5 15.8,45.5 15.7,45.4 15.7,45.4 15.7,45.4 15.7,45.3 15.7,45.3 
			15.7,45.3 15.7,45.3 15.7,45.3 15.7,45.2 15.7,45.2 15.7,45.2 15.7,45.2 15.7,45.2 15.7,45.1 15.7,45.1 15.7,45.1 15.7,45.1 
			15.7,45.1 15.7,45.1 15.7,45 15.7,45 15.7,45 15.7,45 15.7,45 15.7,44.9 15.7,44.9 15.7,44.9 15.7,44.9 15.7,44.9 15.6,44.8 
			15.6,44.8 15.6,44.8 15.6,44.8 15.6,44.8 15.6,44.8 15.6,44.7 15.6,44.7 15.6,44.7 15.6,44.7 15.6,44.7 15.6,44.6 15.6,44.6 
			15.6,44.6 15.6,44.6 15.6,44.6 15.6,44.5 15.6,44.5 15.6,44.5 15.6,44.5 15.6,44.5 15.6,44.4 15.6,44.4 15.6,44.4 15.6,44.4 
			15.6,44.4 15.6,44.4 15.6,44.3 15.6,44.3 15.6,44.3 15.6,44.3 15.6,44.2 15.6,44.2 15.6,44.2 15.6,44.2 15.6,44.2 15.6,44.1 
			15.6,44.1 15.6,44.1 15.5,44.1 15.5,44 15.5,44 15.5,44 15.5,44 15.5,44 15.5,43.9 15.5,43.9 15.5,43.9 15.5,43.9 15.5,43.8 
			15.5,43.8 15.5,43.8 15.5,43.8 15.5,43.8 15.5,43.7 15.5,43.7 15.5,43.7 15.5,43.7 15.5,43.6 15.5,43.6 15.5,43.5 15.5,43.5 
			15.5,43.5 15.5,43.4 15.5,43.4 15.5,43.3 15.5,43.3 15.5,43.2 15.5,43.2 15.5,43.1 15.5,43.1 15.5,43 15.5,42.9 15.5,42.8 
			15.4,42.8 15.4,42.7 15.4,42.6 15.4,42.5 15.4,42.4 15.4,42.3 15.4,42.3 15.4,42.2 15.4,42.1 15.4,42 15.4,41.9 15.4,41.9 
			15.4,41.8 15.4,41.8 15.4,41.8 15.4,41.7 15.4,41.7 15.4,41.6 15.4,41.6 15.4,41.6 15.4,41.5 15.4,41.5 15.4,41.4 15.4,41.4 
			15.4,41.3 15.4,41.3 15.4,41.3 15.4,41.2 15.4,41.2 15.4,41.1 15.4,41.1 15.4,41.1 15.4,41 15.4,41 15.4,40.9 15.4,40.9 
			15.4,40.8 15.4,40.8 15.4,40.8 15.4,40.7 15.4,40.7 15.4,40.6 15.4,40.6 15.4,40.6 15.4,40.5 15.4,40.5 15.4,40.4 15.4,40.4 
			15.4,40.4 15.4,40.3 15.4,40.3 15.4,29.4 19.8,29.4 19.8,40.3 19.8,40.3 19.8,40.3 19.8,40.4 19.8,40.4 19.8,40.4 19.8,40.5 
			19.8,40.5 19.8,40.5 19.8,40.6 19.8,40.6 19.8,40.6 19.8,40.7 19.8,40.7 19.8,40.7 19.8,40.8 19.8,40.8 19.8,40.8 19.8,40.9 
			19.8,40.9 19.8,40.9 19.8,41 19.8,41 19.8,41.1 19.8,41.1 19.8,41.1 19.8,41.2 19.9,41.2 19.9,41.2 19.9,41.3 19.9,41.4 
			19.9,41.4 19.9,41.5 19.9,41.5 19.9,41.6 19.9,41.6 19.9,41.7 19.9,41.7 19.9,41.8 19.9,41.8 19.9,41.9 19.9,41.9 19.9,42 
			19.9,42 19.9,42.1 19.9,42.2 19.9,42.2 19.9,42.3 19.9,42.3 19.9,42.4 19.9,42.4 19.9,42.5 19.9,42.5 19.9,42.6 19.9,42.6 
			19.9,42.7 19.9,42.7 19.9,42.8 19.9,42.8 19.9,42.9 19.9,42.9 19.9,43 20,43.1 20,43.1 20,43.2 20,43.2 20,43.2 20,43.3 20,43.3 
			20,43.3 20,43.4 20,43.4 20,43.4 20,43.4 20,43.5 20,43.5 20,43.5 20,43.5 20,43.6 20,43.6 20,43.6 20,43.6 20,43.6 20,43.7 
			20,43.7 20,43.7 20,43.7 20,43.8 20,43.8 20,43.8 20,43.8 20,43.9 20,43.9 20,43.9 20,43.9 20,44 20,44 20,44 20,44 20.1,44.1 
			20.1,44.1 20.1,44.1 20.1,44.1 20.1,44.1 20.1,44.2 20.1,44.2 20.1,44.2 20.1,44.2 20.1,44.3 20.1,44.3 20.1,44.3 20.1,44.3 
			20.1,44.3 20.1,44.3 20.1,44.3 20.1,44.3 20.1,44.3 20.1,44.4 20.1,44.4 20.1,44.4 20.1,44.4 20.1,44.4 20.1,44.4 20.1,44.4 
			20.1,44.4 20.1,44.5 20.1,44.5 20.1,44.5 20.1,44.5 20.1,44.5 20.1,44.5 20.1,44.5 20.1,44.5 20.1,44.5 20.1,44.6 20.1,44.6 
			20.1,44.6 20.1,44.6 20.1,44.6 20.1,44.6 20.1,44.6 20.1,44.6 20.1,44.6 20.1,44.7 20.1,44.7 20.1,44.7 20.2,44.7 20.2,44.7 
			20.2,44.7 20.2,44.7 20.2,44.7 20.2,44.8 20.2,44.8 20.2,44.8 20.2,44.8 20.2,44.8 20.2,44.8 20.2,44.8 20.2,44.8 20.2,44.8 
			20.2,44.9 20.2,44.9 20.2,44.9 20.2,44.9 20.2,44.9 20.2,44.9 20.2,44.9 20.2,44.9 20.2,44.9 20.2,45 20.2,45 20.2,45 20.2,45 
			20.2,45 20.2,45.1 20.2,45.1 20.2,45.1 20.2,45.1 20.2,45.2 20.2,45.2 20.3,45.2 20.3,45.2 20.3,45.2 20.3,45.3 20.3,45.3 
			20.3,45.3 20.3,45.3 20.3,45.4 20.3,45.4 20.3,45.4 20.3,45.4 20.3,45.5 20.3,45.5 20.3,45.5 20.3,45.5 20.3,45.5 20.3,45.6 
			20.3,45.6 20.3,45.6 20.4,45.6 20.4,45.7 20.4,45.7 20.4,45.7 20.4,45.7 20.4,45.7 20.4,45.8 20.4,45.8 20.4,45.8 20.4,45.8 
			20.4,45.9 20.4,45.9 20.4,45.9 20.4,45.9 20.4,45.9 20.4,46 20.4,46 20.5,46 20.5,46 20.5,46.1 20.5,46.1 20.5,46.1 20.5,46.2 
			20.5,46.2 20.5,46.2 20.5,46.2 20.5,46.3 20.5,46.3 20.5,46.3 20.5,46.3 20.6,46.4 20.6,46.4 20.6,46.4 20.6,46.5 20.6,46.5 
			20.6,46.5 20.6,46.5 20.6,46.6 20.6,46.6 20.6,46.6 20.6,46.6 20.6,46.6 20.6,46.7 20.6,46.7 20.6,46.7 20.7,46.7 20.7,46.7 
			20.7,46.7 20.7,46.7 20.7,46.7 20.7,46.8 20.7,46.8 20.7,46.8 20.7,46.8 20.7,46.8 20.7,46.8 20.7,46.8 20.7,46.9 20.7,46.9 
			20.7,46.9 20.7,46.9 20.7,46.9 20.7,46.9 20.7,46.9 20.7,46.9 20.7,47 20.7,47 20.7,47 20.8,47 20.8,47 20.8,47 20.8,47 
			20.8,47.1 20.8,47.1 20.8,47.1 20.8,47.1 20.8,47.1 20.8,47.1 20.8,47.1 20.8,47.1 20.8,47.2 20.8,47.2 20.8,47.2 20.8,47.2 
			20.8,47.2 20.8,47.2 20.8,47.2 20.8,47.3 20.8,47.3 20.8,47.3 20.9,47.3 20.9,47.3 20.9,47.3 20.9,47.3 20.9,47.3 20.9,47.4 
			20.9,47.4 20.9,47.4 20.9,47.4 20.9,47.4 20.9,47.4 20.9,47.4 20.9,47.5 20.9,47.5 20.9,47.5 20.9,47.5 20.9,47.5 20.9,47.5 
			20.9,47.5 20.9,47.5 21,47.6 21,47.6 21,47.6 21,47.6 21,47.6 21,47.6 21,47.6 21,47.7 21,47.7 21,47.7 21,47.7 21,47.7 21,47.7 
			21,47.7 21,47.7 21,47.8 21,47.8 21,47.8 21,47.8 21.1,47.8 21.1,47.8 21.1,47.8 21.1,47.8 21.1,47.9 21.1,47.9 21.1,47.9 
			21.1,47.9 21.1,47.9 21.1,47.9 21.1,47.9 21.1,48 21.1,48 21.1,48 21.1,48 21.1,48 21.1,48 21.1,48 21.2,48 21.2,48.1 21.2,48.1 
			21.2,48.1 21.2,48.1 21.2,48.1 21.2,48.1 21.2,48.1 21.2,48.1 21.2,48.2 21.2,48.2 21.2,48.2 21.2,48.2 21.2,48.2 21.2,48.2 
			21.2,48.2 21.3,48.3 21.3,48.3 21.3,48.3 21.3,48.3 21.3,48.3 21.3,48.3 21.3,48.3 21.3,48.3 21.3,48.4 21.3,48.4 21.3,48.4 
			21.3,48.4 21.3,48.4 21.3,48.4 21.3,48.4 21.3,48.4 21.4,48.5 21.4,48.5 21.4,48.5 21.4,48.5 21.4,48.5 21.4,48.5 21.4,48.5 
			21.4,48.5 21.4,48.6 21.4,48.6 21.4,48.6 21.4,48.6 21.4,48.6 21.4,48.6 21.4,48.6 21.4,48.6 21.5,48.7 21.5,48.7 21.5,48.7 
			21.5,48.7 21.5,48.7 21.5,48.7 21.5,48.7 21.5,48.7 21.5,48.8 21.5,48.8 21.5,48.8 21.5,48.8 21.5,48.8 21.5,48.8 21.5,48.8 
			21.6,48.8 21.6,48.9 21.6,48.9 21.6,48.9 21.6,48.9 21.6,48.9 21.6,48.9 21.6,48.9 21.6,48.9 21.6,49 21.6,49 21.6,49 21.6,49 
			21.6,49 21.7,49 21.7,49 21.7,49 21.7,49.1 21.7,49.1 21.7,49.1 21.7,49.1 21.7,49.1 21.7,49.1 21.7,49.1 21.7,49.1 21.7,49.2 
			21.7,49.2 21.7,49.2 21.8,49.2 21.8,49.2 21.8,49.2 21.8,49.2 21.8,49.2 21.8,49.3 21.8,49.3 21.8,49.3 21.8,49.3 21.8,49.3 
			21.8,49.3 21.8,49.3 21.8,49.3 21.9,49.4 21.9,49.4 21.9,49.4 21.9,49.4 21.9,49.4 21.9,49.4 21.9,49.4 21.9,49.4 21.9,49.4 
			21.9,49.4 21.9,49.5 21.9,49.5 21.9,49.5 21.9,49.5 21.9,49.5 21.9,49.5 22,49.5 22,49.5 22,49.5 22,49.5 22,49.6 22,49.6 
			22,49.6 22,49.6 22,49.6 22,49.6 22,49.6 22,49.6 22,49.6 22,49.6 22,49.7 22.1,49.7 22.1,49.7 22.1,49.7 22.1,49.7 22.1,49.7 
			22.1,49.7 22.1,49.7 22.1,49.7 22.1,49.7 22.1,49.8 22.1,49.8 22.1,49.8 22.1,49.8 22.1,49.8 22.1,49.8 22.2,49.8 22.2,49.8 
			22.2,49.8 22.2,49.8 22.2,49.9 22.2,49.9 22.2,49.9 22.2,49.9 22.2,49.9 22.2,49.9 22.2,49.9 22.2,49.9 22.2,49.9 22.2,49.9 
			22.3,50 22.3,50 22.3,50 22.3,50 22.3,50 22.3,50 22.3,50 22.3,50 22.3,50 22.3,50 22.3,50.1 22.3,50.1 22.3,50.1 22.3,50.1 
			22.3,50.1 22.4,50.1 22.4,50.1 22.4,50.1 22.4,50.1 22.4,50.1 22.4,50.2 22.4,50.2 22.4,50.2 22.4,50.2 22.4,50.2 22.4,50.2 
			22.4,50.2 22.4,50.2 22.5,50.2 22.5,50.2 22.5,50.3 22.5,50.3 22.5,50.3 22.5,50.3 22.5,50.3 22.5,50.3 22.5,50.3 22.5,50.3 
			22.5,50.3 22.5,50.3 22.5,50.3 22.5,50.4 22.6,50.4 22.6,50.4 22.6,50.4 22.6,50.4 22.6,50.4 22.6,50.4 22.6,50.4 22.6,50.4 
			22.6,50.4 22.6,50.5 22.6,50.5 22.6,50.5 22.6,50.5 22.6,50.5 22.7,50.5 22.7,50.5 22.7,50.5 22.7,50.5 22.7,50.5 22.7,50.5 
			22.7,50.6 22.7,50.6 22.7,50.6 22.7,50.6 22.7,50.6 22.7,50.6 22.7,50.6 22.8,50.6 22.8,50.6 22.8,50.6 22.8,50.6 22.8,50.7 
			22.8,50.7 22.8,50.7 22.8,50.7 22.8,50.7 22.8,50.7 22.8,50.7 22.8,50.7 22.8,50.7 22.9,50.7 22.9,50.8 22.9,50.8 22.9,50.8 
			22.9,50.8 22.9,50.8 22.9,50.8 22.9,50.8 22.9,50.8 22.9,50.8 22.9,50.8 22.9,50.8 22.9,50.9 23,50.9 23,50.9 23,50.9 23,50.9 
			23,50.9 23,50.9 23,50.9 23,50.9 23,50.9 23,50.9 23,51 23,51 23.1,51 23.1,51 23.1,51 23.1,51 23.1,51 23.1,51 23.1,51 23.1,51 
			23.1,51 23.1,51.1 23.1,51.1 23.1,51.1 23.1,51.1 23.2,51.1 23.2,51.1 23.2,51.1 23.2,51.1 23.2,51.1 23.2,51.1 23.2,51.1 
			23.2,51.2 23.2,51.2 23.2,51.2 23.2,51.2 23.2,51.2 23.3,51.2 23.3,51.2 23.3,51.2 23.3,51.2 23.3,51.2 23.3,51.2 23.3,51.2 
			23.3,51.3 23.3,51.3 23.3,51.3 23.3,51.3 23.3,51.3 23.4,51.3 23.4,51.3 23.4,51.3 23.4,51.3 23.4,51.3 23.4,51.3 23.4,51.4 
			23.4,51.4 23.4,51.4 23.4,51.4 23.4,51.4 23.4,51.4 23.5,51.4 23.5,51.4 23.5,51.4 23.5,51.4 23.5,51.4 23.5,51.5 23.5,51.5 
			23.5,51.5 23.5,51.5 23.5,51.5 23.5,51.5 23.5,51.5 23.6,51.5 23.6,51.5 23.6,51.5 23.6,51.5 23.6,51.5 23.6,51.6 23.6,51.6 
			23.6,51.6 23.6,51.6 23.6,51.6 23.6,51.6 23.6,51.6 23.7,51.6 23.7,51.6 23.7,51.6 23.7,51.6 23.7,51.6 23.7,51.7 23.7,51.7 
			23.7,51.7 23.7,51.7 23.7,51.7 23.7,51.7 23.8,51.7 23.8,51.7 23.8,51.7 23.8,51.7 23.8,51.7 23.8,51.7 23.8,51.8 23.8,51.8 
			23.8,51.8 23.8,51.8 23.9,51.8 23.9,51.8 23.9,51.8 23.9,51.8 23.9,51.9 23.9,51.9 23.9,51.9 23.9,51.9 23.9,51.9 24,51.9 
			24,51.9 24,51.9 24,51.9 24,52 24,52 24,52 24,52 24.1,52 24.1,52 24.1,52 24.1,52 24.1,52 24.1,52.1 24.1,52.1 24.1,52.1 
			24.2,52.1 24.2,52.1 24.2,52.1 24.2,52.1 24.2,52.1 24.2,52.1 24.2,52.2 24.2,52.2 24.2,52.2 24.3,52.2 24.3,52.2 24.3,52.2 
			24.3,52.2 24.3,52.2 24.3,52.2 24.3,52.2 24.3,52.3 24.4,52.3 24.4,52.3 24.4,52.3 24.4,52.3 24.4,52.3 24.4,52.3 24.4,52.3 
			24.4,52.3 24.5,52.4 24.5,52.4 24.5,52.4 24.5,52.4 24.5,52.4 24.5,52.4 24.5,52.4 24.5,52.4 24.6,52.4 24.6,52.4 24.6,52.5 
			24.6,52.5 24.6,52.5 24.6,52.5 24.6,52.5 24.6,52.5 24.7,52.5 24.7,52.5 24.7,52.5 24.7,52.6 24.7,52.6 24.7,52.6 24.7,52.6 
			24.7,52.6 24.8,52.6 24.8,52.6 24.8,52.6 24.8,52.6 24.8,52.6 24.8,52.7 24.8,52.7 24.9,52.7 24.9,52.7 24.9,52.7 24.9,52.7 
			24.9,52.7 24.9,52.7 24.9,52.7 24.9,52.7 25,52.8 25,52.8 25,52.8 25,52.8 25,52.8 25,52.8 25,52.8 25,52.8 25.1,52.8 25.1,52.8 
			25.1,52.9 25.1,52.9 25.1,52.9 25.1,52.9 25.1,52.9 25.1,52.9 25.2,52.9 25.2,52.9 25.2,52.9 25.2,52.9 25.2,53 25.2,53 25.2,53 
			25.3,53 25.3,53 25.3,53 25.3,53 25.3,53 25.3,53 25.3,53 25.3,53.1 25.4,53.1 25.4,53.1 25.4,53.1 25.4,53.1 25.4,53.1 
			25.4,53.1 25.4,53.1 25.5,53.1 25.5,53.1 25.5,53.1 25.5,53.2 25.5,53.2 25.5,53.2 25.5,53.2 25.5,53.2 25.6,53.2 25.6,53.2 
			25.6,53.2 25.6,53.2 25.6,53.2 25.6,53.2 25.6,53.3 25.7,53.3 25.7,53.3 25.7,53.3 25.7,53.3 25.7,53.3 25.7,53.3 25.7,53.3 
			25.7,53.3 25.8,53.3 25.8,53.4 25.8,53.4 25.8,53.4 25.8,53.4 25.8,53.4 25.8,53.4 25.9,53.4 25.9,53.4 25.9,53.4 25.9,53.4 
			25.9,53.4 25.9,53.5 25.9,53.5 26,53.5 26,53.5 26,53.5 26,53.5 26,53.5 26,53.5 26,53.5 26,53.5 26.1,53.5 26.1,53.5 26.1,53.6 
			26.1,53.6 26.1,53.6 26.1,53.6 26.1,53.6 26.2,53.6 26.2,53.6 26.2,53.6 26.2,53.6 26.2,53.6 26.2,53.6 26.2,53.7 26.3,53.7 
			26.3,53.7 26.3,53.7 26.3,53.7 26.3,53.7 26.3,53.7 26.3,53.7 26.4,53.7 26.4,53.7 26.4,53.7 26.4,53.7 26.4,53.8 26.4,53.8 
			26.4,53.8 26.4,53.8 26.5,53.8 26.5,53.8 26.5,53.8 26.5,53.8 26.5,53.8 26.5,53.8 26.5,53.8 26.6,53.8 26.6,53.9 26.6,53.9 
			26.6,53.9 26.6,53.9 26.6,53.9 26.6,53.9 26.7,53.9 26.7,53.9 26.7,53.9 26.7,53.9 26.7,53.9 26.7,53.9 26.7,54 26.8,54 26.8,54 
			26.8,54 26.8,54 26.8,54 26.8,54 26.8,54 26.9,54 26.9,54 26.9,54 26.9,54 26.9,54 26.9,54.1 26.9,54.1 27,54.1 27,54.1 27,54.1 
			27,54.1 27,54.1 27,54.1 27,54.1 27.1,54.1 27.1,54.1 27.1,54.1 27.1,54.2 27.1,54.2 27.1,54.2 27.1,54.2 27.2,54.2 27.2,54.2 
			27.2,54.2 27.2,54.2 27.2,54.2 27.3,54.2 27.3,54.2 27.3,54.3 27.3,54.3 27.3,54.3 27.4,54.3 27.4,54.3 27.4,54.3 27.4,54.3 
			27.5,54.3 27.5,54.3 27.5,54.4 27.5,54.4 27.5,54.4 27.6,54.4 27.6,54.4 27.6,54.4 27.6,54.4 27.6,54.4 27.7,54.4 27.7,54.4 
			27.7,54.5 27.7,54.5 27.8,54.5 27.8,54.5 27.8,54.5 27.8,54.5 27.8,54.5 27.9,54.5 27.9,54.5 27.9,54.5 27.9,54.6 27.9,54.6 
			28,54.6 28,54.6 28,54.6 28,54.6 28.1,54.6 28.1,54.6 28.1,54.6 28.1,54.6 28.1,54.7 28.2,54.7 28.2,54.7 28.2,54.7 28.2,54.7 
			28.3,54.7 28.3,54.7 28.3,54.7 28.3,54.7 28.3,54.7 28.4,54.8 28.4,54.8 28.4,54.8 28.4,54.8 28.5,54.8 28.5,54.8 28.5,54.8 
			28.5,54.8 28.5,54.8 28.6,54.8 28.6,54.8 28.6,54.9 28.6,54.9 28.6,54.9 28.7,54.9 28.7,54.9 28.7,54.9 28.7,54.9 28.8,54.9 
			28.8,54.9 28.8,54.9 28.8,54.9 28.8,55 28.9,55 28.9,55 28.9,55 28.9,55 29,55 29,55 29,55 29,55 29.1,55 29.1,55 29.1,55 
			29.1,55.1 29.1,55.1 29.2,55.1 29.2,55.1 29.2,55.1 29.2,55.1 29.3,55.1 29.3,55.1 29.3,55.1 29.3,55.1 29.3,55.1 29.4,55.1 
			29.4,55.2 29.4,55.2 29.4,55.2 29.5,55.2 29.5,55.2 29.5,55.2 29.5,55.2 29.5,55.2 29.6,55.2 29.6,55.2 29.6,55.2 29.6,55.2 
			29.7,55.2 29.7,55.3 29.7,55.3 29.7,55.3 29.7,55.3 29.8,55.3 29.8,55.3 29.8,55.3 29.8,55.3 29.9,55.3 29.9,55.3 29.9,55.3 
			29.9,55.3 30,55.3 30,55.3 30,55.4 30,55.3 30,55.3 30.1,55.3 30.1,55.3 30.1,55.3 30.1,55.3 30.2,55.3 30.2,55.3 30.2,55.3 
			30.2,55.3 30.3,55.3 30.3,55.3 30.3,55.3 30.3,55.3 30.3,55.2 30.4,55.2 30.4,55.2 30.4,55.2 30.4,55.2 30.5,55.2 30.5,55.2 
			30.5,55.2 30.5,55.2 30.5,55.2 30.6,55.2 30.6,55.2 30.6,55.2 30.6,55.1 30.7,55.1 30.7,55.1 30.7,55.1 30.7,55.1 30.7,55.1 
			30.8,55.1 30.8,55.1 30.8,55.1 30.8,55.1 30.9,55.1 30.9,55.1 30.9,55 30.9,55 30.9,55 31,55 31,55 31,55 31,55 31.1,55 31.1,55 
			31.1,55 31.1,55 31.2,55 31.2,54.9 31.2,54.9 31.2,54.9 31.2,54.9 31.3,54.9 31.3,54.9 31.3,54.9 31.3,54.9 31.4,54.9 31.4,54.9 
			31.4,54.9 31.4,54.8 31.4,54.8 31.5,54.8 31.5,54.8 31.5,54.8 31.5,54.8 31.5,54.8 31.6,54.8 31.6,54.8 31.6,54.8 31.6,54.8 
			31.7,54.7 31.7,54.7 31.7,54.7 31.7,54.7 31.7,54.7 31.8,54.7 31.8,54.7 31.8,54.7 31.8,54.7 31.9,54.7 31.9,54.6 31.9,54.6 
			31.9,54.6 31.9,54.6 32,54.6 32,54.6 32,54.6 32,54.6 32.1,54.6 32.1,54.6 32.1,54.5 32.1,54.5 32.1,54.5 32.2,54.5 32.2,54.5 
			32.2,54.5 32.2,54.5 32.2,54.5 32.3,54.5 32.3,54.5 32.3,54.4 32.3,54.4 32.4,54.4 32.4,54.4 32.4,54.4 32.4,54.4 32.4,54.4 
			32.5,54.4 32.5,54.4 32.5,54.4 32.5,54.3 32.5,54.3 32.6,54.3 32.6,54.3 32.6,54.3 32.6,54.3 32.7,54.3 32.7,54.3 32.7,54.3 
			32.7,54.2 32.7,54.2 32.8,54.2 32.8,54.2 32.8,54.2 32.8,54.2 32.8,54.2 32.9,54.2 32.9,54.2 32.9,54.2 32.9,54.2 32.9,54.1 
			32.9,54.1 32.9,54.1 33,54.1 33,54.1 33,54.1 33,54.1 33,54.1 33,54.1 33,54.1 33.1,54.1 33.1,54.1 33.1,54 33.1,54 33.1,54 
			33.1,54 33.1,54 33.2,54 33.2,54 33.2,54 33.2,54 33.2,54 33.2,54 33.2,54 33.3,54 33.3,53.9 33.3,53.9 33.3,53.9 33.3,53.9 
			33.3,53.9 33.3,53.9 33.4,53.9 33.4,53.9 33.4,53.9 33.4,53.9 33.4,53.9 33.4,53.9 33.4,53.8 33.5,53.8 33.5,53.8 33.5,53.8 
			33.5,53.8 33.5,53.8 33.5,53.8 33.5,53.8 33.6,53.8 33.6,53.8 33.6,53.8 33.6,53.8 33.6,53.7 33.6,53.7 33.6,53.7 33.6,53.7 
			33.7,53.7 33.7,53.7 33.7,53.7 33.7,53.7 33.7,53.7 33.7,53.7 33.7,53.7 33.8,53.7 33.8,53.6 33.8,53.6 33.8,53.6 33.8,53.6 
			33.8,53.6 33.8,53.6 33.9,53.6 33.9,53.6 33.9,53.6 33.9,53.6 33.9,53.6 33.9,53.5 33.9,53.5 34,53.5 34,53.5 34,53.5 34,53.5 
			34,53.5 34,53.5 34,53.5 34,53.5 34.1,53.5 34.1,53.5 34.1,53.4 34.1,53.4 34.1,53.4 34.1,53.4 34.1,53.4 34.2,53.4 34.2,53.4 
			34.2,53.4 34.2,53.4 34.2,53.4 34.2,53.4 34.2,53.3 34.3,53.3 34.3,53.3 34.3,53.3 34.3,53.3 34.3,53.3 34.3,53.3 34.3,53.3 
			34.3,53.3 34.4,53.3 34.4,53.2 34.4,53.2 34.4,53.2 34.4,53.2 34.4,53.2 34.4,53.2 34.5,53.2 34.5,53.2 34.5,53.2 34.5,53.2 
			34.5,53.2 34.5,53.1 34.5,53.1 34.5,53.1 34.6,53.1 34.6,53.1 34.6,53.1 34.6,53.1 34.6,53.1 34.6,53.1 34.6,53.1 34.7,53.1 
			34.7,53 34.7,53 34.7,53 34.7,53 34.7,53 34.7,53 34.7,53 34.8,53 34.8,53 34.8,53 34.8,52.9 34.8,52.9 34.8,52.9 34.8,52.9 
			34.9,52.9 34.9,52.9 34.9,52.9 34.9,52.9 34.9,52.9 34.9,52.9 34.9,52.8 34.9,52.8 35,52.8 35,52.8 35,52.8 35,52.8 35,52.8 
			35,52.8 35,52.8 35,52.8 35.1,52.7 35.1,52.7 35.1,52.7 35.1,52.7 35.1,52.7 35.1,52.7 35.1,52.7 35.1,52.7 35.2,52.7 35.2,52.7 
			35.2,52.6 35.2,52.6 35.2,52.6 35.2,52.6 35.2,52.6 35.3,52.6 35.3,52.6 35.3,52.6 35.3,52.6 35.3,52.6 35.3,52.5 35.3,52.5 
			35.3,52.5 35.4,52.5 35.4,52.5 35.4,52.5 35.4,52.5 35.4,52.5 35.4,52.5 35.4,52.4 35.4,52.4 35.5,52.4 35.5,52.4 35.5,52.4 
			35.5,52.4 35.5,52.4 35.5,52.4 35.5,52.4 35.5,52.4 35.6,52.3 35.6,52.3 35.6,52.3 35.6,52.3 35.6,52.3 35.6,52.3 35.6,52.3 
			35.6,52.3 35.7,52.3 35.7,52.2 35.7,52.2 35.7,52.2 35.7,52.2 35.7,52.2 35.7,52.2 35.7,52.2 35.8,52.2 35.8,52.2 35.8,52.2 
			35.8,52.1 35.8,52.1 35.8,52.1 35.8,52.1 35.8,52.1 35.8,52.1 35.9,52.1 35.9,52.1 35.9,52.1 35.9,52 35.9,52 35.9,52 35.9,52 
			35.9,52 36,52 36,52 36,52 36,52 36,51.9 36,51.9 36,51.9 36,51.9 36.1,51.9 36.1,51.9 36.1,51.9 36.1,51.9 36.1,51.9 36.1,51.8 
			36.1,51.8 36.1,51.8 36.1,51.8 36.2,51.8 36.2,51.8 36.2,51.8 36.2,51.8 36.2,51.7 36.2,51.7 36.2,51.7 36.2,51.7 36.3,51.7 
			36.3,51.7 36.3,51.7 36.3,51.7 36.3,51.7 36.3,51.6 36.3,51.6 36.3,51.6 36.3,51.6 36.4,51.6 36.4,51.6 36.4,51.6 36.4,51.6 
			36.4,51.6 36.4,51.5 36.4,51.5 36.4,51.5 36.4,51.5 36.5,51.5 36.5,51.5 36.5,51.5 36.5,51.5 36.5,51.5 36.5,51.4 36.5,51.4 
			36.5,51.4 36.5,51.4 36.6,51.4 36.6,51.4 36.6,51.4 36.6,51.4 36.6,51.4 36.6,51.3 36.6,51.3 36.6,51.3 36.6,51.3 36.7,51.3 
			36.7,51.3 36.7,51.3 36.7,51.3 36.7,51.2 36.7,51.2 36.7,51.2 36.7,51.2 36.7,51.2 36.8,51.2 36.8,51.2 36.8,51.2 36.8,51.2 
			36.8,51.1 36.8,51.1 36.8,51.1 36.8,51.1 36.8,51.1 36.8,51.1 36.9,51.1 36.9,51.1 36.9,51 36.9,51 36.9,51 36.9,51 36.9,51 
			36.9,51 36.9,51 37,51 37,51 37,50.9 37,50.9 37,50.9 37,50.9 37,50.9 37,50.9 37,50.9 37,50.9 37.1,50.8 37.1,50.8 37.1,50.8 
			37.1,50.8 37.1,50.8 37.1,50.8 37.1,50.8 37.1,50.8 37.1,50.7 37.2,50.7 37.2,50.7 37.2,50.7 37.2,50.7 37.2,50.7 37.2,50.7 
			37.2,50.7 37.2,50.6 37.2,50.6 37.2,50.6 37.3,50.6 37.3,50.6 37.3,50.6 37.3,50.6 37.3,50.6 37.3,50.5 37.3,50.5 37.3,50.5 
			37.3,50.5 37.3,50.5 37.4,50.5 37.4,50.5 37.4,50.5 37.4,50.4 37.4,50.4 37.4,50.4 37.4,50.4 37.4,50.4 37.4,50.4 37.4,50.4 
			37.4,50.4 37.5,50.3 37.5,50.3 37.5,50.3 37.5,50.3 37.5,50.3 37.5,50.3 37.5,50.3 37.5,50.3 37.5,50.2 37.5,50.2 37.6,50.2 
			37.6,50.2 37.6,50.2 37.6,50.2 37.6,50.2 37.6,50.2 37.6,50.1 37.6,50.1 37.6,50.1 37.6,50.1 37.7,50.1 37.7,50.1 37.7,50.1 
			37.7,50.1 37.7,50 37.7,50 37.7,50 37.7,50 37.7,50 37.7,50 37.7,50 37.8,49.9 37.8,49.9 37.8,49.9 37.8,49.9 37.8,49.9 
			37.8,49.9 37.8,49.9 37.8,49.8 37.8,49.8 37.8,49.8 37.9,49.8 37.9,49.8 37.9,49.8 37.9,49.8 37.9,49.8 37.9,49.7 37.9,49.7 
			37.9,49.7 37.9,49.7 37.9,49.7 37.9,49.7 38,49.7 38,49.6 38,49.6 38,49.6 38,49.6 38,49.6 38,49.6 38,49.6 38,49.5 38,49.5 
			38,49.5 38.1,49.5 38.1,49.5 38.1,49.5 38.1,49.5 38.1,49.5 38.1,49.4 38.1,49.4 38.1,49.4 38.1,49.4 38.1,49.4 38.1,49.4 
			38.1,49.4 38.2,49.3 38.2,49.3 38.2,49.3 38.2,49.3 38.2,49.3 38.2,49.3 38.2,49.3 38.2,49.3 38.2,49.2 38.2,49.2 38.2,49.2 
			38.2,49.2 38.2,49.2 38.3,49.2 38.3,49.2 38.3,49.2 38.3,49.1 38.3,49.1 38.3,49.1 38.3,49.1 38.3,49.1 38.3,49.1 38.3,49.1 
			38.3,49.1 38.3,49 38.3,49 38.3,49 38.4,49 38.4,49 38.4,49 38.4,49 38.4,49 38.4,48.9 38.4,48.9 38.4,48.9 38.4,48.9 38.4,48.9 
			38.4,48.9 38.4,48.9 38.4,48.9 38.4,48.8 38.5,48.8 38.5,48.8 38.5,48.8 38.5,48.8 38.5,48.8 38.5,48.8 38.5,48.8 38.5,48.7 
			38.5,48.7 38.5,48.7 38.5,48.7 38.5,48.7 38.5,48.7 38.5,48.7 38.5,48.7 38.6,48.6 38.6,48.6 38.6,48.6 38.6,48.6 38.6,48.6 
			38.6,48.6 38.6,48.6 38.6,48.6 38.6,48.5 38.6,48.5 38.6,48.5 38.6,48.5 38.6,48.5 38.6,48.5 38.6,48.5 38.6,48.5 38.7,48.4 
			38.7,48.4 38.7,48.4 38.7,48.4 38.7,48.4 38.7,48.4 38.7,48.4 38.7,48.4 38.7,48.3 38.7,48.3 38.7,48.3 38.7,48.3 38.7,48.3 
			38.7,48.3 38.7,48.3 38.7,48.3 38.8,48.2 38.8,48.2 38.8,48.2 38.8,48.2 38.8,48.2 38.8,48.2 38.8,48.2 38.8,48.1 38.8,48.1 
			38.8,48.1 38.8,48.1 38.8,48.1 38.8,48.1 38.8,48.1 38.8,48.1 38.8,48 38.9,48 38.9,48 38.9,48 38.9,48 38.9,48 38.9,48 38.9,48 
			38.9,47.9 38.9,47.9 38.9,47.9 38.9,47.9 38.9,47.9 38.9,47.9 38.9,47.9 38.9,47.8 38.9,47.8 38.9,47.8 38.9,47.8 39,47.8 
			39,47.8 39,47.8 39,47.8 39,47.7 39,47.7 39,47.7 39,47.7 39,47.7 39,47.7 39,47.7 39,47.7 39,47.6 39,47.6 39,47.6 39,47.6 
			39,47.6 39,47.6 39,47.6 39.1,47.5 39.1,47.5 39.1,47.5 39.1,47.5 39.1,47.5 39.1,47.5 39.1,47.5 39.1,47.5 39.1,47.4 39.1,47.4 
			39.1,47.4 39.1,47.4 39.1,47.4 39.1,47.4 39.1,47.4 39.1,47.3 39.1,47.3 39.1,47.3 39.1,47.3 39.1,47.3 39.2,47.3 39.2,47.3 
			39.2,47.3 39.2,47.2 39.2,47.2 39.2,47.2 39.2,47.2 39.2,47.2 39.2,47.2 39.2,47.2 39.2,47.1 39.2,47.1 39.2,47.1 39.2,47.1 
			39.2,47.1 39.2,47.1 39.2,47.1 39.2,47.1 39.2,47 39.2,47 39.2,47 39.2,47 39.3,47 39.3,47 39.3,47 39.3,46.9 39.3,46.9 
			39.3,46.9 39.3,46.9 39.3,46.9 39.3,46.9 39.3,46.9 39.3,46.9 39.3,46.8 39.3,46.8 39.3,46.8 39.3,46.8 39.3,46.8 39.3,46.8 
			39.3,46.8 39.3,46.7 39.3,46.7 39.3,46.7 39.3,46.7 39.3,46.7 39.4,46.7 39.4,46.7 39.4,46.7 39.4,46.6 39.4,46.6 39.4,46.6 
			39.4,46.6 39.4,46.6 39.4,46.5 39.4,46.5 39.4,46.5 39.4,46.5 39.4,46.4 39.4,46.4 39.4,46.4 39.5,46.3 39.5,46.3 39.5,46.3 
			39.5,46.3 39.5,46.2 39.5,46.2 39.5,46.2 39.5,46.2 39.5,46.1 39.5,46.1 39.5,46.1 39.5,46 39.5,46 39.6,46 39.6,46 39.6,45.9 
			39.6,45.9 39.6,45.9 39.6,45.9 39.6,45.9 39.6,45.8 39.6,45.8 39.6,45.8 39.6,45.8 39.6,45.7 39.6,45.7 39.6,45.7 39.6,45.7 
			39.6,45.7 39.6,45.6 39.7,45.6 39.7,45.6 39.7,45.6 39.7,45.5 39.7,45.5 39.7,45.5 39.7,45.5 39.7,45.5 39.7,45.4 39.7,45.4 
			39.7,45.4 39.7,45.4 39.7,45.3 39.7,45.3 39.7,45.3 39.7,45.3 39.7,45.2 39.7,45.2 39.7,45.2 39.8,45.2 39.8,45.2 39.8,45.1 
			39.8,45.1 39.8,45.1 39.8,45.1 39.8,45 39.8,45 39.8,45 39.8,45 39.8,45 39.8,44.9 39.8,44.9 39.8,44.9 39.8,44.9 39.8,44.9 
			39.8,44.9 39.8,44.9 39.8,44.9 39.8,44.9 39.8,44.8 39.8,44.8 39.8,44.8 39.8,44.8 39.8,44.8 39.8,44.8 39.8,44.8 39.8,44.8 
			39.8,44.8 39.8,44.7 39.8,44.7 39.8,44.7 39.8,44.7 39.8,44.7 39.9,44.7 39.9,44.7 39.9,44.7 39.9,44.6 39.9,44.6 39.9,44.6 
			39.9,44.6 39.9,44.6 39.9,44.6 39.9,44.6 39.9,44.6 39.9,44.6 39.9,44.5 39.9,44.5 39.9,44.5 39.9,44.5 39.9,44.5 39.9,44.5 
			39.9,44.5 39.9,44.5 39.9,44.5 39.9,44.4 39.9,44.4 39.9,44.4 39.9,44.4 39.9,44.4 39.9,44.4 39.9,44.4 39.9,44.4 39.9,44.3 
			39.9,44.3 39.9,44.3 39.9,44.3 39.9,44.3 39.9,44.3 39.9,44.3 39.9,44.3 39.9,44.3 39.9,44.2 39.9,44.2 39.9,44.2 39.9,44.2 
			39.9,44.1 39.9,44.1 39.9,44.1 39.9,44.1 39.9,44.1 39.9,44 40,44 40,44 40,44 40,43.9 40,43.9 40,43.9 40,43.9 40,43.8 40,43.8 
			40,43.8 40,43.8 40,43.7 40,43.7 40,43.7 40,43.7 40,43.6 40,43.6 40,43.6 40,43.6 40,43.6 40,43.5 40,43.5 40,43.5 40,43.5 
			40,43.4 40,43.4 40,43.4 40,43.4 40,43.3 40,43.3 40,43.3 40,43.2 40,43.2 40,43.2 40,43.1 40,43.1 40.1,43 40.1,42.9 40.1,42.9 
			40.1,42.8 40.1,42.8 40.1,42.7 40.1,42.7 40.1,42.6 40.1,42.6 40.1,42.5 40.1,42.5 40.1,42.4 40.1,42.4 40.1,42.3 40.1,42.3 
			40.1,42.2 40.1,42.2 40.1,42.1 40.1,42 40.1,42 40.1,41.9 40.1,41.9 40.1,41.8 40.1,41.8 40.1,41.7 40.1,41.7 40.1,41.6 
			40.1,41.6 40.1,41.5 40.1,41.5 40.1,41.4 40.1,41.4 40.1,41.3 40.1,41.2 40.1,41.2 40.2,41.2 40.2,41.1 40.2,41.1 40.2,41.1 
			40.2,41 40.2,41 40.2,40.9 40.2,40.9 40.2,40.9 40.2,40.8 40.2,40.8 40.2,40.8 40.2,40.7 40.2,40.7 40.2,40.7 40.2,40.6 
			40.2,40.6 40.2,40.6 40.2,40.5 40.2,40.5 40.2,40.5 40.2,40.4 40.2,40.4 40.2,40.4 40.2,40.3 40.2,40.3 40.2,40.3 		"/>
		<path class="st2" d="M31.1,45"/>
		<rect x="15.4" y="12.8" class="st0" width="29.3" height="4.5"/>
		<g>
			<path d="M23.8,1.6h-1.3c-0.6,0-0.8,0.2-0.8,0.8v3.5c0,0.6,0.2,0.8,0.8,0.8h2.9v1.6h-3.3c-1.5,0-2.3-0.8-2.3-2.3V2.3
				c0-1.5,0.8-2.3,2.3-2.3h3.3v2.6H24L23.8,1.6z"/>
			<path d="M28.9,1.6h-1l-0.1,0.8h-1.3V0h6.7v2.4h-1.3l-0.1-0.8h-1v5.2L31.5,7v1.4h-3.3V7l0.7-0.1V1.6z"/>
		</g>
		<g>
			<path class="st3" d="M36,6.7h1.5c0.6,0,0.8-0.2,0.8-0.8V5.8C38.3,5.2,38,5,37.5,5h-0.9c-1.6,0-2.3-0.9-2.3-2.5V2.3
				c0-1.5,0.8-2.3,2.3-2.3h3.2v2.5h-1.5l-0.2-0.9h-1.2c-0.6,0-0.8,0.2-0.8,0.8v0.2c0,0.6,0.2,0.8,0.8,0.8h0.9c1.6,0,2.3,0.9,2.3,2.5
				V6c0,1.8-1.1,2.3-2.8,2.3h-3V5.8h1.4L36,6.7z"/>
		</g>
	</g>
</g>
</svg>
