<?xml version="1.0" standalone="no"?>
<!DOCTYPE svg PUBLIC "-//W3C//DTD SVG 20010904//EN"
 "http://www.w3.org/TR/2001/REC-SVG-20010904/DTD/svg10.dtd">
<svg version="1.0" xmlns="http://www.w3.org/2000/svg"
 width="700.000000pt" height="700.000000pt" viewBox="0 0 700.000000 700.000000"
 preserveAspectRatio="xMidYMid meet">
<metadata>
Created by potrace 1.11, written by Peter Selinger 2001-2013
</metadata>
<g transform="translate(0.000000,700.000000) scale(0.100000,-0.100000)"
fill="#000000" stroke="none">
<path d="M2467 6982 c-61 -20 -119 -77 -140 -139 -13 -40 -16 -95 -14 -343 l2
-295 28 -50 c15 -27 43 -60 61 -73 66 -45 110 -51 343 -49 l217 2 1 75 c1 118
20 108 -193 109 -207 2 -227 7 -237 63 -3 18 -5 135 -3 260 4 282 -3 270 142
271 52 0 99 -2 102 -6 3 -3 9 -27 11 -52 3 -25 10 -48 16 -52 12 -7 157 -10
158 -3 1 3 2 72 3 153 l1 148 -225 -2 c-174 -1 -236 -4 -273 -17z"/>
<path d="M3090 6860 l0 -140 75 0 c81 0 83 2 88 68 1 22 8 24 77 24 11 0 25 0
30 -1 6 -1 10 -112 10 -310 l0 -310 -37 -3 -38 -3 -3 -83 -3 -82 193 2 193 3
0 73 c0 40 -2 77 -5 81 -3 4 -21 12 -40 17 l-35 10 -1 302 c0 206 3 302 10
303 6 0 32 1 58 2 l47 2 6 -48 7 -48 76 3 75 3 1 125 c1 69 0 131 -2 138 -3 9
-91 12 -393 12 l-389 0 0 -140z"/>
<path d="M4198 6995 c-2 -3 -14 -6 -25 -8 -49 -7 -113 -61 -141 -117 -24 -50
-27 -65 -26 -160 1 -116 19 -174 68 -224 54 -53 99 -66 247 -71 123 -3 142
-15 145 -95 4 -79 -14 -94 -124 -100 -131 -7 -142 -4 -160 50 -8 25 -18 47
-23 50 -4 3 -41 5 -81 5 l-73 -1 -2 -148 -2 -148 237 4 c254 5 291 12 358 63
17 13 42 46 55 72 20 41 24 62 23 148 -1 109 -19 166 -66 217 -51 53 -103 69
-245 72 -49 2 -98 6 -109 10 -30 9 -48 57 -41 112 7 68 27 83 117 85 122 3
117 5 126 -48 l9 -48 88 -3 c48 -1 87 1 88 5 4 27 4 260 1 271 -3 10 -53 12
-222 12 -120 -1 -220 -3 -222 -5z"/>
<path d="M1803 5501 c-5 -3 -8 -121 -8 -261 l1 -255 1709 0 1710 0 1 250 c0
138 -1 255 -3 261 -4 11 -3395 16 -3410 5z"/>
<path d="M1820 4322 l0 -297 483 0 482 0 3 -1092 2 -1091 53 5 c28 3 97 13
152 24 154 29 242 81 266 156 9 28 13 292 15 1038 2 550 5 1056 8 1125 3 69 8
194 12 278 l6 152 -741 0 -741 0 0 -298z"/>
<path d="M3721 3372 c0 -1127 -5 -1389 -31 -1457 -5 -14 -7 -25 -4 -25 4 0 1
-7 -6 -15 -7 -9 -10 -18 -7 -22 4 -3 0 -18 -7 -32 -7 -14 -20 -39 -27 -56 -17
-37 -177 -198 -190 -190 -5 4 -9 1 -9 -5 0 -6 -17 -18 -37 -27 -21 -8 -41 -20
-45 -27 -4 -6 -8 -7 -8 -2 0 4 -11 1 -25 -8 -14 -9 -30 -14 -35 -11 -6 3 -10
2 -10 -4 0 -5 -31 -17 -70 -27 -38 -10 -70 -21 -70 -25 0 -4 -13 -5 -30 -4
-16 1 -30 -1 -30 -6 0 -5 -3 -8 -7 -7 -18 5 -93 -13 -93 -23 0 -13 166 -179
210 -209 19 -13 37 -27 40 -30 17 -21 241 -142 266 -144 15 -1 137 55 145 67
3 5 9 8 13 8 3 -1 31 14 61 34 30 19 56 34 58 33 3 -4 62 50 159 144 49 49 87
88 83 88 -3 0 4 10 15 23 20 21 51 71 50 82 0 3 9 14 19 24 11 11 24 35 29 53
6 18 17 49 26 69 8 20 12 39 9 43 -4 3 -1 6 6 6 7 0 10 10 7 24 -2 14 0 26 5
28 12 4 41 150 41 206 -1 23 3 42 7 42 10 0 11 92 14 1102 2 499 6 911 10 915
4 3 220 7 479 7 l472 1 0 260 0 260 -741 2 -742 2 0 -1167z"/>
<path d="M1799 3553 c-6 -90 -2 -1543 4 -1543 4 0 7 -33 8 -72 0 -64 16 -194
35 -283 3 -16 6 -38 6 -47 -1 -10 3 -18 8 -18 5 0 8 -13 6 -30 -2 -16 0 -31 3
-32 6 -2 32 -87 54 -173 1 -5 6 -16 10 -22 5 -7 5 -13 0 -13 -4 0 -3 -4 2 -8
6 -4 19 -33 28 -64 10 -32 22 -58 28 -58 5 0 8 -3 7 -7 -4 -14 55 -133 65
-133 6 0 8 -3 4 -6 -3 -3 10 -30 29 -59 19 -30 34 -58 34 -63 0 -6 7 -12 15
-16 8 -3 15 -11 15 -17 0 -38 281 -339 410 -438 36 -28 72 -57 81 -66 9 -8 21
-15 27 -15 7 0 12 -4 12 -10 0 -5 5 -10 11 -10 6 0 36 -18 66 -40 31 -22 62
-40 70 -40 7 0 13 -4 13 -10 0 -5 6 -10 14 -10 8 0 16 -3 18 -7 2 -5 53 -31
113 -59 155 -73 192 -89 255 -109 30 -10 60 -22 66 -26 6 -5 14 -6 17 -2 4 3
13 0 22 -7 8 -7 15 -10 15 -6 0 3 17 -1 38 -10 40 -18 140 -23 163 -8 8 4 19
10 24 11 6 1 19 4 30 7 11 2 21 5 23 6 1 2 7 4 12 5 6 1 11 3 13 4 6 4 144 52
161 56 10 2 23 8 30 13 6 5 35 17 64 27 28 11 52 23 52 28 0 4 5 5 10 2 6 -3
10 -2 10 2 0 5 23 17 50 28 28 11 50 23 50 28 0 4 4 6 9 3 5 -3 14 1 21 9 6 8
32 24 56 36 25 11 50 26 57 33 7 6 30 23 52 36 22 13 46 32 53 42 7 10 19 18
27 18 8 0 20 9 28 20 8 11 16 18 19 15 3 -3 73 60 155 139 83 80 149 147 147
149 -2 2 7 14 21 27 14 13 25 29 25 37 0 7 4 13 10 13 5 0 22 19 37 43 15 23
32 45 36 48 5 3 14 17 21 30 8 13 37 65 65 114 28 50 51 98 51 108 0 9 5 17
11 17 5 0 8 4 5 9 -4 5 -2 11 3 13 18 7 121 318 124 376 0 12 4 22 8 22 4 0 8
8 7 18 0 9 3 28 6 42 15 58 25 136 32 242 4 62 10 118 13 123 5 8 7 1485 2
1543 -1 9 -59 12 -256 12 l-254 0 -4 -702 c-4 -666 -7 -820 -21 -948 -15 -143
-25 -191 -72 -355 -3 -11 -6 -26 -6 -32 -1 -7 -5 -13 -9 -13 -4 0 -10 -16 -13
-35 -8 -42 -114 -255 -127 -255 -5 0 -8 -3 -7 -7 3 -9 -28 -58 -52 -84 -8 -9
-24 -29 -35 -43 -29 -39 -175 -186 -218 -220 -78 -62 -152 -116 -160 -116 -4
0 -17 -9 -29 -20 -12 -10 -25 -17 -30 -14 -4 3 -8 1 -8 -4 0 -5 -19 -17 -42
-28 -24 -10 -49 -24 -56 -31 -8 -7 -18 -11 -23 -8 -5 4 -9 1 -9 -4 0 -6 -4
-11 -9 -11 -5 0 -30 -10 -57 -22 -27 -12 -52 -21 -56 -20 -5 1 -8 -2 -8 -8 0
-5 -7 -7 -15 -4 -8 4 -15 2 -15 -3 0 -10 -79 -33 -115 -33 -14 0 -47 8 -74 19
-28 10 -52 16 -55 13 -4 -3 -6 0 -6 6 0 7 -3 11 -7 10 -5 -1 -30 8 -57 20 -27
12 -52 22 -57 22 -5 0 -9 5 -9 10 0 6 -3 9 -7 8 -5 -1 -18 3 -30 10 -13 7 -23
10 -23 7 0 -3 -6 -1 -12 5 -24 19 -88 59 -88 54 0 -2 -25 14 -55 36 -30 22
-55 38 -55 34 0 -4 -9 5 -21 20 -11 14 -25 26 -30 26 -12 0 -34 20 -155 136
-46 45 -84 86 -84 92 0 6 -11 19 -25 28 -14 9 -23 20 -20 24 3 5 1 10 -3 12
-12 4 -72 95 -72 107 0 6 -4 11 -10 11 -5 0 -12 11 -16 25 -3 14 -10 25 -15
25 -5 0 -9 6 -9 13 0 6 -14 39 -30 72 -17 33 -30 65 -30 72 0 7 -4 13 -8 13
-4 0 -9 9 -10 20 -4 42 -6 50 -12 50 -4 0 -7 6 -7 13 -1 14 -33 145 -41 167
-3 8 -7 26 -9 40 -2 14 -6 41 -8 60 -24 163 -29 308 -32 1048 l-3 692 -255 0
c-236 0 -255 -1 -256 -17z"/>
</g>
</svg>
